<svg width="1419" height="946" viewBox="0 0 1419 946" fill="none" xmlns="http://www.w3.org/2000/svg">
    <g opacity="0.5" clip-path="url(#clip0_52_611)">
        <path d="M-562.822 940.276C-674.288 652.211 -344.187 765.045 -227.525 790.22C-110.847 815.379 -335.331 555.76 -283.454 478.942C-231.576 402.125 -189.945 517.883 -118.257 447.278C-46.5694 376.673 -114.413 241.582 93.2467 270.684C300.907 299.786 164.912 -68.1561 187.518 -90.3149C210.108 -112.458 338.977 -46.227 317.997 -110.958C297.018 -175.69 402.115 -154.534 473.208 -171.335C544.284 -188.119 517.54 -382.393 620.39 -365.589C723.24 -348.785 853.911 -208.235 848.732 -223.34" stroke="url(#paint0_linear_52_611)" stroke-width="0.75" stroke-miterlimit="10"/>
        <path d="M-576.156 910.405C-681.753 637.519 -363.015 751.983 -247.017 776.952C-131.045 801.893 -344.039 546.153 -290.986 472.869C-237.934 399.585 -192.678 510.39 -125.982 440.116C-59.329 369.83 -116.298 246.228 81.1676 272.53C278.634 298.833 143.445 -69.0419 176.505 -87.7514C209.566 -106.461 327.826 -51.4439 312.29 -116.201C296.738 -180.943 398.03 -154.606 468.314 -174.498C538.597 -194.391 501.286 -392.642 604.981 -375.065C708.675 -357.487 850.54 -217.659 840.166 -247.852" stroke="url(#paint1_linear_52_611)" stroke-width="0.75" stroke-miterlimit="10"/>
        <path d="M-589.517 880.509C-689.256 622.758 -381.828 738.906 -266.551 763.672C-151.259 788.423 -352.79 536.535 -298.562 466.784C-244.35 397.049 -195.427 502.912 -133.766 432.958C-72.1048 363.004 -118.2 250.889 69.0458 274.365C256.291 297.841 121.962 -69.9122 165.477 -85.1722C208.992 -100.432 316.633 -56.6725 306.524 -121.44C296.4 -186.192 393.871 -154.658 463.361 -177.658C532.878 -200.632 485.001 -402.861 589.513 -384.537C694.025 -366.213 847.095 -227.063 831.542 -272.361" stroke="url(#paint2_linear_52_611)" stroke-width="0.75" stroke-miterlimit="10"/>
        <path d="M-602.852 850.639C-696.721 608.067 -400.657 725.844 -286.043 750.405C-171.457 774.937 -361.483 526.912 -306.096 460.711C-250.682 394.538 -198.16 495.419 -141.517 425.769C-84.8752 356.119 -120.111 255.507 56.9399 276.184C233.991 296.861 100.468 -70.8253 154.454 -82.6515C208.397 -94.4896 305.487 -61.9477 300.79 -126.71C296.093 -191.472 389.743 -154.741 458.467 -180.822C527.191 -206.904 468.774 -413.084 574.147 -394.001C679.503 -374.903 843.767 -236.474 822.992 -296.889" stroke="url(#paint3_linear_52_611)" stroke-width="0.75" stroke-miterlimit="10"/>
        <path d="M-616.213 820.741C-704.198 593.333 -419.469 712.767 -305.562 737.109C-191.655 761.452 -370.218 517.278 -313.629 454.638C-257.039 391.998 -200.866 487.954 -149.258 418.623C-97.6349 349.276 -122.013 260.168 44.8446 278.046C211.702 295.924 79.0121 -71.6684 143.426 -80.0725C207.839 -88.4767 294.293 -67.1765 295.024 -131.949C295.771 -196.737 385.557 -154.82 453.514 -183.982C521.456 -213.129 452.489 -423.303 558.679 -403.473C664.869 -383.644 840.311 -245.921 814.368 -321.398" stroke="url(#paint4_linear_52_611)" stroke-width="0.75" stroke-miterlimit="10"/>
        <path d="M-629.547 790.872C-711.69 578.615 -438.298 699.705 -325.07 723.857C-211.869 747.982 -378.953 507.644 -321.178 448.581C-263.403 389.517 -203.615 480.476 -156.999 411.477C-110.384 342.477 -123.898 264.814 32.7652 279.892C189.402 294.944 57.5717 -72.5267 132.429 -77.5243C207.297 -82.4791 283.132 -72.436 289.317 -137.191C295.517 -201.962 381.471 -154.891 448.647 -187.119C515.796 -219.373 436.289 -433.498 543.296 -412.922C650.33 -392.318 836.951 -255.302 805.829 -345.883" stroke="url(#paint5_linear_52_611)" stroke-width="0.75" stroke-miterlimit="10"/>
        <path d="M-642.924 760.99C-719.181 563.896 -457.127 686.643 -344.604 710.578C-232.082 734.512 -387.704 498.026 -328.753 442.496C-269.803 386.966 -206.405 472.987 -164.767 404.303C-123.17 335.607 -125.826 269.447 20.6169 281.7C167.059 293.952 36.0517 -73.4673 121.374 -74.9727C206.671 -76.5055 271.939 -77.6648 283.567 -142.446C295.195 -207.227 377.328 -154.959 443.71 -190.294C510.093 -225.63 420.009 -443.776 527.887 -422.398C635.739 -401.047 833.58 -264.725 797.279 -370.411" stroke="url(#paint6_linear_52_611)" stroke-width="0.75" stroke-miterlimit="10"/>
        <path d="M-656.258 731.12C-726.673 549.178 -475.929 673.609 -364.112 697.325C-252.296 721.042 -396.412 488.419 -336.276 436.466C-276.166 384.485 -209.101 465.564 -172.523 397.172C-135.919 328.808 -127.743 274.124 8.50574 283.577C144.754 293.03 14.5795 -74.2948 110.33 -72.3783C206.097 -70.4772 260.729 -82.8781 277.785 -147.67C294.841 -212.461 373.152 -154.995 438.769 -193.411C504.358 -231.855 403.735 -453.952 512.43 -431.827C621.126 -409.703 830.145 -274.087 788.665 -394.878" stroke="url(#paint7_linear_52_611)" stroke-width="0.75" stroke-miterlimit="10"/>
        <path d="M-669.592 701.25C-734.123 534.471 -494.742 660.532 -383.605 684.058C-272.467 707.583 -405.12 478.812 -343.809 430.393C-282.498 381.973 -211.834 458.071 -180.248 390.011C-148.663 321.95 -129.601 278.797 -3.57357 285.423C122.454 292.05 -6.8874 -75.1806 99.3337 -69.8301C205.555 -64.4797 249.594 -88.1105 272.078 -152.912C294.561 -217.714 369.051 -155.051 433.874 -196.575C498.682 -238.084 387.508 -464.174 497.021 -441.303C606.534 -418.432 826.774 -283.51 780.099 -419.39" stroke="url(#paint8_linear_52_611)" stroke-width="0.75" stroke-miterlimit="10"/>
        <path d="M-682.953 671.353C-741.615 519.753 -513.555 647.455 -403.139 670.778C-292.708 694.086 -413.871 469.194 -351.385 424.308C-288.898 379.422 -214.609 450.566 -188.032 382.853C-161.455 315.139 -131.529 283.431 -15.6954 287.258C100.138 291.085 -28.3703 -76.0508 88.3054 -67.251C204.997 -58.4666 238.401 -93.3391 266.338 -158.124C294.25 -222.936 364.934 -155.091 428.975 -199.68C493.016 -244.27 371.276 -474.339 481.649 -450.709C592.022 -427.079 823.441 -292.863 771.571 -443.832" stroke="url(#paint9_linear_52_611)" stroke-width="0.75" stroke-miterlimit="10"/>
        <path d="M-696.288 641.484C-749.091 505.019 -532.383 634.393 -422.631 657.51C-312.879 680.628 -422.564 459.572 -358.918 418.235C-295.272 376.898 -217.315 443.1 -195.757 375.691C-174.199 308.282 -133.414 288.076 -27.7747 289.104C77.8649 290.132 -49.8106 -76.9092 77.2931 -64.6874C204.413 -52.481 227.25 -98.5559 260.589 -163.378C293.927 -228.2 360.79 -155.158 424.038 -202.856C487.287 -250.553 355.006 -484.573 466.197 -460.197C577.388 -435.82 820.012 -302.283 762.936 -468.384" stroke="url(#paint10_linear_52_611)" stroke-width="0.75" stroke-miterlimit="10"/>
        <path d="M-709.664 611.602C-756.599 490.316 -551.212 621.331 -442.181 644.246C-333.135 667.146 -431.33 449.969 -366.483 412.193C-301.635 374.417 -220.08 435.638 -203.556 368.548C-187.017 301.443 -135.374 292.741 -39.9282 290.97C55.5172 289.199 -71.3517 -77.776 66.2225 -62.1203C203.797 -46.4646 216.014 -103.797 254.823 -168.617C293.631 -233.438 356.631 -155.211 419.086 -206.016C481.542 -256.822 338.721 -494.792 450.73 -469.669C562.765 -444.518 816.582 -311.702 754.312 -492.893" stroke="url(#paint11_linear_52_611)" stroke-width="0.75" stroke-miterlimit="10"/>
        <path d="M-722.999 581.732C-764.049 475.609 -570.041 608.269 -461.674 630.978C-353.306 653.688 -440.023 440.347 -374.016 406.12C-308.009 371.893 -222.813 428.145 -211.281 361.386C-199.75 294.628 -137.243 297.371 -52.0183 292.773C33.2066 288.176 -92.8028 -78.6772 55.1994 -59.5995C203.244 -40.5099 204.826 -109.084 249.062 -173.914C293.298 -238.745 352.476 -155.321 414.165 -209.207C475.854 -263.093 322.441 -505.069 435.336 -479.16C548.189 -453.263 813.185 -321.153 745.777 -517.436" stroke="url(#paint12_linear_52_611)" stroke-width="0.75" stroke-miterlimit="10"/>
        <path d="M-736.359 551.835C-771.567 460.863 -588.853 595.192 -481.208 617.699C-373.547 640.19 -448.774 430.728 -381.592 400.035C-314.41 369.342 -225.577 420.683 -219.049 354.213C-212.536 287.758 -139.171 302.005 -64.14 294.608C10.8908 287.211 -114.312 -79.5749 44.1871 -57.0359C202.66 -34.5243 193.675 -114.3 243.339 -179.141C293.003 -243.982 348.375 -155.376 409.255 -212.355C470.136 -269.334 306.199 -515.277 419.911 -488.62C533.624 -461.964 809.798 -330.561 737.196 -541.933" stroke="url(#paint13_linear_52_611)" stroke-width="0.75" stroke-miterlimit="10"/>
        <path d="M-749.694 521.965C-779.017 446.157 -607.682 582.13 -500.7 604.431C-393.718 626.732 -457.466 421.106 -389.125 393.962C-320.757 366.845 -228.31 413.19 -226.79 347.067C-225.269 280.943 -141.045 306.693 -76.2352 296.47C-11.3986 286.274 -135.768 -80.418 33.1588 -54.457C202.086 -28.4959 182.482 -119.529 237.6 -184.353C292.691 -249.204 344.242 -155.401 404.356 -215.461C464.47 -275.52 289.966 -525.441 404.497 -498.038C519.027 -470.635 806.422 -339.926 728.625 -566.388" stroke="url(#paint14_linear_52_611)" stroke-width="0.75" stroke-miterlimit="10"/>
        <path d="M-763.055 492.068C-786.535 431.411 -626.495 569.053 -520.235 591.151C-413.958 613.234 -466.217 411.487 -396.674 387.904C-327.131 364.321 -231.058 405.713 -234.557 339.893C-238.056 274.074 -142.957 311.311 -88.3411 298.289C-33.7251 285.266 -157.235 -81.3038 22.1198 -51.9207C201.517 -22.5258 171.304 -124.773 231.823 -189.635C292.369 -254.469 340.072 -155.496 399.393 -218.664C458.714 -281.831 273.671 -535.703 389.061 -507.541C504.436 -479.364 803.009 -349.361 720.032 -590.928" stroke="url(#paint15_linear_52_611)" stroke-width="0.75" stroke-miterlimit="10"/>
        <path d="M-776.405 462.213C-794.001 416.72 -645.339 556.007 -539.742 577.899C-434.145 599.792 -474.926 401.881 -404.223 381.847C-333.505 361.797 -233.78 398.262 -242.314 332.762C-250.847 267.263 -144.874 315.988 -100.452 300.166C-56.0302 284.344 -178.734 -82.1586 11.0916 -49.3417C200.917 -16.5248 160.111 -130.002 226.084 -194.847C292.057 -259.691 335.939 -155.521 394.493 -221.769C453.048 -288.017 257.455 -545.883 373.647 -516.959C489.839 -488.035 799.633 -358.726 711.435 -615.409" stroke="url(#paint16_linear_52_611)" stroke-width="0.75" stroke-miterlimit="10"/>
        <path d="M-789.739 432.344C-801.466 402.029 -664.126 542.957 -559.25 564.647C-454.359 586.321 -483.676 392.262 -411.772 375.789C-339.868 359.316 -236.529 390.785 -250.055 325.616C-263.58 260.448 -146.775 320.649 -112.547 302.028C-78.3196 283.407 -200.19 -83.0015 0.0898456 -46.7353C200.37 -10.469 148.971 -135.176 220.387 -200.046C291.804 -264.916 331.864 -155.549 389.61 -224.89C447.372 -294.246 241.212 -556.09 358.248 -526.392C475.3 -496.71 796.272 -368.106 702.879 -639.879" stroke="url(#paint17_linear_52_611)" stroke-width="0.75" stroke-miterlimit="10"/>
        <path d="M-803.1 402.447C-808.969 387.268 -682.981 529.868 -578.769 551.352C-474.557 572.836 -492.411 382.628 -419.305 369.717C-346.226 356.777 -239.262 383.292 -257.796 318.47C-276.34 253.606 -148.661 325.295 -124.669 303.863C-100.662 282.415 -221.7 -83.8991 -10.9491 -44.1989C199.802 -4.49874 137.767 -140.448 214.611 -205.328C291.455 -270.208 327.694 -155.644 384.647 -228.093C441.627 -300.514 224.916 -566.351 342.812 -535.895C460.682 -505.466 792.859 -377.541 694.287 -664.419" stroke="url(#paint18_linear_52_611)" stroke-width="0.75" stroke-miterlimit="10"/>
        <path d="M-816.434 372.577C-816.434 372.577 -701.767 516.818 -598.277 538.1C-494.771 559.366 -501.119 373.021 -426.854 363.659C-352.589 354.296 -242 375.857 -265.563 311.296C-289.1 246.763 -150.588 329.928 -136.775 305.681C-122.962 281.435 -243.166 -84.7852 -21.9877 -41.663C199.191 1.45923 126.563 -145.719 208.861 -210.583C291.133 -275.473 323.55 -155.711 379.737 -231.241C435.924 -306.77 208.673 -576.559 327.388 -545.356C446.102 -514.153 789.473 -386.949 685.721 -688.931" stroke="url(#paint19_linear_52_611)" stroke-width="0.75" stroke-miterlimit="10"/>
        <path d="M670.828 -689.665C699.259 -606.883 688.156 -557.06 663.238 -525.698C636.91 -492.861 582.175 -490.559 526.771 -495.31C450.042 -501.883 367.173 -524.804 318.768 -535.713C305.401 -538.725 296.419 -538.08 290.729 -534.521C271.829 -522.706 289.624 -480.859 313.676 -428.301C338.537 -374.083 364.933 -317.266 367.211 -271.989C368.024 -256.099 365.839 -242.024 358.44 -231.442C305.151 -155.06 275.334 -266.351 193.639 -203.508C156.575 -175.015 148.165 -134.606 134.6 -97.2148C121.067 -59.8543 101.397 -28.434 34.2984 -27.7284C15.3312 -27.535 -7.15584 -30.299 -33.7408 -35.7247C-44.9213 -38.0442 -55.1725 -39.2475 -64.5952 -39.3427C-120.999 -39.9364 -149.693 -6.44951 -162.966 36.556C-191.117 127.789 -144.213 285.068 -152.98 303.247C-163.734 325.585 -264.225 270.317 -277.095 294.231C-279.24 298.227 -278.991 304.466 -275.663 313.559C-252.249 377.52 -362.614 357.495 -436.77 364.679C-446.197 365.598 -454.37 369.176 -461.614 374.668C-511.611 412.369 -521.474 551.559 -607.362 536.03C-705.969 517.869 -818.487 387.106 -824.919 385.541" stroke="url(#paint20_linear_52_611)" stroke-width="0.75" stroke-miterlimit="10"/>
        <path d="M655.908 -690.426C683.377 -610.481 667.8 -561.893 645.007 -527.866C621.148 -492.167 563.036 -492.802 508.784 -496.335C434.312 -501.219 357.342 -517.332 310.063 -526.094C297.105 -528.494 288.224 -527.681 282.285 -524.252C261.756 -512.396 277.639 -473.473 300.407 -421.475C323.973 -367.859 344.691 -317.908 345.792 -272.602C346.181 -256.99 344.229 -242.612 337.074 -231.682C286.63 -154.503 259.414 -257.323 178.349 -196.472C140.414 -167.985 129.815 -131.613 117.1 -93.9831C104.416 -56.3844 87.6701 -23.4475 22.1958 -21.6097C3.21291 -21.0824 -19.2053 -24.1256 -45.5782 -29.8102C-56.7217 -32.2189 -67.0049 -33.5505 -76.348 -33.5636C-131.367 -33.5898 -160.978 -0.698776 -175.942 38.2107C-208.078 121.838 -160.612 279.952 -169.228 300.8C-179.046 324.515 -276.337 272.354 -287.646 296.506C-289.547 300.531 -289.086 306.829 -285.806 315.809C-262.514 379.199 -372.682 360.681 -446.728 365.688C-456.187 366.319 -464.392 369.451 -471.71 374.324C-522.061 407.747 -535.007 546.689 -616.542 533.893C-710.122 519.192 -820.662 401.541 -833.499 398.439" stroke="url(#paint21_linear_52_611)" stroke-width="0.75" stroke-miterlimit="10"/>
        <path d="M641.015 -691.16C667.495 -614.08 647.391 -566.78 626.828 -529.979C605.317 -491.512 543.977 -494.963 490.84 -497.347C418.64 -500.56 347.581 -509.821 301.428 -516.435C288.895 -518.239 280.11 -517.2 273.936 -513.916C251.752 -502.047 265.723 -466.049 287.233 -414.582C309.504 -361.568 324.572 -318.455 324.469 -273.149C324.433 -257.816 322.688 -243.16 315.804 -231.856C268.167 -153.949 243.578 -248.271 163.154 -189.37C124.323 -160.915 111.519 -128.564 99.7212 -90.6575C87.9292 -52.8089 74.0867 -18.2816 10.1995 -15.3818C-8.7566 -14.5086 -31.1592 -17.8858 -57.3094 -23.7866C-68.4583 -26.2963 -78.6885 -27.7323 -87.9678 -27.648C-141.612 -27.1493 -172.105 5.05672 -188.812 39.9747C-224.97 115.768 -176.956 274.89 -185.395 298.435C-194.359 323.444 -288.357 274.515 -298.143 298.836C-299.79 302.932 -299.144 309.262 -295.869 318.141C-272.699 380.959 -382.686 363.966 -456.579 366.806C-466.086 367.164 -474.297 369.877 -481.674 374.117C-532.368 403.304 -548.482 541.815 -625.605 531.908C-714.174 520.523 -822.72 416.129 -841.961 411.489" stroke="url(#paint22_linear_52_611)" stroke-width="0.75" stroke-miterlimit="10"/>
        <path d="M626.095 -691.921C651.586 -617.705 626.966 -571.653 608.623 -532.119C589.502 -490.873 524.923 -497.182 472.896 -498.359C402.957 -499.943 337.851 -502.34 292.766 -506.804C280.658 -508.011 271.958 -506.789 265.562 -503.608C241.722 -491.725 253.807 -458.624 274.033 -407.716C294.982 -355.332 304.416 -319.073 303.119 -273.724C302.685 -258.641 301.12 -243.736 294.481 -232.085C249.571 -153.532 227.621 -239.313 147.906 -182.322C108.178 -153.9 93.2113 -125.559 82.2524 -87.4567C71.3094 -49.3699 60.4394 -13.213 -1.87134 -9.29387C-20.8272 -8.10223 -43.2034 -11.7705 -69.1151 -17.9029C-80.28 -20.5564 -90.489 -22.0662 -99.6887 -21.8998C-151.974 -20.8609 -183.29 10.4973 -201.756 41.5985C-241.916 109.324 -193.429 269.633 -201.638 295.929C-209.815 322.194 -300.468 276.551 -308.689 301.053C-310.081 305.22 -309.233 311.567 -306.006 320.333C-282.985 382.552 -392.748 367.094 -466.531 367.756C-476.044 367.854 -484.314 370.093 -491.739 373.742C-542.818 398.682 -562.014 536.786 -634.754 529.741C-718.338 521.644 -824.837 430.561 -850.509 424.356" stroke="url(#paint23_linear_52_611)" stroke-width="0.75" stroke-miterlimit="10"/>
        <path d="M611.202 -692.655C635.731 -621.276 606.558 -576.54 590.445 -534.231C573.686 -490.233 505.853 -499.385 454.962 -499.329C387.311 -499.256 328.147 -494.832 284.141 -497.103C272.458 -497.713 263.843 -496.308 257.224 -493.229C231.703 -481.361 241.886 -451.141 260.87 -400.78C280.524 -348.998 284.35 -319.566 281.806 -274.228C280.963 -259.439 279.606 -244.257 273.206 -232.2C230.997 -153.03 211.684 -230.269 132.748 -175.15C92.081 -146.772 74.9944 -122.429 64.9112 -84.061C54.8332 -45.7515 46.9036 -7.93403 -13.8146 -3.01111C-32.7596 -1.4582 -55.1043 -5.47583 -80.8198 -11.8518C-91.9742 -14.6217 -102.146 -16.2206 -111.298 -15.9413C-162.235 -14.405 -206.595 6.34974 -214.589 43.4327C-231.893 123.817 -209.843 264.533 -217.758 293.677C-225.228 321.116 -312.43 278.869 -319.113 303.523C-320.25 307.761 -319.216 314.141 -316.021 322.779C-293.123 384.426 -402.73 370.464 -476.335 368.987C-485.88 368.798 -494.198 370.604 -501.682 373.62C-553.119 394.34 -575.425 532.01 -643.78 527.826C-722.353 523.045 -826.858 445.218 -858.92 437.461" stroke="url(#paint24_linear_52_611)" stroke-width="0.75" stroke-miterlimit="10"/>
        <path d="M596.298 -693.431C619.838 -624.917 586.138 -581.471 572.229 -536.414C557.834 -489.664 486.762 -501.675 436.981 -500.411C371.581 -498.751 318.412 -487.453 275.458 -487.558C264.216 -487.586 255.627 -485.995 248.801 -483.033C221.571 -471.206 229.922 -443.829 247.622 -394.028C265.981 -342.847 264.189 -320.285 260.393 -274.9C259.167 -260.377 257.975 -244.93 251.819 -232.526C212.247 -152.835 195.61 -221.463 117.436 -168.2C75.8726 -139.855 56.597 -119.548 47.4052 -80.9302C38.2188 -42.3708 33.2297 -2.89285 -25.8961 3.03389C-44.8567 4.92074 -67.1433 0.58113 -92.6362 -6.01097C-103.78 -8.89738 -113.941 -10.6128 -123.03 -10.236C-172.577 -8.19033 -220.059 9.06181 -227.528 44.9982C-243.487 121.899 -226.405 259.152 -233.995 291.114C-240.785 319.698 -324.526 280.89 -329.653 305.682C-330.536 309.991 -329.3 316.388 -326.153 324.913C-303.393 386.004 -412.814 373.507 -486.283 369.879C-495.875 369.418 -504.225 370.778 -511.741 373.187C-563.58 389.675 -588.937 526.908 -652.923 525.6C-726.47 524.12 -828.995 459.565 -867.462 450.269" stroke="url(#paint25_linear_52_611)" stroke-width="0.75" stroke-miterlimit="10"/>
        <path d="M581.405 -694.165C603.955 -628.516 565.702 -586.386 554.051 -538.527C541.976 -489.036 467.724 -503.909 419.047 -501.381C355.914 -498.15 308.714 -480.003 266.833 -477.857C256.032 -477.304 247.512 -475.514 240.463 -472.655C211.525 -460.869 217.916 -436.37 234.459 -387.092C251.438 -336.538 244.154 -320.808 239.08 -275.404C237.499 -261.121 236.46 -245.451 230.56 -232.658C193.529 -152.512 179.61 -212.517 102.252 -161.055C59.7384 -132.797 38.3376 -116.43 30.0108 -77.5894C21.6734 -38.7918 19.6886 2.44411 -37.8926 9.26175C-56.8423 11.5099 -79.0973 6.82093 -104.368 0.012658C-115.501 -2.99021 -125.668 -4.8066 -134.65 -4.32045C-182.875 -1.80466 -208.648 35.168 -240.372 46.7894C-274.059 106.16 -242.883 253.953 -250.136 288.776C-256.315 318.467 -336.472 283.191 -340.125 308.039C-340.753 312.42 -339.331 318.848 -336.189 327.272C-313.579 387.764 -422.844 376.764 -496.134 370.997C-505.759 370.248 -514.13 371.204 -521.705 372.98C-574.003 385.24 -602.353 522.031 -661.96 523.643C-730.48 525.463 -831 474.207 -875.899 463.347" stroke="url(#paint26_linear_52_611)" stroke-width="0.75" stroke-miterlimit="10"/>
        <path d="M566.485 -694.926C588.073 -632.114 545.267 -591.301 535.862 -540.683C526.15 -488.439 448.675 -506.186 401.093 -502.436C340.242 -497.649 299.01 -472.654 258.161 -468.269C247.773 -467.162 239.323 -465.173 232.078 -462.389C201.405 -450.672 205.963 -429.015 221.248 -380.269C236.916 -330.301 224.099 -321.418 217.719 -276.021C215.756 -262.004 214.856 -246.097 209.226 -232.929C174.727 -152.372 163.509 -203.738 86.9929 -154.05C43.5406 -125.837 20.0199 -113.467 12.5422 -74.3885C5.09631 -35.3409 6.07333 7.64111 -49.9792 15.3651C-68.9181 17.9745 -91.1415 12.9361 -116.189 5.91163C-127.338 2.76495 -137.468 0.859513 -146.386 1.44314C-193.248 4.44093 -218.745 41.8891 -253.332 48.4287C-288.355 102.191 -259.52 248.591 -266.41 286.302C-272.005 317.072 -348.551 285.356 -350.702 310.286C-351.075 314.739 -349.452 321.184 -346.358 329.495C-323.87 389.416 -433.018 379.841 -506.092 372.005C-515.749 370.969 -524.168 371.493 -531.786 372.621C-584.544 380.652 -615.86 517.029 -671.124 521.491C-734.575 526.623 -833.159 488.627 -884.463 476.229" stroke="url(#paint27_linear_52_611)" stroke-width="0.75" stroke-miterlimit="10"/>
        <path d="M551.592 -695.66C572.191 -635.712 524.832 -596.216 517.657 -542.823C510.281 -487.855 429.611 -508.448 383.149 -503.448C324.554 -497.133 289.291 -465.29 249.525 -458.61C239.552 -456.95 231.155 -454.747 223.703 -452.081C191.268 -440.46 194.02 -421.618 208.047 -373.403C222.421 -324.038 204.054 -321.984 196.369 -276.595C194.05 -262.817 193.278 -246.715 187.929 -233.13C155.892 -152.201 147.434 -194.932 71.7713 -146.975C27.3693 -118.849 1.71273 -110.461 -4.87343 -71.1329C-11.4702 -31.8472 -7.46237 12.9201 -61.9969 21.5076C-80.9248 24.4783 -103.143 19.0631 -127.926 11.8344C-139.08 8.58675 -149.157 6.57673 -158.038 7.23049C-203.562 10.6829 -228.756 48.634 -266.234 50.0645C-302.609 98.2334 -276.141 243.213 -282.583 283.836C-287.636 315.674 -360.492 287.6 -361.179 312.542C-361.313 317.082 -359.488 323.544 -356.426 331.727C-334.061 391.075 -443.107 382.943 -515.975 372.995C-525.664 371.671 -534.158 371.736 -541.782 372.285C-595.068 376.048 -629.249 512.02 -680.203 519.363C-738.611 527.78 -835.207 503.098 -892.942 489.135" stroke="url(#paint28_linear_52_611)" stroke-width="0.75" stroke-miterlimit="10"/>
        <path d="M536.672 -696.421C556.282 -639.338 504.37 -601.158 499.452 -544.963C494.413 -487.27 410.536 -510.753 365.162 -504.472C308.812 -496.672 279.56 -457.969 240.821 -448.991C231.278 -446.792 222.961 -444.348 215.285 -441.784C181.116 -430.232 182.035 -414.232 194.805 -366.55C207.856 -317.813 184.01 -322.551 174.977 -277.182C172.276 -263.67 171.657 -247.345 166.548 -233.355C136.935 -152.124 131.233 -186.162 56.4648 -139.924C11.113 -111.885 -16.6529 -107.452 -22.39 -67.8858C-28.1218 -28.3774 -21.0884 18.2335 -74.089 27.6691C-92.9954 31.0438 -115.193 25.2366 -139.779 17.7644C-150.923 14.4002 -161.006 12.2892 -169.796 13.0678C-213.983 16.9749 -238.858 55.4134 -279.215 51.7774C-316.953 94.3104 -292.895 237.858 -298.862 281.42C-303.374 314.325 -372.513 289.92 -371.788 314.821C-371.641 319.459 -369.658 325.926 -366.601 334.008C-344.384 392.758 -453.312 386.051 -525.965 374.034C-535.702 372.438 -544.244 372.072 -551.884 372C-605.741 371.483 -642.761 507.076 -689.389 517.284C-742.696 528.983 -837.387 517.592 -901.511 502.076" stroke="url(#paint29_linear_52_611)" stroke-width="0.75" stroke-miterlimit="10"/>
        <path d="M521.779 -697.155C540.427 -642.909 483.935 -606.073 481.273 -547.076C478.555 -486.642 391.503 -513.046 347.244 -505.457C293.14 -496.172 269.862 -450.678 232.212 -439.306C223.083 -436.552 214.835 -433.91 206.964 -431.421C171.032 -419.965 170.157 -406.737 181.658 -359.629C193.414 -311.495 164.06 -323.051 153.68 -277.701C150.639 -264.444 150.116 -247.894 145.304 -233.501C118.021 -152.035 115.142 -177.341 41.3123 -132.81C-5.03171 -104.87 -34.8804 -104.365 -39.7366 -64.5912C-44.5928 -24.8173 -34.5338 23.6372 -86.0376 33.8508C-104.933 37.5868 -127.126 31.4028 -151.463 23.7417C-162.623 20.2338 -172.668 18.0337 -181.395 18.9098C-224.255 23.2288 -248.817 62.2128 -292.037 53.495C-331.111 90.4192 -309.489 232.508 -314.998 279.024C-318.994 312.969 -384.337 292.316 -382.228 317.147C-381.815 321.9 -379.641 328.341 -376.632 336.309C-354.538 394.487 -463.374 389.179 -535.785 375.121C-545.58 373.21 -554.17 372.413 -561.843 371.734C-616.297 366.911 -656.124 502.095 -698.447 515.241C-746.653 530.221 -839.44 532.121 -909.969 515.068" stroke="url(#paint30_linear_52_611)" stroke-width="0.75" stroke-miterlimit="10"/>
        <path d="M506.886 -697.889C524.544 -646.507 463.473 -611.016 463.069 -549.216C462.66 -486.085 372.417 -515.393 329.258 -506.481C277.404 -495.769 260.068 -443.454 223.508 -429.687C214.809 -426.395 206.588 -423.566 198.546 -421.124C160.843 -409.807 158.172 -399.352 168.415 -352.776C178.876 -305.243 144.042 -323.59 132.288 -278.288C128.891 -265.269 128.469 -248.551 123.939 -233.742C98.9585 -152.068 98.9193 -168.656 26.0218 -125.774C-21.2985 -97.9491 -53.2564 -101.399 -57.237 -61.3595C-61.2282 -21.363 -48.1331 28.9779 -98.1402 39.9695C-117.014 44.1095 -139.17 37.5179 -163.3 29.6561C-174.45 26.0317 -184.484 23.7152 -193.121 24.7161C-234.655 29.4469 -258.903 68.9767 -304.987 55.1771C-345.412 86.5081 -326.253 227.11 -331.219 276.604C-334.742 311.578 -396.204 294.7 -392.752 319.45C-392.059 324.301 -389.751 330.719 -386.748 338.587C-364.776 396.193 -473.548 392.257 -545.716 376.157C-555.543 373.958 -564.182 372.73 -571.886 371.445C-627.007 362.275 -669.53 497.102 -707.548 513.187C-750.663 531.405 -841.509 546.666 -918.469 528.048" stroke="url(#paint31_linear_52_611)" stroke-width="0.75" stroke-miterlimit="10"/>
        <path d="M491.966 -698.65C508.635 -650.133 442.995 -615.943 444.863 -551.357C446.776 -485.485 353.347 -517.756 311.314 -507.494C261.668 -495.366 250.317 -436.219 214.888 -420.044C206.593 -416.241 198.451 -413.171 190.187 -410.831C150.712 -399.652 146.245 -391.969 155.23 -345.926C164.397 -298.995 124.098 -324.148 110.938 -278.862C107.228 -266.071 106.864 -249.197 102.642 -233.943C79.9221 -152.073 82.7227 -159.944 10.8002 -118.7C-37.5123 -90.9734 -71.5371 -98.3661 -74.6528 -58.1041C-77.779 -17.8848 -61.5945 34.397 -110.158 46.1119C-129.01 50.656 -151.172 43.645 -175.053 35.5944C-186.219 31.8262 -196.216 29.4204 -204.789 30.5187C-244.996 35.6614 -268.915 75.7214 -317.878 56.8554C-359.666 82.5504 -343.002 221.696 -347.408 274.154C-350.458 310.156 -408.012 297.08 -403.229 321.706C-402.27 326.671 -399.772 333.064 -396.816 340.818C-375.009 397.841 -483.674 395.288 -555.615 377.162C-565.475 374.676 -574.204 373.004 -581.898 371.125C-637.696 357.566 -682.914 492.034 -716.643 511.074C-754.636 532.5 -843.599 561.125 -926.991 540.942" stroke="url(#paint32_linear_52_611)" stroke-width="0.75" stroke-miterlimit="10"/>
        <path d="M477.073 -699.384C492.78 -653.704 422.533 -620.885 426.685 -553.469C430.891 -484.884 334.277 -520.119 293.396 -508.478C245.964 -494.994 240.555 -429.026 206.253 -410.386C198.377 -406.087 190.299 -402.76 181.839 -400.496C140.549 -389.467 134.356 -384.517 142.057 -339.033C149.902 -292.732 104.175 -324.621 89.6142 -279.409C85.565 -266.872 85.2702 -249.8 81.3453 -234.144C60.8061 -152.16 66.5156 -151.275 -4.42127 -111.625C-53.7366 -84.0404 -89.8177 -95.3333 -92.0842 -54.8332C-94.3349 -14.3485 -75.0611 39.8744 -122.207 52.2852C-141.012 57.2608 -163.205 49.8029 -186.837 41.5635C-197.992 37.6788 -207.979 35.1566 -216.488 36.3525C-255.395 41.8797 -278.974 82.5127 -330.827 58.5375C-373.952 78.6238 -359.793 216.271 -363.656 271.707C-366.232 308.737 -419.81 299.503 -413.806 323.953C-412.54 329.045 -409.909 335.415 -406.958 343.069C-385.274 399.52 -493.885 398.295 -565.546 378.198C-575.48 375.412 -584.268 373.266 -591.942 370.835C-648.497 352.806 -696.314 486.983 -725.77 508.992C-758.651 533.583 -845.694 575.642 -935.517 553.895" stroke="url(#paint33_linear_52_611)" stroke-width="0.75" stroke-miterlimit="10"/>
        <path d="M462.169 -700.161C476.887 -657.345 402.071 -625.827 408.496 -555.625C415.023 -484.3 315.17 -522.552 275.425 -509.518C230.18 -494.704 230.687 -421.942 197.564 -400.782C190.066 -395.999 182.078 -392.388 173.437 -390.214C130.375 -379.325 122.386 -377.147 128.83 -332.195C135.396 -286.511 84.242 -325.136 68.2375 -280.011C63.8592 -267.686 63.6229 -250.458 60.0061 -234.357C41.6051 -152.271 50.2658 -142.618 -19.6589 -104.534C-70.0037 -77.1194 -108.141 -92.3124 -109.532 -51.5468C-110.917 -10.8394 -88.5438 45.3672 -134.23 58.4859C-153.013 63.8655 -175.197 55.9727 -198.622 47.5325C-209.793 43.5041 -219.743 40.8927 -228.177 42.2289C-265.784 48.1406 -289.023 89.3465 -343.74 60.2895C-388.216 74.7826 -376.631 210.892 -379.855 269.373C-381.959 307.431 -431.533 302.066 -424.31 326.341C-422.778 331.547 -419.956 337.891 -417.053 345.432C-395.491 401.311 -504.048 401.415 -575.456 379.32C-585.422 376.246 -594.285 373.641 -601.991 370.605C-659.297 348.045 -706.147 485.797 -734.918 506.983C-766.734 530.38 -847.837 590.206 -944.049 566.905" stroke="url(#paint34_linear_52_611)" stroke-width="0.75" stroke-miterlimit="10"/>
        <path d="M447.275 -700.895C460.989 -660.928 381.593 -630.754 390.291 -557.765C399.128 -483.742 296.063 -524.985 257.481 -510.531C214.397 -494.413 220.845 -414.831 188.929 -391.124C181.807 -385.857 173.9 -382.005 165.062 -379.906C120.201 -369.183 110.444 -369.75 115.629 -325.329C120.9 -280.247 64.3618 -325.597 46.8876 -280.585C42.1961 -268.487 41.9918 -251.131 38.683 -234.586C22.3672 -152.452 33.979 -134.031 -34.8911 -97.5022C-86.2653 -70.2566 -126.448 -89.307 -126.958 -48.3342C-127.495 -7.38871 -101.994 50.8292 -146.259 64.5856C-164.994 70.3966 -187.209 62.0568 -210.385 53.4279C-221.546 49.2829 -231.485 46.5552 -239.856 47.9888C-276.173 54.2423 -299.045 96.0485 -356.642 61.9251C-402.48 70.7822 -393.433 205.424 -396.055 266.88C-397.728 305.954 -443.198 304.466 -434.813 328.57C-432.973 333.902 -430.018 340.223 -427.148 347.635C-405.735 402.916 -514.238 404.349 -585.34 380.309C-595.365 376.92 -604.301 373.857 -611.971 370.253C-670.066 343.095 -723.142 476.693 -743.982 504.84C-766.741 535.593 -849.895 604.634 -952.513 579.796" stroke="url(#paint35_linear_52_611)" stroke-width="0.75" stroke-miterlimit="10"/>
        <path d="M432.356 -701.656C445.107 -664.526 361.104 -635.724 372.102 -559.921C383.233 -483.185 276.945 -527.461 239.527 -511.585C198.592 -494.209 215.74 -402.332 180.256 -381.536C172.487 -376.968 165.711 -371.664 156.661 -369.625C109.991 -359.11 98.5016 -362.352 102.403 -318.491C106.378 -274.011 44.4709 -326.1 25.5111 -281.187C20.5064 -269.316 20.3181 -251.816 17.3599 -234.814C3.10259 -152.66 17.6923 -125.444 -50.1391 -90.4546C-102.569 -63.4056 -144.755 -86.3015 -144.416 -45.0905C-144.061 -3.89498 -115.435 56.334 -158.319 70.7162C-176.995 77.0014 -199.237 68.1566 -222.18 59.3543C-233.357 55.0655 -243.259 52.2488 -251.54 53.8072C-286.567 60.4024 -309.089 102.824 -369.549 63.6192C-416.739 66.883 -410.293 199.959 -412.26 264.445C-413.487 304.52 -454.868 306.925 -445.321 330.857C-443.131 336.327 -440.071 342.599 -437.221 349.925C-415.931 404.634 -524.39 407.353 -595.228 381.357C-605.285 377.681 -614.307 374.116 -621.972 369.976C-680.85 338.16 -736.601 471.486 -753.067 502.77C-770.815 536.52 -851.948 619.163 -960.997 592.76" stroke="url(#paint36_linear_52_611)" stroke-width="0.75" stroke-miterlimit="10"/>
        <path d="M417.462 -702.389C429.224 -668.125 340.627 -640.651 353.924 -562.034C367.359 -482.542 257.811 -529.921 221.593 -512.555C182.781 -493.946 205.824 -395.52 171.631 -371.835C164.234 -366.725 157.569 -361.211 148.323 -359.246C99.8276 -348.925 86.5964 -354.885 89.2396 -311.555C91.9204 -267.677 24.6278 -326.491 4.19835 -281.691C-1.11958 -270.047 -1.31843 -252.431 -3.92612 -234.973C-16.1832 -152.795 1.3896 -116.841 -65.35 -83.3369C-118.836 -56.4846 -163.052 -83.2532 -161.821 -41.7922C-160.601 -0.37404 -128.811 61.9363 -170.326 76.9015C-188.954 83.6181 -211.228 74.3264 -233.922 65.3352C-245.099 60.8872 -255.006 57.9693 -263.197 59.6526C-296.961 66.5622 -319.106 109.627 -382.413 65.325C-430.94 62.9801 -427.126 194.522 -428.412 262.064C-429.208 303.156 -466.401 309.462 -455.803 333.171C-453.306 338.767 -450.112 345.016 -447.295 352.215C-426.127 406.352 -534.553 410.314 -605.117 382.405C-615.233 378.414 -624.329 374.39 -631.999 369.672C-691.656 333.139 -750.113 466.224 -762.151 500.699C-774.968 537.365 -854.027 633.665 -969.481 605.725" stroke="url(#paint37_linear_52_611)" stroke-width="0.75" stroke-miterlimit="10"/>
        <path d="M402.543 -703.151C413.315 -671.75 320.122 -645.606 335.692 -564.201C351.422 -481.996 238.572 -532.491 203.596 -513.622C166.88 -493.808 195.722 -388.901 162.932 -362.274C155.933 -356.595 149.327 -350.925 139.884 -349.035C89.5795 -338.923 74.6166 -347.558 75.9754 -304.787C77.3612 -261.511 4.7369 -326.994 -17.2313 -282.347C-22.8624 -270.931 -23.0452 -253.171 -25.3024 -235.256C-35.6124 -153.11 -15.0035 -108.363 -80.6513 -76.3442C-135.22 -49.7159 -181.412 -80.3026 -179.332 -38.6035C-177.263 3.05282 -142.293 67.429 -182.429 83.02C-200.998 90.2108 -223.299 80.4141 -245.759 71.2496C-256.926 66.6851 -266.823 63.6509 -274.923 65.4589C-307.425 72.6829 -329.176 116.376 -395.39 66.9794C-445.252 59.0258 -444.071 189.033 -444.686 259.59C-445.052 301.698 -478.066 311.863 -466.381 335.419C-463.56 341.126 -460.233 347.352 -457.48 354.453C-436.477 408.007 -544.828 413.223 -615.091 383.429C-625.249 379.107 -634.42 374.625 -642.086 369.37C-702.446 328.103 -763.779 460.898 -771.337 498.621C-779.265 538.19 -856.208 648.159 -978.067 618.681" stroke="url(#paint38_linear_52_611)" stroke-width="0.75" stroke-miterlimit="10"/>
        <path d="M387.649 -703.884C397.46 -675.321 299.644 -650.532 317.514 -566.314C335.537 -481.396 219.401 -535.021 185.662 -514.591C150.991 -493.627 181.043 -386.708 154.308 -352.573C148.679 -345.355 141.185 -340.471 131.547 -338.657C79.4165 -328.738 62.7114 -340.09 62.8125 -297.851C62.9191 -255.193 -15.0371 -327.345 -38.544 -282.852C-44.4777 -271.62 -44.6976 -253.77 -46.5777 -235.371C-54.983 -153.268 -31.3062 -99.7605 -95.8515 -69.1836C-151.529 -42.8065 -199.687 -77.1686 -196.743 -35.2469C-193.782 6.65948 -155.648 73.117 -194.441 89.2637C-212.909 96.9406 -235.28 86.6269 -257.506 77.2889C-268.689 72.5807 -278.575 69.4299 -286.585 71.3629C-317.824 78.9012 -339.198 123.237 -408.275 68.759C-459.516 55.1849 -460.952 183.643 -460.87 257.24C-460.821 300.38 -489.582 314.384 -476.868 337.792C-473.696 343.636 -470.28 349.829 -467.559 356.801C-446.678 409.783 -554.981 416.227 -624.985 384.535C-635.202 379.898 -644.416 374.926 -652.092 369.151C-713.141 323.134 -777.407 455.644 -780.427 496.609C-783.535 539.042 -858.266 662.747 -986.54 631.688" stroke="url(#paint39_linear_52_611)" stroke-width="0.75" stroke-miterlimit="10"/>
        <path d="M372.756 -704.618C381.578 -678.92 279.151 -655.444 299.335 -568.427C319.637 -480.78 200.177 -537.606 167.718 -515.604C135.09 -493.489 171.01 -379.73 145.646 -342.942C140.367 -335.268 132.98 -330.115 123.172 -328.348C69.2057 -318.666 50.7953 -332.665 49.612 -290.985C48.4237 -248.929 -34.8377 -327.724 -59.894 -283.426C-66.1144 -272.394 -66.3979 -254.482 -67.901 -235.6C-74.4441 -153.551 -47.6568 -91.2708 -111.1 -62.1359C-167.897 -36.053 -218.021 -74.1905 -214.185 -32.0187C-210.375 10.1258 -169.009 78.704 -206.485 95.379C-224.868 103.557 -247.292 92.7113 -269.296 83.1572C-280.495 78.3052 -290.371 75.0379 -298.306 77.1111C-328.293 84.9211 -349.279 129.943 -421.22 70.3829C-473.797 51.2002 -477.908 178.112 -477.112 254.735C-476.633 298.891 -501.184 316.723 -487.441 339.981C-483.929 345.921 -480.412 352.122 -477.696 358.993C-456.938 411.403 -565.192 419.075 -634.938 385.485C-645.186 380.561 -654.486 375.087 -662.184 368.749C-723.846 317.963 -791.206 450.182 -789.602 494.414C-787.949 539.715 -860.419 677.108 -995.115 644.528" stroke="url(#paint40_linear_52_611)" stroke-width="0.75" stroke-miterlimit="10"/>
        <path d="M357.836 -705.379C365.669 -682.545 258.646 -660.398 281.104 -570.595C303.7 -480.235 180.884 -540.231 149.748 -516.643C119.11 -493.433 160.908 -372.792 136.984 -333.311C132.056 -325.18 124.802 -319.732 114.797 -318.04C59.0214 -308.566 38.8795 -325.24 36.4118 -284.12C33.9284 -242.666 -54.6382 -328.103 -81.2439 -284C-87.7774 -273.195 -88.0874 -255.152 -89.1975 -235.801C-93.905 -153.835 -64.0073 -82.7812 -126.305 -55.0766C-184.222 -29.2877 -236.286 -71.1732 -231.6 -28.7633C-226.899 13.6312 -182.316 84.3454 -218.503 101.521C-236.8 110.201 -259.305 98.7955 -281.049 89.0954C-292.221 84.1114 -302.086 80.7277 -309.948 82.9412C-338.697 91.0382 -359.264 136.715 -434.084 72.0887C-487.997 47.2972 -494.81 172.635 -493.264 252.355C-492.396 297.515 -512.637 319.183 -497.896 342.323C-494.018 348.385 -490.411 354.551 -487.743 361.31C-467.134 413.121 -575.323 422.005 -644.773 386.588C-655.065 381.333 -664.423 375.385 -672.132 368.527C-734.365 312.983 -804.893 444.93 -798.633 492.399C-792.278 540.571 -862.419 691.692 -1003.55 657.547" stroke="url(#paint41_linear_52_611)" stroke-width="0.75" stroke-miterlimit="10"/>
        <path d="M342.943 -706.113C349.813 -686.116 238.195 -665.298 262.925 -572.708C287.799 -479.619 165.525 -538.389 131.814 -517.613C99.3643 -497.638 150.843 -365.784 128.332 -323.637C123.739 -315.035 116.623 -309.348 106.406 -307.716C48.7945 -298.479 26.9209 -317.828 23.1954 -277.239C19.4595 -236.375 -74.4284 -328.439 -102.61 -284.559C-109.43 -273.954 -109.82 -255.834 -110.537 -236.014C-113.44 -154.099 -80.427 -74.3311 -141.569 -48.0139C-200.659 -22.5738 -254.609 -68.1526 -249.059 -25.52C-243.509 17.1126 -195.666 89.9746 -230.563 107.652C-248.733 116.845 -271.333 104.895 -292.844 95.0213C-304.032 89.8936 -313.887 86.3933 -321.658 88.7316C-349.182 97.0729 -369.335 143.463 -447.018 73.755C-502.309 43.3429 -511.797 167.134 -509.495 249.892C-508.213 296.084 -524.222 321.506 -508.431 344.582C-504.214 350.74 -500.506 356.914 -497.87 363.545C-477.383 414.784 -585.534 424.853 -654.715 387.58C-665.065 382.011 -674.456 375.616 -682.186 368.194C-744.965 307.92 -818.729 439.557 -807.761 490.317C-796.734 541.391 -864.541 706.182 -1012.07 670.499" stroke="url(#paint42_linear_52_611)" stroke-width="0.75" stroke-miterlimit="10"/>
        <path d="M328.039 -706.89C333.92 -689.757 217.69 -670.252 244.736 -574.863C271.904 -479.062 145.893 -541.586 113.859 -518.668C83.6871 -497.079 140.715 -358.872 119.686 -314.022C115.427 -304.947 108.434 -299.008 98.0469 -297.423C38.5891 -288.465 15.1326 -310.367 10.0112 -270.389C5.07586 -230.06 -94.1598 -328.778 -123.944 -285.149C-131.067 -274.728 -131.562 -256.558 -131.817 -236.231C-132.97 -154.422 -96.7881 -65.884 -156.775 -40.9543C-217.038 -15.863 -272.9 -65.1623 -266.474 -22.2643C-260.059 20.591 -208.947 95.6437 -242.554 113.822C-260.586 123.571 -283.292 111.034 -304.57 100.987C-315.758 95.7 -325.645 92.0716 -333.273 94.5894C-359.571 103.175 -374.376 141.771 -459.856 75.4883C-514.557 33.0821 -528.689 161.701 -525.631 247.497C-523.945 294.678 -535.696 323.881 -518.871 346.908C-514.314 353.162 -510.489 359.329 -507.874 365.874C-487.51 416.541 -595.565 427.792 -664.535 388.668C-674.927 382.768 -684.35 375.926 -692.118 367.956C-755.383 302.949 -832.447 434.337 -816.776 488.286C-801.068 542.305 -866.551 720.723 -1020.49 683.503" stroke="url(#paint43_linear_52_611)" stroke-width="0.75" stroke-miterlimit="10"/>
        <path d="M313.146 -707.624C318.038 -693.356 197.043 -675.227 226.558 -576.976C255.834 -478.494 126.175 -544.807 95.9257 -519.638C68.0308 -496.435 130.566 -351.887 111.035 -304.348C107.111 -294.801 100.266 -288.581 89.6825 -287.072C28.3889 -278.35 3.21132 -302.884 -3.17848 -263.48C-9.40887 -223.754 -113.897 -329.059 -145.299 -285.665C-152.709 -275.444 -153.284 -257.197 -153.162 -236.386C-152.596 -154.652 -113.224 -57.4182 -172.018 -33.8057C-233.49 -9.13344 -291.218 -62.0405 -283.911 -18.9352C-276.604 24.1701 -222.222 101.413 -254.609 120.053C-272.502 130.359 -295.326 117.192 -316.36 107.014C-327.564 101.584 -337.44 97.8387 -344.977 100.481C-370.077 109.284 -384.837 150.439 -472.811 77.2285C-528.719 30.6826 -545.724 156.247 -541.873 245.151C-539.799 293.336 -547.287 326.262 -529.443 349.257C-524.53 355.59 -520.621 361.781 -518.037 368.197C-497.796 418.294 -605.797 430.713 -674.487 389.777C-684.923 383.547 -694.404 376.231 -702.193 367.698C-765.892 298.011 -846.341 429.127 -825.935 486.235C-805.577 543.229 -868.678 735.272 -1029.03 696.471" stroke="url(#paint44_linear_52_611)" stroke-width="0.75" stroke-miterlimit="10"/>
        <path d="M298.226 -708.385C302.156 -696.954 176.565 -680.154 208.326 -579.144C239.923 -477.921 103.351 -551.069 77.9285 -520.705C54.9763 -493.269 120.352 -345 102.362 -294.76C98.7727 -284.741 92.0502 -278.268 81.2704 -276.833C18.1302 -268.39 -8.76837 -295.557 -16.416 -256.685C-23.9414 -217.56 -133.655 -329.426 -166.686 -286.31C-174.382 -276.288 -175.079 -257.976 -174.495 -236.657C-172.237 -155.026 -129.675 -49.0961 -187.277 -26.8009C-249.959 -2.54758 -309.536 -59.0777 -301.38 -15.7343C-293.224 27.6091 -235.53 107.055 -266.68 126.141C-284.419 136.988 -307.365 123.249 -328.192 112.871C-339.396 107.281 -349.262 103.419 -356.741 106.217C-380.657 115.252 -395.591 158.807 -485.798 78.8404C-543.131 27.9942 -562.764 150.692 -558.158 242.634C-555.685 291.866 -558.905 328.457 -540.031 351.462C-534.763 357.875 -530.753 364.075 -528.217 370.378C-508.141 419.89 -615.987 433.488 -684.482 390.716C-694.976 384.171 -704.474 376.392 -712.301 367.312C-776.433 292.946 -860.256 423.832 -835.126 484.055C-810.107 544.069 -870.864 749.664 -1037.62 709.326" stroke="url(#paint45_linear_52_611)" stroke-width="0.75" stroke-miterlimit="10"/>
        <path d="M283.333 -709.119C286.273 -700.552 156.087 -685.081 190.164 -581.272C224.082 -477.309 83.8827 -553.842 60.0268 -521.705C38.9005 -493.28 110.219 -338.031 93.7428 -285.117C90.4878 -274.626 83.8876 -267.9 72.938 -266.513C7.9353 -258.334 -20.6684 -288.147 -29.5738 -249.808C-38.3783 -211.3 -153.333 -329.711 -187.994 -286.872C-195.966 -277.008 -196.811 -258.657 -195.776 -236.874C-191.857 -155.314 -146.073 -40.7193 -202.482 -19.7415C-266.428 4.03822 -327.827 -56.0878 -318.795 -12.479C-309.775 31.0871 -248.741 112.763 -278.698 132.283C-296.245 143.741 -319.362 129.318 -339.944 118.809C-351.165 113.075 -361.047 109.07 -368.382 112.047C-391.099 121.299 -406.381 167.105 -498.662 80.5461C-557.623 25.2236 -579.751 145.191 -574.32 240.21C-571.46 290.447 -570.469 330.707 -550.497 353.761C-544.874 360.254 -540.778 366.477 -538.275 372.652C-518.321 421.593 -626.097 436.344 -694.328 391.775C-704.865 384.9 -714.395 376.675 -722.26 367.046C-786.771 288.056 -873.996 418.685 -844.184 482.012C-814.494 545.087 -872.89 764.221 -1046.08 722.318" stroke="url(#paint46_linear_52_611)" stroke-width="0.75" stroke-miterlimit="10"/>
        <path d="M268.413 -709.88C270.365 -704.178 135.609 -690.007 171.959 -583.412C208.197 -476.708 64.3456 -556.654 42.0403 -522.729C22.7081 -493.284 99.9579 -331.097 85.065 -275.471C82.1447 -264.508 75.6931 -257.501 64.5471 -256.189C-2.30207 -248.289 -32.6001 -280.707 -42.7899 -242.926C-52.8895 -205.021 -173.06 -329.949 -209.36 -287.431C-217.618 -277.767 -218.612 -259.378 -217.089 -237.059C-211.552 -155.583 -162.53 -32.339 -217.704 -12.6666C-282.949 10.5694 -346.107 -53.0549 -336.211 -9.2234C-326.315 34.6081 -261.927 118.499 -290.689 138.453C-308.071 150.495 -331.321 135.457 -351.67 124.774C-362.864 118.909 -372.805 114.748 -380.023 117.878C-401.567 127.319 -417.341 175.196 -511.527 82.252C-572.273 22.2892 -596.712 139.719 -590.472 237.83C-587.197 289.099 -581.991 332.968 -560.953 356.103C-554.974 362.675 -550.777 368.907 -548.295 374.996C-528.463 423.365 -636.111 439.267 -704.164 392.878C-714.717 385.699 -724.294 377.043 -732.234 366.796C-797.084 283.194 -887.741 413.596 -853.215 479.997C-818.828 546.16 -874.916 778.778 -1054.51 735.337" stroke="url(#paint47_linear_52_611)" stroke-width="0.75" stroke-miterlimit="10"/>
        <path d="M253.52 -710.614C254.509 -707.749 115.174 -694.922 153.754 -585.552C192.313 -476.108 44.7235 -559.49 24.0961 -523.741C6.53132 -493.303 89.7658 -324.124 76.403 -265.84C73.7748 -254.417 67.4773 -247.188 56.1721 -245.881C-12.598 -238.4 -44.5427 -273.31 -55.9903 -236.061C-67.3849 -198.757 -192.727 -330.191 -230.71 -288.005C-239.271 -278.525 -240.429 -260.083 -238.412 -237.288C-231.246 -155.853 -178.982 -24.017 -232.952 -5.61908C-299.482 17.0577 -364.43 -50.0341 -353.669 -5.97987C-342.908 38.0743 -275.154 124.222 -302.749 144.584C-319.897 157.248 -343.36 141.513 -363.466 130.701C-374.66 124.676 -384.643 120.344 -391.707 123.696C-412.121 133.315 -428.392 183.161 -524.434 83.9458C-587.126 19.1785 -613.757 134.222 -606.677 235.395C-603.03 287.683 -593.608 335.163 -571.488 358.362C-565.18 364.987 -560.872 371.27 -558.422 377.231C-538.739 425.001 -646.232 442.081 -714.106 393.871C-724.685 386.346 -734.311 377.259 -742.288 366.464C-807.492 278.265 -901.54 408.453 -862.353 477.872C-823.241 547.151 -877.049 793.225 -1063.05 748.247" stroke="url(#paint48_linear_52_611)" stroke-width="0.75" stroke-miterlimit="10"/>
    </g>
    <defs>
        <linearGradient id="paint0_linear_52_611" x1="-647.565" y1="846.958" x2="711.328" y2="-376.836" gradientUnits="userSpaceOnUse">
            <stop stop-color="#524028"/>
            <stop offset="0.13" stop-color="#B88E5A"/>
            <stop offset="0.22" stop-color="#FFC57D"/>
            <stop offset="0.52" stop-color="#FFC57D"/>
            <stop offset="0.57" stop-color="#E0AD6E"/>
            <stop offset="0.77" stop-color="#534128"/>
            <stop offset="0.79" stop-color="#4F3E27"/>
            <stop offset="1" stop-color="#362A1A"/>
        </linearGradient>
        <linearGradient id="paint1_linear_52_611" x1="-645.205" y1="834.378" x2="710.671" y2="-391.695" gradientUnits="userSpaceOnUse">
            <stop stop-color="#524028"/>
            <stop offset="0.13" stop-color="#BC915C"/>
            <stop offset="0.22" stop-color="#FFC57D"/>
            <stop offset="0.52" stop-color="#FFC57D"/>
            <stop offset="0.57" stop-color="#E1AF6F"/>
            <stop offset="0.77" stop-color="#544129"/>
            <stop offset="0.79" stop-color="#4F3E27"/>
            <stop offset="1" stop-color="#362A1A"/>
        </linearGradient>
        <linearGradient id="paint2_linear_52_611" x1="-642.631" y1="822.178" x2="709.624" y2="-406.898" gradientUnits="userSpaceOnUse">
            <stop stop-color="#524028"/>
            <stop offset="0.13" stop-color="#BF945E"/>
            <stop offset="0.22" stop-color="#FFC57D"/>
            <stop offset="0.52" stop-color="#FFC57D"/>
            <stop offset="0.57" stop-color="#E3B06F"/>
            <stop offset="0.77" stop-color="#554229"/>
            <stop offset="0.79" stop-color="#4F3E27"/>
            <stop offset="1" stop-color="#362A1A"/>
        </linearGradient>
        <linearGradient id="paint3_linear_52_611" x1="-639.007" y1="811.045" x2="708.442" y2="-421.945" gradientUnits="userSpaceOnUse">
            <stop stop-color="#524028"/>
            <stop offset="0.13" stop-color="#C3975F"/>
            <stop offset="0.22" stop-color="#FFC57D"/>
            <stop offset="0.52" stop-color="#FFC57D"/>
            <stop offset="0.57" stop-color="#E5B170"/>
            <stop offset="0.77" stop-color="#55432A"/>
            <stop offset="0.79" stop-color="#503E27"/>
            <stop offset="1" stop-color="#362A1A"/>
        </linearGradient>
        <linearGradient id="paint4_linear_52_611" x1="-633.573" y1="801.751" x2="706.93" y2="-436.698" gradientUnits="userSpaceOnUse">
            <stop stop-color="#524028"/>
            <stop offset="0.13" stop-color="#C79A61"/>
            <stop offset="0.22" stop-color="#FFC57D"/>
            <stop offset="0.52" stop-color="#FFC57D"/>
            <stop offset="0.57" stop-color="#E6B271"/>
            <stop offset="0.77" stop-color="#56432A"/>
            <stop offset="0.79" stop-color="#503F27"/>
            <stop offset="1" stop-color="#362A1A"/>
        </linearGradient>
        <linearGradient id="paint5_linear_52_611" x1="-625.043" y1="795.275" x2="704.685" y2="-450.613" gradientUnits="userSpaceOnUse">
            <stop stop-color="#524028"/>
            <stop offset="0.13" stop-color="#CB9C63"/>
            <stop offset="0.22" stop-color="#FFC57D"/>
            <stop offset="0.52" stop-color="#FFC57D"/>
            <stop offset="0.57" stop-color="#E8B472"/>
            <stop offset="0.77" stop-color="#57442A"/>
            <stop offset="0.79" stop-color="#503F27"/>
            <stop offset="1" stop-color="#362A1A"/>
        </linearGradient>
        <linearGradient id="paint6_linear_52_611" x1="-610.42" y1="794.907" x2="701.187" y2="-463.084" gradientUnits="userSpaceOnUse">
            <stop stop-color="#524028"/>
            <stop offset="0.13" stop-color="#CE9F65"/>
            <stop offset="0.22" stop-color="#FFC57D"/>
            <stop offset="0.52" stop-color="#FFC57D"/>
            <stop offset="0.57" stop-color="#EAB573"/>
            <stop offset="0.77" stop-color="#58452B"/>
            <stop offset="0.79" stop-color="#503F27"/>
            <stop offset="1" stop-color="#362A1A"/>
        </linearGradient>
        <linearGradient id="paint7_linear_52_611" x1="-563.938" y1="825.356" x2="708.724" y2="-454.43" gradientUnits="userSpaceOnUse">
            <stop stop-color="#524028"/>
            <stop offset="0.13" stop-color="#D2A267"/>
            <stop offset="0.22" stop-color="#FFC57D"/>
            <stop offset="0.52" stop-color="#FFC57D"/>
            <stop offset="0.57" stop-color="#EBB673"/>
            <stop offset="0.77" stop-color="#59452B"/>
            <stop offset="0.79" stop-color="#503F27"/>
            <stop offset="1" stop-color="#362A1A"/>
        </linearGradient>
        <linearGradient id="paint8_linear_52_611" x1="-441.745" y1="917.894" x2="700.317" y2="-400.983" gradientUnits="userSpaceOnUse">
            <stop stop-color="#524028"/>
            <stop offset="0.13" stop-color="#D6A569"/>
            <stop offset="0.22" stop-color="#FFC57D"/>
            <stop offset="0.52" stop-color="#FFC57D"/>
            <stop offset="0.57" stop-color="#EDB774"/>
            <stop offset="0.77" stop-color="#5A462C"/>
            <stop offset="0.79" stop-color="#503F27"/>
            <stop offset="1" stop-color="#362A1A"/>
        </linearGradient>
        <linearGradient id="paint9_linear_52_611" x1="-78.6625" y1="439.298" x2="-286.9" y2="143.137" gradientUnits="userSpaceOnUse">
            <stop stop-color="#524028"/>
            <stop offset="0.13" stop-color="#DAA86A"/>
            <stop offset="0.22" stop-color="#FFC57D"/>
            <stop offset="0.52" stop-color="#FFC57D"/>
            <stop offset="0.57" stop-color="#EFB975"/>
            <stop offset="0.77" stop-color="#5B472C"/>
            <stop offset="0.79" stop-color="#513F28"/>
            <stop offset="1" stop-color="#362A1A"/>
        </linearGradient>
        <linearGradient id="paint10_linear_52_611" x1="907.845" y1="-93.578" x2="-584.34" y2="870.536" gradientUnits="userSpaceOnUse">
            <stop stop-color="#524028"/>
            <stop offset="0.13" stop-color="#DDAB6C"/>
            <stop offset="0.22" stop-color="#FFC57D"/>
            <stop offset="0.52" stop-color="#FFC57D"/>
            <stop offset="0.57" stop-color="#F0BA76"/>
            <stop offset="0.77" stop-color="#5B472C"/>
            <stop offset="0.79" stop-color="#513F28"/>
            <stop offset="1" stop-color="#362A1A"/>
        </linearGradient>
        <linearGradient id="paint11_linear_52_611" x1="877.536" y1="-294.007" x2="-577.656" y2="802.258" gradientUnits="userSpaceOnUse">
            <stop stop-color="#524028"/>
            <stop offset="0.13" stop-color="#E1AE6E"/>
            <stop offset="0.22" stop-color="#FFC57D"/>
            <stop offset="0.52" stop-color="#FFC57D"/>
            <stop offset="0.57" stop-color="#F2BB77"/>
            <stop offset="0.77" stop-color="#5C482D"/>
            <stop offset="0.79" stop-color="#513F28"/>
            <stop offset="1" stop-color="#362A1A"/>
        </linearGradient>
        <linearGradient id="paint12_linear_52_611" x1="849.314" y1="-370.697" x2="-584.875" y2="764.296" gradientUnits="userSpaceOnUse">
            <stop stop-color="#524028"/>
            <stop offset="0.13" stop-color="#E5B170"/>
            <stop offset="0.22" stop-color="#FFC57D"/>
            <stop offset="0.52" stop-color="#FFC57D"/>
            <stop offset="0.57" stop-color="#F3BC77"/>
            <stop offset="0.77" stop-color="#5D482D"/>
            <stop offset="0.79" stop-color="#513F28"/>
            <stop offset="1" stop-color="#362A1A"/>
        </linearGradient>
        <linearGradient id="paint13_linear_52_611" x1="829.812" y1="-418.956" x2="-592.253" y2="734.669" gradientUnits="userSpaceOnUse">
            <stop stop-color="#524028"/>
            <stop offset="0.13" stop-color="#E8B472"/>
            <stop offset="0.22" stop-color="#FFC57D"/>
            <stop offset="0.52" stop-color="#FFC57D"/>
            <stop offset="0.57" stop-color="#F5BD78"/>
            <stop offset="0.77" stop-color="#5E492E"/>
            <stop offset="0.79" stop-color="#513F28"/>
            <stop offset="1" stop-color="#362A1A"/>
        </linearGradient>
        <linearGradient id="paint14_linear_52_611" x1="816.258" y1="-455.839" x2="-598.442" y2="708.818" gradientUnits="userSpaceOnUse">
            <stop stop-color="#524028"/>
            <stop offset="0.13" stop-color="#ECB674"/>
            <stop offset="0.22" stop-color="#FFC57D"/>
            <stop offset="0.52" stop-color="#FFC57D"/>
            <stop offset="0.57" stop-color="#F7BF79"/>
            <stop offset="0.77" stop-color="#5F4A2E"/>
            <stop offset="0.79" stop-color="#513F28"/>
            <stop offset="1" stop-color="#362A1A"/>
        </linearGradient>
        <linearGradient id="paint15_linear_52_611" x1="805.469" y1="-485.833" x2="-604.045" y2="685.773" gradientUnits="userSpaceOnUse">
            <stop stop-color="#524028"/>
            <stop offset="0.13" stop-color="#F0B976"/>
            <stop offset="0.22" stop-color="#FFC57D"/>
            <stop offset="0.52" stop-color="#FFC57D"/>
            <stop offset="0.57" stop-color="#F8C07A"/>
            <stop offset="0.77" stop-color="#604A2E"/>
            <stop offset="0.79" stop-color="#514028"/>
            <stop offset="1" stop-color="#362A1A"/>
        </linearGradient>
        <linearGradient id="paint16_linear_52_611" x1="795.378" y1="-514.01" x2="-610.225" y2="662.668" gradientUnits="userSpaceOnUse">
            <stop stop-color="#524028"/>
            <stop offset="0.13" stop-color="#F4BC77"/>
            <stop offset="0.22" stop-color="#FFC57D"/>
            <stop offset="0.52" stop-color="#FFC57D"/>
            <stop offset="0.57" stop-color="#FAC17B"/>
            <stop offset="0.77" stop-color="#604B2F"/>
            <stop offset="0.79" stop-color="#524028"/>
            <stop offset="1" stop-color="#362A1A"/>
        </linearGradient>
        <linearGradient id="paint17_linear_52_611" x1="787.334" y1="-539.045" x2="-615.503" y2="641.204" gradientUnits="userSpaceOnUse">
            <stop stop-color="#524028"/>
            <stop offset="0.13" stop-color="#F7BF79"/>
            <stop offset="0.22" stop-color="#FFC57D"/>
            <stop offset="0.52" stop-color="#FFC57D"/>
            <stop offset="0.57" stop-color="#FCC27B"/>
            <stop offset="0.77" stop-color="#614C2F"/>
            <stop offset="0.79" stop-color="#524028"/>
            <stop offset="1" stop-color="#362A1A"/>
        </linearGradient>
        <linearGradient id="paint18_linear_52_611" x1="785.354" y1="-557.661" x2="-615.334" y2="625.69" gradientUnits="userSpaceOnUse">
            <stop stop-color="#524028"/>
            <stop offset="0.13" stop-color="#FBC27B"/>
            <stop offset="0.22" stop-color="#FFC57D"/>
            <stop offset="0.52" stop-color="#FFC57D"/>
            <stop offset="0.57" stop-color="#FDC47C"/>
            <stop offset="0.77" stop-color="#624C30"/>
            <stop offset="0.79" stop-color="#524028"/>
            <stop offset="1" stop-color="#362A1A"/>
        </linearGradient>
        <linearGradient id="paint19_linear_52_611" x1="785.137" y1="-573.027" x2="-614.01" y2="612.719" gradientUnits="userSpaceOnUse">
            <stop stop-color="#524028"/>
            <stop offset="0.13" stop-color="#FFC57D"/>
            <stop offset="0.57" stop-color="#FFC57D"/>
            <stop offset="0.79" stop-color="#524028"/>
            <stop offset="1" stop-color="#362A1A"/>
        </linearGradient>
        <linearGradient id="paint20_linear_52_611" x1="758.321" y1="-558.133" x2="-639.724" y2="624.209" gradientUnits="userSpaceOnUse">
            <stop stop-color="#524028"/>
            <stop offset="0.13" stop-color="#FCC37C"/>
            <stop offset="0.22" stop-color="#FFC57D"/>
            <stop offset="0.52" stop-color="#FFC57D"/>
            <stop offset="0.57" stop-color="#FEC47C"/>
            <stop offset="0.77" stop-color="#624D30"/>
            <stop offset="0.79" stop-color="#524028"/>
            <stop offset="1" stop-color="#362A1A"/>
        </linearGradient>
        <linearGradient id="paint21_linear_52_611" x1="781.984" y1="-572.183" x2="-630.867" y2="619.956" gradientUnits="userSpaceOnUse">
            <stop stop-color="#524028"/>
            <stop offset="0.13" stop-color="#FAC17B"/>
            <stop offset="0.22" stop-color="#FFC57D"/>
            <stop offset="0.52" stop-color="#FFC57D"/>
            <stop offset="0.57" stop-color="#FDC37C"/>
            <stop offset="0.77" stop-color="#624C2F"/>
            <stop offset="0.79" stop-color="#524028"/>
            <stop offset="1" stop-color="#362A1A"/>
        </linearGradient>
        <linearGradient id="paint22_linear_52_611" x1="755.097" y1="-555.077" x2="-656.883" y2="632.856" gradientUnits="userSpaceOnUse">
            <stop stop-color="#524028"/>
            <stop offset="0.13" stop-color="#F7BF79"/>
            <stop offset="0.22" stop-color="#FFC57D"/>
            <stop offset="0.52" stop-color="#FFC57D"/>
            <stop offset="0.57" stop-color="#FCC27B"/>
            <stop offset="0.77" stop-color="#614C2F"/>
            <stop offset="0.79" stop-color="#524028"/>
            <stop offset="1" stop-color="#362A1A"/>
        </linearGradient>
        <linearGradient id="paint23_linear_52_611" x1="726.915" y1="-537.643" x2="-683.429" y2="645.221" gradientUnits="userSpaceOnUse">
            <stop stop-color="#524028"/>
            <stop offset="0.13" stop-color="#F5BD78"/>
            <stop offset="0.22" stop-color="#FFC57D"/>
            <stop offset="0.52" stop-color="#FFC57D"/>
            <stop offset="0.57" stop-color="#FBC27B"/>
            <stop offset="0.77" stop-color="#614B2F"/>
            <stop offset="0.79" stop-color="#524028"/>
            <stop offset="1" stop-color="#362A1A"/>
        </linearGradient>
        <linearGradient id="paint24_linear_52_611" x1="756.272" y1="-552.483" x2="-672.986" y2="641.252" gradientUnits="userSpaceOnUse">
            <stop stop-color="#524028"/>
            <stop offset="0.13" stop-color="#F2BB77"/>
            <stop offset="0.22" stop-color="#FFC57D"/>
            <stop offset="0.52" stop-color="#FFC57D"/>
            <stop offset="0.57" stop-color="#F9C17A"/>
            <stop offset="0.77" stop-color="#604B2F"/>
            <stop offset="0.79" stop-color="#514028"/>
            <stop offset="1" stop-color="#362A1A"/>
        </linearGradient>
        <linearGradient id="paint25_linear_52_611" x1="729.874" y1="-530.466" x2="-697.943" y2="656.351" gradientUnits="userSpaceOnUse">
            <stop stop-color="#524028"/>
            <stop offset="0.13" stop-color="#F0B976"/>
            <stop offset="0.22" stop-color="#FFC57D"/>
            <stop offset="0.52" stop-color="#FFC57D"/>
            <stop offset="0.57" stop-color="#F8C07A"/>
            <stop offset="0.77" stop-color="#604A2E"/>
            <stop offset="0.79" stop-color="#514028"/>
            <stop offset="1" stop-color="#362A1A"/>
        </linearGradient>
        <linearGradient id="paint26_linear_52_611" x1="697.528" y1="-509.879" x2="-727.56" y2="667.515" gradientUnits="userSpaceOnUse">
            <stop stop-color="#524028"/>
            <stop offset="0.13" stop-color="#EDB774"/>
            <stop offset="0.22" stop-color="#FFC57D"/>
            <stop offset="0.52" stop-color="#FFC57D"/>
            <stop offset="0.57" stop-color="#F7BF79"/>
            <stop offset="0.77" stop-color="#5F4A2E"/>
            <stop offset="0.79" stop-color="#514028"/>
            <stop offset="1" stop-color="#362A1A"/>
        </linearGradient>
        <linearGradient id="paint27_linear_52_611" x1="732.272" y1="-530.592" x2="-718.834" y2="659.035" gradientUnits="userSpaceOnUse">
            <stop stop-color="#524028"/>
            <stop offset="0.13" stop-color="#EBB673"/>
            <stop offset="0.22" stop-color="#FFC57D"/>
            <stop offset="0.52" stop-color="#FFC57D"/>
            <stop offset="0.57" stop-color="#F6BE79"/>
            <stop offset="0.77" stop-color="#5E4A2E"/>
            <stop offset="0.79" stop-color="#513F28"/>
            <stop offset="1" stop-color="#362A1A"/>
        </linearGradient>
        <linearGradient id="paint28_linear_52_611" x1="699.379" y1="-504.813" x2="-749.638" y2="670.676" gradientUnits="userSpaceOnUse">
            <stop stop-color="#524028"/>
            <stop offset="0.13" stop-color="#E8B472"/>
            <stop offset="0.22" stop-color="#FFC57D"/>
            <stop offset="0.52" stop-color="#FFC57D"/>
            <stop offset="0.57" stop-color="#F5BD78"/>
            <stop offset="0.77" stop-color="#5E492E"/>
            <stop offset="0.79" stop-color="#513F28"/>
            <stop offset="1" stop-color="#362A1A"/>
        </linearGradient>
        <linearGradient id="paint29_linear_52_611" x1="662.554" y1="-470.3" x2="-781.767" y2="684.423" gradientUnits="userSpaceOnUse">
            <stop stop-color="#524028"/>
            <stop offset="0.13" stop-color="#E6B271"/>
            <stop offset="0.22" stop-color="#FFC57D"/>
            <stop offset="0.52" stop-color="#FFC57D"/>
            <stop offset="0.57" stop-color="#F4BD78"/>
            <stop offset="0.77" stop-color="#5D492D"/>
            <stop offset="0.79" stop-color="#513F28"/>
            <stop offset="1" stop-color="#362A1A"/>
        </linearGradient>
        <linearGradient id="paint30_linear_52_611" x1="718.938" y1="-492.51" x2="-771.041" y2="672.389" gradientUnits="userSpaceOnUse">
            <stop stop-color="#524028"/>
            <stop offset="0.13" stop-color="#E3B06F"/>
            <stop offset="0.22" stop-color="#FFC57D"/>
            <stop offset="0.52" stop-color="#FFC57D"/>
            <stop offset="0.57" stop-color="#F3BC77"/>
            <stop offset="0.77" stop-color="#5D482D"/>
            <stop offset="0.79" stop-color="#513F28"/>
            <stop offset="1" stop-color="#362A1A"/>
        </linearGradient>
        <linearGradient id="paint31_linear_52_611" x1="681.267" y1="-431.884" x2="-807.353" y2="689.564" gradientUnits="userSpaceOnUse">
            <stop stop-color="#524028"/>
            <stop offset="0.13" stop-color="#E1AE6E"/>
            <stop offset="0.22" stop-color="#FFC57D"/>
            <stop offset="0.52" stop-color="#FFC57D"/>
            <stop offset="0.57" stop-color="#F2BB77"/>
            <stop offset="0.77" stop-color="#5C482D"/>
            <stop offset="0.79" stop-color="#513F28"/>
            <stop offset="1" stop-color="#362A1A"/>
        </linearGradient>
        <linearGradient id="paint32_linear_52_611" x1="799.427" y1="-426.227" x2="-787.188" y2="681.597" gradientUnits="userSpaceOnUse">
            <stop stop-color="#524028"/>
            <stop offset="0.13" stop-color="#DEAC6D"/>
            <stop offset="0.22" stop-color="#FFC57D"/>
            <stop offset="0.52" stop-color="#FFC57D"/>
            <stop offset="0.57" stop-color="#F1BA76"/>
            <stop offset="0.77" stop-color="#5C472D"/>
            <stop offset="0.79" stop-color="#513F28"/>
            <stop offset="1" stop-color="#362A1A"/>
        </linearGradient>
        <linearGradient id="paint33_linear_52_611" x1="745.699" y1="-136.959" x2="-846.826" y2="737.637" gradientUnits="userSpaceOnUse">
            <stop stop-color="#524028"/>
            <stop offset="0.13" stop-color="#DCAA6C"/>
            <stop offset="0.22" stop-color="#FFC57D"/>
            <stop offset="0.52" stop-color="#FFC57D"/>
            <stop offset="0.57" stop-color="#F0B976"/>
            <stop offset="0.77" stop-color="#5B472C"/>
            <stop offset="0.79" stop-color="#513F28"/>
            <stop offset="1" stop-color="#362A1A"/>
        </linearGradient>
        <linearGradient id="paint34_linear_52_611" x1="-288.592" y1="318.814" x2="-464.421" y2="68.7443" gradientUnits="userSpaceOnUse">
            <stop stop-color="#524028"/>
            <stop offset="0.13" stop-color="#DAA86A"/>
            <stop offset="0.22" stop-color="#FFC57D"/>
            <stop offset="0.52" stop-color="#FFC57D"/>
            <stop offset="0.57" stop-color="#EFB975"/>
            <stop offset="0.77" stop-color="#5B472C"/>
            <stop offset="0.79" stop-color="#513F28"/>
            <stop offset="1" stop-color="#362A1A"/>
        </linearGradient>
        <linearGradient id="paint35_linear_52_611" x1="-608.431" y1="848.985" x2="499.542" y2="-618.386" gradientUnits="userSpaceOnUse">
            <stop stop-color="#524028"/>
            <stop offset="0.13" stop-color="#D7A669"/>
            <stop offset="0.22" stop-color="#FFC57D"/>
            <stop offset="0.52" stop-color="#FFC57D"/>
            <stop offset="0.57" stop-color="#EDB874"/>
            <stop offset="0.77" stop-color="#5A462C"/>
            <stop offset="0.79" stop-color="#503F27"/>
            <stop offset="1" stop-color="#362A1A"/>
        </linearGradient>
        <linearGradient id="paint36_linear_52_611" x1="-816.467" y1="713.636" x2="515.854" y2="-722.249" gradientUnits="userSpaceOnUse">
            <stop stop-color="#524028"/>
            <stop offset="0.13" stop-color="#D5A468"/>
            <stop offset="0.22" stop-color="#FFC57D"/>
            <stop offset="0.52" stop-color="#FFC57D"/>
            <stop offset="0.57" stop-color="#ECB774"/>
            <stop offset="0.77" stop-color="#59462B"/>
            <stop offset="0.79" stop-color="#503F27"/>
            <stop offset="1" stop-color="#362A1A"/>
        </linearGradient>
        <linearGradient id="paint37_linear_52_611" x1="-886.974" y1="688.926" x2="447.488" y2="-653.007" gradientUnits="userSpaceOnUse">
            <stop stop-color="#524028"/>
            <stop offset="0.13" stop-color="#D2A267"/>
            <stop offset="0.22" stop-color="#FFC57D"/>
            <stop offset="0.52" stop-color="#FFC57D"/>
            <stop offset="0.57" stop-color="#EBB673"/>
            <stop offset="0.77" stop-color="#59452B"/>
            <stop offset="0.79" stop-color="#503F27"/>
            <stop offset="1" stop-color="#362A1A"/>
        </linearGradient>
        <linearGradient id="paint38_linear_52_611" x1="-914.685" y1="685.498" x2="468.765" y2="-657.4" gradientUnits="userSpaceOnUse">
            <stop stop-color="#524028"/>
            <stop offset="0.13" stop-color="#D0A066"/>
            <stop offset="0.22" stop-color="#FFC57D"/>
            <stop offset="0.52" stop-color="#FFC57D"/>
            <stop offset="0.57" stop-color="#EAB573"/>
            <stop offset="0.77" stop-color="#58452B"/>
            <stop offset="0.79" stop-color="#503F27"/>
            <stop offset="1" stop-color="#362A1A"/>
        </linearGradient>
        <linearGradient id="paint39_linear_52_611" x1="-943.259" y1="671.887" x2="428.725" y2="-632.026" gradientUnits="userSpaceOnUse">
            <stop stop-color="#524028"/>
            <stop offset="0.13" stop-color="#CD9E64"/>
            <stop offset="0.22" stop-color="#FFC57D"/>
            <stop offset="0.52" stop-color="#FFC57D"/>
            <stop offset="0.57" stop-color="#E9B472"/>
            <stop offset="0.77" stop-color="#58442B"/>
            <stop offset="0.79" stop-color="#503F27"/>
            <stop offset="1" stop-color="#362A1A"/>
        </linearGradient>
        <linearGradient id="paint40_linear_52_611" x1="-983.898" y1="655.564" x2="415.681" y2="-655.77" gradientUnits="userSpaceOnUse">
            <stop stop-color="#524028"/>
            <stop offset="0.13" stop-color="#CB9C63"/>
            <stop offset="0.22" stop-color="#FFC57D"/>
            <stop offset="0.52" stop-color="#FFC57D"/>
            <stop offset="0.57" stop-color="#E8B472"/>
            <stop offset="0.77" stop-color="#57442A"/>
            <stop offset="0.79" stop-color="#503F27"/>
            <stop offset="1" stop-color="#362A1A"/>
        </linearGradient>
        <linearGradient id="paint41_linear_52_611" x1="-1020.38" y1="645.924" x2="399.684" y2="-671.39" gradientUnits="userSpaceOnUse">
            <stop stop-color="#524028"/>
            <stop offset="0.13" stop-color="#C89A62"/>
            <stop offset="0.22" stop-color="#FFC57D"/>
            <stop offset="0.52" stop-color="#FFC57D"/>
            <stop offset="0.57" stop-color="#E7B371"/>
            <stop offset="0.77" stop-color="#57432A"/>
            <stop offset="0.79" stop-color="#503F27"/>
            <stop offset="1" stop-color="#362A1A"/>
        </linearGradient>
        <linearGradient id="paint42_linear_52_611" x1="-1031.91" y1="640.057" x2="378.137" y2="-657.867" gradientUnits="userSpaceOnUse">
            <stop stop-color="#524028"/>
            <stop offset="0.13" stop-color="#C69961"/>
            <stop offset="0.22" stop-color="#FFC57D"/>
            <stop offset="0.52" stop-color="#FFC57D"/>
            <stop offset="0.57" stop-color="#E6B271"/>
            <stop offset="0.77" stop-color="#56432A"/>
            <stop offset="0.79" stop-color="#503E27"/>
            <stop offset="1" stop-color="#362A1A"/>
        </linearGradient>
        <linearGradient id="paint43_linear_52_611" x1="-1064.7" y1="634.793" x2="361.523" y2="-670.272" gradientUnits="userSpaceOnUse">
            <stop stop-color="#524028"/>
            <stop offset="0.13" stop-color="#C3975F"/>
            <stop offset="0.22" stop-color="#FFC57D"/>
            <stop offset="0.52" stop-color="#FFC57D"/>
            <stop offset="0.57" stop-color="#E5B170"/>
            <stop offset="0.77" stop-color="#55432A"/>
            <stop offset="0.79" stop-color="#503E27"/>
            <stop offset="1" stop-color="#362A1A"/>
        </linearGradient>
        <linearGradient id="paint44_linear_52_611" x1="-1096.91" y1="631.233" x2="343.004" y2="-679.917" gradientUnits="userSpaceOnUse">
            <stop stop-color="#524028"/>
            <stop offset="0.13" stop-color="#C1955E"/>
            <stop offset="0.22" stop-color="#FFC57D"/>
            <stop offset="0.52" stop-color="#FFC57D"/>
            <stop offset="0.57" stop-color="#E4B070"/>
            <stop offset="0.77" stop-color="#554229"/>
            <stop offset="0.79" stop-color="#503E27"/>
            <stop offset="1" stop-color="#362A1A"/>
        </linearGradient>
        <linearGradient id="paint45_linear_52_611" x1="-1102.75" y1="627.277" x2="329.154" y2="-671.793" gradientUnits="userSpaceOnUse">
            <stop stop-color="#BE935D"/>
            <stop offset="0.22" stop-color="#FFC57D"/>
            <stop offset="0.52" stop-color="#FFC57D"/>
            <stop offset="0.57" stop-color="#E2AF6F"/>
            <stop offset="0.77" stop-color="#544229"/>
            <stop offset="0.79" stop-color="#4F3E27"/>
            <stop offset="1" stop-color="#362A1A"/>
        </linearGradient>
        <linearGradient id="paint46_linear_52_611" x1="-1132.37" y1="626.946" x2="311.446" y2="-678.659" gradientUnits="userSpaceOnUse">
            <stop stop-color="#524028"/>
            <stop offset="0.13" stop-color="#BC915C"/>
            <stop offset="0.22" stop-color="#FFC57D"/>
            <stop offset="0.52" stop-color="#FFC57D"/>
            <stop offset="0.57" stop-color="#E1AF6F"/>
            <stop offset="0.77" stop-color="#544129"/>
            <stop offset="0.79" stop-color="#4F3E27"/>
            <stop offset="1" stop-color="#362A1A"/>
        </linearGradient>
        <linearGradient id="paint47_linear_52_611" x1="-1158.87" y1="630.888" x2="295.817" y2="-680.777" gradientUnits="userSpaceOnUse">
            <stop stop-color="#524028"/>
            <stop offset="0.13" stop-color="#B98F5A"/>
            <stop offset="0.22" stop-color="#FFC57D"/>
            <stop offset="0.52" stop-color="#FFC57D"/>
            <stop offset="0.57" stop-color="#E0AE6E"/>
            <stop offset="0.77" stop-color="#534129"/>
            <stop offset="0.79" stop-color="#4F3E27"/>
            <stop offset="1" stop-color="#362A1A"/>
        </linearGradient>
        <linearGradient id="paint48_linear_52_611" x1="-1158.06" y1="632.121" x2="290.525" y2="-671.107" gradientUnits="userSpaceOnUse">
            <stop stop-color="#524028"/>
            <stop offset="0.13" stop-color="#B78D59"/>
            <stop offset="0.22" stop-color="#FFC57D"/>
            <stop offset="0.52" stop-color="#FFC57D"/>
            <stop offset="0.57" stop-color="#DFAD6E"/>
            <stop offset="0.77" stop-color="#534028"/>
            <stop offset="0.79" stop-color="#4F3E27"/>
            <stop offset="1" stop-color="#362A1A"/>
        </linearGradient>
        <clipPath id="clip0_52_611">
            <rect width="2272.14" height="1418.94" fill="white" transform="translate(1418.63 65.0861) rotate(135.848)"/>
        </clipPath>
    </defs>
</svg>
