<svg width="1440" height="946" viewBox="0 0 1440 946" fill="none" xmlns="http://www.w3.org/2000/svg">
    <g opacity="0.5" clip-path="url(#clip0_38_351)">
        <path d="M1761.45 -355.512C1872.92 -67.4471 1542.82 -180.282 1426.15 -205.456C1309.48 -230.615 1533.96 29.0037 1482.08 105.821C1430.2 182.639 1388.57 66.8805 1316.89 137.486C1245.2 208.091 1313.04 343.181 1105.38 314.079C897.722 284.978 1033.72 652.919 1011.11 675.078C988.521 697.222 859.652 630.99 880.632 695.722C901.611 760.453 796.514 739.298 725.421 756.098C654.345 772.883 681.089 967.156 578.239 950.352C475.389 933.549 344.718 792.999 349.897 808.103" stroke="url(#paint0_linear_38_351)" stroke-width="0.75" stroke-miterlimit="10"/>
        <path d="M1774.79 -325.642C1880.38 -52.7558 1561.64 -167.22 1445.65 -192.188C1329.67 -217.13 1542.67 38.6104 1489.62 111.894C1436.56 185.178 1391.31 74.3737 1324.61 144.648C1257.96 214.933 1314.93 338.536 1117.46 312.233C919.995 285.93 1055.18 653.805 1022.12 672.515C989.063 691.224 870.803 636.207 886.339 700.964C901.891 765.706 800.599 739.369 730.315 759.262C660.032 779.155 697.343 977.406 593.648 959.828C489.954 942.251 348.089 802.422 358.463 832.616" stroke="url(#paint1_linear_38_351)" stroke-width="0.75" stroke-miterlimit="10"/>
        <path d="M1788.15 -295.745C1887.88 -37.9947 1580.46 -154.143 1465.18 -178.909C1349.89 -203.66 1551.42 48.2289 1497.19 117.979C1442.98 187.714 1394.06 81.8511 1332.39 151.805C1270.73 221.76 1316.83 333.874 1129.58 310.398C942.338 286.922 1076.67 654.676 1033.15 669.936C989.637 685.196 881.996 641.436 892.105 706.203C902.229 770.955 804.758 739.421 735.268 762.422C665.751 785.395 713.628 987.625 609.116 969.3C504.604 950.976 351.534 811.826 367.087 857.125" stroke="url(#paint2_linear_38_351)" stroke-width="0.75" stroke-miterlimit="10"/>
        <path d="M1801.48 -265.875C1895.35 -23.3037 1599.29 -141.081 1484.67 -165.641C1370.09 -190.174 1560.11 57.8509 1504.72 124.052C1449.31 190.226 1396.79 89.3441 1340.15 158.994C1283.5 228.645 1318.74 329.256 1141.69 308.579C964.638 287.903 1098.16 655.589 1044.18 667.415C990.232 679.253 893.142 646.711 897.839 711.473C902.536 776.236 808.886 739.504 740.162 765.586C671.438 791.667 729.855 997.847 624.483 978.764C519.126 959.666 354.862 821.238 375.637 881.653" stroke="url(#paint3_linear_38_351)" stroke-width="0.75" stroke-miterlimit="10"/>
        <path d="M1814.84 -235.978C1902.83 -8.56966 1618.1 -128.004 1504.19 -152.346C1390.28 -176.688 1568.85 67.4851 1512.26 130.125C1455.67 192.765 1399.49 96.8098 1347.89 166.141C1296.26 235.487 1320.64 324.595 1153.78 306.717C986.927 288.84 1119.62 656.432 1055.2 664.836C990.79 673.24 904.336 651.94 903.605 716.712C902.858 781.5 813.072 739.583 745.115 768.746C677.173 797.892 746.14 1008.07 639.95 988.237C533.76 968.407 358.318 830.685 384.261 906.162" stroke="url(#paint4_linear_38_351)" stroke-width="0.75" stroke-miterlimit="10"/>
        <path d="M1828.18 -206.108C1910.32 6.14867 1636.93 -114.942 1523.7 -139.094C1410.5 -163.219 1577.58 77.1189 1519.81 136.183C1462.03 195.246 1402.24 104.287 1355.63 173.287C1309.01 242.286 1322.53 319.95 1165.86 304.871C1009.23 289.82 1141.06 657.29 1066.2 662.288C991.332 667.243 915.497 657.199 909.312 721.955C903.112 786.726 817.158 739.654 749.982 771.882C682.833 804.137 762.34 1018.26 655.333 997.685C548.299 977.082 361.678 840.065 392.8 930.647" stroke="url(#paint5_linear_38_351)" stroke-width="0.75" stroke-miterlimit="10"/>
        <path d="M1841.55 -176.227C1917.81 20.8672 1655.76 -101.88 1543.23 -125.814C1430.71 -149.748 1586.33 86.7376 1527.38 142.268C1468.43 197.798 1405.03 111.777 1363.4 180.461C1321.8 249.156 1324.45 315.316 1178.01 303.064C1031.57 290.812 1162.58 658.231 1077.25 659.736C991.958 661.269 926.69 662.428 915.062 727.209C903.434 791.99 821.301 739.722 754.919 775.057C688.536 810.393 778.62 1028.54 670.742 1007.16C562.89 985.811 365.049 849.488 401.35 955.175" stroke="url(#paint6_linear_38_351)" stroke-width="0.75" stroke-miterlimit="10"/>
        <path d="M1854.89 -146.357C1925.3 35.5857 1674.56 -88.8457 1562.74 -112.562C1450.92 -136.278 1595.04 96.3443 1534.9 148.298C1474.8 200.279 1407.73 119.2 1371.15 187.591C1334.55 255.955 1326.37 310.639 1190.12 301.187C1053.87 291.734 1184.05 659.058 1088.3 657.142C992.532 655.241 937.9 667.642 920.844 732.433C903.788 797.224 825.477 739.759 759.86 778.175C694.271 816.618 794.894 1038.72 686.199 1016.59C577.503 994.466 368.484 858.85 409.964 979.641" stroke="url(#paint7_linear_38_351)" stroke-width="0.75" stroke-miterlimit="10"/>
        <path d="M1868.22 -116.487C1932.75 50.2922 1693.37 -75.7684 1582.23 -99.2942C1471.1 -122.82 1603.75 105.951 1542.44 154.371C1481.13 202.791 1410.46 126.693 1378.88 194.753C1347.29 262.813 1328.23 305.967 1202.2 299.34C1076.17 292.714 1205.52 659.944 1099.3 654.593C993.074 649.243 949.035 672.874 926.551 737.675C904.068 802.477 829.578 739.814 764.755 781.338C699.947 822.847 811.121 1048.94 701.608 1026.07C592.095 1003.2 371.855 868.273 418.53 1004.15" stroke="url(#paint8_linear_38_351)" stroke-width="0.75" stroke-miterlimit="10"/>
        <path d="M1881.58 -86.5899C1940.24 65.0106 1712.18 -62.6913 1601.77 -86.0147C1491.34 -109.323 1612.5 115.569 1550.01 160.456C1487.53 205.342 1413.24 134.197 1386.66 201.911C1360.08 269.624 1330.16 301.333 1214.32 297.505C1098.49 293.678 1227 660.814 1110.32 652.014C993.632 643.23 960.228 678.103 932.291 742.887C904.379 807.699 833.695 739.854 769.654 784.444C705.613 829.033 827.353 1059.1 716.98 1035.47C606.607 1011.84 375.188 877.626 427.058 1028.6" stroke="url(#paint9_linear_38_351)" stroke-width="0.75" stroke-miterlimit="10"/>
        <path d="M1894.92 -56.7201C1947.72 79.7444 1731.01 -49.6296 1621.26 -72.7471C1511.51 -95.8645 1621.19 125.191 1557.55 166.528C1493.9 207.865 1415.94 141.663 1394.39 209.072C1372.83 276.482 1332.04 296.687 1226.4 295.659C1120.76 294.631 1248.44 661.673 1121.34 649.451C994.216 637.244 971.379 683.319 938.04 748.141C904.702 812.964 837.839 739.922 774.591 787.619C711.342 835.317 843.623 1069.34 732.432 1044.96C621.241 1020.58 378.617 887.046 435.693 1053.15" stroke="url(#paint10_linear_38_351)" stroke-width="0.75" stroke-miterlimit="10"/>
        <path d="M1908.29 -26.8383C1955.23 94.4475 1749.84 -36.5677 1640.81 -59.4827C1531.76 -82.3823 1629.96 134.795 1565.11 172.571C1500.26 210.347 1418.71 149.125 1402.19 216.215C1385.65 283.321 1334 292.022 1238.56 293.794C1143.11 295.565 1269.98 662.539 1132.41 646.884C994.832 631.228 982.615 688.56 943.806 753.38C904.998 818.201 841.998 739.974 779.543 790.779C717.087 841.585 859.908 1079.56 747.899 1054.43C635.864 1029.28 382.047 896.466 444.317 1077.66" stroke="url(#paint11_linear_38_351)" stroke-width="0.75" stroke-miterlimit="10"/>
        <path d="M1921.63 3.03159C1962.68 109.154 1768.67 -23.5059 1660.3 -46.215C1551.94 -68.9241 1638.65 144.417 1572.65 178.644C1506.64 212.871 1421.44 156.618 1409.91 223.377C1398.38 290.136 1335.87 287.392 1250.65 291.99C1165.42 296.588 1291.43 663.441 1143.43 644.363C995.385 625.273 993.803 693.847 949.567 758.678C905.331 823.509 846.153 740.084 784.464 793.97C722.775 847.857 876.188 1089.83 763.293 1063.92C650.44 1038.03 385.444 905.916 452.852 1102.2" stroke="url(#paint12_linear_38_351)" stroke-width="0.75" stroke-miterlimit="10"/>
        <path d="M1934.99 32.9287C1970.2 123.9 1787.48 -10.4287 1679.84 -32.9354C1572.18 -55.4267 1647.4 154.035 1580.22 184.729C1513.04 215.422 1424.21 164.08 1417.68 230.55C1411.17 297.005 1337.8 282.759 1262.77 290.156C1187.74 297.552 1312.94 664.338 1154.44 641.799C995.969 619.288 1004.95 699.064 955.29 763.905C905.626 828.746 850.254 740.14 789.374 797.119C728.493 854.097 892.431 1100.04 778.718 1073.38C665.005 1046.73 388.831 915.324 461.433 1126.7" stroke="url(#paint13_linear_38_351)" stroke-width="0.75" stroke-miterlimit="10"/>
        <path d="M1948.32 62.7984C1977.65 138.606 1806.31 2.63308 1699.33 -19.6677C1592.35 -41.9685 1656.1 163.657 1587.75 190.801C1519.39 217.918 1426.94 171.573 1425.42 237.697C1423.9 303.82 1339.67 278.07 1274.86 288.294C1210.03 298.49 1334.4 665.181 1165.47 639.22C996.543 613.259 1016.15 704.292 961.029 769.116C905.938 833.968 854.387 740.164 794.273 800.224C734.159 860.283 908.663 1110.2 794.132 1082.8C679.602 1055.4 392.207 924.689 470.004 1151.15" stroke="url(#paint14_linear_38_351)" stroke-width="0.75" stroke-miterlimit="10"/>
        <path d="M1961.68 92.6956C1985.16 153.352 1825.12 15.7103 1718.86 -6.38809C1612.59 -28.471 1664.85 173.276 1595.3 196.859C1525.76 220.442 1429.69 179.051 1433.19 244.87C1436.68 310.689 1341.59 273.452 1286.97 286.475C1232.35 299.497 1355.86 666.067 1176.51 636.684C997.112 607.289 1027.32 709.537 966.806 774.398C906.26 839.233 858.557 740.259 799.236 803.427C739.915 866.594 924.958 1120.47 809.568 1092.3C694.193 1064.13 395.62 934.124 478.597 1175.69" stroke="url(#paint15_linear_38_351)" stroke-width="0.75" stroke-miterlimit="10"/>
        <path d="M1975.03 122.55C1992.63 168.043 1843.97 28.7566 1738.37 6.86417C1632.77 -15.0283 1673.55 182.883 1602.85 202.917C1532.13 222.966 1432.41 186.501 1440.94 252.001C1449.48 317.501 1343.5 268.776 1299.08 284.597C1254.66 300.419 1377.36 666.922 1187.54 634.105C997.712 601.288 1038.52 714.766 972.545 779.61C906.572 844.454 862.69 740.284 804.136 806.532C745.581 872.781 941.175 1130.65 824.982 1101.72C708.79 1072.8 398.996 943.489 487.194 1200.17" stroke="url(#paint16_linear_38_351)" stroke-width="0.75" stroke-miterlimit="10"/>
        <path d="M1988.37 152.42C2000.09 182.734 1862.75 41.8066 1757.88 20.1166C1652.99 -1.55805 1682.31 192.501 1610.4 208.974C1538.5 225.447 1435.16 193.979 1448.68 259.147C1462.21 324.316 1345.4 264.115 1311.18 282.735C1276.95 301.356 1398.82 667.765 1198.54 631.499C998.259 595.232 1049.66 719.94 978.242 784.81C906.825 849.68 866.765 740.312 809.019 809.653C751.257 879.009 957.417 1140.85 840.381 1111.16C723.329 1081.47 402.357 952.87 495.75 1224.64" stroke="url(#paint17_linear_38_351)" stroke-width="0.75" stroke-miterlimit="10"/>
        <path d="M2001.73 182.317C2007.6 197.495 1881.61 54.8954 1777.4 33.4113C1673.19 11.9272 1691.04 202.135 1617.93 215.047C1544.86 227.986 1437.89 201.471 1456.42 266.293C1474.97 331.158 1347.29 259.469 1323.3 280.901C1299.29 302.348 1420.33 668.662 1209.58 628.962C998.827 589.262 1060.86 725.211 984.018 790.091C907.174 854.972 870.935 740.407 813.982 812.856C757.002 885.277 973.713 1151.11 855.817 1120.66C737.947 1090.23 405.77 962.305 504.342 1249.18" stroke="url(#paint18_linear_38_351)" stroke-width="0.75" stroke-miterlimit="10"/>
        <path d="M2015.06 212.187C2015.06 212.187 1900.4 67.9455 1796.91 46.6638C1693.4 25.3975 1699.75 211.742 1625.48 221.105C1551.22 230.468 1440.63 208.906 1464.19 273.467C1487.73 338 1349.22 254.835 1335.4 279.082C1321.59 303.328 1441.8 669.549 1220.62 626.426C999.438 583.304 1072.07 730.483 989.768 795.346C907.496 860.237 875.079 740.475 818.892 816.004C762.705 891.534 989.956 1161.32 871.242 1130.12C752.527 1098.92 409.157 971.713 512.908 1273.69" stroke="url(#paint19_linear_38_351)" stroke-width="0.75" stroke-miterlimit="10"/>
        <path d="M527.801 1274.43C499.37 1191.65 510.473 1141.82 535.391 1110.46C561.719 1077.62 616.454 1075.32 671.858 1080.07C748.587 1086.65 831.456 1109.57 879.861 1120.48C893.228 1123.49 902.21 1122.84 907.9 1119.28C926.8 1107.47 909.006 1065.62 884.953 1013.06C860.092 958.847 833.696 902.03 831.418 856.752C830.605 840.862 832.79 826.788 840.189 816.205C893.478 739.824 923.295 851.115 1004.99 788.271C1042.05 759.779 1050.46 719.37 1064.03 681.978C1077.56 644.618 1097.23 613.197 1164.33 612.492C1183.3 612.298 1205.78 615.062 1232.37 620.488C1243.55 622.808 1253.8 624.011 1263.22 624.106C1319.63 624.7 1348.32 591.213 1361.6 548.207C1389.75 456.974 1342.84 299.696 1351.61 281.517C1362.36 259.178 1462.85 314.446 1475.72 290.532C1477.87 286.537 1477.62 280.298 1474.29 271.205C1450.88 207.243 1561.24 227.269 1635.4 220.084C1644.83 219.166 1653 215.587 1660.24 210.096C1710.24 172.394 1720.1 33.2047 1805.99 48.7338C1904.6 66.8947 2017.12 197.657 2023.55 199.222" stroke="url(#paint20_linear_38_351)" stroke-width="0.75" stroke-miterlimit="10"/>
        <path d="M542.721 1275.19C515.252 1195.24 530.829 1146.66 553.622 1112.63C577.481 1076.93 635.593 1077.57 689.845 1081.1C764.317 1085.98 841.287 1102.1 888.566 1110.86C901.524 1113.26 910.405 1112.44 916.344 1109.02C936.873 1097.16 920.99 1058.24 898.222 1006.24C874.657 952.622 853.938 902.671 852.837 857.366C852.448 841.754 854.4 827.375 861.555 816.446C911.999 739.266 939.215 842.086 1020.28 781.235C1058.21 752.748 1068.81 716.376 1081.53 678.746C1094.21 641.148 1110.96 608.211 1176.43 606.373C1195.42 605.846 1217.83 608.889 1244.21 614.574C1255.35 616.982 1265.63 618.314 1274.98 618.327C1330 618.353 1359.61 585.462 1374.57 546.553C1406.71 462.925 1359.24 304.812 1367.86 283.964C1377.68 260.249 1474.97 312.41 1486.27 288.257C1488.18 284.233 1487.72 277.934 1484.43 268.954C1461.14 205.564 1571.31 224.082 1645.36 219.076C1654.82 218.445 1663.02 215.313 1670.34 210.439C1720.69 177.016 1733.64 38.0745 1815.17 50.8705C1908.75 65.5718 2019.29 183.222 2032.13 186.324" stroke="url(#paint21_linear_38_351)" stroke-width="0.75" stroke-miterlimit="10"/>
        <path d="M557.614 1275.92C531.134 1198.84 551.238 1151.54 571.801 1114.74C593.312 1076.28 654.652 1079.73 707.789 1082.11C779.989 1085.32 851.048 1094.58 897.201 1101.2C909.734 1103 918.519 1101.96 924.693 1098.68C946.877 1086.81 932.906 1050.81 911.396 999.345C889.125 946.332 874.057 903.219 874.16 857.913C874.196 842.579 875.941 827.924 882.825 816.62C930.462 738.713 955.051 833.034 1035.48 774.133C1074.31 745.679 1087.11 713.328 1098.91 675.421C1110.7 637.572 1124.54 603.045 1188.43 600.145C1207.39 599.272 1229.79 602.649 1255.94 608.55C1267.09 611.06 1277.32 612.496 1286.6 612.411C1340.24 611.913 1370.73 579.707 1387.44 544.789C1423.6 468.996 1375.59 309.874 1384.02 286.329C1392.99 261.319 1486.99 310.249 1496.77 285.927C1498.42 281.832 1497.77 275.501 1494.5 266.622C1471.33 203.804 1581.31 220.798 1655.21 217.958C1664.72 217.599 1672.93 214.887 1680.3 210.647C1731 181.459 1747.11 42.9482 1824.23 52.8553C1912.8 64.2407 2021.35 168.635 2040.59 173.275" stroke="url(#paint22_linear_38_351)" stroke-width="0.75" stroke-miterlimit="10"/>
        <path d="M572.534 1276.68C547.043 1202.47 571.663 1156.42 590.006 1116.88C609.128 1075.64 673.706 1081.95 725.733 1083.12C795.672 1084.71 860.778 1087.1 905.863 1091.57C917.971 1092.77 926.671 1091.55 933.068 1088.37C956.907 1076.49 944.822 1043.39 924.596 992.479C903.647 940.095 894.213 903.836 895.51 858.487C895.944 843.404 897.509 828.499 904.148 816.848C949.058 738.296 971.008 824.076 1050.72 767.086C1090.45 738.664 1105.42 710.322 1116.38 672.22C1127.32 634.133 1138.19 597.976 1200.5 594.057C1219.46 592.866 1241.83 596.534 1267.74 602.666C1278.91 605.32 1289.12 606.83 1298.32 606.663C1350.6 605.624 1381.92 574.266 1400.39 543.165C1440.54 475.44 1392.06 315.13 1400.27 288.834C1408.44 262.569 1499.1 308.212 1507.32 283.711C1508.71 279.544 1507.86 273.196 1504.63 264.43C1481.61 202.211 1591.38 217.669 1665.16 217.008C1674.67 216.909 1682.94 214.671 1690.37 211.022C1741.45 186.081 1760.64 47.9772 1833.38 55.0228C1916.97 63.1198 2023.47 154.203 2049.14 160.408" stroke="url(#paint23_linear_38_351)" stroke-width="0.75" stroke-miterlimit="10"/>
        <path d="M587.427 1277.42C562.898 1206.04 592.072 1161.3 608.184 1118.99C624.943 1075 692.776 1084.15 743.667 1084.09C811.318 1084.02 870.482 1079.6 914.488 1081.87C926.171 1082.48 934.786 1081.07 941.405 1077.99C966.926 1066.12 956.743 1035.9 937.759 985.544C918.105 933.762 914.279 904.329 916.823 858.991C917.666 844.202 919.023 829.02 925.423 816.964C967.632 737.793 986.945 815.033 1065.88 759.913C1106.55 731.536 1123.63 707.192 1133.72 668.824C1143.8 630.515 1151.73 592.697 1212.44 587.775C1231.39 586.222 1253.73 590.239 1279.45 596.615C1290.6 599.385 1300.78 600.984 1309.93 600.705C1360.86 599.168 1405.22 578.414 1413.22 541.331C1430.52 460.947 1408.47 320.231 1416.39 291.086C1423.86 263.648 1511.06 305.895 1517.74 281.241C1518.88 277.002 1517.85 270.622 1514.65 261.985C1491.75 200.337 1601.36 214.299 1674.96 215.777C1684.51 215.966 1692.83 214.159 1700.31 211.143C1751.75 190.423 1774.05 52.7531 1842.41 56.9372C1920.98 61.7183 2025.49 139.545 2057.55 147.303" stroke="url(#paint24_linear_38_351)" stroke-width="0.75" stroke-miterlimit="10"/>
        <path d="M602.331 1278.19C578.791 1209.68 612.491 1166.23 626.4 1121.18C640.795 1074.43 711.867 1086.44 761.648 1085.17C827.048 1083.51 880.217 1072.22 923.171 1072.32C934.413 1072.35 943.002 1070.76 949.828 1067.8C977.058 1055.97 968.707 1028.59 951.007 978.791C932.648 927.611 934.44 905.048 938.236 859.663C939.462 845.141 940.654 829.693 946.81 817.29C986.382 737.598 1003.02 806.227 1081.19 752.963C1122.76 724.618 1142.03 704.311 1151.22 665.694C1160.41 627.134 1165.4 587.656 1224.53 581.73C1243.49 579.843 1265.77 584.182 1291.27 590.774C1302.41 593.661 1312.57 595.376 1321.66 594.999C1371.21 592.954 1418.69 575.702 1426.16 539.765C1442.12 462.865 1425.03 325.612 1432.62 293.649C1439.41 265.065 1523.15 303.874 1528.28 279.082C1529.16 274.772 1527.93 268.375 1524.78 259.851C1502.02 198.76 1611.44 211.256 1684.91 214.885C1694.5 215.346 1702.85 213.986 1710.37 211.576C1762.21 195.088 1787.57 57.8559 1851.55 59.163C1925.1 60.6437 2027.62 125.199 2066.09 134.494" stroke="url(#paint25_linear_38_351)" stroke-width="0.75" stroke-miterlimit="10"/>
        <path d="M617.224 1278.93C594.674 1213.28 632.927 1171.15 644.578 1123.29C656.653 1073.8 730.905 1088.67 779.582 1086.14C842.715 1082.91 889.915 1064.77 931.796 1062.62C942.597 1062.07 951.117 1060.28 958.166 1057.42C987.104 1045.63 980.713 1021.13 964.17 971.855C947.191 921.301 954.475 905.572 959.549 860.167C961.13 845.884 962.169 830.214 968.069 817.421C1005.1 737.275 1019.02 797.28 1096.38 745.818C1138.89 717.56 1160.29 701.193 1168.62 662.353C1176.96 623.555 1178.94 582.319 1236.52 575.502C1255.47 573.253 1277.73 577.942 1303 584.751C1314.13 587.754 1324.3 589.57 1333.28 589.084C1381.5 586.568 1407.28 549.595 1439 537.974C1472.69 478.603 1441.51 330.81 1448.76 295.987C1454.94 266.296 1535.1 301.572 1538.75 276.725C1539.38 272.344 1537.96 265.915 1534.82 257.491C1512.21 196.999 1621.47 207.999 1694.76 213.767C1704.39 214.516 1712.76 213.56 1720.33 211.783C1772.63 199.524 1800.98 62.7329 1860.59 61.1202C1929.11 59.3006 2029.63 110.557 2074.53 121.417" stroke="url(#paint26_linear_38_351)" stroke-width="0.75" stroke-miterlimit="10"/>
        <path d="M632.144 1279.69C610.556 1216.88 653.362 1176.06 662.767 1125.45C672.479 1073.2 749.954 1090.95 797.536 1087.2C858.387 1082.41 899.619 1057.42 940.468 1053.03C950.856 1051.93 959.306 1049.94 966.551 1047.15C997.224 1035.44 992.666 1013.78 977.381 965.032C961.713 915.065 974.53 906.181 980.91 860.784C982.873 846.767 983.773 830.86 989.403 817.692C1023.9 737.135 1035.12 788.502 1111.64 738.813C1155.09 710.6 1178.61 698.23 1186.09 659.152C1193.53 620.104 1192.56 577.122 1248.61 569.398C1267.55 566.789 1289.77 571.827 1314.82 578.852C1325.97 581.998 1336.1 583.904 1345.02 583.32C1391.88 580.322 1417.37 542.874 1451.96 536.335C1486.98 482.572 1458.15 336.172 1465.04 298.461C1470.63 267.691 1547.18 299.407 1549.33 274.477C1549.7 270.024 1548.08 263.579 1544.99 255.268C1522.5 195.348 1631.65 204.922 1704.72 212.758C1714.38 213.795 1722.8 213.27 1730.42 212.143C1783.17 204.112 1814.49 67.7345 1869.75 63.2723C1933.2 58.1404 2031.79 96.1366 2083.09 108.534" stroke="url(#paint27_linear_38_351)" stroke-width="0.75" stroke-miterlimit="10"/>
        <path d="M647.037 1280.42C626.438 1220.48 673.797 1180.98 680.972 1127.59C688.348 1072.62 769.018 1093.21 815.48 1088.21C874.075 1081.9 909.338 1050.05 949.104 1043.37C959.077 1041.71 967.474 1039.51 974.926 1036.84C1007.36 1025.22 1004.61 1006.38 990.582 958.167C976.208 908.801 994.575 906.748 1002.26 861.359C1004.58 847.581 1005.35 831.478 1010.7 817.893C1042.74 736.964 1051.19 779.696 1126.86 731.739C1171.26 703.612 1196.92 695.225 1203.5 655.896C1210.1 616.611 1206.09 571.843 1260.63 563.256C1279.55 560.285 1301.77 565.7 1326.55 572.929C1337.71 576.177 1347.79 578.187 1356.67 577.533C1402.19 574.08 1427.39 536.129 1464.86 534.699C1501.24 486.53 1474.77 341.55 1481.21 300.927C1486.27 269.09 1559.12 297.164 1559.81 272.221C1559.94 267.681 1558.12 261.219 1555.06 253.037C1532.69 193.688 1641.74 201.821 1714.6 211.769C1724.29 213.093 1732.79 213.027 1740.41 212.478C1793.7 208.715 1827.88 72.7434 1878.83 65.4006C1937.24 56.9839 2033.84 81.6656 2091.57 95.6281" stroke="url(#paint28_linear_38_351)" stroke-width="0.75" stroke-miterlimit="10"/>
        <path d="M661.957 1281.18C642.347 1224.1 694.259 1185.92 699.177 1129.73C704.216 1072.03 788.093 1095.52 833.467 1089.24C889.817 1081.44 919.069 1042.73 957.808 1033.75C967.351 1031.56 975.668 1029.11 983.344 1026.55C1017.51 1015 1016.59 998.995 1003.82 951.313C990.773 902.577 1014.62 907.314 1023.65 861.945C1026.35 848.433 1026.97 832.109 1032.08 818.118C1061.69 736.887 1067.4 770.926 1142.16 724.687C1187.52 696.648 1215.28 692.216 1221.02 652.649C1226.75 613.141 1219.72 566.53 1272.72 557.094C1291.62 553.72 1313.82 559.527 1338.41 566.999C1349.55 570.363 1359.63 572.474 1368.43 571.696C1412.61 567.788 1437.49 529.35 1477.84 532.986C1515.58 490.453 1491.52 346.905 1497.49 303.343C1502 270.438 1571.14 294.843 1570.42 269.942C1570.27 265.304 1568.29 258.837 1565.23 250.756C1543.01 192.006 1651.94 198.712 1724.59 210.729C1734.33 212.325 1742.87 212.691 1750.51 212.764C1804.37 213.28 1841.39 77.6869 1888.02 67.4791C1941.32 55.7809 2036.02 67.1719 2100.14 82.6874" stroke="url(#paint29_linear_38_351)" stroke-width="0.75" stroke-miterlimit="10"/>
        <path d="M676.85 1281.92C658.202 1227.67 714.695 1190.84 717.356 1131.84C720.074 1071.41 807.126 1097.81 851.385 1090.22C905.489 1080.94 928.767 1035.44 966.417 1024.07C975.546 1021.32 983.794 1018.67 991.665 1016.18C1027.6 1004.73 1028.47 991.5 1016.97 944.393C1005.21 896.258 1034.57 907.814 1044.95 862.465C1047.99 849.207 1048.51 832.657 1053.32 818.265C1080.61 736.799 1083.49 762.104 1157.32 717.573C1203.66 689.633 1233.51 689.128 1238.37 649.355C1243.22 609.581 1233.16 561.126 1284.67 550.913C1303.56 547.177 1325.75 553.361 1350.09 561.022C1361.25 564.53 1371.3 566.73 1380.02 565.854C1422.88 561.535 1447.45 522.551 1490.67 531.268C1529.74 494.344 1508.12 352.256 1513.63 305.739C1517.62 271.794 1582.97 292.448 1580.86 267.616C1580.44 262.864 1578.27 256.423 1575.26 248.454C1553.17 190.276 1662 195.584 1734.41 209.642C1744.21 211.553 1752.8 212.35 1760.47 213.029C1814.93 217.853 1854.75 82.6685 1897.08 69.522C1945.28 54.5424 2038.07 52.6427 2108.6 69.6957" stroke="url(#paint30_linear_38_351)" stroke-width="0.75" stroke-miterlimit="10"/>
        <path d="M691.743 1282.65C674.085 1231.27 735.156 1195.78 735.56 1133.98C735.969 1070.85 826.212 1100.16 869.371 1091.24C921.225 1080.53 938.561 1028.22 975.121 1014.45C983.82 1011.16 992.041 1008.33 1000.08 1005.89C1037.79 994.57 1040.46 984.115 1030.21 937.539C1019.75 890.007 1054.59 908.353 1066.34 863.051C1069.74 850.033 1070.16 833.315 1074.69 818.505C1099.67 736.831 1099.71 753.42 1172.61 710.538C1219.93 682.712 1251.89 686.162 1255.87 646.123C1259.86 606.126 1246.76 555.785 1296.77 544.794C1315.64 540.654 1337.8 547.245 1361.93 555.107C1373.08 558.732 1383.11 561.048 1391.75 560.047C1433.28 555.316 1457.53 515.787 1503.62 529.586C1544.04 498.255 1524.88 357.654 1529.85 308.159C1533.37 273.185 1594.83 290.064 1591.38 265.314C1590.69 260.462 1588.38 254.044 1585.38 246.177C1563.4 188.57 1672.18 192.507 1744.34 208.606C1754.17 210.805 1762.81 212.033 1770.52 213.319C1825.64 222.488 1868.16 87.6618 1906.18 71.5766C1949.29 53.3584 2040.14 38.0979 2117.1 56.7157" stroke="url(#paint31_linear_38_351)" stroke-width="0.75" stroke-miterlimit="10"/>
        <path d="M706.663 1283.41C689.994 1234.9 755.634 1200.71 753.766 1136.12C751.853 1070.25 845.282 1102.52 887.315 1092.26C936.961 1080.13 948.312 1020.98 983.741 1004.81C992.036 1001 1000.18 997.934 1008.44 995.595C1047.92 984.416 1052.38 976.733 1043.4 930.689C1034.23 883.759 1074.53 908.911 1087.69 863.625C1091.4 850.834 1091.76 833.961 1095.99 818.706C1118.71 736.836 1115.91 744.708 1187.83 703.463C1236.14 675.737 1270.17 683.13 1273.28 642.868C1276.41 602.648 1260.22 550.366 1308.79 538.652C1327.64 534.107 1349.8 541.118 1373.68 549.169C1384.85 552.937 1394.85 555.343 1403.42 554.245C1443.62 549.102 1467.54 509.042 1516.51 527.908C1558.3 502.213 1541.63 363.067 1546.04 310.609C1549.09 274.608 1606.64 287.684 1601.86 263.058C1600.9 258.092 1598.4 251.7 1595.44 243.945C1573.64 186.922 1682.3 189.476 1754.24 207.601C1764.1 210.088 1772.83 211.759 1780.53 213.639C1836.33 227.197 1881.54 92.729 1915.27 73.6895C1953.26 52.2636 2042.23 23.6388 2125.62 43.8215" stroke="url(#paint32_linear_38_351)" stroke-width="0.75" stroke-miterlimit="10"/>
        <path d="M721.556 1284.15C705.849 1238.47 776.096 1205.65 771.944 1138.23C767.738 1069.65 864.352 1104.88 905.233 1093.24C952.665 1079.76 958.074 1013.79 992.376 995.149C1000.25 990.85 1008.33 987.523 1016.79 985.259C1058.08 974.231 1064.27 969.281 1056.57 923.796C1048.73 877.495 1094.45 909.384 1109.01 864.172C1113.06 851.636 1113.36 834.564 1117.28 818.907C1137.82 736.923 1132.11 736.038 1203.05 696.388C1252.37 668.804 1288.45 680.097 1290.71 639.596C1292.96 599.112 1273.69 544.889 1320.84 532.478C1339.64 527.503 1361.83 534.96 1385.47 543.2C1396.62 547.084 1406.61 549.607 1415.12 548.411C1454.02 542.884 1477.6 502.251 1529.46 526.226C1572.58 506.14 1558.42 368.492 1562.28 313.056C1564.86 276.026 1618.44 285.26 1612.44 260.81C1611.17 255.718 1608.54 249.348 1605.59 241.695C1583.9 185.244 1692.51 186.468 1764.18 206.565C1774.11 209.351 1782.9 211.497 1790.57 213.928C1847.13 231.958 1894.94 97.7804 1924.4 75.7714C1957.28 51.1805 2044.32 9.12118 2134.15 30.8688" stroke="url(#paint33_linear_38_351)" stroke-width="0.75" stroke-miterlimit="10"/>
        <path d="M736.46 1284.92C721.742 1242.11 796.558 1210.59 790.133 1140.39C783.606 1069.06 883.459 1107.32 923.204 1094.28C968.449 1079.47 967.942 1006.71 1001.06 985.546C1008.56 980.763 1016.55 977.152 1025.19 974.978C1068.25 964.088 1076.24 961.911 1069.8 916.958C1063.23 871.274 1114.39 909.899 1130.39 864.774C1134.77 852.449 1135.01 835.221 1138.62 819.121C1157.02 737.034 1148.36 727.381 1218.29 689.298C1268.63 661.883 1306.77 677.076 1308.16 636.31C1309.55 595.603 1287.17 539.396 1332.86 526.277C1351.64 520.898 1373.83 528.791 1397.25 537.231C1408.42 541.259 1418.37 543.871 1426.81 542.534C1464.41 536.623 1487.65 495.417 1542.37 524.474C1586.84 509.981 1575.26 373.872 1578.48 315.39C1580.59 277.332 1630.16 282.697 1622.94 258.422C1621.41 253.216 1618.58 246.872 1615.68 239.332C1594.12 183.452 1702.68 183.348 1774.09 205.444C1784.05 208.517 1792.91 211.122 1800.62 214.159C1857.93 236.718 1904.78 98.9659 1933.55 77.78C1965.36 54.3829 2046.47 -5.44238 2142.68 17.8582" stroke="url(#paint34_linear_38_351)" stroke-width="0.75" stroke-miterlimit="10"/>
        <path d="M751.354 1285.66C737.64 1245.69 817.036 1215.52 808.338 1142.53C799.501 1068.51 902.566 1109.75 941.148 1095.29C984.233 1079.18 977.784 999.595 1009.7 975.887C1016.82 970.621 1024.73 966.768 1033.57 964.669C1078.43 953.946 1088.19 954.513 1083 910.092C1077.73 865.011 1134.27 910.36 1151.74 865.348C1156.43 853.251 1156.64 835.895 1159.95 819.349C1176.26 737.215 1164.65 718.794 1233.52 682.266C1284.89 655.02 1325.08 674.07 1325.59 633.098C1326.12 592.152 1300.62 533.934 1344.89 520.178C1363.62 514.367 1385.84 522.707 1409.01 531.336C1420.17 535.48 1430.11 538.208 1438.49 536.775C1474.8 530.521 1497.67 488.715 1555.27 522.838C1601.11 513.981 1592.06 379.34 1594.68 317.884C1596.36 278.809 1641.83 280.297 1633.44 256.194C1631.6 250.861 1628.65 244.54 1625.78 237.128C1604.36 181.848 1712.87 180.415 1783.97 204.454C1793.99 207.843 1802.93 210.906 1810.6 214.51C1868.69 241.669 1921.77 108.071 1942.61 79.9239C1965.37 49.1708 2048.52 -19.8704 2151.14 4.96766" stroke="url(#paint35_linear_38_351)" stroke-width="0.75" stroke-miterlimit="10"/>
        <path d="M766.273 1286.42C753.522 1249.29 837.525 1220.49 826.527 1144.68C815.396 1067.95 921.684 1112.22 959.102 1096.35C1000.04 1078.97 982.889 987.095 1018.37 966.299C1026.14 961.731 1032.92 956.428 1041.97 954.388C1088.64 943.874 1100.13 947.116 1096.23 903.254C1092.25 858.774 1154.16 910.864 1173.12 865.95C1178.12 854.08 1178.31 836.579 1181.27 819.578C1195.53 737.424 1180.94 710.207 1248.77 675.218C1301.2 648.169 1343.38 671.065 1343.05 629.854C1342.69 588.658 1314.06 528.429 1356.95 514.047C1375.62 507.762 1397.87 516.607 1420.81 525.409C1431.99 529.698 1441.89 532.515 1450.17 530.956C1485.2 524.361 1507.72 481.939 1568.18 521.144C1615.37 517.88 1608.92 384.804 1610.89 320.319C1612.12 280.244 1653.5 277.838 1643.95 253.906C1641.76 248.436 1638.7 242.165 1635.85 234.838C1614.56 180.129 1723.02 177.411 1793.86 203.407C1803.91 207.083 1812.94 210.648 1820.6 214.787C1879.48 246.603 1935.23 113.278 1951.7 81.9938C1969.44 48.2433 2050.58 -34.4 2159.63 -7.99701" stroke="url(#paint36_linear_38_351)" stroke-width="0.75" stroke-miterlimit="10"/>
        <path d="M781.167 1287.15C769.405 1252.89 858.002 1225.41 844.705 1146.8C831.27 1067.31 940.818 1114.68 977.036 1097.32C1015.85 1078.71 992.805 980.284 1027 956.598C1034.39 951.488 1041.06 945.974 1050.31 944.01C1098.8 933.689 1112.03 939.648 1109.39 896.318C1106.71 852.441 1174 911.254 1194.43 866.454C1199.75 854.811 1199.95 837.194 1202.56 819.736C1214.81 737.558 1197.24 701.604 1263.98 668.1C1317.47 641.248 1361.68 668.017 1360.45 626.556C1359.23 585.137 1327.44 522.827 1368.96 507.862C1387.58 501.145 1409.86 510.437 1432.55 519.428C1443.73 523.876 1453.64 526.794 1461.83 525.111C1495.59 518.201 1517.73 475.136 1581.04 519.438C1629.57 521.783 1625.76 390.242 1627.04 322.699C1627.84 281.608 1665.03 275.301 1654.43 251.592C1651.93 245.996 1648.74 239.747 1645.92 232.549C1624.76 178.412 1733.18 174.45 1803.75 202.359C1813.86 206.35 1822.96 210.374 1830.63 215.092C1890.29 251.624 1948.74 118.54 1960.78 84.0639C1973.6 47.3982 2052.66 -48.9019 2168.11 -20.9614" stroke="url(#paint37_linear_38_351)" stroke-width="0.75" stroke-miterlimit="10"/>
        <path d="M796.086 1287.91C785.314 1256.51 878.507 1230.37 862.937 1148.96C847.207 1066.76 960.058 1117.25 995.033 1098.39C1031.75 1078.57 1002.91 973.664 1035.7 947.037C1042.7 941.358 1049.3 935.688 1058.74 933.799C1109.05 923.687 1124.01 932.321 1122.65 889.55C1121.27 846.275 1193.89 911.758 1215.86 867.111C1221.49 855.695 1221.67 837.934 1223.93 820.019C1234.24 737.873 1213.63 693.127 1279.28 661.108C1333.85 634.479 1380.04 665.066 1377.96 623.367C1375.89 581.711 1340.92 517.334 1381.06 501.743C1399.63 494.553 1421.93 504.349 1444.39 513.514C1455.55 518.078 1465.45 521.113 1473.55 519.304C1506.05 512.08 1527.81 468.388 1594.02 517.784C1643.88 525.738 1642.7 395.73 1643.31 325.174C1643.68 283.066 1676.69 272.901 1665.01 249.344C1662.19 243.638 1658.86 237.411 1656.11 230.31C1635.11 176.757 1743.46 171.54 1813.72 201.335C1823.88 205.656 1833.05 210.139 1840.71 215.393C1901.08 256.66 1962.41 123.865 1969.97 86.1425C1977.89 46.5734 2054.84 -63.3955 2176.7 -33.9175" stroke="url(#paint38_linear_38_351)" stroke-width="0.75" stroke-miterlimit="10"/>
        <path d="M810.98 1288.65C801.169 1260.08 898.985 1235.3 881.115 1151.08C863.092 1066.16 979.228 1119.78 1012.97 1099.35C1047.64 1078.39 1017.59 971.472 1044.32 937.336C1049.95 930.118 1057.44 925.234 1067.08 923.42C1119.21 913.501 1135.92 924.853 1135.82 882.614C1135.71 839.956 1213.67 912.109 1237.17 867.615C1243.11 856.383 1243.33 838.534 1245.21 820.135C1253.61 738.031 1229.94 684.524 1294.48 653.947C1350.16 627.57 1398.32 661.932 1395.37 620.01C1392.41 578.104 1354.28 511.646 1393.07 495.5C1411.54 487.823 1433.91 498.136 1456.14 507.474C1467.32 512.183 1477.2 515.333 1485.21 513.401C1516.45 505.862 1537.83 461.526 1606.9 516.004C1658.15 529.578 1659.58 401.121 1659.5 327.523C1659.45 284.383 1688.21 270.379 1675.5 246.972C1672.33 241.127 1668.91 234.935 1666.19 227.962C1645.31 174.98 1753.61 168.536 1823.61 200.229C1833.83 204.865 1843.04 209.837 1850.72 215.612C1911.77 261.629 1976.04 129.12 1979.06 88.1542C1982.16 45.7209 2056.89 -77.9832 2185.17 -46.9249" stroke="url(#paint39_linear_38_351)" stroke-width="0.75" stroke-miterlimit="10"/>
        <path d="M825.873 1289.38C817.051 1263.68 919.478 1240.21 899.294 1153.19C878.992 1065.54 998.452 1122.37 1030.91 1100.37C1063.54 1078.25 1027.62 964.494 1052.98 927.705C1058.26 920.031 1065.65 914.878 1075.46 913.112C1129.42 903.429 1147.83 917.428 1149.02 875.749C1150.21 833.693 1233.47 912.488 1258.52 868.189C1264.74 857.157 1265.03 839.246 1266.53 820.363C1273.07 738.315 1246.29 676.034 1309.73 646.899C1366.53 620.816 1416.65 658.954 1412.81 616.782C1409 574.638 1367.64 506.059 1405.11 489.384C1423.5 481.206 1445.92 492.052 1467.93 501.606C1479.12 506.458 1489 509.725 1496.94 507.652C1526.92 499.842 1547.91 454.821 1619.85 514.38C1672.43 533.563 1676.54 406.652 1675.74 330.028C1675.26 285.872 1699.81 268.04 1686.07 244.782C1682.56 238.842 1679.04 232.642 1676.32 225.77C1655.57 173.36 1763.82 165.688 1833.57 199.278C1843.82 204.202 1853.11 209.676 1860.81 216.014C1922.48 266.801 1989.83 134.581 1988.23 90.3489C1986.58 45.0481 2059.05 -92.345 2193.74 -59.7647" stroke="url(#paint40_linear_38_351)" stroke-width="0.75" stroke-miterlimit="10"/>
        <path d="M840.793 1290.14C832.96 1267.31 939.983 1245.16 917.525 1155.36C894.929 1065 1017.75 1124.99 1048.88 1101.41C1079.52 1078.2 1037.72 957.555 1061.65 918.074C1066.57 909.944 1073.83 904.495 1083.83 902.803C1139.61 893.33 1159.75 910.004 1162.22 868.883C1164.7 827.429 1253.27 912.866 1279.87 868.764C1286.41 857.959 1286.72 839.916 1287.83 820.564C1292.53 738.598 1262.64 667.545 1324.93 639.84C1382.85 614.051 1434.91 655.937 1430.23 613.527C1425.53 571.132 1380.95 500.418 1417.13 483.242C1435.43 474.562 1457.93 485.968 1479.68 495.668C1490.85 500.652 1500.72 504.036 1508.58 501.822C1537.33 493.725 1557.89 448.048 1632.71 512.675C1686.63 537.466 1693.44 412.128 1691.89 332.409C1691.03 287.248 1711.27 265.58 1696.53 242.441C1692.65 236.378 1689.04 230.212 1686.37 223.453C1665.76 171.642 1773.95 162.758 1843.4 198.176C1853.69 203.43 1863.05 209.378 1870.76 216.237C1932.99 271.781 2003.52 139.833 1997.26 92.3645C1990.91 44.1924 2061.05 -106.929 2202.18 -72.7836" stroke="url(#paint41_linear_38_351)" stroke-width="0.75" stroke-miterlimit="10"/>
        <path d="M855.686 1290.88C848.816 1270.88 960.434 1250.06 935.704 1157.47C910.83 1064.38 1033.1 1123.15 1066.82 1102.38C1099.26 1082.4 1047.79 950.547 1070.3 908.401C1074.89 899.798 1082.01 894.112 1092.22 892.48C1149.83 883.242 1171.71 902.591 1175.43 862.003C1179.17 821.138 1273.06 913.202 1301.24 869.323C1308.06 858.718 1308.45 840.597 1309.17 820.778C1312.07 738.863 1279.06 659.094 1340.2 632.777C1399.29 607.337 1453.24 652.916 1447.69 610.283C1442.14 567.651 1394.3 494.789 1429.19 477.112C1447.36 467.918 1469.96 479.869 1491.47 489.742C1502.66 494.87 1512.52 498.37 1520.29 496.032C1547.81 487.691 1567.96 441.3 1645.65 511.008C1700.94 541.421 1710.43 417.629 1708.12 334.871C1706.84 288.679 1722.85 263.257 1707.06 240.182C1702.84 234.023 1699.14 227.849 1696.5 221.219C1676.01 169.979 1784.16 159.91 1853.34 197.183C1863.69 202.752 1873.08 209.147 1880.82 216.569C1943.59 276.843 2017.36 145.206 2006.39 94.4469C1995.36 43.3727 2063.17 -121.419 2210.7 -85.7358" stroke="url(#paint42_linear_38_351)" stroke-width="0.75" stroke-miterlimit="10"/>
        <path d="M870.59 1291.65C864.709 1274.52 980.939 1255.02 953.893 1159.63C926.725 1063.83 1052.74 1126.35 1084.77 1103.43C1114.94 1081.84 1057.91 943.636 1078.94 898.785C1083.2 889.71 1090.2 883.771 1100.58 882.186C1160.04 873.228 1183.5 895.13 1188.62 855.152C1193.55 814.823 1292.79 913.541 1322.57 869.912C1329.7 859.492 1330.19 841.321 1330.45 820.994C1331.6 739.185 1295.42 650.647 1355.4 625.718C1415.67 600.626 1471.53 649.926 1465.1 607.028C1458.69 564.172 1407.58 489.12 1441.18 470.942C1459.21 461.192 1481.92 473.729 1503.2 483.776C1514.39 489.063 1524.27 492.692 1531.9 490.174C1558.2 481.588 1573 442.993 1658.49 509.275C1713.19 551.681 1727.32 423.063 1724.26 337.267C1722.57 290.086 1734.33 260.883 1717.5 237.855C1712.94 231.602 1709.12 225.434 1706.5 218.89C1686.14 168.222 1794.19 156.972 1863.16 196.096C1873.56 201.995 1882.98 208.837 1890.75 216.807C1954.01 281.815 2031.08 150.426 2015.41 96.4774C1999.7 42.4584 2065.18 -135.96 2219.12 -98.7398" stroke="url(#paint43_linear_38_351)" stroke-width="0.75" stroke-miterlimit="10"/>
        <path d="M885.483 1292.39C880.591 1278.12 1001.59 1259.99 972.071 1161.74C942.795 1063.26 1072.45 1129.57 1102.7 1104.4C1130.6 1081.2 1068.06 936.651 1087.59 889.111C1091.52 879.565 1098.36 873.345 1108.95 871.835C1170.24 863.113 1195.42 887.647 1201.81 848.244C1208.04 808.517 1312.53 913.823 1343.93 870.429C1351.34 860.207 1351.91 841.96 1351.79 821.149C1351.22 739.415 1311.85 642.182 1370.65 618.569C1432.12 593.897 1489.85 646.804 1482.54 603.699C1475.23 560.593 1420.85 483.35 1453.24 464.71C1471.13 454.404 1493.96 467.572 1514.99 477.749C1526.19 483.18 1536.07 486.925 1543.61 484.282C1568.71 475.48 1583.47 434.324 1671.44 507.535C1727.35 554.081 1744.35 428.517 1740.5 339.613C1738.43 291.427 1745.92 258.501 1728.07 235.506C1723.16 229.173 1719.25 222.982 1716.67 216.566C1696.42 166.47 1804.43 154.05 1873.12 194.986C1883.55 201.216 1893.03 208.532 1900.82 217.065C1964.52 286.752 2044.97 155.636 2024.56 98.5287C2004.21 41.5339 2067.31 -150.508 2227.66 -111.708" stroke="url(#paint44_linear_38_351)" stroke-width="0.75" stroke-miterlimit="10"/>
        <path d="M900.403 1293.15C896.473 1281.72 1022.06 1264.92 990.303 1163.91C958.706 1062.68 1095.28 1135.83 1120.7 1105.47C1143.65 1078.03 1078.28 929.764 1096.27 879.523C1099.86 869.505 1106.58 863.032 1117.36 861.597C1180.5 853.154 1207.4 880.32 1215.05 841.448C1222.57 802.324 1332.28 914.19 1365.32 871.073C1373.01 861.052 1373.71 842.739 1373.12 821.42C1370.87 739.789 1328.3 633.86 1385.91 611.564C1448.59 587.311 1508.16 643.841 1500.01 600.498C1491.85 557.154 1434.16 477.708 1465.31 458.622C1483.05 447.776 1505.99 461.515 1526.82 471.893C1538.03 477.483 1547.89 481.344 1555.37 478.546C1579.29 469.511 1594.22 425.956 1684.43 505.923C1741.76 556.769 1761.39 434.072 1756.79 342.13C1754.31 292.897 1757.53 256.306 1738.66 233.301C1733.39 226.888 1729.38 220.689 1726.85 214.386C1706.77 164.873 1814.62 151.276 1883.11 194.048C1893.61 200.593 1903.1 208.371 1910.93 217.452C1975.06 291.817 2058.89 160.932 2033.76 100.708C2008.74 40.6948 2069.49 -164.901 2236.25 -124.563" stroke="url(#paint45_linear_38_351)" stroke-width="0.75" stroke-miterlimit="10"/>
        <path d="M915.296 1293.88C912.356 1285.32 1042.54 1269.84 1008.47 1166.04C974.547 1062.07 1114.75 1138.61 1138.6 1106.47C1159.73 1078.04 1088.41 922.794 1104.89 869.88C1108.14 859.39 1114.74 852.663 1125.69 851.276C1190.69 843.097 1219.3 872.911 1228.2 834.571C1237.01 796.064 1351.96 914.474 1386.62 871.635C1394.59 861.771 1395.44 843.421 1394.41 821.637C1390.49 740.077 1344.7 625.483 1401.11 604.505C1465.06 580.725 1526.46 640.851 1517.42 597.242C1508.4 553.676 1447.37 472 1477.33 452.48C1494.87 441.022 1517.99 455.446 1538.57 465.955C1549.79 471.688 1559.68 475.694 1567.01 472.716C1589.73 463.464 1605.01 417.659 1697.29 504.217C1756.25 559.54 1778.38 439.572 1772.95 344.553C1770.09 294.316 1769.1 254.057 1749.13 231.003C1743.5 224.51 1739.41 218.287 1736.9 212.112C1716.95 163.171 1824.73 148.419 1892.96 192.988C1903.49 199.864 1913.02 208.089 1920.89 217.717C1985.4 296.707 2072.63 166.079 2042.81 102.751C2013.12 39.6764 2071.52 -179.458 2244.71 -137.555" stroke="url(#paint46_linear_38_351)" stroke-width="0.75" stroke-miterlimit="10"/>
        <path d="M930.216 1294.64C928.264 1288.94 1063.02 1274.77 1026.67 1168.18C990.432 1061.47 1134.28 1141.42 1156.59 1107.49C1175.92 1078.05 1098.67 915.86 1113.56 860.234C1116.48 849.271 1122.94 842.265 1134.08 840.952C1200.93 833.052 1231.23 865.47 1241.42 827.69C1251.52 789.784 1371.69 914.713 1407.99 872.194C1416.25 862.53 1417.24 844.141 1415.72 821.823C1410.18 740.347 1361.16 617.102 1416.33 597.43C1481.58 574.194 1544.74 637.818 1534.84 593.987C1524.94 550.155 1460.56 466.265 1489.32 446.31C1506.7 434.269 1529.95 449.307 1550.3 459.989C1561.49 465.855 1571.43 470.016 1578.65 466.886C1600.2 457.444 1615.97 409.568 1710.16 502.511C1770.9 562.474 1795.34 445.045 1789.1 346.933C1785.83 295.665 1780.62 251.795 1759.58 228.661C1753.6 222.088 1749.41 215.857 1746.92 209.767C1727.09 161.398 1834.74 145.496 1902.79 191.886C1913.35 199.064 1922.92 207.721 1930.86 217.967C1995.71 301.569 2086.37 171.167 2051.84 104.766C2017.46 38.6032 2073.55 -194.014 2253.14 -150.574" stroke="url(#paint47_linear_38_351)" stroke-width="0.75" stroke-miterlimit="10"/>
        <path d="M945.109 1295.38C944.12 1292.51 1083.46 1279.69 1044.88 1170.32C1006.32 1060.87 1153.91 1144.25 1174.53 1108.5C1192.1 1078.07 1108.86 908.888 1122.23 850.603C1124.85 839.181 1131.15 831.951 1142.46 830.644C1211.23 823.163 1243.17 858.073 1254.62 820.824C1266.01 783.521 1391.36 914.954 1429.34 872.769C1437.9 863.289 1439.06 844.847 1437.04 822.051C1429.87 740.616 1377.61 608.78 1431.58 590.382C1498.11 567.706 1563.06 634.797 1552.3 590.743C1541.54 546.689 1473.78 460.541 1501.38 440.179C1518.53 427.515 1541.99 443.25 1562.09 454.063C1573.29 460.088 1583.27 464.42 1590.34 461.067C1610.75 451.449 1627.02 401.602 1723.06 500.818C1785.75 565.585 1812.39 450.542 1805.31 349.368C1801.66 297.08 1792.24 249.6 1770.12 226.401C1763.81 219.776 1759.5 213.493 1757.05 207.532C1737.37 159.762 1844.86 142.683 1912.73 190.893C1923.31 198.417 1932.94 207.505 1940.92 218.299C2006.12 306.498 2100.17 176.311 2060.98 106.891C2021.87 37.6119 2075.68 -208.461 2261.68 -163.483" stroke="url(#paint48_linear_38_351)" stroke-width="0.75" stroke-miterlimit="10"/>
    </g>
    <defs>
        <linearGradient id="paint0_linear_38_351" x1="1846.19" y1="-262.194" x2="487.301" y2="961.599" gradientUnits="userSpaceOnUse">
            <stop stop-color="#524028"/>
            <stop offset="0.13" stop-color="#B88E5A"/>
            <stop offset="0.22" stop-color="#FFC57D"/>
            <stop offset="0.52" stop-color="#FFC57D"/>
            <stop offset="0.57" stop-color="#E0AD6E"/>
            <stop offset="0.77" stop-color="#534128"/>
            <stop offset="0.79" stop-color="#4F3E27"/>
            <stop offset="1" stop-color="#362A1A"/>
        </linearGradient>
        <linearGradient id="paint1_linear_38_351" x1="1843.83" y1="-249.614" x2="487.958" y2="976.458" gradientUnits="userSpaceOnUse">
            <stop stop-color="#524028"/>
            <stop offset="0.13" stop-color="#BC915C"/>
            <stop offset="0.22" stop-color="#FFC57D"/>
            <stop offset="0.52" stop-color="#FFC57D"/>
            <stop offset="0.57" stop-color="#E1AF6F"/>
            <stop offset="0.77" stop-color="#544129"/>
            <stop offset="0.79" stop-color="#4F3E27"/>
            <stop offset="1" stop-color="#362A1A"/>
        </linearGradient>
        <linearGradient id="paint2_linear_38_351" x1="1841.26" y1="-237.415" x2="489.005" y2="991.662" gradientUnits="userSpaceOnUse">
            <stop stop-color="#524028"/>
            <stop offset="0.13" stop-color="#BF945E"/>
            <stop offset="0.22" stop-color="#FFC57D"/>
            <stop offset="0.52" stop-color="#FFC57D"/>
            <stop offset="0.57" stop-color="#E3B06F"/>
            <stop offset="0.77" stop-color="#554229"/>
            <stop offset="0.79" stop-color="#4F3E27"/>
            <stop offset="1" stop-color="#362A1A"/>
        </linearGradient>
        <linearGradient id="paint3_linear_38_351" x1="1837.64" y1="-226.281" x2="490.187" y2="1006.71" gradientUnits="userSpaceOnUse">
            <stop stop-color="#524028"/>
            <stop offset="0.13" stop-color="#C3975F"/>
            <stop offset="0.22" stop-color="#FFC57D"/>
            <stop offset="0.52" stop-color="#FFC57D"/>
            <stop offset="0.57" stop-color="#E5B170"/>
            <stop offset="0.77" stop-color="#55432A"/>
            <stop offset="0.79" stop-color="#503E27"/>
            <stop offset="1" stop-color="#362A1A"/>
        </linearGradient>
        <linearGradient id="paint4_linear_38_351" x1="1832.2" y1="-216.988" x2="491.699" y2="1021.46" gradientUnits="userSpaceOnUse">
            <stop stop-color="#524028"/>
            <stop offset="0.13" stop-color="#C79A61"/>
            <stop offset="0.22" stop-color="#FFC57D"/>
            <stop offset="0.52" stop-color="#FFC57D"/>
            <stop offset="0.57" stop-color="#E6B271"/>
            <stop offset="0.77" stop-color="#56432A"/>
            <stop offset="0.79" stop-color="#503F27"/>
            <stop offset="1" stop-color="#362A1A"/>
        </linearGradient>
        <linearGradient id="paint5_linear_38_351" x1="1823.67" y1="-210.511" x2="493.944" y2="1035.38" gradientUnits="userSpaceOnUse">
            <stop stop-color="#524028"/>
            <stop offset="0.13" stop-color="#CB9C63"/>
            <stop offset="0.22" stop-color="#FFC57D"/>
            <stop offset="0.52" stop-color="#FFC57D"/>
            <stop offset="0.57" stop-color="#E8B472"/>
            <stop offset="0.77" stop-color="#57442A"/>
            <stop offset="0.79" stop-color="#503F27"/>
            <stop offset="1" stop-color="#362A1A"/>
        </linearGradient>
        <linearGradient id="paint6_linear_38_351" x1="1809.05" y1="-210.144" x2="497.442" y2="1047.85" gradientUnits="userSpaceOnUse">
            <stop stop-color="#524028"/>
            <stop offset="0.13" stop-color="#CE9F65"/>
            <stop offset="0.22" stop-color="#FFC57D"/>
            <stop offset="0.52" stop-color="#FFC57D"/>
            <stop offset="0.57" stop-color="#EAB573"/>
            <stop offset="0.77" stop-color="#58452B"/>
            <stop offset="0.79" stop-color="#503F27"/>
            <stop offset="1" stop-color="#362A1A"/>
        </linearGradient>
        <linearGradient id="paint7_linear_38_351" x1="1762.57" y1="-240.592" x2="489.905" y2="1039.19" gradientUnits="userSpaceOnUse">
            <stop stop-color="#524028"/>
            <stop offset="0.13" stop-color="#D2A267"/>
            <stop offset="0.22" stop-color="#FFC57D"/>
            <stop offset="0.52" stop-color="#FFC57D"/>
            <stop offset="0.57" stop-color="#EBB673"/>
            <stop offset="0.77" stop-color="#59452B"/>
            <stop offset="0.79" stop-color="#503F27"/>
            <stop offset="1" stop-color="#362A1A"/>
        </linearGradient>
        <linearGradient id="paint8_linear_38_351" x1="1640.37" y1="-333.131" x2="498.312" y2="985.747" gradientUnits="userSpaceOnUse">
            <stop stop-color="#524028"/>
            <stop offset="0.13" stop-color="#D6A569"/>
            <stop offset="0.22" stop-color="#FFC57D"/>
            <stop offset="0.52" stop-color="#FFC57D"/>
            <stop offset="0.57" stop-color="#EDB774"/>
            <stop offset="0.77" stop-color="#5A462C"/>
            <stop offset="0.79" stop-color="#503F27"/>
            <stop offset="1" stop-color="#362A1A"/>
        </linearGradient>
        <linearGradient id="paint9_linear_38_351" x1="1277.29" y1="145.465" x2="1485.53" y2="441.626" gradientUnits="userSpaceOnUse">
            <stop stop-color="#524028"/>
            <stop offset="0.13" stop-color="#DAA86A"/>
            <stop offset="0.22" stop-color="#FFC57D"/>
            <stop offset="0.52" stop-color="#FFC57D"/>
            <stop offset="0.57" stop-color="#EFB975"/>
            <stop offset="0.77" stop-color="#5B472C"/>
            <stop offset="0.79" stop-color="#513F28"/>
            <stop offset="1" stop-color="#362A1A"/>
        </linearGradient>
        <linearGradient id="paint10_linear_38_351" x1="290.784" y1="678.341" x2="1782.97" y2="-285.772" gradientUnits="userSpaceOnUse">
            <stop stop-color="#524028"/>
            <stop offset="0.13" stop-color="#DDAB6C"/>
            <stop offset="0.22" stop-color="#FFC57D"/>
            <stop offset="0.52" stop-color="#FFC57D"/>
            <stop offset="0.57" stop-color="#F0BA76"/>
            <stop offset="0.77" stop-color="#5B472C"/>
            <stop offset="0.79" stop-color="#513F28"/>
            <stop offset="1" stop-color="#362A1A"/>
        </linearGradient>
        <linearGradient id="paint11_linear_38_351" x1="321.093" y1="878.77" x2="1776.28" y2="-217.495" gradientUnits="userSpaceOnUse">
            <stop stop-color="#524028"/>
            <stop offset="0.13" stop-color="#E1AE6E"/>
            <stop offset="0.22" stop-color="#FFC57D"/>
            <stop offset="0.52" stop-color="#FFC57D"/>
            <stop offset="0.57" stop-color="#F2BB77"/>
            <stop offset="0.77" stop-color="#5C482D"/>
            <stop offset="0.79" stop-color="#513F28"/>
            <stop offset="1" stop-color="#362A1A"/>
        </linearGradient>
        <linearGradient id="paint12_linear_38_351" x1="349.315" y1="955.461" x2="1783.5" y2="-179.533" gradientUnits="userSpaceOnUse">
            <stop stop-color="#524028"/>
            <stop offset="0.13" stop-color="#E5B170"/>
            <stop offset="0.22" stop-color="#FFC57D"/>
            <stop offset="0.52" stop-color="#FFC57D"/>
            <stop offset="0.57" stop-color="#F3BC77"/>
            <stop offset="0.77" stop-color="#5D482D"/>
            <stop offset="0.79" stop-color="#513F28"/>
            <stop offset="1" stop-color="#362A1A"/>
        </linearGradient>
        <linearGradient id="paint13_linear_38_351" x1="368.817" y1="1003.72" x2="1790.88" y2="-149.906" gradientUnits="userSpaceOnUse">
            <stop stop-color="#524028"/>
            <stop offset="0.13" stop-color="#E8B472"/>
            <stop offset="0.22" stop-color="#FFC57D"/>
            <stop offset="0.52" stop-color="#FFC57D"/>
            <stop offset="0.57" stop-color="#F5BD78"/>
            <stop offset="0.77" stop-color="#5E492E"/>
            <stop offset="0.79" stop-color="#513F28"/>
            <stop offset="1" stop-color="#362A1A"/>
        </linearGradient>
        <linearGradient id="paint14_linear_38_351" x1="382.371" y1="1040.6" x2="1797.07" y2="-124.055" gradientUnits="userSpaceOnUse">
            <stop stop-color="#524028"/>
            <stop offset="0.13" stop-color="#ECB674"/>
            <stop offset="0.22" stop-color="#FFC57D"/>
            <stop offset="0.52" stop-color="#FFC57D"/>
            <stop offset="0.57" stop-color="#F7BF79"/>
            <stop offset="0.77" stop-color="#5F4A2E"/>
            <stop offset="0.79" stop-color="#513F28"/>
            <stop offset="1" stop-color="#362A1A"/>
        </linearGradient>
        <linearGradient id="paint15_linear_38_351" x1="393.16" y1="1070.6" x2="1802.67" y2="-101.01" gradientUnits="userSpaceOnUse">
            <stop stop-color="#524028"/>
            <stop offset="0.13" stop-color="#F0B976"/>
            <stop offset="0.22" stop-color="#FFC57D"/>
            <stop offset="0.52" stop-color="#FFC57D"/>
            <stop offset="0.57" stop-color="#F8C07A"/>
            <stop offset="0.77" stop-color="#604A2E"/>
            <stop offset="0.79" stop-color="#514028"/>
            <stop offset="1" stop-color="#362A1A"/>
        </linearGradient>
        <linearGradient id="paint16_linear_38_351" x1="403.252" y1="1098.77" x2="1808.85" y2="-77.9044" gradientUnits="userSpaceOnUse">
            <stop stop-color="#524028"/>
            <stop offset="0.13" stop-color="#F4BC77"/>
            <stop offset="0.22" stop-color="#FFC57D"/>
            <stop offset="0.52" stop-color="#FFC57D"/>
            <stop offset="0.57" stop-color="#FAC17B"/>
            <stop offset="0.77" stop-color="#604B2F"/>
            <stop offset="0.79" stop-color="#524028"/>
            <stop offset="1" stop-color="#362A1A"/>
        </linearGradient>
        <linearGradient id="paint17_linear_38_351" x1="411.295" y1="1123.81" x2="1814.13" y2="-56.4408" gradientUnits="userSpaceOnUse">
            <stop stop-color="#524028"/>
            <stop offset="0.13" stop-color="#F7BF79"/>
            <stop offset="0.22" stop-color="#FFC57D"/>
            <stop offset="0.52" stop-color="#FFC57D"/>
            <stop offset="0.57" stop-color="#FCC27B"/>
            <stop offset="0.77" stop-color="#614C2F"/>
            <stop offset="0.79" stop-color="#524028"/>
            <stop offset="1" stop-color="#362A1A"/>
        </linearGradient>
        <linearGradient id="paint18_linear_38_351" x1="413.275" y1="1142.42" x2="1813.96" y2="-40.9265" gradientUnits="userSpaceOnUse">
            <stop stop-color="#524028"/>
            <stop offset="0.13" stop-color="#FBC27B"/>
            <stop offset="0.22" stop-color="#FFC57D"/>
            <stop offset="0.52" stop-color="#FFC57D"/>
            <stop offset="0.57" stop-color="#FDC47C"/>
            <stop offset="0.77" stop-color="#624C30"/>
            <stop offset="0.79" stop-color="#524028"/>
            <stop offset="1" stop-color="#362A1A"/>
        </linearGradient>
        <linearGradient id="paint19_linear_38_351" x1="413.492" y1="1157.79" x2="1812.64" y2="-27.9556" gradientUnits="userSpaceOnUse">
            <stop stop-color="#524028"/>
            <stop offset="0.13" stop-color="#FFC57D"/>
            <stop offset="0.57" stop-color="#FFC57D"/>
            <stop offset="0.79" stop-color="#524028"/>
            <stop offset="1" stop-color="#362A1A"/>
        </linearGradient>
        <linearGradient id="paint20_linear_38_351" x1="440.308" y1="1142.9" x2="1838.35" y2="-39.4459" gradientUnits="userSpaceOnUse">
            <stop stop-color="#524028"/>
            <stop offset="0.13" stop-color="#FCC37C"/>
            <stop offset="0.22" stop-color="#FFC57D"/>
            <stop offset="0.52" stop-color="#FFC57D"/>
            <stop offset="0.57" stop-color="#FEC47C"/>
            <stop offset="0.77" stop-color="#624D30"/>
            <stop offset="0.79" stop-color="#524028"/>
            <stop offset="1" stop-color="#362A1A"/>
        </linearGradient>
        <linearGradient id="paint21_linear_38_351" x1="416.645" y1="1156.95" x2="1829.5" y2="-35.1922" gradientUnits="userSpaceOnUse">
            <stop stop-color="#524028"/>
            <stop offset="0.13" stop-color="#FAC17B"/>
            <stop offset="0.22" stop-color="#FFC57D"/>
            <stop offset="0.52" stop-color="#FFC57D"/>
            <stop offset="0.57" stop-color="#FDC37C"/>
            <stop offset="0.77" stop-color="#624C2F"/>
            <stop offset="0.79" stop-color="#524028"/>
            <stop offset="1" stop-color="#362A1A"/>
        </linearGradient>
        <linearGradient id="paint22_linear_38_351" x1="443.532" y1="1139.84" x2="1855.51" y2="-48.0922" gradientUnits="userSpaceOnUse">
            <stop stop-color="#524028"/>
            <stop offset="0.13" stop-color="#F7BF79"/>
            <stop offset="0.22" stop-color="#FFC57D"/>
            <stop offset="0.52" stop-color="#FFC57D"/>
            <stop offset="0.57" stop-color="#FCC27B"/>
            <stop offset="0.77" stop-color="#614C2F"/>
            <stop offset="0.79" stop-color="#524028"/>
            <stop offset="1" stop-color="#362A1A"/>
        </linearGradient>
        <linearGradient id="paint23_linear_38_351" x1="471.714" y1="1122.41" x2="1882.06" y2="-60.4575" gradientUnits="userSpaceOnUse">
            <stop stop-color="#524028"/>
            <stop offset="0.13" stop-color="#F5BD78"/>
            <stop offset="0.22" stop-color="#FFC57D"/>
            <stop offset="0.52" stop-color="#FFC57D"/>
            <stop offset="0.57" stop-color="#FBC27B"/>
            <stop offset="0.77" stop-color="#614B2F"/>
            <stop offset="0.79" stop-color="#524028"/>
            <stop offset="1" stop-color="#362A1A"/>
        </linearGradient>
        <linearGradient id="paint24_linear_38_351" x1="442.357" y1="1137.25" x2="1871.62" y2="-56.4886" gradientUnits="userSpaceOnUse">
            <stop stop-color="#524028"/>
            <stop offset="0.13" stop-color="#F2BB77"/>
            <stop offset="0.22" stop-color="#FFC57D"/>
            <stop offset="0.52" stop-color="#FFC57D"/>
            <stop offset="0.57" stop-color="#F9C17A"/>
            <stop offset="0.77" stop-color="#604B2F"/>
            <stop offset="0.79" stop-color="#514028"/>
            <stop offset="1" stop-color="#362A1A"/>
        </linearGradient>
        <linearGradient id="paint25_linear_38_351" x1="468.755" y1="1115.23" x2="1896.57" y2="-71.5879" gradientUnits="userSpaceOnUse">
            <stop stop-color="#524028"/>
            <stop offset="0.13" stop-color="#F0B976"/>
            <stop offset="0.22" stop-color="#FFC57D"/>
            <stop offset="0.52" stop-color="#FFC57D"/>
            <stop offset="0.57" stop-color="#F8C07A"/>
            <stop offset="0.77" stop-color="#604A2E"/>
            <stop offset="0.79" stop-color="#514028"/>
            <stop offset="1" stop-color="#362A1A"/>
        </linearGradient>
        <linearGradient id="paint26_linear_38_351" x1="501.101" y1="1094.64" x2="1926.19" y2="-82.7519" gradientUnits="userSpaceOnUse">
            <stop stop-color="#524028"/>
            <stop offset="0.13" stop-color="#EDB774"/>
            <stop offset="0.22" stop-color="#FFC57D"/>
            <stop offset="0.52" stop-color="#FFC57D"/>
            <stop offset="0.57" stop-color="#F7BF79"/>
            <stop offset="0.77" stop-color="#5F4A2E"/>
            <stop offset="0.79" stop-color="#514028"/>
            <stop offset="1" stop-color="#362A1A"/>
        </linearGradient>
        <linearGradient id="paint27_linear_38_351" x1="466.357" y1="1115.36" x2="1917.46" y2="-74.2716" gradientUnits="userSpaceOnUse">
            <stop stop-color="#524028"/>
            <stop offset="0.13" stop-color="#EBB673"/>
            <stop offset="0.22" stop-color="#FFC57D"/>
            <stop offset="0.52" stop-color="#FFC57D"/>
            <stop offset="0.57" stop-color="#F6BE79"/>
            <stop offset="0.77" stop-color="#5E4A2E"/>
            <stop offset="0.79" stop-color="#513F28"/>
            <stop offset="1" stop-color="#362A1A"/>
        </linearGradient>
        <linearGradient id="paint28_linear_38_351" x1="499.25" y1="1089.58" x2="1948.27" y2="-85.913" gradientUnits="userSpaceOnUse">
            <stop stop-color="#524028"/>
            <stop offset="0.13" stop-color="#E8B472"/>
            <stop offset="0.22" stop-color="#FFC57D"/>
            <stop offset="0.52" stop-color="#FFC57D"/>
            <stop offset="0.57" stop-color="#F5BD78"/>
            <stop offset="0.77" stop-color="#5E492E"/>
            <stop offset="0.79" stop-color="#513F28"/>
            <stop offset="1" stop-color="#362A1A"/>
        </linearGradient>
        <linearGradient id="paint29_linear_38_351" x1="536.075" y1="1055.06" x2="1980.4" y2="-99.6595" gradientUnits="userSpaceOnUse">
            <stop stop-color="#524028"/>
            <stop offset="0.13" stop-color="#E6B271"/>
            <stop offset="0.22" stop-color="#FFC57D"/>
            <stop offset="0.52" stop-color="#FFC57D"/>
            <stop offset="0.57" stop-color="#F4BD78"/>
            <stop offset="0.77" stop-color="#5D492D"/>
            <stop offset="0.79" stop-color="#513F28"/>
            <stop offset="1" stop-color="#362A1A"/>
        </linearGradient>
        <linearGradient id="paint30_linear_38_351" x1="479.691" y1="1077.27" x2="1969.67" y2="-87.626" gradientUnits="userSpaceOnUse">
            <stop stop-color="#524028"/>
            <stop offset="0.13" stop-color="#E3B06F"/>
            <stop offset="0.22" stop-color="#FFC57D"/>
            <stop offset="0.52" stop-color="#FFC57D"/>
            <stop offset="0.57" stop-color="#F3BC77"/>
            <stop offset="0.77" stop-color="#5D482D"/>
            <stop offset="0.79" stop-color="#513F28"/>
            <stop offset="1" stop-color="#362A1A"/>
        </linearGradient>
        <linearGradient id="paint31_linear_38_351" x1="517.362" y1="1016.65" x2="2005.98" y2="-104.801" gradientUnits="userSpaceOnUse">
            <stop stop-color="#524028"/>
            <stop offset="0.13" stop-color="#E1AE6E"/>
            <stop offset="0.22" stop-color="#FFC57D"/>
            <stop offset="0.52" stop-color="#FFC57D"/>
            <stop offset="0.57" stop-color="#F2BB77"/>
            <stop offset="0.77" stop-color="#5C482D"/>
            <stop offset="0.79" stop-color="#513F28"/>
            <stop offset="1" stop-color="#362A1A"/>
        </linearGradient>
        <linearGradient id="paint32_linear_38_351" x1="399.202" y1="1010.99" x2="1985.82" y2="-96.834" gradientUnits="userSpaceOnUse">
            <stop stop-color="#524028"/>
            <stop offset="0.13" stop-color="#DEAC6D"/>
            <stop offset="0.22" stop-color="#FFC57D"/>
            <stop offset="0.52" stop-color="#FFC57D"/>
            <stop offset="0.57" stop-color="#F1BA76"/>
            <stop offset="0.77" stop-color="#5C472D"/>
            <stop offset="0.79" stop-color="#513F28"/>
            <stop offset="1" stop-color="#362A1A"/>
        </linearGradient>
        <linearGradient id="paint33_linear_38_351" x1="452.93" y1="721.723" x2="2045.46" y2="-152.874" gradientUnits="userSpaceOnUse">
            <stop stop-color="#524028"/>
            <stop offset="0.13" stop-color="#DCAA6C"/>
            <stop offset="0.22" stop-color="#FFC57D"/>
            <stop offset="0.52" stop-color="#FFC57D"/>
            <stop offset="0.57" stop-color="#F0B976"/>
            <stop offset="0.77" stop-color="#5B472C"/>
            <stop offset="0.79" stop-color="#513F28"/>
            <stop offset="1" stop-color="#362A1A"/>
        </linearGradient>
        <linearGradient id="paint34_linear_38_351" x1="1487.22" y1="265.949" x2="1663.05" y2="516.019" gradientUnits="userSpaceOnUse">
            <stop stop-color="#524028"/>
            <stop offset="0.13" stop-color="#DAA86A"/>
            <stop offset="0.22" stop-color="#FFC57D"/>
            <stop offset="0.52" stop-color="#FFC57D"/>
            <stop offset="0.57" stop-color="#EFB975"/>
            <stop offset="0.77" stop-color="#5B472C"/>
            <stop offset="0.79" stop-color="#513F28"/>
            <stop offset="1" stop-color="#362A1A"/>
        </linearGradient>
        <linearGradient id="paint35_linear_38_351" x1="1807.06" y1="-264.221" x2="699.087" y2="1203.15" gradientUnits="userSpaceOnUse">
            <stop stop-color="#524028"/>
            <stop offset="0.13" stop-color="#D7A669"/>
            <stop offset="0.22" stop-color="#FFC57D"/>
            <stop offset="0.52" stop-color="#FFC57D"/>
            <stop offset="0.57" stop-color="#EDB874"/>
            <stop offset="0.77" stop-color="#5A462C"/>
            <stop offset="0.79" stop-color="#503F27"/>
            <stop offset="1" stop-color="#362A1A"/>
        </linearGradient>
        <linearGradient id="paint36_linear_38_351" x1="2015.1" y1="-128.872" x2="682.775" y2="1307.01" gradientUnits="userSpaceOnUse">
            <stop stop-color="#524028"/>
            <stop offset="0.13" stop-color="#D5A468"/>
            <stop offset="0.22" stop-color="#FFC57D"/>
            <stop offset="0.52" stop-color="#FFC57D"/>
            <stop offset="0.57" stop-color="#ECB774"/>
            <stop offset="0.77" stop-color="#59462B"/>
            <stop offset="0.79" stop-color="#503F27"/>
            <stop offset="1" stop-color="#362A1A"/>
        </linearGradient>
        <linearGradient id="paint37_linear_38_351" x1="2085.6" y1="-104.163" x2="751.141" y2="1237.77" gradientUnits="userSpaceOnUse">
            <stop stop-color="#524028"/>
            <stop offset="0.13" stop-color="#D2A267"/>
            <stop offset="0.22" stop-color="#FFC57D"/>
            <stop offset="0.52" stop-color="#FFC57D"/>
            <stop offset="0.57" stop-color="#EBB673"/>
            <stop offset="0.77" stop-color="#59452B"/>
            <stop offset="0.79" stop-color="#503F27"/>
            <stop offset="1" stop-color="#362A1A"/>
        </linearGradient>
        <linearGradient id="paint38_linear_38_351" x1="2113.31" y1="-100.734" x2="729.864" y2="1242.16" gradientUnits="userSpaceOnUse">
            <stop stop-color="#524028"/>
            <stop offset="0.13" stop-color="#D0A066"/>
            <stop offset="0.22" stop-color="#FFC57D"/>
            <stop offset="0.52" stop-color="#FFC57D"/>
            <stop offset="0.57" stop-color="#EAB573"/>
            <stop offset="0.77" stop-color="#58452B"/>
            <stop offset="0.79" stop-color="#503F27"/>
            <stop offset="1" stop-color="#362A1A"/>
        </linearGradient>
        <linearGradient id="paint39_linear_38_351" x1="2141.89" y1="-87.1235" x2="769.905" y2="1216.79" gradientUnits="userSpaceOnUse">
            <stop stop-color="#524028"/>
            <stop offset="0.13" stop-color="#CD9E64"/>
            <stop offset="0.22" stop-color="#FFC57D"/>
            <stop offset="0.52" stop-color="#FFC57D"/>
            <stop offset="0.57" stop-color="#E9B472"/>
            <stop offset="0.77" stop-color="#58442B"/>
            <stop offset="0.79" stop-color="#503F27"/>
            <stop offset="1" stop-color="#362A1A"/>
        </linearGradient>
        <linearGradient id="paint40_linear_38_351" x1="2182.53" y1="-70.801" x2="782.948" y2="1240.53" gradientUnits="userSpaceOnUse">
            <stop stop-color="#524028"/>
            <stop offset="0.13" stop-color="#CB9C63"/>
            <stop offset="0.22" stop-color="#FFC57D"/>
            <stop offset="0.52" stop-color="#FFC57D"/>
            <stop offset="0.57" stop-color="#E8B472"/>
            <stop offset="0.77" stop-color="#57442A"/>
            <stop offset="0.79" stop-color="#503F27"/>
            <stop offset="1" stop-color="#362A1A"/>
        </linearGradient>
        <linearGradient id="paint41_linear_38_351" x1="2219.01" y1="-61.1602" x2="798.945" y2="1256.15" gradientUnits="userSpaceOnUse">
            <stop stop-color="#524028"/>
            <stop offset="0.13" stop-color="#C89A62"/>
            <stop offset="0.22" stop-color="#FFC57D"/>
            <stop offset="0.52" stop-color="#FFC57D"/>
            <stop offset="0.57" stop-color="#E7B371"/>
            <stop offset="0.77" stop-color="#57432A"/>
            <stop offset="0.79" stop-color="#503F27"/>
            <stop offset="1" stop-color="#362A1A"/>
        </linearGradient>
        <linearGradient id="paint42_linear_38_351" x1="2230.54" y1="-55.2939" x2="820.492" y2="1242.63" gradientUnits="userSpaceOnUse">
            <stop stop-color="#524028"/>
            <stop offset="0.13" stop-color="#C69961"/>
            <stop offset="0.22" stop-color="#FFC57D"/>
            <stop offset="0.52" stop-color="#FFC57D"/>
            <stop offset="0.57" stop-color="#E6B271"/>
            <stop offset="0.77" stop-color="#56432A"/>
            <stop offset="0.79" stop-color="#503E27"/>
            <stop offset="1" stop-color="#362A1A"/>
        </linearGradient>
        <linearGradient id="paint43_linear_38_351" x1="2263.33" y1="-50.0301" x2="837.106" y2="1255.04" gradientUnits="userSpaceOnUse">
            <stop stop-color="#524028"/>
            <stop offset="0.13" stop-color="#C3975F"/>
            <stop offset="0.22" stop-color="#FFC57D"/>
            <stop offset="0.52" stop-color="#FFC57D"/>
            <stop offset="0.57" stop-color="#E5B170"/>
            <stop offset="0.77" stop-color="#55432A"/>
            <stop offset="0.79" stop-color="#503E27"/>
            <stop offset="1" stop-color="#362A1A"/>
        </linearGradient>
        <linearGradient id="paint44_linear_38_351" x1="2295.54" y1="-46.4697" x2="855.625" y2="1264.68" gradientUnits="userSpaceOnUse">
            <stop stop-color="#524028"/>
            <stop offset="0.13" stop-color="#C1955E"/>
            <stop offset="0.22" stop-color="#FFC57D"/>
            <stop offset="0.52" stop-color="#FFC57D"/>
            <stop offset="0.57" stop-color="#E4B070"/>
            <stop offset="0.77" stop-color="#554229"/>
            <stop offset="0.79" stop-color="#503E27"/>
            <stop offset="1" stop-color="#362A1A"/>
        </linearGradient>
        <linearGradient id="paint45_linear_38_351" x1="2301.38" y1="-42.5136" x2="869.475" y2="1256.56" gradientUnits="userSpaceOnUse">
            <stop stop-color="#BE935D"/>
            <stop offset="0.22" stop-color="#FFC57D"/>
            <stop offset="0.52" stop-color="#FFC57D"/>
            <stop offset="0.57" stop-color="#E2AF6F"/>
            <stop offset="0.77" stop-color="#544229"/>
            <stop offset="0.79" stop-color="#4F3E27"/>
            <stop offset="1" stop-color="#362A1A"/>
        </linearGradient>
        <linearGradient id="paint46_linear_38_351" x1="2331" y1="-42.1823" x2="887.183" y2="1263.42" gradientUnits="userSpaceOnUse">
            <stop stop-color="#524028"/>
            <stop offset="0.13" stop-color="#BC915C"/>
            <stop offset="0.22" stop-color="#FFC57D"/>
            <stop offset="0.52" stop-color="#FFC57D"/>
            <stop offset="0.57" stop-color="#E1AF6F"/>
            <stop offset="0.77" stop-color="#544129"/>
            <stop offset="0.79" stop-color="#4F3E27"/>
            <stop offset="1" stop-color="#362A1A"/>
        </linearGradient>
        <linearGradient id="paint47_linear_38_351" x1="2357.5" y1="-46.1242" x2="902.812" y2="1265.54" gradientUnits="userSpaceOnUse">
            <stop stop-color="#524028"/>
            <stop offset="0.13" stop-color="#B98F5A"/>
            <stop offset="0.22" stop-color="#FFC57D"/>
            <stop offset="0.52" stop-color="#FFC57D"/>
            <stop offset="0.57" stop-color="#E0AE6E"/>
            <stop offset="0.77" stop-color="#534129"/>
            <stop offset="0.79" stop-color="#4F3E27"/>
            <stop offset="1" stop-color="#362A1A"/>
        </linearGradient>
        <linearGradient id="paint48_linear_38_351" x1="2356.68" y1="-47.3571" x2="908.104" y2="1255.87" gradientUnits="userSpaceOnUse">
            <stop stop-color="#524028"/>
            <stop offset="0.13" stop-color="#B78D59"/>
            <stop offset="0.22" stop-color="#FFC57D"/>
            <stop offset="0.52" stop-color="#FFC57D"/>
            <stop offset="0.57" stop-color="#DFAD6E"/>
            <stop offset="0.77" stop-color="#534028"/>
            <stop offset="0.79" stop-color="#4F3E27"/>
            <stop offset="1" stop-color="#362A1A"/>
        </linearGradient>
        <clipPath id="clip0_38_351">
            <rect width="2272.14" height="1418.94" fill="white" transform="translate(-220 519.677) rotate(-44.1516)"/>
        </clipPath>
    </defs>
</svg>
