<svg width="50" height="50" viewBox="0 0 50 50" fill="none" xmlns="http://www.w3.org/2000/svg">
    <g clip-path="url(#clip0_190_5749)">
        <path d="M35.0465 36.6603V43.101H8.0126V46.7518H7.32754L1.46484 41.8558V18.4043H7.82441" stroke="url(#paint0_linear_190_5749)" stroke-width="3" stroke-miterlimit="10"/>
        <path d="M16.2193 10.9263H7.8244V36.6215H41.9874V40.2723H42.6724L48.5351 35.3764V10.9263H40.1012" stroke="url(#paint1_linear_190_5749)" stroke-width="3" stroke-miterlimit="10"/>
        <path d="M24.5573 27.26V23.9298C23.7109 23.5823 22.9222 23.1159 22.2025 22.5372L19.3796 24.2036L15.7767 17.823L18.5987 16.157C18.5354 15.6975 18.5033 15.2318 18.5033 14.7664C18.5033 14.301 18.5353 13.8353 18.5987 13.3759L15.7767 11.7099L19.3796 5.32931L22.2025 6.99568C22.9223 6.41696 23.7108 5.95057 24.5573 5.6031V2.27295H31.721V5.6025C32.5896 5.95646 33.4029 6.42994 34.1164 6.99678L36.941 5.32941L40.5438 11.71L37.7219 13.376C37.7851 13.8355 37.8173 14.3012 37.8173 14.7665C37.8173 15.2319 37.7852 15.6976 37.7219 16.1571L40.5438 17.8231L36.941 24.2037L34.1201 22.5386C33.3918 23.1332 32.6363 23.592 31.8322 23.9281V27.2602H24.5573V27.26Z" stroke="url(#paint2_linear_190_5749)" stroke-width="3" stroke-miterlimit="10"/>
        <path d="M28.1603 18.5966C30.2292 18.5966 31.9064 16.8817 31.9064 14.7663C31.9064 12.6509 30.2292 10.936 28.1603 10.936C26.0913 10.936 24.4141 12.6509 24.4141 14.7663C24.4141 16.8817 26.0913 18.5966 28.1603 18.5966Z" stroke="url(#paint3_linear_190_5749)" stroke-width="3" stroke-miterlimit="10"/>
    </g>
    <defs>
        <linearGradient id="paint0_linear_190_5749" x1="29.9183" y1="48.7739" x2="7.47126" y2="26.5098" gradientUnits="userSpaceOnUse">
            <stop stop-color="#AD8D55" stop-opacity="0.9"/>
            <stop offset="0.259615" stop-color="#D2AD75"/>
            <stop offset="0.466346" stop-color="#E8CDA0"/>
            <stop offset="0.8125" stop-color="#D2AD75"/>
            <stop offset="1" stop-color="#AD8D55" stop-opacity="0.9"/>
        </linearGradient>
        <linearGradient id="paint1_linear_190_5749" x1="42.3183" y1="42.3657" x2="19.3377" y2="15.6739" gradientUnits="userSpaceOnUse">
            <stop stop-color="#AD8D55" stop-opacity="0.9"/>
            <stop offset="0.259615" stop-color="#D2AD75"/>
            <stop offset="0.466346" stop-color="#E8CDA0"/>
            <stop offset="0.8125" stop-color="#D2AD75"/>
            <stop offset="1" stop-color="#AD8D55" stop-opacity="0.9"/>
        </linearGradient>
        <linearGradient id="paint2_linear_190_5749" x1="36.7617" y1="29.0427" x2="17.3139" y2="12.9033" gradientUnits="userSpaceOnUse">
            <stop stop-color="#AD8D55" stop-opacity="0.9"/>
            <stop offset="0.259615" stop-color="#D2AD75"/>
            <stop offset="0.466346" stop-color="#E8CDA0"/>
            <stop offset="0.8125" stop-color="#D2AD75"/>
            <stop offset="1" stop-color="#AD8D55" stop-opacity="0.9"/>
        </linearGradient>
        <linearGradient id="paint3_linear_190_5749" x1="30.7623" y1="19.1431" x2="24.8152" y2="14.2731" gradientUnits="userSpaceOnUse">
            <stop stop-color="#AD8D55" stop-opacity="0.9"/>
            <stop offset="0.259615" stop-color="#D2AD75"/>
            <stop offset="0.466346" stop-color="#E8CDA0"/>
            <stop offset="0.8125" stop-color="#D2AD75"/>
            <stop offset="1" stop-color="#AD8D55" stop-opacity="0.9"/>
        </linearGradient>
        <clipPath id="clip0_190_5749">
            <rect width="50" height="50" fill="white"/>
        </clipPath>
    </defs>
</svg>
