<svg width="50" height="50" viewBox="0 0 50 50" fill="none" xmlns="http://www.w3.org/2000/svg">
    <path d="M42.6758 1.9917H11.8164V13.7105H7.32422C3.28564 13.7105 0 16.9961 0 21.0347V48.0086L7.93096 40.0776H30.8594C34.8979 40.0776 38.1836 36.792 38.1836 32.7534V28.3589H42.069L50 36.2899V9.31592C50 5.27734 46.7144 1.9917 42.6758 1.9917ZM35.2539 32.7534C35.2539 35.1766 33.2825 37.148 30.8594 37.148H6.71748L2.92969 40.9357V21.0347C2.92969 18.6115 4.90107 16.6401 7.32422 16.6401H35.2539V32.7534ZM47.0703 29.217L43.2825 25.4292H38.1836V13.7105H14.7461V4.92139H42.6758C45.0989 4.92139 47.0703 6.89277 47.0703 9.31592V29.217Z" fill="url(#paint0_linear_190_5812)"/>
    <path d="M11.8164 25.4292H14.7461V28.3589H11.8164V25.4292Z" fill="url(#paint1_linear_190_5812)"/>
    <path d="M17.6758 25.4292H20.6055V28.3589H17.6758V25.4292Z" fill="url(#paint2_linear_190_5812)"/>
    <path d="M23.5352 25.4292H26.4648V28.3589H23.5352V25.4292Z" fill="url(#paint3_linear_190_5812)"/>
    <defs>
        <linearGradient id="paint0_linear_190_5812" x1="42.3646" y1="51.2912" x2="6.08724" y2="18.2886" gradientUnits="userSpaceOnUse">
            <stop stop-color="#AD8D55" stop-opacity="0.9"/>
            <stop offset="0.259615" stop-color="#D2AD75"/>
            <stop offset="0.466346" stop-color="#E8CDA0"/>
            <stop offset="0.8125" stop-color="#D2AD75"/>
            <stop offset="1" stop-color="#AD8D55" stop-opacity="0.9"/>
        </linearGradient>
        <linearGradient id="paint1_linear_190_5812" x1="14.2987" y1="28.5679" x2="12.0149" y2="26.6557" gradientUnits="userSpaceOnUse">
            <stop stop-color="#AD8D55" stop-opacity="0.9"/>
            <stop offset="0.259615" stop-color="#D2AD75"/>
            <stop offset="0.466346" stop-color="#E8CDA0"/>
            <stop offset="0.8125" stop-color="#D2AD75"/>
            <stop offset="1" stop-color="#AD8D55" stop-opacity="0.9"/>
        </linearGradient>
        <linearGradient id="paint2_linear_190_5812" x1="20.1581" y1="28.5679" x2="17.8742" y2="26.6557" gradientUnits="userSpaceOnUse">
            <stop stop-color="#AD8D55" stop-opacity="0.9"/>
            <stop offset="0.259615" stop-color="#D2AD75"/>
            <stop offset="0.466346" stop-color="#E8CDA0"/>
            <stop offset="0.8125" stop-color="#D2AD75"/>
            <stop offset="1" stop-color="#AD8D55" stop-opacity="0.9"/>
        </linearGradient>
        <linearGradient id="paint3_linear_190_5812" x1="26.0175" y1="28.5679" x2="23.7336" y2="26.6557" gradientUnits="userSpaceOnUse">
            <stop stop-color="#AD8D55" stop-opacity="0.9"/>
            <stop offset="0.259615" stop-color="#D2AD75"/>
            <stop offset="0.466346" stop-color="#E8CDA0"/>
            <stop offset="0.8125" stop-color="#D2AD75"/>
            <stop offset="1" stop-color="#AD8D55" stop-opacity="0.9"/>
        </linearGradient>
    </defs>
</svg>
