<svg width="153" height="48" viewBox="0 0 153 48" fill="none" xmlns="http://www.w3.org/2000/svg">
    <g clip-path="url(#clip0_8_218)">
        <path d="M153 26.728H140.333C140.285 26.56 140.269 10.048 140.317 9.72H152.872V12.408C152.337 12.432 151.809 12.408 151.282 12.416C150.746 12.416 150.203 12.416 149.668 12.416H143.274V16.768H151.777V19.464C151.697 19.464 151.609 19.48 151.53 19.48C150.746 19.48 149.963 19.48 149.188 19.48C147.31 19.48 145.432 19.48 143.546 19.48C143.458 19.48 143.37 19.48 143.274 19.48V23.984C143.274 23.984 143.282 24 143.29 24C143.29 24 143.298 24.008 143.306 24.008C143.37 24.008 143.442 24.008 143.506 24.008C146.671 24.008 149.827 24.008 152.992 24.008V26.704L153 26.728Z" fill="url(#paint0_linear_8_218)"/>
        <path d="M153 37.352C152.88 37.44 152.76 37.52 152.648 37.608C151.809 38.2 150.882 38.464 149.859 38.424C149.084 38.392 148.381 38.168 147.765 37.704C147.062 37.176 146.647 36.456 146.487 35.6C146.295 34.616 146.423 33.672 146.966 32.816C147.59 31.832 148.493 31.28 149.651 31.16C150.395 31.08 151.122 31.176 151.809 31.48C152.153 31.632 152.465 31.84 152.76 32.104C152.497 32.416 152.241 32.72 151.977 33.04C151.905 32.984 151.841 32.936 151.777 32.888C151.162 32.408 150.459 32.216 149.683 32.312C149.164 32.376 148.74 32.624 148.389 33.008C147.582 33.888 147.478 35.376 148.181 36.352C148.716 37.096 149.468 37.376 150.363 37.304C150.834 37.272 151.274 37.128 151.673 36.872C151.769 36.808 151.817 36.744 151.817 36.624C151.809 36.288 151.817 35.944 151.817 35.608C151.817 35.568 151.817 35.52 151.809 35.456H150.027V34.384C150.083 34.384 150.139 34.368 150.195 34.368C151.082 34.368 151.961 34.368 152.848 34.368C152.904 34.368 152.96 34.384 153.016 34.4V37.368L153 37.352Z" fill="url(#paint1_linear_8_218)"/>
        <path d="M69.4793 20.8V26.712H66.5304C66.4905 26.56 66.4745 9.992 66.5304 9.72C66.5864 9.72 66.6503 9.704 66.7142 9.704C69.1996 9.704 71.685 9.704 74.1624 9.704C75.2493 9.704 76.3202 9.872 77.3271 10.304C78.8615 10.968 79.8685 12.088 80.2521 13.728C80.5078 14.84 80.4838 15.96 80.0922 17.04C79.5808 18.464 78.5658 19.416 77.1913 19.992C76.9276 20.104 76.6558 20.192 76.3681 20.296C77.8865 22.432 79.405 24.56 80.9394 26.712C80.8355 26.712 80.7715 26.72 80.7076 26.72C79.6767 26.72 78.6458 26.72 77.6148 26.72C77.463 26.72 77.3751 26.672 77.2952 26.552C75.9925 24.696 74.6739 22.848 73.3713 20.984C73.2674 20.832 73.1555 20.784 72.9717 20.784C71.8928 20.792 70.8219 20.784 69.7431 20.784C69.6631 20.784 69.5832 20.784 69.4873 20.784L69.4793 20.8ZM69.4873 18.136C69.5353 18.136 69.5513 18.152 69.5752 18.152C71.0857 18.152 72.5961 18.16 74.1065 18.152C74.6579 18.152 75.2014 18.04 75.7128 17.808C76.464 17.464 77.0155 16.928 77.2472 16.112C77.3431 15.768 77.3751 15.416 77.3511 15.064C77.2952 14.016 76.8157 13.248 75.8487 12.808C75.3612 12.584 74.8417 12.464 74.3063 12.456C72.7479 12.44 71.1816 12.44 69.6232 12.44C69.5832 12.44 69.5353 12.44 69.4873 12.448V18.144V18.136Z" fill="url(#paint2_linear_8_218)"/>
        <path d="M113.585 9.6H116.358C118.844 15.296 121.337 20.992 123.831 26.712H120.666C120.098 25.352 119.515 23.984 118.948 22.624H110.916C110.333 23.984 109.757 25.344 109.174 26.712H106.145C106.169 26.544 113.329 10.088 113.601 9.592L113.585 9.6ZM117.845 19.96C116.87 17.704 115.903 15.472 114.936 13.224C114.776 13.456 112.075 19.8 112.059 19.96H117.845Z" fill="url(#paint3_linear_8_218)"/>
        <path d="M50.2994 9.704C50.3873 9.704 50.4592 9.704 50.5312 9.704C52.6729 9.704 54.8067 9.704 56.9484 9.704C57.9874 9.704 59.0023 9.832 59.9773 10.224C61.7594 10.928 62.9022 12.192 63.3098 14.08C63.5575 15.24 63.5176 16.4 63.094 17.52C62.5666 18.928 61.5756 19.896 60.225 20.528C59.4338 20.896 58.5947 21.12 57.7236 21.2C57.2521 21.24 56.7806 21.264 56.3091 21.264C55.3901 21.272 54.463 21.264 53.544 21.264C53.4561 21.264 53.3682 21.264 53.2483 21.264C53.2483 21.576 53.2483 21.872 53.2483 22.176C53.2483 22.48 53.2483 22.784 53.2483 23.08V23.984C53.2483 24.288 53.2483 24.592 53.2483 24.888C53.2483 25.192 53.2483 25.496 53.2483 25.792C53.2483 26.088 53.2483 26.392 53.2483 26.704C52.2574 26.704 51.2824 26.704 50.3154 26.704C50.2674 26.552 50.2514 10.048 50.2994 9.696V9.704ZM53.2563 12.432V18.536C53.3122 18.536 53.3522 18.544 53.4002 18.544C54.6229 18.544 55.8456 18.544 57.0683 18.544C57.5478 18.544 58.0193 18.448 58.4669 18.272C59.33 17.928 59.9693 17.352 60.257 16.448C60.4088 15.96 60.4248 15.464 60.3609 14.96C60.257 14.176 59.9133 13.536 59.25 13.08C58.6187 12.656 57.9154 12.456 57.1722 12.44C55.9095 12.416 54.6548 12.424 53.3922 12.424C53.3522 12.424 53.3043 12.424 53.2563 12.432Z" fill="url(#paint4_linear_8_218)"/>
        <path d="M103.835 9.712H107.016C107.016 9.712 107.032 9.728 107.032 9.736L107.04 9.752C107.032 9.792 107.016 9.84 107 9.88C104.667 15.528 102.341 21.184 100.007 26.84H97.3702C95.0206 21.144 92.6711 15.448 90.3056 9.72C90.3935 9.72 90.4574 9.704 90.5213 9.704C91.4803 9.704 92.4393 9.704 93.3983 9.704C93.5981 9.704 93.5981 9.664 93.694 9.912C95.3403 14.112 96.9866 18.304 98.6329 22.504C98.6648 22.576 98.6968 22.648 98.7447 22.768C100.455 18.392 102.141 14.064 103.835 9.712Z" fill="url(#paint5_linear_8_218)"/>
        <path d="M137.145 9.736V12.48H131.766V26.712H128.729V12.488H123.351V9.752C123.351 9.752 123.367 9.736 123.367 9.728C123.367 9.728 123.375 9.72 123.383 9.72C123.415 9.72 123.439 9.712 123.471 9.712C127.994 9.712 132.525 9.712 137.049 9.712C137.073 9.712 137.089 9.72 137.137 9.736H137.145Z" fill="url(#paint6_linear_8_218)"/>
        <path d="M87.1888 26.72H84.2639C84.2159 26.56 84.1999 10.08 84.2479 9.744C84.3997 9.696 86.8692 9.68 87.1728 9.728C87.2208 9.88 87.2368 26.336 87.1888 26.72Z" fill="url(#paint7_linear_8_218)"/>
        <path d="M136.018 33.376V38.296H134.795V31.264C134.843 31.264 134.899 31.248 134.955 31.248C135.203 31.248 135.458 31.256 135.706 31.248C135.874 31.24 135.97 31.288 136.074 31.424C136.841 32.432 137.624 33.432 138.399 34.432C138.815 34.968 139.23 35.504 139.662 36.072C139.71 35.848 139.686 35.656 139.686 35.464C139.686 35.264 139.686 35.064 139.686 34.864V32.472C139.686 32.272 139.686 32.072 139.686 31.872C139.686 31.672 139.686 31.472 139.686 31.28C139.854 31.232 140.653 31.224 140.909 31.264V38.304C140.581 38.304 140.261 38.304 139.95 38.304C139.886 38.304 139.822 38.216 139.774 38.16C139.31 37.56 138.847 36.96 138.383 36.36C137.656 35.424 136.929 34.48 136.21 33.544C136.162 33.48 136.114 33.424 136.058 33.368C136.042 33.368 136.026 33.376 136.018 33.384V33.376Z" fill="url(#paint8_linear_8_218)"/>
        <path d="M66.914 38.312C66.7542 38.312 66.5944 38.312 66.4345 38.312C66.1868 38.312 65.9311 38.312 65.6833 38.312C65.5475 38.312 65.4675 38.272 65.3956 38.16C64.9001 37.456 64.4046 36.752 63.9092 36.048C63.8612 35.984 63.8133 35.92 63.7653 35.856H62.2229V38.264C62.0551 38.32 61.3758 38.336 61.0242 38.296C61.0242 38.296 61.0082 38.296 61.0082 38.28L61.0002 38.264C61.0002 36.008 60.9922 33.752 60.9842 31.496C60.9842 31.424 60.9842 31.352 60.9842 31.264C61.0561 31.264 61.1121 31.248 61.168 31.248C62.191 31.248 63.2139 31.248 64.2448 31.248C64.7083 31.248 65.1559 31.336 65.5714 31.536C66.2987 31.888 66.6823 32.48 66.7462 33.28C66.7782 33.608 66.7462 33.928 66.6423 34.24C66.4265 34.864 65.995 35.28 65.3876 35.528C65.2917 35.568 65.1958 35.6 65.0839 35.64C65.7073 36.52 66.3306 37.384 66.946 38.256L66.922 38.304L66.914 38.312ZM62.2229 34.744C62.2949 34.744 62.3508 34.744 62.3987 34.744C62.9342 34.744 63.4776 34.744 64.0131 34.744C64.1569 34.744 64.3087 34.728 64.4526 34.704C65.1319 34.584 65.4995 34.112 65.4595 33.424C65.4356 33.032 65.2518 32.736 64.9001 32.56C64.7003 32.456 64.4846 32.4 64.2608 32.392C63.6215 32.392 62.9821 32.392 62.3348 32.384C62.3028 32.384 62.2629 32.384 62.2229 32.4V34.752V34.744Z" fill="url(#paint9_linear_8_218)"/>
        <path d="M75.6329 38.424C73.8987 38.448 72.4522 37.376 72.0367 35.736C71.5252 33.72 72.676 31.712 74.7219 31.232C76.2642 30.872 77.8626 31.432 78.7097 32.744C79.9883 34.728 79.1572 37.584 76.6159 38.296C76.2802 38.392 75.9366 38.424 75.6329 38.416V38.424ZM73.2274 34.384C73.2034 36.16 74.2823 37.416 75.8727 37.264C76.464 37.208 76.9675 36.96 77.3511 36.512C77.9665 35.792 78.1343 34.952 77.8786 34.048C77.3831 32.264 75.4091 31.8 74.1784 32.736C73.5151 33.24 73.2354 33.944 73.2274 34.384Z" fill="url(#paint10_linear_8_218)"/>
        <path d="M100.918 34.176V35.304C100.631 35.304 100.335 35.304 100.047 35.304C99.7517 35.304 99.456 35.304 99.1603 35.304H98.2972C98.0015 35.304 97.7138 35.304 97.4101 35.304V37.168C97.6259 37.184 97.8417 37.168 98.0575 37.168C98.2812 37.168 98.497 37.168 98.7208 37.168H99.4081C99.6318 37.168 99.8476 37.168 100.071 37.168H101.39C101.446 37.336 101.454 38.024 101.406 38.288H96.1714V31.272C96.3233 31.224 100.95 31.208 101.366 31.256V32.368H97.4101V34.144C97.5939 34.192 97.7937 34.16 97.9855 34.168C98.1773 34.168 98.3691 34.168 98.5609 34.168H100.91L100.918 34.176Z" fill="url(#paint11_linear_8_218)"/>
        <path d="M51.5061 36.04V38.296H50.3074C50.2674 38.136 50.2515 31.576 50.2914 31.264C50.3474 31.264 50.4033 31.248 50.4592 31.248C51.3543 31.248 52.2574 31.248 53.1524 31.248C53.6239 31.248 54.0795 31.336 54.495 31.552C55.2542 31.936 55.6618 32.568 55.7177 33.416C55.7577 33.968 55.6618 34.488 55.3421 34.952C54.9745 35.48 54.4471 35.768 53.8397 35.928C53.52 36.016 53.1844 36.04 52.8567 36.04C52.4891 36.04 52.1215 36.04 51.7539 36.04C51.682 36.04 51.61 36.04 51.5061 36.04ZM51.5221 34.92C51.61 34.92 51.682 34.92 51.7539 34.92C52.1215 34.92 52.4891 34.92 52.8567 34.92C53.0325 34.92 53.2084 34.904 53.3842 34.88C54.0075 34.784 54.4311 34.344 54.463 33.728C54.495 33.128 54.2633 32.712 53.6719 32.496C53.52 32.44 53.3602 32.408 53.2004 32.4C52.6729 32.384 52.1375 32.392 51.61 32.392C51.5861 32.392 51.5541 32.408 51.5221 32.416V34.928V34.92Z" fill="url(#paint12_linear_8_218)"/>
        <path d="M116.75 37.264C116.998 36.976 117.237 36.688 117.485 36.392C117.589 36.472 117.685 36.544 117.773 36.616C118.172 36.912 118.596 37.16 119.099 37.248C119.499 37.32 119.907 37.352 120.298 37.224C120.642 37.112 120.898 36.912 120.946 36.52C120.985 36.2 120.89 35.936 120.602 35.768C120.306 35.592 119.987 35.496 119.659 35.408C119.243 35.288 118.82 35.176 118.404 35.056C118.252 35.008 118.101 34.936 117.957 34.864C117.237 34.472 116.966 33.896 117.006 33.064C117.046 32.28 117.581 31.44 118.748 31.224C119.899 31.016 120.954 31.272 121.889 31.992C121.905 32.008 121.921 32.024 121.952 32.056C121.737 32.36 121.521 32.664 121.297 32.984C121.225 32.936 121.153 32.896 121.089 32.856C120.674 32.584 120.234 32.368 119.731 32.296C119.459 32.256 119.187 32.256 118.916 32.32C118.54 32.416 118.276 32.688 118.236 33.016C118.196 33.32 118.284 33.576 118.556 33.744C118.732 33.848 118.924 33.936 119.115 34C119.531 34.128 119.955 34.224 120.362 34.36C120.658 34.456 120.962 34.568 121.241 34.712C121.905 35.064 122.256 35.672 122.16 36.52C122.056 37.472 121.465 38.136 120.49 38.328C119.091 38.608 117.853 38.264 116.766 37.336C116.758 37.328 116.75 37.312 116.718 37.272L116.75 37.264Z" fill="url(#paint13_linear_8_218)"/>
        <path d="M111.643 32.056C111.427 32.36 111.212 32.664 110.988 32.976C110.908 32.92 110.836 32.872 110.764 32.824C110.357 32.56 109.917 32.344 109.43 32.28C109.158 32.24 108.886 32.24 108.614 32.312C108.103 32.448 107.839 32.872 107.959 33.344C107.999 33.512 108.095 33.648 108.239 33.728C108.423 33.832 108.614 33.928 108.814 33.992C109.23 34.12 109.653 34.216 110.061 34.352C110.357 34.448 110.66 34.56 110.94 34.704C111.427 34.96 111.763 35.36 111.835 35.92C112.011 37.144 111.38 37.992 110.349 38.272C109.166 38.592 108.047 38.376 107.008 37.736C106.8 37.608 106.617 37.448 106.401 37.288C106.656 36.984 106.904 36.688 107.152 36.392C107.28 36.488 107.392 36.576 107.504 36.656C107.879 36.928 108.287 37.152 108.75 37.24C109.15 37.32 109.557 37.352 109.949 37.216C110.109 37.16 110.253 37.072 110.389 36.968C110.7 36.728 110.748 36.04 110.285 35.76C109.989 35.584 109.669 35.488 109.342 35.4C108.926 35.28 108.503 35.176 108.095 35.04C107.863 34.968 107.647 34.856 107.44 34.72C106.8 34.304 106.609 33.672 106.696 32.944C106.816 32.024 107.376 31.464 108.247 31.248C109.47 30.944 110.596 31.216 111.595 31.984C111.603 31.992 111.611 32.008 111.627 32.04L111.643 32.056Z" fill="url(#paint14_linear_8_218)"/>
        <path d="M90.857 32.216C90.5773 32.536 90.3216 32.84 90.0498 33.144C89.922 33.04 89.8101 32.944 89.6902 32.856C89.2906 32.56 88.8591 32.336 88.3476 32.288C87.3966 32.192 86.5175 32.64 86.062 33.472C85.5426 34.432 85.6624 35.696 86.3657 36.496C86.7813 36.976 87.3087 37.232 87.948 37.272C88.6273 37.312 89.2027 37.096 89.7222 36.672C89.8421 36.576 89.9619 36.48 90.0578 36.392C90.3216 36.656 90.5853 36.904 90.865 37.176C90.849 37.2 90.817 37.248 90.7771 37.288C90.1857 37.888 89.4824 38.288 88.6353 38.384C87.1968 38.552 85.9741 38.144 85.103 36.936C83.8403 35.168 84.3598 32.416 86.5335 31.44C87.1649 31.152 87.8282 31.08 88.5154 31.144C89.3386 31.216 90.0498 31.528 90.6652 32.072C90.7211 32.12 90.7771 32.168 90.841 32.216H90.857Z" fill="url(#paint15_linear_8_218)"/>
        <path d="M127.706 31.256H128.889C128.937 31.408 128.945 38.04 128.897 38.304H127.706V31.256Z" fill="url(#paint16_linear_8_218)"/>
        <path d="M21.7053 0C21.7053 0 21.7692 0.032 21.8012 0.04C22.3846 0.152 22.8002 0.648 22.8002 1.24C22.8002 1.832 22.3846 2.328 21.8012 2.44C21.1379 2.568 20.4906 2.128 20.3707 1.472C20.2268 0.72 20.7863 0.112 21.3537 0.04C21.3936 0.04 21.4336 0.016 21.4815 0C21.5535 0 21.6254 0 21.7053 0ZM22.8081 46.976C22.8081 33.416 22.8081 19.864 22.8081 6.304C22.8081 6.232 22.8081 6.16 22.8081 6.08C22.7842 5.44 22.2807 4.928 21.6574 4.896C21.002 4.864 20.4586 5.304 20.3707 5.952C20.3547 6.08 20.3547 6.216 20.3547 6.352C20.3547 19.88 20.3547 33.408 20.3547 46.928C20.3547 46.976 20.3547 47.032 20.3547 47.08C20.3387 47.192 20.3947 47.256 20.4826 47.312C20.8022 47.504 21.1219 47.712 21.4416 47.904C21.4895 47.936 21.5455 47.96 21.6014 47.984C22.009 47.728 22.4086 47.48 22.8161 47.224V46.96L22.8081 46.976ZM15.4239 40.256C14.2251 39.04 13.1303 37.728 12.1153 36.352C11.3162 36.544 10.541 36.76 9.7498 37.016C10.8846 38.648 12.1233 40.16 13.4819 41.584C14.8405 43.008 16.303 44.312 17.9173 45.536C17.9173 45.392 17.9173 45.304 17.9173 45.224C17.9173 37.256 17.9173 29.28 17.9173 21.312C17.9173 21.216 17.9173 21.12 17.9173 21.024C17.8693 20.408 17.3898 19.936 16.7585 19.904C16.1032 19.872 15.6317 20.32 15.5198 20.824C15.4878 20.976 15.4798 21.128 15.4798 21.28C15.4798 27.512 15.4798 33.744 15.4798 39.976C15.4798 40.064 15.4798 40.152 15.4798 40.24C15.4638 40.24 15.4478 40.256 15.4319 40.264L15.4239 40.256ZM13.0344 34.672C13.0344 29.016 13.0344 23.36 13.0344 17.704C13.0344 17.624 13.0344 17.544 13.0344 17.464C13.0104 16.816 12.4909 16.304 11.8356 16.28C11.1643 16.256 10.6049 16.808 10.5889 17.424C10.5889 17.536 10.5889 17.648 10.5889 17.752C10.5889 22.856 10.5889 27.96 10.5889 33.056C10.5889 33.152 10.5889 33.248 10.5889 33.344C8.59102 34.12 6.70499 35.072 4.91486 36.224C3.2526 37.296 0.223766 39.752 0 40.24C4.05176 37.72 8.38323 35.96 13.0344 34.952V34.656V34.672ZM32.5819 33.36C32.5819 33.248 32.5819 33.152 32.5819 33.056C32.5819 28.08 32.5819 23.096 32.5819 18.12C32.5819 18.032 32.5819 17.944 32.5819 17.856C32.542 17.024 31.7987 16.472 31.0156 16.696C30.4721 16.848 30.1285 17.336 30.1285 17.952C30.1285 23.56 30.1285 29.16 30.1285 34.768C30.1285 34.832 30.1285 34.896 30.1365 34.976C34.8036 35.984 39.159 37.752 43.2108 40.264C40.158 37.216 36.6097 34.928 32.5819 33.368V33.36ZM27.691 40.24V39.984C27.691 36.4 27.691 32.816 27.691 29.232C27.691 29.128 27.691 29.024 27.691 28.92C27.6751 28.328 27.2195 27.816 26.6521 27.752C26.0208 27.68 25.4534 28.04 25.3015 28.632C25.2616 28.792 25.2536 28.968 25.2536 29.136C25.2536 34.496 25.2536 39.856 25.2536 45.224C25.2536 45.272 25.2536 45.312 25.2536 45.36C25.2536 45.408 25.2696 45.448 25.2856 45.52C28.4423 43.104 31.1434 40.28 33.429 37.016C32.6299 36.768 31.8467 36.536 31.0875 36.36C30.5361 37.048 30.0166 37.712 29.4732 38.368C28.9297 39.024 28.3543 39.656 27.755 40.256C27.739 40.256 27.723 40.248 27.707 40.24H27.691ZM40.206 13.936C40.142 13.912 40.1021 13.888 40.0621 13.88C39.159 13.576 38.256 13.264 37.3449 12.968C36.7616 12.784 36.1782 12.608 35.5868 12.472C34.8835 12.312 34.1882 12.968 34.2602 13.688C34.3161 14.216 34.6358 14.584 35.1632 14.736C36.0023 14.984 36.8415 15.24 37.6726 15.488C37.7525 15.512 37.8324 15.544 37.9283 15.584C37.8564 21.584 36.386 27.2 33.5249 32.48C34.2282 32.792 34.9155 33.104 35.6427 33.432C38.9113 27.328 40.4297 20.84 40.2219 13.936H40.206ZM4.69109 26.712C5.42633 29.04 6.36934 31.28 7.53612 33.424C8.25537 33.104 8.94265 32.792 9.64591 32.48C8.2234 29.88 7.13654 27.152 6.39331 24.296C5.65009 21.44 5.26649 18.536 5.24252 15.584C5.30645 15.56 5.34641 15.544 5.38637 15.528C5.80193 15.392 6.20951 15.256 6.62507 15.136C7.09658 14.992 7.57608 14.864 8.04758 14.728C8.81478 14.504 9.15043 13.664 8.74286 13C8.51909 12.64 7.99963 12.336 7.39227 12.512C6.24147 12.84 5.09068 13.184 3.96386 13.584C3.62821 13.704 3.30055 13.816 2.9649 13.936C2.81306 18.312 3.38846 22.568 4.69109 26.72V26.712ZM27.6831 10.552C27.6831 10.464 27.6831 10.376 27.6831 10.288C27.6591 9.696 27.1956 9.192 26.6042 9.128C26.0208 9.056 25.4534 9.424 25.2936 9.984C25.2536 10.12 25.2376 10.272 25.2376 10.416C25.2376 14.712 25.2376 19.016 25.2376 23.312C25.2376 23.344 25.2376 23.368 25.2376 23.4C25.2536 24.016 25.7171 24.528 26.3245 24.6C26.9238 24.664 27.4833 24.28 27.6351 23.688C27.6671 23.544 27.6751 23.4 27.6751 23.248C27.6751 21.128 27.6751 19 27.6751 16.88C27.6751 14.768 27.6751 12.664 27.6751 10.552H27.6831ZM17.9173 10.496C17.9173 10.384 17.9173 10.272 17.9013 10.168C17.8214 9.496 17.1261 9 16.4708 9.144C15.8634 9.272 15.4718 9.752 15.4718 10.376C15.4718 11.616 15.4718 12.856 15.4718 14.096C15.4718 14.704 15.4718 15.304 15.4718 15.912C15.4718 16.416 15.7995 16.856 16.263 17.032C16.7265 17.208 17.2619 17.08 17.5976 16.712C17.8294 16.456 17.9173 16.16 17.9173 15.816C17.9173 14.92 17.9173 14.016 17.9173 13.12C17.9173 12.248 17.9173 11.376 17.9173 10.512V10.496ZM32.5819 12.624C32.5819 11.952 32.0145 11.376 31.3432 11.384C30.6719 11.384 30.1205 11.952 30.1205 12.616C30.1205 13.28 30.6799 13.84 31.3432 13.84C32.0065 13.84 32.5659 13.288 32.5739 12.624H32.5819ZM11.8116 13.848C12.4909 13.848 13.0344 13.288 13.0344 12.6C13.0344 12.048 12.6028 11.4 11.7957 11.392C11.1244 11.392 10.5809 11.952 10.5889 12.624C10.5889 13.296 11.1404 13.848 11.8116 13.848ZM26.4763 4.24C25.797 4.24 25.2456 4.768 25.2376 5.44C25.2376 6.128 25.773 6.68 26.4603 6.68C27.1396 6.68 27.6831 6.144 27.6831 5.464C27.6831 4.784 27.1556 4.24 26.4763 4.232V4.24ZM15.4718 5.448C15.4718 6.128 16.0073 6.68 16.6786 6.68C17.3738 6.68 17.9173 6.144 17.9173 5.456C17.9173 4.776 17.3818 4.232 16.7025 4.232C16.0232 4.232 15.4718 4.768 15.4718 5.44V5.448Z" fill="url(#paint17_linear_8_218)"/>
    </g>
    <defs>
        <linearGradient id="paint0_linear_8_218" x1="146.644" y1="6.00794" x2="146.644" y2="26.728" gradientUnits="userSpaceOnUse">
            <stop stop-color="white"/>
            <stop offset="1" stop-color="white" stop-opacity="0.7"/>
        </linearGradient>
        <linearGradient id="paint1_linear_8_218" x1="149.709" y1="29.541" x2="149.709" y2="38.4279" gradientUnits="userSpaceOnUse">
            <stop stop-color="white"/>
            <stop offset="1" stop-color="white" stop-opacity="0.7"/>
        </linearGradient>
        <linearGradient id="paint2_linear_8_218" x1="73.7168" y1="5.99019" x2="73.7168" y2="26.72" gradientUnits="userSpaceOnUse">
            <stop stop-color="white"/>
            <stop offset="1" stop-color="white" stop-opacity="0.7"/>
        </linearGradient>
        <linearGradient id="paint3_linear_8_218" x1="114.988" y1="5.85549" x2="114.988" y2="26.712" gradientUnits="userSpaceOnUse">
            <stop stop-color="white"/>
            <stop offset="1" stop-color="white" stop-opacity="0.7"/>
        </linearGradient>
        <linearGradient id="paint4_linear_8_218" x1="56.8667" y1="5.98394" x2="56.8667" y2="26.704" gradientUnits="userSpaceOnUse">
            <stop stop-color="white"/>
            <stop offset="1" stop-color="white" stop-opacity="0.7"/>
        </linearGradient>
        <linearGradient id="paint5_linear_8_218" x1="98.6728" y1="5.9611" x2="98.6728" y2="26.84" gradientUnits="userSpaceOnUse">
            <stop stop-color="white"/>
            <stop offset="1" stop-color="white" stop-opacity="0.7"/>
        </linearGradient>
        <linearGradient id="paint6_linear_8_218" x1="130.248" y1="6.00168" x2="130.248" y2="26.712" gradientUnits="userSpaceOnUse">
            <stop stop-color="white"/>
            <stop offset="1" stop-color="white" stop-opacity="0.7"/>
        </linearGradient>
        <linearGradient id="paint7_linear_8_218" x1="85.7184" y1="5.98412" x2="85.7184" y2="26.72" gradientUnits="userSpaceOnUse">
            <stop stop-color="white"/>
            <stop offset="1" stop-color="white" stop-opacity="0.7"/>
        </linearGradient>
        <linearGradient id="paint8_linear_8_218" x1="137.852" y1="29.6963" x2="137.852" y2="38.304" gradientUnits="userSpaceOnUse">
            <stop stop-color="white"/>
            <stop offset="1" stop-color="white" stop-opacity="0.7"/>
        </linearGradient>
        <linearGradient id="paint9_linear_8_218" x1="63.9651" y1="29.7049" x2="63.9651" y2="38.3182" gradientUnits="userSpaceOnUse">
            <stop stop-color="white"/>
            <stop offset="1" stop-color="white" stop-opacity="0.7"/>
        </linearGradient>
        <linearGradient id="paint10_linear_8_218" x1="75.6091" y1="29.5319" x2="75.6091" y2="38.4244" gradientUnits="userSpaceOnUse">
            <stop stop-color="white"/>
            <stop offset="1" stop-color="white" stop-opacity="0.7"/>
        </linearGradient>
        <linearGradient id="paint11_linear_8_218" x1="98.8044" y1="29.6859" x2="98.8044" y2="38.288" gradientUnits="userSpaceOnUse">
            <stop stop-color="white"/>
            <stop offset="1" stop-color="white" stop-opacity="0.7"/>
        </linearGradient>
        <linearGradient id="paint12_linear_8_218" x1="52.9973" y1="29.7097" x2="52.9973" y2="38.296" gradientUnits="userSpaceOnUse">
            <stop stop-color="white"/>
            <stop offset="1" stop-color="white" stop-opacity="0.7"/>
        </linearGradient>
        <linearGradient id="paint13_linear_8_218" x1="119.447" y1="29.5677" x2="119.447" y2="38.4227" gradientUnits="userSpaceOnUse">
            <stop stop-color="white"/>
            <stop offset="1" stop-color="white" stop-opacity="0.7"/>
        </linearGradient>
        <linearGradient id="paint14_linear_8_218" x1="109.133" y1="29.5346" x2="109.133" y2="38.4184" gradientUnits="userSpaceOnUse">
            <stop stop-color="white"/>
            <stop offset="1" stop-color="white" stop-opacity="0.7"/>
        </linearGradient>
        <linearGradient id="paint15_linear_8_218" x1="87.6456" y1="29.5296" x2="87.6456" y2="38.4201" gradientUnits="userSpaceOnUse">
            <stop stop-color="white"/>
            <stop offset="1" stop-color="white" stop-opacity="0.7"/>
        </linearGradient>
        <linearGradient id="paint16_linear_8_218" x1="128.318" y1="29.7177" x2="128.318" y2="38.304" gradientUnits="userSpaceOnUse">
            <stop stop-color="white"/>
            <stop offset="1" stop-color="white" stop-opacity="0.7"/>
        </linearGradient>
        <linearGradient id="paint17_linear_8_218" x1="36.6122" y1="51.4069" x2="0.0810045" y2="23.8634" gradientUnits="userSpaceOnUse">
            <stop stop-color="#AD8D55"/>
            <stop offset="0.360577" stop-color="#9A753D"/>
            <stop offset="0.543269" stop-color="#E8CDA0"/>
            <stop offset="0.850962" stop-color="#BA9050"/>
            <stop offset="1" stop-color="#AD8D55"/>
        </linearGradient>
        <clipPath id="clip0_8_218">
            <rect width="153" height="48" fill="white"/>
        </clipPath>
    </defs>
</svg>
