<svg width="39" height="43" viewBox="0 0 39 43" fill="none" xmlns="http://www.w3.org/2000/svg">
    <path d="M19.5902 0C19.5902 0 19.6479 0.0286762 19.6767 0.0358453C20.2033 0.136212 20.5783 0.580694 20.5783 1.1112C20.5783 1.64171 20.2033 2.0862 19.6767 2.18656C19.078 2.30127 18.4938 1.90697 18.3856 1.31911C18.2558 0.645215 18.7607 0.100367 19.2728 0.0358453C19.3089 0.0358453 19.3449 0.0143381 19.3882 0C19.4531 0 19.518 0 19.5902 0ZM20.5855 42.0967C20.5855 29.9452 20.5855 17.8008 20.5855 5.64922C20.5855 5.5847 20.5855 5.52017 20.5855 5.44848C20.5639 4.87496 20.1095 4.41614 19.5469 4.38746C18.9554 4.35879 18.465 4.75308 18.3856 5.33378C18.3712 5.44848 18.3712 5.57036 18.3712 5.69223C18.3712 17.8151 18.3712 29.938 18.3712 42.0537C18.3712 42.0967 18.3712 42.1469 18.3712 42.1899C18.3568 42.2903 18.4072 42.3476 18.4866 42.3978C18.7751 42.5699 19.0636 42.7563 19.3521 42.9283C19.3954 42.957 19.4459 42.9785 19.4964 43C19.8643 42.7706 20.2249 42.5484 20.5928 42.3189V42.0824L20.5855 42.0967ZM13.9208 36.0747C12.8389 34.985 11.8507 33.8093 10.9347 32.5762C10.2134 32.7482 9.51378 32.9418 8.7997 33.1712C9.82393 34.6337 10.9419 35.9887 12.1681 37.2648C13.3943 38.5408 14.7143 39.7094 16.1713 40.8063C16.1713 40.6772 16.1713 40.5984 16.1713 40.5267C16.1713 33.3863 16.1713 26.2387 16.1713 19.0984C16.1713 19.0123 16.1713 18.9263 16.1713 18.8403C16.128 18.2883 15.6952 17.8653 15.1254 17.8366C14.5339 17.8079 14.1084 18.2094 14.0074 18.6611C13.9785 18.7973 13.9713 18.9335 13.9713 19.0697C13.9713 24.6544 13.9713 30.2391 13.9713 35.8238C13.9713 35.9026 13.9713 35.9815 13.9713 36.0604C13.9569 36.0604 13.9425 36.0747 13.9281 36.0819L13.9208 36.0747ZM11.7642 31.0707C11.7642 26.0022 11.7642 20.9336 11.7642 15.8651C11.7642 15.7934 11.7642 15.7217 11.7642 15.6501C11.7426 15.0694 11.2737 14.6105 10.6823 14.589C10.0764 14.5675 9.57148 15.0622 9.55706 15.6142C9.55706 15.7146 9.55706 15.8149 9.55706 15.9081C9.55706 20.482 9.55706 25.0559 9.55706 29.6225C9.55706 29.7086 9.55706 29.7946 9.55706 29.8806C7.75384 30.576 6.0516 31.4291 4.43592 32.4615C2.93564 33.4221 0.20196 35.623 0 36.0604C3.65693 33.8021 7.5663 32.2249 11.7642 31.3216V31.0564V31.0707ZM29.4069 29.895C29.4069 29.7946 29.4069 29.7086 29.4069 29.6225C29.4069 25.1634 29.4069 20.6971 29.4069 16.2379C29.4069 16.1591 29.4069 16.0802 29.4069 16.0013C29.3708 15.2558 28.7 14.7611 27.9932 14.9618C27.5027 15.098 27.1925 15.5353 27.1925 16.0874C27.1925 21.1129 27.1925 26.1312 27.1925 31.1567C27.1925 31.2141 27.1925 31.2714 27.1997 31.3431C31.4121 32.2464 35.3431 33.8308 39 36.0819C36.2447 33.3505 33.0422 31.3001 29.4069 29.9021V29.895ZM24.9926 36.0604V35.8309C24.9926 32.6192 24.9926 29.4075 24.9926 26.1957C24.9926 26.1025 24.9926 26.0093 24.9926 25.9161C24.9782 25.3856 24.567 24.9268 24.0549 24.8695C23.4851 24.8049 22.973 25.1275 22.836 25.6581C22.7999 25.8014 22.7927 25.9592 22.7927 26.1097C22.7927 30.913 22.7927 35.7162 22.7927 40.5267C22.7927 40.5697 22.7927 40.6055 22.7927 40.6486C22.7927 40.6916 22.8071 40.7274 22.8215 40.7919C25.6706 38.6269 28.1086 36.0962 30.1714 33.1712C29.4502 32.949 28.7433 32.7411 28.0581 32.5834C27.5604 33.1999 27.0916 33.7949 26.6011 34.3828C26.1106 34.9707 25.5913 35.537 25.0503 36.0747C25.0359 36.0747 25.0215 36.0675 25.007 36.0604H24.9926ZM36.288 12.4885C36.2303 12.467 36.1942 12.4455 36.1581 12.4383C35.3431 12.1659 34.528 11.8863 33.7058 11.621C33.1792 11.4562 32.6527 11.2984 32.1189 11.1766C31.4842 11.0332 30.8567 11.621 30.9216 12.2663C30.9721 12.7394 31.2606 13.0692 31.7366 13.2054C32.494 13.4276 33.2513 13.6571 34.0015 13.8793C34.0736 13.9008 34.1457 13.9295 34.2323 13.9653C34.1674 19.3421 32.8402 24.3748 30.258 29.1064C30.8927 29.386 31.513 29.6656 32.1694 29.9595C35.1195 24.4895 36.4899 18.6754 36.3024 12.4885H36.288ZM4.23396 23.9375C4.89754 26.0237 5.74866 28.031 6.80174 29.9523C7.4509 29.6656 8.0712 29.386 8.70594 29.1064C7.42205 26.7764 6.4411 24.3318 5.7703 21.7724C5.0995 19.2131 4.75328 16.6107 4.73164 13.9653C4.78935 13.9438 4.82541 13.9295 4.86148 13.9151C5.23655 13.7933 5.6044 13.6714 5.97947 13.5639C6.40503 13.4348 6.8378 13.3201 7.26336 13.1982C7.9558 12.9975 8.25874 12.2447 7.89088 11.6497C7.68892 11.3271 7.22009 11.0547 6.67191 11.2124C5.63325 11.5063 4.5946 11.8146 3.57758 12.1731C3.27464 12.2806 2.97892 12.381 2.67598 12.4885C2.53893 16.41 3.05826 20.2239 4.23396 23.9447V23.9375ZM24.9854 9.45599C24.9854 9.37713 24.9854 9.29827 24.9854 9.21941C24.9638 8.6889 24.5454 8.23725 24.0117 8.17989C23.4851 8.11537 22.973 8.44515 22.8287 8.94698C22.7927 9.06886 22.7783 9.20507 22.7783 9.33411C22.7783 13.1839 22.7783 17.0408 22.7783 20.8906C22.7783 20.9193 22.7783 20.9408 22.7783 20.9695C22.7927 21.5215 23.211 21.9803 23.7592 22.0448C24.3002 22.1022 24.8051 21.7581 24.9421 21.2276C24.971 21.0985 24.9782 20.9695 24.9782 20.8333C24.9782 18.9335 24.9782 17.0265 24.9782 15.1267C24.9782 13.2341 24.9782 11.3486 24.9782 9.45599H24.9854ZM16.1713 9.4058C16.1713 9.30544 16.1713 9.20507 16.1568 9.11187C16.0847 8.50967 15.4572 8.06519 14.8657 8.19423C14.3176 8.30894 13.9641 8.73908 13.9641 9.29827C13.9641 10.4095 13.9641 11.5207 13.9641 12.6319C13.9641 13.1767 13.9641 13.7144 13.9641 14.2593C13.9641 14.7109 14.2598 15.1052 14.6782 15.2629C15.0965 15.4206 15.5798 15.3059 15.8827 14.9762C16.0919 14.7467 16.1713 14.4815 16.1713 14.1732C16.1713 13.3703 16.1713 12.5602 16.1713 11.7573C16.1713 10.9758 16.1713 10.1944 16.1713 9.42014V9.4058ZM29.4069 11.3128C29.4069 10.7106 28.8948 10.1944 28.2889 10.2016C27.683 10.2016 27.1853 10.7106 27.1853 11.3056C27.1853 11.9006 27.6902 12.4025 28.2889 12.4025C28.8876 12.4025 29.3925 11.9078 29.3997 11.3128H29.4069ZM10.6606 12.4096C11.2737 12.4096 11.7642 11.9078 11.7642 11.2913C11.7642 10.7966 11.3747 10.2159 10.6462 10.2087C10.0403 10.2087 9.54984 10.7106 9.55706 11.3128C9.55706 11.915 10.0547 12.4096 10.6606 12.4096ZM23.8962 3.7996C23.2832 3.7996 22.7855 4.27276 22.7783 4.87496C22.7783 5.4915 23.2615 5.98616 23.8818 5.98616C24.4949 5.98616 24.9854 5.50584 24.9854 4.89647C24.9854 4.2871 24.5093 3.7996 23.8962 3.79243V3.7996ZM13.9641 4.88213C13.9641 5.4915 14.4474 5.98616 15.0533 5.98616C15.6808 5.98616 16.1713 5.50584 16.1713 4.8893C16.1713 4.27993 15.688 3.79243 15.0749 3.79243C14.4618 3.79243 13.9641 4.27276 13.9641 4.87496V4.88213Z" fill="url(#paint0_linear_8_237)"/>
    <defs>
        <linearGradient id="paint0_linear_8_237" x1="19.5" y1="-9.38492" x2="19.5" y2="43" gradientUnits="userSpaceOnUse">
            <stop stop-color="white"/>
            <stop offset="1" stop-color="white" stop-opacity="0.7"/>
        </linearGradient>
    </defs>
</svg>
