<svg width="164" height="48" viewBox="0 0 164 48" fill="none" xmlns="http://www.w3.org/2000/svg">
    <g clip-path="url(#clip0_216_559)">
        <path d="M153 26.7277H140.333C140.285 26.5597 140.269 10.0477 140.317 9.71973H152.872V12.4077C152.337 12.4317 151.809 12.4077 151.282 12.4157C150.746 12.4157 150.203 12.4157 149.668 12.4157H143.274V16.7677H151.777V19.4637C151.697 19.4637 151.609 19.4797 151.53 19.4797C150.746 19.4797 149.963 19.4797 149.188 19.4797C147.31 19.4797 145.432 19.4797 143.546 19.4797C143.458 19.4797 143.37 19.4797 143.274 19.4797V23.9837C143.274 23.9837 143.282 23.9997 143.29 23.9997C143.29 23.9997 143.298 24.0077 143.306 24.0077C143.37 24.0077 143.442 24.0077 143.506 24.0077C146.671 24.0077 149.827 24.0077 152.992 24.0077V26.7037L153 26.7277Z" fill="url(#paint0_linear_216_559)"/>
        <path d="M153 37.3517C152.88 37.4397 152.76 37.5197 152.648 37.6077C151.809 38.1997 150.882 38.4637 149.859 38.4237C149.084 38.3917 148.381 38.1677 147.765 37.7037C147.062 37.1757 146.647 36.4557 146.487 35.5997C146.295 34.6157 146.423 33.6717 146.966 32.8157C147.59 31.8317 148.493 31.2797 149.651 31.1597C150.395 31.0797 151.122 31.1757 151.809 31.4797C152.153 31.6317 152.465 31.8397 152.76 32.1037C152.497 32.4157 152.241 32.7197 151.977 33.0397C151.905 32.9837 151.841 32.9357 151.777 32.8877C151.162 32.4077 150.459 32.2157 149.683 32.3117C149.164 32.3757 148.74 32.6237 148.389 33.0077C147.582 33.8877 147.478 35.3757 148.181 36.3517C148.716 37.0957 149.468 37.3757 150.363 37.3037C150.834 37.2717 151.274 37.1277 151.673 36.8717C151.769 36.8077 151.817 36.7437 151.817 36.6237C151.809 36.2877 151.817 35.9437 151.817 35.6077C151.817 35.5677 151.817 35.5197 151.809 35.4557H150.027V34.3837C150.083 34.3837 150.139 34.3677 150.195 34.3677C151.082 34.3677 151.961 34.3677 152.848 34.3677C152.904 34.3677 152.96 34.3837 153.016 34.3997V37.3677L153 37.3517Z" fill="url(#paint1_linear_216_559)"/>
        <path d="M69.4793 20.8001V26.7121H66.5304C66.4905 26.5601 66.4745 9.9921 66.5304 9.7201C66.5864 9.7201 66.6503 9.7041 66.7142 9.7041C69.1996 9.7041 71.685 9.7041 74.1624 9.7041C75.2493 9.7041 76.3202 9.8721 77.3271 10.3041C78.8615 10.9681 79.8685 12.0881 80.2521 13.7281C80.5078 14.8401 80.4838 15.9601 80.0922 17.0401C79.5808 18.4641 78.5658 19.4161 77.1913 19.9921C76.9276 20.1041 76.6558 20.1921 76.3681 20.2961C77.8865 22.4321 79.405 24.5601 80.9394 26.7121C80.8355 26.7121 80.7715 26.7201 80.7076 26.7201C79.6767 26.7201 78.6458 26.7201 77.6148 26.7201C77.463 26.7201 77.3751 26.6721 77.2952 26.5521C75.9925 24.6961 74.6739 22.8481 73.3713 20.9841C73.2674 20.8321 73.1555 20.7841 72.9717 20.7841C71.8928 20.7921 70.8219 20.7841 69.7431 20.7841C69.6631 20.7841 69.5832 20.7841 69.4873 20.7841L69.4793 20.8001ZM69.4873 18.1361C69.5353 18.1361 69.5513 18.1521 69.5752 18.1521C71.0857 18.1521 72.5961 18.1601 74.1065 18.1521C74.6579 18.1521 75.2014 18.0401 75.7128 17.8081C76.464 17.4641 77.0155 16.9281 77.2472 16.1121C77.3431 15.7681 77.3751 15.4161 77.3511 15.0641C77.2952 14.0161 76.8157 13.2481 75.8487 12.8081C75.3612 12.5841 74.8417 12.4641 74.3063 12.4561C72.7479 12.4401 71.1816 12.4401 69.6232 12.4401C69.5832 12.4401 69.5353 12.4401 69.4873 12.4481V18.1441V18.1361Z" fill="url(#paint2_linear_216_559)"/>
        <path d="M113.585 9.5998H116.358C118.844 15.2958 121.337 20.9918 123.831 26.7118H120.666C120.098 25.3518 119.515 23.9838 118.948 22.6238H110.916C110.333 23.9838 109.757 25.3438 109.174 26.7118H106.145C106.169 26.5438 113.329 10.0878 113.601 9.5918L113.585 9.5998ZM117.845 19.9598C116.87 17.7038 115.903 15.4718 114.936 13.2238C114.776 13.4558 112.075 19.7998 112.059 19.9598H117.845Z" fill="url(#paint3_linear_216_559)"/>
        <path d="M50.2994 9.70331C50.3873 9.70331 50.4592 9.70331 50.5312 9.70331C52.6729 9.70331 54.8067 9.70331 56.9484 9.70331C57.9874 9.70331 59.0023 9.83131 59.9773 10.2233C61.7594 10.9273 62.9022 12.1913 63.3098 14.0793C63.5575 15.2393 63.5176 16.3993 63.094 17.5193C62.5666 18.9273 61.5756 19.8953 60.225 20.5273C59.4338 20.8953 58.5947 21.1193 57.7236 21.1993C57.2521 21.2393 56.7806 21.2633 56.3091 21.2633C55.3901 21.2713 54.463 21.2633 53.544 21.2633C53.4561 21.2633 53.3682 21.2633 53.2483 21.2633C53.2483 21.5753 53.2483 21.8713 53.2483 22.1753C53.2483 22.4793 53.2483 22.7833 53.2483 23.0793V23.9833C53.2483 24.2873 53.2483 24.5913 53.2483 24.8873C53.2483 25.1913 53.2483 25.4953 53.2483 25.7913C53.2483 26.0873 53.2483 26.3913 53.2483 26.7033C52.2574 26.7033 51.2824 26.7033 50.3154 26.7033C50.2674 26.5513 50.2514 10.0473 50.2994 9.69531V9.70331ZM53.2563 12.4313V18.5353C53.3122 18.5353 53.3522 18.5433 53.4002 18.5433C54.6229 18.5433 55.8456 18.5433 57.0683 18.5433C57.5478 18.5433 58.0193 18.4473 58.4669 18.2713C59.33 17.9273 59.9693 17.3513 60.257 16.4473C60.4088 15.9593 60.4248 15.4633 60.3609 14.9593C60.257 14.1753 59.9133 13.5353 59.25 13.0793C58.6187 12.6553 57.9154 12.4553 57.1722 12.4393C55.9095 12.4153 54.6548 12.4233 53.3922 12.4233C53.3522 12.4233 53.3043 12.4233 53.2563 12.4313Z" fill="url(#paint4_linear_216_559)"/>
        <path d="M103.835 9.71155H107.016C107.016 9.71155 107.032 9.72755 107.032 9.73555L107.04 9.75155C107.032 9.79155 107.016 9.83955 107 9.87955C104.667 15.5276 102.341 21.1835 100.007 26.8396H97.3702C95.0206 21.1435 92.6711 15.4476 90.3056 9.71955C90.3935 9.71955 90.4574 9.70355 90.5213 9.70355C91.4803 9.70355 92.4393 9.70355 93.3983 9.70355C93.5981 9.70355 93.5981 9.66355 93.694 9.91155C95.3403 14.1116 96.9866 18.3035 98.6329 22.5035C98.6648 22.5756 98.6968 22.6475 98.7447 22.7675C100.455 18.3916 102.141 14.0636 103.835 9.71155Z" fill="url(#paint5_linear_216_559)"/>
        <path d="M137.145 9.73591V12.4799H131.766V26.7119H128.729V12.4879H123.351V9.75191C123.351 9.75191 123.367 9.73591 123.367 9.72791C123.367 9.72791 123.375 9.71991 123.383 9.71991C123.415 9.71991 123.439 9.71191 123.471 9.71191C127.994 9.71191 132.525 9.71191 137.049 9.71191C137.073 9.71191 137.089 9.71991 137.137 9.73591H137.145Z" fill="url(#paint6_linear_216_559)"/>
        <path d="M87.1888 26.7202H84.2639C84.2159 26.5602 84.1999 10.0802 84.2479 9.7442C84.3997 9.6962 86.8692 9.6802 87.1728 9.7282C87.2208 9.8802 87.2368 26.3362 87.1888 26.7202Z" fill="url(#paint7_linear_216_559)"/>
        <path d="M136.018 33.3759V38.2959H134.795V31.2639C134.843 31.2639 134.899 31.2479 134.955 31.2479C135.203 31.2479 135.458 31.2559 135.706 31.2479C135.874 31.2399 135.97 31.2879 136.074 31.4239C136.841 32.4319 137.624 33.4319 138.399 34.4319C138.815 34.9679 139.23 35.5039 139.662 36.0719C139.71 35.8479 139.686 35.6559 139.686 35.4639C139.686 35.2639 139.686 35.0639 139.686 34.8639V32.4719C139.686 32.2719 139.686 32.0719 139.686 31.8719C139.686 31.6719 139.686 31.4719 139.686 31.2799C139.854 31.2319 140.653 31.2239 140.909 31.2639V38.3039C140.581 38.3039 140.261 38.3039 139.95 38.3039C139.886 38.3039 139.822 38.2159 139.774 38.1599C139.31 37.5599 138.847 36.9599 138.383 36.3599C137.656 35.4239 136.929 34.4799 136.21 33.5439C136.162 33.4799 136.114 33.4239 136.058 33.3679C136.042 33.3679 136.026 33.3759 136.018 33.3839V33.3759Z" fill="url(#paint8_linear_216_559)"/>
        <path d="M66.914 38.312C66.7542 38.312 66.5944 38.312 66.4345 38.312C66.1868 38.312 65.9311 38.312 65.6833 38.312C65.5475 38.312 65.4675 38.272 65.3956 38.16C64.9001 37.456 64.4046 36.752 63.9092 36.048C63.8612 35.984 63.8133 35.92 63.7653 35.856H62.2229V38.264C62.0551 38.32 61.3758 38.336 61.0242 38.296C61.0242 38.296 61.0082 38.296 61.0082 38.28L61.0002 38.264C61.0002 36.008 60.9922 33.752 60.9842 31.496C60.9842 31.424 60.9842 31.352 60.9842 31.264C61.0561 31.264 61.1121 31.248 61.168 31.248C62.191 31.248 63.2139 31.248 64.2448 31.248C64.7083 31.248 65.1559 31.336 65.5714 31.536C66.2987 31.888 66.6823 32.48 66.7462 33.28C66.7782 33.608 66.7462 33.928 66.6423 34.24C66.4265 34.864 65.995 35.28 65.3876 35.528C65.2917 35.568 65.1958 35.6 65.0839 35.64C65.7073 36.52 66.3306 37.384 66.946 38.256L66.922 38.304L66.914 38.312ZM62.2229 34.744C62.2949 34.744 62.3508 34.744 62.3987 34.744C62.9342 34.744 63.4776 34.744 64.0131 34.744C64.1569 34.744 64.3087 34.728 64.4526 34.704C65.1319 34.584 65.4995 34.112 65.4595 33.424C65.4356 33.032 65.2518 32.736 64.9001 32.56C64.7003 32.456 64.4846 32.4 64.2608 32.392C63.6215 32.392 62.9821 32.392 62.3348 32.384C62.3028 32.384 62.2629 32.384 62.2229 32.4V34.752V34.744Z" fill="url(#paint9_linear_216_559)"/>
        <path d="M75.6329 38.4239C73.8987 38.4479 72.4522 37.3759 72.0367 35.7359C71.5252 33.7199 72.676 31.7119 74.7219 31.2319C76.2642 30.8719 77.8626 31.4319 78.7097 32.7439C79.9883 34.7279 79.1572 37.5839 76.6159 38.2959C76.2802 38.3919 75.9366 38.4239 75.6329 38.4159V38.4239ZM73.2274 34.3839C73.2034 36.1599 74.2823 37.4159 75.8727 37.2639C76.464 37.2079 76.9675 36.9599 77.3511 36.5119C77.9665 35.7919 78.1343 34.9519 77.8786 34.0479C77.3831 32.2639 75.4091 31.7999 74.1784 32.7359C73.5151 33.2399 73.2354 33.9439 73.2274 34.3839Z" fill="url(#paint10_linear_216_559)"/>
        <path d="M100.918 34.1755V35.3035C100.631 35.3035 100.335 35.3035 100.047 35.3035C99.7517 35.3035 99.456 35.3035 99.1603 35.3035H98.2972C98.0015 35.3035 97.7138 35.3035 97.4101 35.3035V37.1675C97.6259 37.1835 97.8417 37.1675 98.0575 37.1675C98.2812 37.1675 98.497 37.1675 98.7208 37.1675H99.4081C99.6318 37.1675 99.8476 37.1675 100.071 37.1675H101.39C101.446 37.3355 101.454 38.0235 101.406 38.2875H96.1714V31.2715C96.3233 31.2235 100.95 31.2075 101.366 31.2555V32.3675H97.4101V34.1435C97.5939 34.1915 97.7937 34.1595 97.9855 34.1675C98.1773 34.1675 98.3691 34.1675 98.5609 34.1675H100.91L100.918 34.1755Z" fill="url(#paint11_linear_216_559)"/>
        <path d="M51.5061 36.04V38.296H50.3074C50.2674 38.136 50.2515 31.576 50.2914 31.264C50.3474 31.264 50.4033 31.248 50.4592 31.248C51.3543 31.248 52.2574 31.248 53.1524 31.248C53.6239 31.248 54.0795 31.336 54.495 31.552C55.2542 31.936 55.6618 32.568 55.7177 33.416C55.7577 33.968 55.6618 34.488 55.3421 34.952C54.9745 35.48 54.4471 35.768 53.8397 35.928C53.52 36.016 53.1844 36.04 52.8567 36.04C52.4891 36.04 52.1215 36.04 51.7539 36.04C51.682 36.04 51.61 36.04 51.5061 36.04ZM51.5221 34.92C51.61 34.92 51.682 34.92 51.7539 34.92C52.1215 34.92 52.4891 34.92 52.8567 34.92C53.0325 34.92 53.2084 34.904 53.3842 34.88C54.0075 34.784 54.4311 34.344 54.463 33.728C54.495 33.128 54.2633 32.712 53.6719 32.496C53.52 32.44 53.3602 32.408 53.2004 32.4C52.6729 32.384 52.1375 32.392 51.61 32.392C51.5861 32.392 51.5541 32.408 51.5221 32.416V34.928V34.92Z" fill="url(#paint12_linear_216_559)"/>
        <path d="M116.75 37.2642C116.998 36.9762 117.237 36.6882 117.485 36.3922C117.589 36.4722 117.685 36.5442 117.773 36.6162C118.172 36.9122 118.596 37.1602 119.099 37.2482C119.499 37.3202 119.907 37.3522 120.298 37.2242C120.642 37.1122 120.898 36.9122 120.946 36.5202C120.985 36.2002 120.89 35.9362 120.602 35.7682C120.306 35.5922 119.987 35.4962 119.659 35.4082C119.243 35.2882 118.82 35.1762 118.404 35.0562C118.252 35.0082 118.101 34.9362 117.957 34.8642C117.237 34.4722 116.966 33.8962 117.006 33.0642C117.046 32.2802 117.581 31.4402 118.748 31.2242C119.899 31.0162 120.954 31.2722 121.889 31.9922C121.905 32.0082 121.921 32.0242 121.952 32.0562C121.737 32.3602 121.521 32.6642 121.297 32.9842C121.225 32.9362 121.153 32.8962 121.089 32.8562C120.674 32.5842 120.234 32.3682 119.731 32.2962C119.459 32.2562 119.187 32.2562 118.916 32.3202C118.54 32.4162 118.276 32.6882 118.236 33.0162C118.196 33.3202 118.284 33.5762 118.556 33.7442C118.732 33.8482 118.924 33.9362 119.115 34.0002C119.531 34.1282 119.955 34.2242 120.362 34.3602C120.658 34.4562 120.962 34.5682 121.241 34.7122C121.905 35.0642 122.256 35.6722 122.16 36.5202C122.056 37.4722 121.465 38.1362 120.49 38.3282C119.091 38.6082 117.853 38.2642 116.766 37.3362C116.758 37.3282 116.75 37.3122 116.718 37.2722L116.75 37.2642Z" fill="url(#paint13_linear_216_559)"/>
        <path d="M111.643 32.0558C111.427 32.3598 111.212 32.6638 110.988 32.9758C110.908 32.9198 110.836 32.8718 110.764 32.8238C110.357 32.5598 109.917 32.3438 109.43 32.2798C109.158 32.2398 108.886 32.2398 108.614 32.3118C108.103 32.4478 107.839 32.8718 107.959 33.3438C107.999 33.5118 108.095 33.6478 108.239 33.7278C108.423 33.8318 108.614 33.9278 108.814 33.9918C109.23 34.1198 109.653 34.2158 110.061 34.3518C110.357 34.4478 110.66 34.5598 110.94 34.7038C111.427 34.9598 111.763 35.3598 111.835 35.9198C112.011 37.1438 111.38 37.9918 110.349 38.2718C109.166 38.5918 108.047 38.3758 107.008 37.7358C106.8 37.6078 106.617 37.4478 106.401 37.2878C106.656 36.9838 106.904 36.6878 107.152 36.3918C107.28 36.4878 107.392 36.5758 107.504 36.6558C107.879 36.9278 108.287 37.1518 108.75 37.2398C109.15 37.3198 109.557 37.3518 109.949 37.2158C110.109 37.1598 110.253 37.0718 110.389 36.9678C110.7 36.7278 110.748 36.0398 110.285 35.7598C109.989 35.5838 109.669 35.4878 109.342 35.3998C108.926 35.2798 108.503 35.1758 108.095 35.0398C107.863 34.9678 107.647 34.8558 107.44 34.7198C106.8 34.3038 106.609 33.6718 106.696 32.9438C106.816 32.0238 107.376 31.4638 108.247 31.2478C109.47 30.9438 110.596 31.2158 111.595 31.9838C111.603 31.9918 111.611 32.0078 111.627 32.0398L111.643 32.0558Z" fill="url(#paint14_linear_216_559)"/>
        <path d="M90.857 32.2157C90.5773 32.5357 90.3216 32.8397 90.0498 33.1437C89.922 33.0397 89.8101 32.9437 89.6902 32.8557C89.2906 32.5597 88.8591 32.3357 88.3476 32.2877C87.3966 32.1917 86.5175 32.6397 86.062 33.4717C85.5426 34.4317 85.6624 35.6957 86.3657 36.4957C86.7813 36.9757 87.3087 37.2317 87.948 37.2717C88.6273 37.3117 89.2027 37.0957 89.7222 36.6717C89.8421 36.5757 89.9619 36.4797 90.0578 36.3917C90.3216 36.6557 90.5853 36.9037 90.865 37.1757C90.849 37.1997 90.817 37.2477 90.7771 37.2877C90.1857 37.8877 89.4824 38.2877 88.6353 38.3837C87.1968 38.5517 85.9741 38.1437 85.103 36.9357C83.8403 35.1677 84.3598 32.4157 86.5335 31.4397C87.1649 31.1517 87.8282 31.0797 88.5154 31.1437C89.3386 31.2157 90.0498 31.5277 90.6652 32.0717C90.7211 32.1197 90.7771 32.1677 90.841 32.2157H90.857Z" fill="url(#paint15_linear_216_559)"/>
        <path d="M127.706 31.2559H128.889C128.937 31.4079 128.945 38.0399 128.897 38.3039H127.706V31.2559Z" fill="url(#paint16_linear_216_559)"/>
        <path d="M19.0878 0C19.0878 0 19.1441 0.0280093 19.1722 0.0350117C19.6852 0.133044 20.0507 0.567189 20.0507 1.08536C20.0507 1.60353 19.6852 2.03768 19.1722 2.13571C18.5889 2.24775 18.0196 1.86262 17.9142 1.28843C17.7877 0.63021 18.2796 0.0980327 18.7786 0.0350117C18.8138 0.0350117 18.8489 0.0140047 18.8911 0C18.9543 0 19.0176 0 19.0878 0ZM20.0577 41.1177C20.0577 29.2488 20.0577 17.3868 20.0577 5.51784C20.0577 5.45482 20.0577 5.3918 20.0577 5.32177C20.0366 4.76159 19.5939 4.31344 19.0457 4.28543C18.4694 4.25742 17.9915 4.64255 17.9142 5.20974C17.9001 5.32177 17.9001 5.44081 17.9001 5.55985C17.9001 17.4008 17.9001 29.2417 17.9001 41.0757C17.9001 41.1177 17.9001 41.1667 17.9001 41.2087C17.8861 41.3068 17.9353 41.3628 18.0126 41.4118C18.2937 41.5799 18.5748 41.7619 18.8559 41.93C18.8981 41.958 18.9473 41.979 18.9965 42C19.3549 41.7759 19.7063 41.5589 20.0647 41.3348V41.1037L20.0577 41.1177ZM13.5639 35.2357C12.5097 34.1714 11.5469 33.023 10.6543 31.8186C9.95154 31.9867 9.26984 32.1757 8.57407 32.3998C9.57204 33.8283 10.6614 35.1517 11.8561 36.3981C13.0509 37.6445 14.337 38.7859 15.7566 39.8573C15.7566 39.7312 15.7566 39.6542 15.7566 39.5842C15.7566 32.6099 15.7566 25.6285 15.7566 18.6542C15.7566 18.5702 15.7566 18.4862 15.7566 18.4021C15.7144 17.863 15.2928 17.4498 14.7376 17.4218C14.1613 17.3938 13.7466 17.7859 13.6482 18.2271C13.6201 18.3601 13.6131 18.4932 13.6131 18.6262C13.6131 24.081 13.6131 29.5358 13.6131 34.9907C13.6131 35.0677 13.6131 35.1447 13.6131 35.2217C13.599 35.2217 13.585 35.2357 13.5709 35.2428L13.5639 35.2357ZM11.4625 30.3481C11.4625 25.3975 11.4625 20.4468 11.4625 15.4962C11.4625 15.4261 11.4625 15.3561 11.4625 15.2861C11.4415 14.7189 10.9847 14.2708 10.4084 14.2498C9.81802 14.2287 9.32606 14.7119 9.312 15.2511C9.312 15.3491 9.312 15.4472 9.312 15.5382C9.312 20.0057 9.312 24.4732 9.312 28.9336C9.312 29.0177 9.312 29.1017 9.312 29.1857C7.55502 29.865 5.89643 30.6982 4.32218 31.7066C2.86037 32.6449 0.196782 34.7946 0 35.2217C3.56316 33.016 7.3723 31.4755 11.4625 30.5932V30.3341V30.3481ZM28.6529 29.1997C28.6529 29.1017 28.6529 29.0177 28.6529 28.9336C28.6529 24.5782 28.6529 20.2157 28.6529 15.8603C28.6529 15.7833 28.6529 15.7062 28.6529 15.6292C28.6177 14.901 27.9641 14.4178 27.2754 14.6139C26.7975 14.7469 26.4953 15.1741 26.4953 15.7132C26.4953 20.6219 26.4953 25.5235 26.4953 30.4321C26.4953 30.4882 26.4953 30.5442 26.5023 30.6142C30.6066 31.4965 34.4368 33.044 38 35.2428C35.3153 32.5749 32.1949 30.5722 28.6529 29.2067V29.1997ZM24.3518 35.2217V34.9977C24.3518 31.8606 24.3518 28.7236 24.3518 25.5865C24.3518 25.4955 24.3518 25.4045 24.3518 25.3134C24.3377 24.7953 23.9371 24.3471 23.4381 24.2911C22.8829 24.2281 22.3839 24.5432 22.2504 25.0614C22.2153 25.2014 22.2083 25.3555 22.2083 25.5025C22.2083 30.1941 22.2083 34.8856 22.2083 39.5842C22.2083 39.6262 22.2083 39.6612 22.2083 39.7032C22.2083 39.7453 22.2223 39.7803 22.2364 39.8433C25.0124 37.7286 27.3878 35.2568 29.3978 32.3998C28.695 32.1827 28.0063 31.9797 27.3386 31.8256C26.8537 32.4278 26.3969 33.009 25.919 33.5832C25.4411 34.1574 24.9351 34.7106 24.408 35.2357C24.3939 35.2357 24.3799 35.2287 24.3658 35.2217H24.3518ZM35.3575 12.1981C35.3013 12.1771 35.2661 12.1561 35.231 12.149C34.4368 11.883 33.6427 11.6099 32.8415 11.3508C32.3285 11.1897 31.8154 11.0357 31.2954 10.9166C30.6769 10.7766 30.0655 11.3508 30.1287 11.981C30.1779 12.4431 30.459 12.7653 30.9229 12.8983C31.6608 13.1154 32.3987 13.3394 33.1296 13.5565C33.1999 13.5775 33.2702 13.6055 33.3545 13.6405C33.2913 18.8923 31.9982 23.8079 29.4822 28.4295C30.1006 28.7026 30.705 28.9757 31.3446 29.2628C34.219 23.92 35.5543 18.2411 35.3716 12.1981H35.3575ZM4.12539 23.3808C4.77196 25.4185 5.60126 27.3791 6.62734 29.2558C7.25985 28.9757 7.86425 28.7026 8.48271 28.4295C7.23174 26.1537 6.27594 23.7659 5.62234 21.2661C4.96874 18.7663 4.6314 16.2244 4.61032 13.6405C4.66654 13.6195 4.70168 13.6055 4.73682 13.5915C5.10227 13.4725 5.4607 13.3535 5.82615 13.2484C6.2408 13.1224 6.66248 13.0103 7.07712 12.8913C7.7518 12.6952 8.04698 11.96 7.68855 11.3788C7.49177 11.0637 7.03496 10.7976 6.50083 10.9517C5.48881 11.2387 4.47679 11.5398 3.48585 11.89C3.19068 11.995 2.90253 12.093 2.60736 12.1981C2.47383 16.0283 2.97984 19.7536 4.12539 23.3878V23.3808ZM24.3447 9.23608C24.3447 9.15905 24.3447 9.08203 24.3447 9.005C24.3237 8.48683 23.916 8.04568 23.396 7.98966C22.8829 7.92664 22.3839 8.24875 22.2434 8.73891C22.2083 8.85795 22.1942 8.991 22.1942 9.11704C22.1942 12.8773 22.1942 16.6445 22.1942 20.4048C22.1942 20.4328 22.1942 20.4538 22.1942 20.4818C22.2083 21.021 22.6159 21.4692 23.15 21.5322C23.6771 21.5882 24.169 21.2521 24.3026 20.7339C24.3307 20.6079 24.3377 20.4818 24.3377 20.3488C24.3377 18.4932 24.3377 16.6305 24.3377 14.7749C24.3377 12.9263 24.3377 11.0847 24.3377 9.23608H24.3447ZM15.7566 9.18706C15.7566 9.08903 15.7566 8.991 15.7426 8.89997C15.6723 8.31177 15.0608 7.87763 14.4846 8.00367C13.9504 8.11571 13.6061 8.53585 13.6061 9.08203C13.6061 10.1674 13.6061 11.2528 13.6061 12.3381C13.6061 12.8703 13.6061 13.3955 13.6061 13.9276C13.6061 14.3688 13.8942 14.7539 14.3018 14.908C14.7095 15.062 15.1803 14.95 15.4755 14.6279C15.6793 14.4038 15.7566 14.1447 15.7566 13.8436C15.7566 13.0594 15.7566 12.2681 15.7566 11.4838C15.7566 10.7206 15.7566 9.95732 15.7566 9.20107V9.18706ZM28.6529 11.0497C28.6529 10.4615 28.1539 9.95732 27.5635 9.96432C26.9732 9.96432 26.4883 10.4615 26.4883 11.0427C26.4883 11.6239 26.9802 12.114 27.5635 12.114C28.1469 12.114 28.6388 11.6309 28.6458 11.0497H28.6529ZM10.3873 12.121C10.9847 12.121 11.4625 11.6309 11.4625 11.0287C11.4625 10.5455 11.083 9.97833 10.3732 9.97132C9.78287 9.97132 9.30498 10.4615 9.312 11.0497C9.312 11.6379 9.79693 12.121 10.3873 12.121ZM23.2835 3.71124C22.6861 3.71124 22.2012 4.17339 22.1942 4.76159C22.1942 5.36379 22.6651 5.84695 23.2695 5.84695C23.8668 5.84695 24.3447 5.37779 24.3447 4.78259C24.3447 4.1874 23.8809 3.71124 23.2835 3.70423V3.71124ZM13.6061 4.76859C13.6061 5.36379 14.0769 5.84695 14.6673 5.84695C15.2787 5.84695 15.7566 5.37779 15.7566 4.77559C15.7566 4.18039 15.2857 3.70423 14.6884 3.70423C14.091 3.70423 13.6061 4.17339 13.6061 4.76159V4.76859Z" fill="url(#paint17_linear_216_559)"/>
    </g>
    <path d="M159.449 8.38136V4.57422H159.951L161.383 7.02602L162.814 4.57422H163.317L163.327 8.38136H162.748V5.75189L161.581 7.78237H161.185L160.023 5.75189V8.38136H159.449ZM156.794 8.38136V5.14275H155.464V4.57422H158.718V5.14275H157.398V8.38136H156.794Z" fill="url(#paint18_linear_216_559)"/>
    <defs>
        <linearGradient id="paint0_linear_216_559" x1="146.644" y1="6.00766" x2="146.644" y2="26.7277" gradientUnits="userSpaceOnUse">
            <stop stop-color="white"/>
            <stop offset="1" stop-color="white" stop-opacity="0.7"/>
        </linearGradient>
        <linearGradient id="paint1_linear_216_559" x1="149.709" y1="29.5407" x2="149.709" y2="38.4277" gradientUnits="userSpaceOnUse">
            <stop stop-color="white"/>
            <stop offset="1" stop-color="white" stop-opacity="0.7"/>
        </linearGradient>
        <linearGradient id="paint2_linear_216_559" x1="73.7168" y1="5.99029" x2="73.7168" y2="26.7201" gradientUnits="userSpaceOnUse">
            <stop stop-color="white"/>
            <stop offset="1" stop-color="white" stop-opacity="0.7"/>
        </linearGradient>
        <linearGradient id="paint3_linear_216_559" x1="114.988" y1="5.85529" x2="114.988" y2="26.7118" gradientUnits="userSpaceOnUse">
            <stop stop-color="white"/>
            <stop offset="1" stop-color="white" stop-opacity="0.7"/>
        </linearGradient>
        <linearGradient id="paint4_linear_216_559" x1="56.8667" y1="5.98325" x2="56.8667" y2="26.7033" gradientUnits="userSpaceOnUse">
            <stop stop-color="white"/>
            <stop offset="1" stop-color="white" stop-opacity="0.7"/>
        </linearGradient>
        <linearGradient id="paint5_linear_216_559" x1="98.6728" y1="5.96065" x2="98.6728" y2="26.8395" gradientUnits="userSpaceOnUse">
            <stop stop-color="white"/>
            <stop offset="1" stop-color="white" stop-opacity="0.7"/>
        </linearGradient>
        <linearGradient id="paint6_linear_216_559" x1="130.248" y1="6.0016" x2="130.248" y2="26.7119" gradientUnits="userSpaceOnUse">
            <stop stop-color="white"/>
            <stop offset="1" stop-color="white" stop-opacity="0.7"/>
        </linearGradient>
        <linearGradient id="paint7_linear_216_559" x1="85.7184" y1="5.98432" x2="85.7184" y2="26.7202" gradientUnits="userSpaceOnUse">
            <stop stop-color="white"/>
            <stop offset="1" stop-color="white" stop-opacity="0.7"/>
        </linearGradient>
        <linearGradient id="paint8_linear_216_559" x1="137.852" y1="29.6962" x2="137.852" y2="38.3039" gradientUnits="userSpaceOnUse">
            <stop stop-color="white"/>
            <stop offset="1" stop-color="white" stop-opacity="0.7"/>
        </linearGradient>
        <linearGradient id="paint9_linear_216_559" x1="63.9651" y1="29.7049" x2="63.9651" y2="38.3183" gradientUnits="userSpaceOnUse">
            <stop stop-color="white"/>
            <stop offset="1" stop-color="white" stop-opacity="0.7"/>
        </linearGradient>
        <linearGradient id="paint10_linear_216_559" x1="75.6091" y1="29.5319" x2="75.6091" y2="38.4243" gradientUnits="userSpaceOnUse">
            <stop stop-color="white"/>
            <stop offset="1" stop-color="white" stop-opacity="0.7"/>
        </linearGradient>
        <linearGradient id="paint11_linear_216_559" x1="98.8044" y1="29.6855" x2="98.8044" y2="38.2875" gradientUnits="userSpaceOnUse">
            <stop stop-color="white"/>
            <stop offset="1" stop-color="white" stop-opacity="0.7"/>
        </linearGradient>
        <linearGradient id="paint12_linear_216_559" x1="52.9973" y1="29.7098" x2="52.9973" y2="38.296" gradientUnits="userSpaceOnUse">
            <stop stop-color="white"/>
            <stop offset="1" stop-color="white" stop-opacity="0.7"/>
        </linearGradient>
        <linearGradient id="paint13_linear_216_559" x1="119.447" y1="29.5679" x2="119.447" y2="38.4229" gradientUnits="userSpaceOnUse">
            <stop stop-color="white"/>
            <stop offset="1" stop-color="white" stop-opacity="0.7"/>
        </linearGradient>
        <linearGradient id="paint14_linear_216_559" x1="109.133" y1="29.5344" x2="109.133" y2="38.4182" gradientUnits="userSpaceOnUse">
            <stop stop-color="white"/>
            <stop offset="1" stop-color="white" stop-opacity="0.7"/>
        </linearGradient>
        <linearGradient id="paint15_linear_216_559" x1="87.6456" y1="29.5293" x2="87.6456" y2="38.4198" gradientUnits="userSpaceOnUse">
            <stop stop-color="white"/>
            <stop offset="1" stop-color="white" stop-opacity="0.7"/>
        </linearGradient>
        <linearGradient id="paint16_linear_216_559" x1="128.318" y1="29.7176" x2="128.318" y2="38.3039" gradientUnits="userSpaceOnUse">
            <stop stop-color="white"/>
            <stop offset="1" stop-color="white" stop-opacity="0.7"/>
        </linearGradient>
        <linearGradient id="paint17_linear_216_559" x1="19" y1="-9.16667" x2="19" y2="42" gradientUnits="userSpaceOnUse">
            <stop stop-color="white"/>
            <stop offset="1" stop-color="white" stop-opacity="0.7"/>
        </linearGradient>
        <linearGradient id="paint18_linear_216_559" x1="159.396" y1="3.7433" x2="159.396" y2="8.38136" gradientUnits="userSpaceOnUse">
            <stop stop-color="white"/>
            <stop offset="1" stop-color="white" stop-opacity="0.7"/>
        </linearGradient>
        <clipPath id="clip0_216_559">
            <rect width="153" height="48" fill="white"/>
        </clipPath>
    </defs>
</svg>
