<svg width="153" height="48" viewBox="0 0 153 48" fill="none" xmlns="http://www.w3.org/2000/svg">
    <g clip-path="url(#clip0_1_957)">
        <path d="M152.999 26.7281H140.332C140.284 26.5601 140.268 10.0481 140.316 9.72009H152.871V12.4081C152.335 12.4321 151.808 12.4081 151.281 12.4161C150.745 12.4161 150.202 12.4161 149.666 12.4161H143.273V16.7681H151.776V19.4641C151.696 19.4641 151.608 19.4801 151.528 19.4801C150.745 19.4801 149.962 19.4801 149.187 19.4801C147.309 19.4801 145.431 19.4801 143.545 19.4801C143.457 19.4801 143.369 19.4801 143.273 19.4801V23.9841C143.273 23.9841 143.281 24.0001 143.289 24.0001C143.289 24.0001 143.297 24.0081 143.305 24.0081C143.369 24.0081 143.441 24.0081 143.505 24.0081C146.669 24.0081 149.826 24.0081 152.991 24.0081V26.7041L152.999 26.7281Z" fill="url(#paint0_linear_1_957)"/>
        <path d="M152.999 37.3521C152.88 37.4401 152.76 37.5201 152.648 37.6081C151.809 38.2001 150.882 38.4641 149.859 38.4241C149.084 38.3921 148.38 38.1681 147.765 37.7041C147.062 37.1761 146.646 36.4561 146.486 35.6001C146.294 34.6161 146.422 33.6721 146.966 32.8161C147.589 31.8321 148.492 31.2801 149.651 31.1601C150.394 31.0801 151.121 31.1761 151.809 31.4801C152.152 31.6321 152.464 31.8401 152.76 32.1041C152.496 32.4161 152.24 32.7201 151.976 33.0401C151.905 32.9841 151.841 32.9361 151.777 32.8881C151.161 32.4081 150.458 32.2161 149.683 32.3121C149.163 32.3761 148.74 32.6241 148.388 33.0081C147.581 33.8881 147.477 35.3761 148.18 36.3521C148.716 37.0961 149.467 37.3761 150.362 37.3041C150.834 37.2721 151.273 37.1281 151.673 36.8721C151.769 36.8081 151.817 36.7441 151.817 36.6241C151.809 36.2881 151.817 35.9441 151.817 35.6081C151.817 35.5681 151.817 35.5201 151.809 35.4561H150.027V34.3841C150.082 34.3841 150.138 34.3681 150.194 34.3681C151.081 34.3681 151.96 34.3681 152.848 34.3681C152.904 34.3681 152.959 34.3841 153.015 34.4001V37.3681L152.999 37.3521Z" fill="url(#paint1_linear_1_957)"/>
        <path d="M69.4793 20.8001V26.7121H66.5303C66.4904 26.5601 66.4744 9.9921 66.5303 9.7201C66.5863 9.7201 66.6502 9.7041 66.7142 9.7041C69.1996 9.7041 71.685 9.7041 74.1624 9.7041C75.2492 9.7041 76.3201 9.8721 77.3271 10.3041C78.8615 10.9681 79.8684 12.0881 80.252 13.7281C80.5077 14.8401 80.4838 15.9601 80.0922 17.0401C79.5807 18.4641 78.5658 19.4161 77.1912 19.9921C76.9275 20.1041 76.6558 20.1921 76.3681 20.2961C77.8865 22.4321 79.4049 24.5601 80.9393 26.7121C80.8354 26.7121 80.7715 26.7201 80.7075 26.7201C79.6766 26.7201 78.6457 26.7201 77.6148 26.7201C77.4629 26.7201 77.375 26.6721 77.2951 26.5521C75.9925 24.6961 74.6738 22.8481 73.3712 20.9841C73.2673 20.8321 73.1554 20.7841 72.9716 20.7841C71.8927 20.7921 70.8219 20.7841 69.743 20.7841C69.6631 20.7841 69.5832 20.7841 69.4873 20.7841L69.4793 20.8001ZM69.4873 18.1361C69.5352 18.1361 69.5512 18.1521 69.5752 18.1521C71.0856 18.1521 72.596 18.1601 74.1064 18.1521C74.6579 18.1521 75.2013 18.0401 75.7127 17.8081C76.464 17.4641 77.0154 16.9281 77.2471 16.1121C77.343 15.7681 77.375 15.4161 77.351 15.0641C77.2951 14.0161 76.8156 13.2481 75.8486 12.8081C75.3611 12.5841 74.8417 12.4641 74.3062 12.4561C72.7478 12.4401 71.1815 12.4401 69.6231 12.4401C69.5832 12.4401 69.5352 12.4401 69.4873 12.4481V18.1441V18.1361Z" fill="url(#paint2_linear_1_957)"/>
        <path d="M113.585 9.60004H116.358C118.843 15.296 121.337 20.992 123.83 26.712H120.665C120.098 25.352 119.515 23.984 118.947 22.624H110.916C110.332 23.984 109.757 25.344 109.173 26.712H106.145C106.169 26.544 113.329 10.088 113.601 9.59204L113.585 9.60004ZM117.844 19.96C116.869 17.704 115.902 15.472 114.935 13.224C114.776 13.456 112.074 19.8 112.058 19.96H117.844Z" fill="url(#paint3_linear_1_957)"/>
        <path d="M50.2985 9.70405C50.3864 9.70405 50.4583 9.70405 50.5302 9.70405C52.672 9.70405 54.8058 9.70405 56.9475 9.70405C57.9864 9.70405 59.0014 9.83204 59.9764 10.224C61.7585 10.928 62.9013 12.192 63.3089 14.08C63.5566 15.24 63.5167 16.4 63.0931 17.52C62.5657 18.928 61.5747 19.896 60.2241 20.528C59.4329 20.896 58.5938 21.12 57.7227 21.2C57.2512 21.24 56.7797 21.264 56.3082 21.264C55.3892 21.272 54.4621 21.264 53.5431 21.264C53.4552 21.264 53.3673 21.264 53.2474 21.264C53.2474 21.576 53.2474 21.872 53.2474 22.176C53.2474 22.48 53.2474 22.784 53.2474 23.08V23.984C53.2474 24.288 53.2474 24.592 53.2474 24.888C53.2474 25.192 53.2474 25.496 53.2474 25.792C53.2474 26.088 53.2474 26.392 53.2474 26.704C52.2564 26.704 51.2815 26.704 50.3145 26.704C50.2665 26.552 50.2505 10.048 50.2985 9.69604V9.70405ZM53.2554 12.432V18.536C53.3113 18.536 53.3513 18.544 53.3992 18.544C54.622 18.544 55.8447 18.544 57.0674 18.544C57.5469 18.544 58.0184 18.448 58.4659 18.272C59.329 17.928 59.9684 17.352 60.2561 16.448C60.4079 15.96 60.4239 15.464 60.36 14.96C60.2561 14.176 59.9124 13.536 59.2491 13.08C58.6178 12.656 57.9145 12.456 57.1713 12.44C55.9086 12.416 54.6539 12.424 53.3912 12.424C53.3513 12.424 53.3033 12.424 53.2554 12.432Z" fill="url(#paint4_linear_1_957)"/>
        <path d="M103.835 9.71204H107.015C107.015 9.71204 107.031 9.72804 107.031 9.73604L107.039 9.75204C107.031 9.79204 107.015 9.84004 106.999 9.88004C104.666 15.528 102.34 21.184 100.007 26.84H97.3693C95.0198 21.144 92.6702 15.448 90.3047 9.72004C90.3926 9.72004 90.4565 9.70404 90.5205 9.70404C91.4795 9.70404 92.4385 9.70404 93.3975 9.70404C93.5972 9.70404 93.5972 9.66404 93.6931 9.91204C95.3394 14.112 96.9857 18.304 98.632 22.504C98.6639 22.576 98.6959 22.648 98.7439 22.768C100.454 18.392 102.14 14.064 103.835 9.71204Z" fill="url(#paint5_linear_1_957)"/>
        <path d="M137.143 9.73604V12.48H131.765V26.712H128.728V12.488H123.35V9.75204C123.35 9.75204 123.366 9.73604 123.366 9.72804C123.366 9.72804 123.374 9.72004 123.382 9.72004C123.414 9.72004 123.438 9.71204 123.469 9.71204C127.993 9.71204 132.524 9.71204 137.047 9.71204C137.071 9.71204 137.087 9.72004 137.135 9.73604H137.143Z" fill="url(#paint6_linear_1_957)"/>
        <path d="M87.1886 26.7201H84.2637C84.2157 26.5601 84.1998 10.0801 84.2477 9.74408C84.3995 9.69608 86.869 9.68008 87.1726 9.72808C87.2206 9.88008 87.2366 26.3361 87.1886 26.7201Z" fill="url(#paint7_linear_1_957)"/>
        <path d="M136.018 33.376V38.296H134.795V31.264C134.843 31.264 134.899 31.248 134.955 31.248C135.202 31.248 135.458 31.256 135.706 31.248C135.874 31.24 135.97 31.288 136.074 31.424C136.841 32.432 137.624 33.432 138.399 34.432C138.815 34.968 139.23 35.504 139.662 36.072C139.71 35.848 139.686 35.656 139.686 35.464C139.686 35.264 139.686 35.064 139.686 34.864V32.472C139.686 32.272 139.686 32.072 139.686 31.872C139.686 31.672 139.686 31.472 139.686 31.28C139.854 31.232 140.653 31.224 140.909 31.264V38.304C140.581 38.304 140.261 38.304 139.95 38.304C139.886 38.304 139.822 38.216 139.774 38.16C139.31 37.56 138.847 36.96 138.383 36.36C137.656 35.424 136.929 34.48 136.209 33.544C136.161 33.48 136.114 33.424 136.058 33.368C136.042 33.368 136.026 33.376 136.018 33.384V33.376Z" fill="url(#paint8_linear_1_957)"/>
        <path d="M66.9142 38.312C66.7543 38.312 66.5945 38.312 66.4347 38.312C66.1869 38.312 65.9312 38.312 65.6835 38.312C65.5476 38.312 65.4677 38.272 65.3958 38.16C64.9003 37.456 64.4048 36.752 63.9093 36.048C63.8614 35.984 63.8134 35.92 63.7655 35.856H62.2231V38.264C62.0553 38.32 61.376 38.336 61.0243 38.296C61.0243 38.296 61.0083 38.296 61.0083 38.28L61.0004 38.264C61.0004 36.008 60.9924 33.752 60.9844 31.496C60.9844 31.424 60.9844 31.352 60.9844 31.264C61.0563 31.264 61.1122 31.248 61.1682 31.248C62.1911 31.248 63.214 31.248 64.245 31.248C64.7085 31.248 65.156 31.336 65.5716 31.536C66.2988 31.888 66.6824 32.48 66.7463 33.28C66.7783 33.608 66.7464 33.928 66.6425 34.24C66.4267 34.864 65.9951 35.28 65.3878 35.528C65.2919 35.568 65.196 35.6 65.0841 35.64C65.7074 36.52 66.3308 37.384 66.9461 38.256L66.9222 38.304L66.9142 38.312ZM62.2231 34.744C62.295 34.744 62.3509 34.744 62.3989 34.744C62.9343 34.744 63.4778 34.744 64.0132 34.744C64.1571 34.744 64.3089 34.728 64.4528 34.704C65.132 34.584 65.4997 34.112 65.4597 33.424C65.4357 33.032 65.2519 32.736 64.9003 32.56C64.7005 32.456 64.4847 32.4 64.261 32.392C63.6216 32.392 62.9823 32.392 62.335 32.384C62.303 32.384 62.263 32.384 62.2231 32.4V34.752V34.744Z" fill="url(#paint9_linear_1_957)"/>
        <path d="M75.6313 38.4241C73.8971 38.4481 72.4506 37.3761 72.035 35.7361C71.5236 33.7201 72.6744 31.7121 74.7202 31.2321C76.2626 30.8721 77.861 31.4321 78.7081 32.7441C79.9867 34.7281 79.1556 37.5841 76.6143 38.2961C76.2786 38.3921 75.935 38.4241 75.6313 38.4161V38.4241ZM73.2258 34.3841C73.2018 36.1601 74.2807 37.4161 75.871 37.2641C76.4624 37.2081 76.9659 36.9601 77.3495 36.5121C77.9648 35.7921 78.1327 34.9521 77.8769 34.0481C77.3815 32.2641 75.4075 31.8001 74.1768 32.7361C73.5135 33.2401 73.2338 33.9441 73.2258 34.3841Z" fill="url(#paint10_linear_1_957)"/>
        <path d="M100.917 34.176V35.304C100.629 35.304 100.334 35.304 100.046 35.304C99.7502 35.304 99.4545 35.304 99.1588 35.304H98.2957C98 35.304 97.7123 35.304 97.4086 35.304V37.168C97.6244 37.184 97.8402 37.168 98.056 37.168C98.2797 37.168 98.4955 37.168 98.7193 37.168H99.4065C99.6303 37.168 99.8461 37.168 100.07 37.168H101.388C101.444 37.336 101.452 38.024 101.404 38.288H96.1699V31.272C96.3218 31.224 100.949 31.208 101.364 31.256V32.368H97.4086V34.144C97.5924 34.192 97.7922 34.16 97.984 34.168C98.1758 34.168 98.3676 34.168 98.5594 34.168H100.909L100.917 34.176Z" fill="url(#paint11_linear_1_957)"/>
        <path d="M51.5055 36.04V38.296H50.3067C50.2667 38.136 50.2508 31.576 50.2907 31.264C50.3467 31.264 50.4026 31.248 50.4585 31.248C51.3536 31.248 52.2567 31.248 53.1517 31.248C53.6232 31.248 54.0788 31.336 54.4943 31.552C55.2535 31.936 55.6611 32.568 55.7171 33.416C55.757 33.968 55.6611 34.488 55.3414 34.952C54.9738 35.48 54.4464 35.768 53.839 35.928C53.5193 36.016 53.1837 36.04 52.856 36.04C52.4884 36.04 52.1208 36.04 51.7532 36.04C51.6813 36.04 51.6093 36.04 51.5055 36.04ZM51.5214 34.92C51.6093 34.92 51.6813 34.92 51.7532 34.92C52.1208 34.92 52.4884 34.92 52.856 34.92C53.0319 34.92 53.2077 34.904 53.3835 34.88C54.0068 34.784 54.4304 34.344 54.4624 33.728C54.4943 33.128 54.2626 32.712 53.6712 32.496C53.5194 32.44 53.3595 32.408 53.1997 32.4C52.6722 32.384 52.1368 32.392 51.6093 32.392C51.5854 32.392 51.5534 32.408 51.5214 32.416V34.928V34.92Z" fill="url(#paint12_linear_1_957)"/>
        <path d="M116.749 37.264C116.996 36.976 117.236 36.688 117.484 36.392C117.588 36.472 117.684 36.544 117.772 36.616C118.171 36.912 118.595 37.16 119.098 37.248C119.498 37.32 119.905 37.352 120.297 37.224C120.641 37.112 120.896 36.912 120.944 36.52C120.984 36.2 120.888 35.936 120.601 35.768C120.305 35.592 119.985 35.496 119.658 35.408C119.242 35.288 118.819 35.176 118.403 35.056C118.251 35.008 118.099 34.936 117.956 34.864C117.236 34.472 116.965 33.896 117.004 33.064C117.044 32.28 117.58 31.44 118.747 31.224C119.897 31.016 120.952 31.272 121.887 31.992C121.903 32.008 121.919 32.024 121.951 32.056C121.736 32.36 121.52 32.664 121.296 32.984C121.224 32.936 121.152 32.896 121.088 32.856C120.673 32.584 120.233 32.368 119.73 32.296C119.458 32.256 119.186 32.256 118.914 32.32C118.539 32.416 118.275 32.688 118.235 33.016C118.195 33.32 118.283 33.576 118.555 33.744C118.731 33.848 118.922 33.936 119.114 34C119.53 34.128 119.953 34.224 120.361 34.36C120.657 34.456 120.96 34.568 121.24 34.712C121.903 35.064 122.255 35.672 122.159 36.52C122.055 37.472 121.464 38.136 120.489 38.328C119.09 38.608 117.852 38.264 116.765 37.336C116.757 37.328 116.749 37.312 116.717 37.272L116.749 37.264Z" fill="url(#paint13_linear_1_957)"/>
        <path d="M111.643 32.0561C111.427 32.3601 111.211 32.6641 110.988 32.9761C110.908 32.9201 110.836 32.8721 110.764 32.8241C110.356 32.5601 109.917 32.3441 109.429 32.2801C109.158 32.2401 108.886 32.2401 108.614 32.3121C108.103 32.4481 107.839 32.8721 107.959 33.3441C107.999 33.5121 108.095 33.6481 108.238 33.7281C108.422 33.8321 108.614 33.9281 108.814 33.9921C109.229 34.1201 109.653 34.2161 110.061 34.3521C110.356 34.4481 110.66 34.5601 110.94 34.7041C111.427 34.9601 111.763 35.3601 111.835 35.9201C112.011 37.1441 111.379 37.9921 110.348 38.2721C109.166 38.5921 108.047 38.3761 107.008 37.7361C106.8 37.6081 106.616 37.4481 106.4 37.2881C106.656 36.9841 106.904 36.6881 107.152 36.3921C107.279 36.4881 107.391 36.5761 107.503 36.6561C107.879 36.9281 108.286 37.1521 108.75 37.2401C109.15 37.3201 109.557 37.3521 109.949 37.2161C110.109 37.1601 110.252 37.0721 110.388 36.9681C110.7 36.7281 110.748 36.0401 110.284 35.7601C109.989 35.5841 109.669 35.4881 109.341 35.4001C108.926 35.2801 108.502 35.1761 108.095 35.0401C107.863 34.9681 107.647 34.8561 107.439 34.7201C106.8 34.3041 106.608 33.6721 106.696 32.9441C106.816 32.0241 107.375 31.4641 108.246 31.2481C109.469 30.9441 110.596 31.2161 111.595 31.9841C111.603 31.9921 111.611 32.0081 111.627 32.0401L111.643 32.0561Z" fill="url(#paint14_linear_1_957)"/>
        <path d="M90.8565 32.2161C90.5768 32.5361 90.3211 32.8401 90.0494 33.1441C89.9215 33.0401 89.8096 32.9441 89.6898 32.8561C89.2902 32.5601 88.8586 32.3361 88.3472 32.2881C87.3962 32.1921 86.5171 32.6401 86.0616 33.4721C85.5421 34.4321 85.662 35.6961 86.3652 36.4961C86.7808 36.9761 87.3083 37.2321 87.9476 37.2721C88.6269 37.3121 89.2023 37.0961 89.7217 36.6721C89.8416 36.5761 89.9615 36.4801 90.0574 36.3921C90.3211 36.6561 90.5848 36.9041 90.8645 37.1761C90.8485 37.2001 90.8166 37.2481 90.7766 37.2881C90.1852 37.8881 89.482 38.2881 88.6349 38.3841C87.1964 38.5521 85.9736 38.1441 85.1026 36.9361C83.8399 35.1681 84.3593 32.4161 86.5331 31.4401C87.1644 31.1521 87.8277 31.0801 88.515 31.1441C89.3381 31.2161 90.0494 31.5281 90.6647 32.0721C90.7207 32.1201 90.7766 32.1681 90.8406 32.2161H90.8565Z" fill="url(#paint15_linear_1_957)"/>
        <path d="M127.705 31.256H128.888C128.936 31.408 128.944 38.04 128.896 38.304H127.705V31.256Z" fill="url(#paint16_linear_1_957)"/>
        <path d="M19.5902 0C19.5902 0 19.6479 0.0286762 19.6767 0.0358453C20.2033 0.136212 20.5783 0.580693 20.5783 1.1112C20.5783 1.64171 20.2033 2.0862 19.6767 2.18656C19.078 2.30127 18.4938 1.90697 18.3856 1.31911C18.2558 0.645215 18.7607 0.100367 19.2728 0.0358453C19.3089 0.0358453 19.3449 0.0143381 19.3882 0C19.4531 0 19.518 0 19.5902 0ZM20.5855 42.0967C20.5855 29.9452 20.5855 17.8008 20.5855 5.64922C20.5855 5.5847 20.5855 5.52017 20.5855 5.44848C20.5639 4.87496 20.1095 4.41614 19.5469 4.38746C18.9554 4.35879 18.465 4.75308 18.3856 5.33378C18.3712 5.44848 18.3712 5.57036 18.3712 5.69223C18.3712 17.8151 18.3712 29.938 18.3712 42.0537C18.3712 42.0967 18.3712 42.1469 18.3712 42.1899C18.3568 42.2903 18.4072 42.3476 18.4866 42.3978C18.7751 42.5699 19.0636 42.7563 19.3521 42.9283C19.3954 42.957 19.4459 42.9785 19.4964 43C19.8643 42.7706 20.2249 42.5483 20.5928 42.3189V42.0824L20.5855 42.0967ZM13.9208 36.0747C12.8389 34.985 11.8507 33.8093 10.9347 32.5762C10.2134 32.7482 9.51378 32.9418 8.7997 33.1712C9.82393 34.6337 10.9419 35.9887 12.1681 37.2648C13.3943 38.5408 14.7143 39.7094 16.1713 40.8063C16.1713 40.6772 16.1713 40.5984 16.1713 40.5267C16.1713 33.3863 16.1713 26.2387 16.1713 19.0984C16.1713 19.0123 16.1713 18.9263 16.1713 18.8403C16.128 18.2883 15.6952 17.8653 15.1254 17.8366C14.5339 17.8079 14.1084 18.2094 14.0074 18.6611C13.9785 18.7973 13.9713 18.9335 13.9713 19.0697C13.9713 24.6544 13.9713 30.2391 13.9713 35.8238C13.9713 35.9026 13.9713 35.9815 13.9713 36.0604C13.9569 36.0604 13.9425 36.0747 13.9281 36.0819L13.9208 36.0747ZM11.7642 31.0707C11.7642 26.0022 11.7642 20.9336 11.7642 15.8651C11.7642 15.7934 11.7642 15.7217 11.7642 15.6501C11.7426 15.0694 11.2737 14.6105 10.6823 14.589C10.0764 14.5675 9.57148 15.0622 9.55706 15.6142C9.55706 15.7146 9.55706 15.8149 9.55706 15.9081C9.55706 20.482 9.55706 25.0559 9.55706 29.6225C9.55706 29.7086 9.55706 29.7946 9.55706 29.8806C7.75384 30.576 6.0516 31.4291 4.43592 32.4615C2.93564 33.4221 0.20196 35.623 0 36.0604C3.65693 33.8021 7.5663 32.2249 11.7642 31.3216V31.0564V31.0707ZM29.4069 29.895C29.4069 29.7946 29.4069 29.7086 29.4069 29.6225C29.4069 25.1634 29.4069 20.6971 29.4069 16.2379C29.4069 16.1591 29.4069 16.0802 29.4069 16.0013C29.3708 15.2558 28.7 14.7611 27.9932 14.9618C27.5027 15.098 27.1925 15.5353 27.1925 16.0874C27.1925 21.1129 27.1925 26.1312 27.1925 31.1567C27.1925 31.2141 27.1925 31.2714 27.1997 31.3431C31.4121 32.2464 35.3431 33.8308 39 36.0819C36.2447 33.3505 33.0422 31.3001 29.4069 29.9021V29.895ZM24.9926 36.0604V35.8309C24.9926 32.6192 24.9926 29.4075 24.9926 26.1957C24.9926 26.1025 24.9926 26.0093 24.9926 25.9161C24.9782 25.3856 24.567 24.9268 24.0549 24.8695C23.4851 24.8049 22.973 25.1275 22.836 25.6581C22.7999 25.8014 22.7927 25.9592 22.7927 26.1097C22.7927 30.913 22.7927 35.7162 22.7927 40.5267C22.7927 40.5697 22.7927 40.6055 22.7927 40.6486C22.7927 40.6916 22.8071 40.7274 22.8215 40.7919C25.6706 38.6269 28.1086 36.0962 30.1714 33.1712C29.4502 32.949 28.7433 32.7411 28.0581 32.5834C27.5604 33.1999 27.0915 33.7949 26.6011 34.3828C26.1106 34.9707 25.5913 35.537 25.0503 36.0747C25.0359 36.0747 25.0215 36.0675 25.007 36.0604H24.9926ZM36.288 12.4885C36.2303 12.467 36.1942 12.4455 36.1581 12.4383C35.3431 12.1659 34.528 11.8863 33.7058 11.621C33.1792 11.4562 32.6527 11.2984 32.1189 11.1766C31.4842 11.0332 30.8567 11.621 30.9216 12.2663C30.9721 12.7394 31.2606 13.0692 31.7366 13.2054C32.494 13.4276 33.2513 13.6571 34.0015 13.8793C34.0736 13.9008 34.1457 13.9295 34.2323 13.9653C34.1674 19.3421 32.8402 24.3748 30.258 29.1064C30.8927 29.386 31.513 29.6656 32.1694 29.9595C35.1195 24.4895 36.4899 18.6754 36.3024 12.4885H36.288ZM4.23396 23.9375C4.89754 26.0237 5.74866 28.031 6.80174 29.9523C7.4509 29.6656 8.0712 29.386 8.70594 29.1064C7.42205 26.7764 6.4411 24.3318 5.7703 21.7724C5.0995 19.2131 4.75328 16.6107 4.73164 13.9653C4.78935 13.9438 4.82541 13.9295 4.86148 13.9151C5.23655 13.7933 5.6044 13.6714 5.97947 13.5639C6.40503 13.4348 6.8378 13.3201 7.26336 13.1982C7.9558 12.9975 8.25874 12.2447 7.89088 11.6497C7.68892 11.3271 7.22009 11.0547 6.67191 11.2124C5.63325 11.5063 4.5946 11.8146 3.57758 12.1731C3.27464 12.2806 2.97892 12.381 2.67598 12.4885C2.53893 16.41 3.05826 20.2239 4.23396 23.9447V23.9375ZM24.9854 9.45599C24.9854 9.37713 24.9854 9.29827 24.9854 9.21941C24.9638 8.6889 24.5454 8.23725 24.0117 8.17989C23.4851 8.11537 22.973 8.44515 22.8287 8.94698C22.7927 9.06886 22.7783 9.20507 22.7783 9.33411C22.7783 13.1839 22.7783 17.0408 22.7783 20.8906C22.7783 20.9193 22.7783 20.9408 22.7783 20.9695C22.7927 21.5215 23.211 21.9803 23.7592 22.0448C24.3002 22.1022 24.8051 21.7581 24.9421 21.2276C24.971 21.0985 24.9782 20.9695 24.9782 20.8333C24.9782 18.9335 24.9782 17.0265 24.9782 15.1267C24.9782 13.2341 24.9782 11.3486 24.9782 9.45599H24.9854ZM16.1713 9.4058C16.1713 9.30544 16.1713 9.20507 16.1568 9.11187C16.0847 8.50967 15.4572 8.06519 14.8657 8.19423C14.3176 8.30894 13.9641 8.73908 13.9641 9.29827C13.9641 10.4095 13.9641 11.5207 13.9641 12.6319C13.9641 13.1767 13.9641 13.7144 13.9641 14.2593C13.9641 14.7109 14.2598 15.1052 14.6782 15.2629C15.0965 15.4206 15.5798 15.3059 15.8827 14.9762C16.0919 14.7467 16.1713 14.4815 16.1713 14.1732C16.1713 13.3703 16.1713 12.5602 16.1713 11.7573C16.1713 10.9758 16.1713 10.1944 16.1713 9.42014V9.4058ZM29.4069 11.3128C29.4069 10.7106 28.8948 10.1944 28.2889 10.2016C27.683 10.2016 27.1853 10.7106 27.1853 11.3056C27.1853 11.9006 27.6902 12.4025 28.2889 12.4025C28.8876 12.4025 29.3925 11.9078 29.3997 11.3128H29.4069ZM10.6606 12.4096C11.2737 12.4096 11.7642 11.9078 11.7642 11.2913C11.7642 10.7966 11.3747 10.2159 10.6462 10.2087C10.0403 10.2087 9.54984 10.7106 9.55706 11.3128C9.55706 11.915 10.0547 12.4096 10.6606 12.4096ZM23.8962 3.7996C23.2832 3.7996 22.7855 4.27276 22.7783 4.87496C22.7783 5.4915 23.2615 5.98616 23.8818 5.98616C24.4949 5.98616 24.9854 5.50584 24.9854 4.89647C24.9854 4.2871 24.5093 3.7996 23.8962 3.79243V3.7996ZM13.9641 4.88213C13.9641 5.4915 14.4474 5.98616 15.0533 5.98616C15.6808 5.98616 16.1713 5.50584 16.1713 4.8893C16.1713 4.27993 15.688 3.79243 15.0749 3.79243C14.4618 3.79243 13.9641 4.27276 13.9641 4.87496V4.88213Z" fill="url(#paint17_linear_1_957)"/>
    </g>
    <defs>
        <linearGradient id="paint0_linear_1_957" x1="146.643" y1="6.00803" x2="146.643" y2="26.7281" gradientUnits="userSpaceOnUse">
            <stop stop-color="white"/>
            <stop offset="1" stop-color="white" stop-opacity="0.7"/>
        </linearGradient>
        <linearGradient id="paint1_linear_1_957" x1="149.709" y1="29.541" x2="149.709" y2="38.428" gradientUnits="userSpaceOnUse">
            <stop stop-color="white"/>
            <stop offset="1" stop-color="white" stop-opacity="0.7"/>
        </linearGradient>
        <linearGradient id="paint2_linear_1_957" x1="73.7167" y1="5.99029" x2="73.7167" y2="26.7201" gradientUnits="userSpaceOnUse">
            <stop stop-color="white"/>
            <stop offset="1" stop-color="white" stop-opacity="0.7"/>
        </linearGradient>
        <linearGradient id="paint3_linear_1_957" x1="114.987" y1="5.85553" x2="114.987" y2="26.712" gradientUnits="userSpaceOnUse">
            <stop stop-color="white"/>
            <stop offset="1" stop-color="white" stop-opacity="0.7"/>
        </linearGradient>
        <linearGradient id="paint4_linear_1_957" x1="56.8657" y1="5.98398" x2="56.8657" y2="26.704" gradientUnits="userSpaceOnUse">
            <stop stop-color="white"/>
            <stop offset="1" stop-color="white" stop-opacity="0.7"/>
        </linearGradient>
        <linearGradient id="paint5_linear_1_957" x1="98.6719" y1="5.96114" x2="98.6719" y2="26.84" gradientUnits="userSpaceOnUse">
            <stop stop-color="white"/>
            <stop offset="1" stop-color="white" stop-opacity="0.7"/>
        </linearGradient>
        <linearGradient id="paint6_linear_1_957" x1="130.246" y1="6.00172" x2="130.246" y2="26.712" gradientUnits="userSpaceOnUse">
            <stop stop-color="white"/>
            <stop offset="1" stop-color="white" stop-opacity="0.7"/>
        </linearGradient>
        <linearGradient id="paint7_linear_1_957" x1="85.7182" y1="5.9842" x2="85.7182" y2="26.7201" gradientUnits="userSpaceOnUse">
            <stop stop-color="white"/>
            <stop offset="1" stop-color="white" stop-opacity="0.7"/>
        </linearGradient>
        <linearGradient id="paint8_linear_1_957" x1="137.852" y1="29.6963" x2="137.852" y2="38.304" gradientUnits="userSpaceOnUse">
            <stop stop-color="white"/>
            <stop offset="1" stop-color="white" stop-opacity="0.7"/>
        </linearGradient>
        <linearGradient id="paint9_linear_1_957" x1="63.9653" y1="29.7049" x2="63.9653" y2="38.3183" gradientUnits="userSpaceOnUse">
            <stop stop-color="white"/>
            <stop offset="1" stop-color="white" stop-opacity="0.7"/>
        </linearGradient>
        <linearGradient id="paint10_linear_1_957" x1="75.6075" y1="29.532" x2="75.6075" y2="38.4245" gradientUnits="userSpaceOnUse">
            <stop stop-color="white"/>
            <stop offset="1" stop-color="white" stop-opacity="0.7"/>
        </linearGradient>
        <linearGradient id="paint11_linear_1_957" x1="98.8029" y1="29.686" x2="98.8029" y2="38.288" gradientUnits="userSpaceOnUse">
            <stop stop-color="white"/>
            <stop offset="1" stop-color="white" stop-opacity="0.7"/>
        </linearGradient>
        <linearGradient id="paint12_linear_1_957" x1="52.9966" y1="29.7098" x2="52.9966" y2="38.296" gradientUnits="userSpaceOnUse">
            <stop stop-color="white"/>
            <stop offset="1" stop-color="white" stop-opacity="0.7"/>
        </linearGradient>
        <linearGradient id="paint13_linear_1_957" x1="119.446" y1="29.5676" x2="119.446" y2="38.4227" gradientUnits="userSpaceOnUse">
            <stop stop-color="white"/>
            <stop offset="1" stop-color="white" stop-opacity="0.7"/>
        </linearGradient>
        <linearGradient id="paint14_linear_1_957" x1="109.132" y1="29.5347" x2="109.132" y2="38.4185" gradientUnits="userSpaceOnUse">
            <stop stop-color="white"/>
            <stop offset="1" stop-color="white" stop-opacity="0.7"/>
        </linearGradient>
        <linearGradient id="paint15_linear_1_957" x1="87.6452" y1="29.5297" x2="87.6452" y2="38.4202" gradientUnits="userSpaceOnUse">
            <stop stop-color="white"/>
            <stop offset="1" stop-color="white" stop-opacity="0.7"/>
        </linearGradient>
        <linearGradient id="paint16_linear_1_957" x1="128.317" y1="29.7177" x2="128.317" y2="38.304" gradientUnits="userSpaceOnUse">
            <stop stop-color="white"/>
            <stop offset="1" stop-color="white" stop-opacity="0.7"/>
        </linearGradient>
        <linearGradient id="paint17_linear_1_957" x1="33.0444" y1="46.0674" x2="0.244053" y2="21.1597" gradientUnits="userSpaceOnUse">
            <stop stop-color="#AD8D55" stop-opacity="0.9"/>
            <stop offset="0.259615" stop-color="#D2AD75"/>
            <stop offset="0.466346" stop-color="#E8CDA0"/>
            <stop offset="0.8125" stop-color="#D2AD75"/>
            <stop offset="1" stop-color="#AD8D55" stop-opacity="0.9"/>
        </linearGradient>
        <clipPath id="clip0_1_957">
            <rect width="153" height="48" fill="white"/>
        </clipPath>
    </defs>
</svg>
