<svg width="164" height="48" viewBox="0 0 164 48" fill="none" xmlns="http://www.w3.org/2000/svg">
    <g clip-path="url(#clip0_163_12)">
        <path d="M153 26.7281H140.333C140.285 26.5601 140.269 10.0481 140.317 9.72009H152.872V12.4081C152.337 12.4321 151.809 12.4081 151.282 12.4161C150.746 12.4161 150.203 12.4161 149.668 12.4161H143.274V16.7681H151.777V19.4641C151.697 19.4641 151.609 19.4801 151.53 19.4801C150.746 19.4801 149.963 19.4801 149.188 19.4801C147.31 19.4801 145.432 19.4801 143.546 19.4801C143.458 19.4801 143.37 19.4801 143.274 19.4801V23.9841C143.274 23.9841 143.282 24.0001 143.29 24.0001C143.29 24.0001 143.298 24.0081 143.306 24.0081C143.37 24.0081 143.442 24.0081 143.506 24.0081C146.671 24.0081 149.827 24.0081 152.992 24.0081V26.7041L153 26.7281Z" fill="url(#paint0_linear_163_12)"/>
        <path d="M153 37.3521C152.88 37.4401 152.76 37.5201 152.648 37.6081C151.809 38.2001 150.882 38.4641 149.859 38.4241C149.084 38.3921 148.381 38.1681 147.765 37.7041C147.062 37.1761 146.647 36.4561 146.487 35.6001C146.295 34.6161 146.423 33.6721 146.966 32.8161C147.59 31.8321 148.493 31.2801 149.652 31.1601C150.395 31.0801 151.122 31.1761 151.809 31.4801C152.153 31.6321 152.465 31.8401 152.76 32.1041C152.497 32.4161 152.241 32.7201 151.977 33.0401C151.905 32.9841 151.841 32.9361 151.777 32.8881C151.162 32.4081 150.459 32.2161 149.683 32.3121C149.164 32.3761 148.74 32.6241 148.389 33.0081C147.582 33.8881 147.478 35.3761 148.181 36.3521C148.717 37.0961 149.468 37.3761 150.363 37.3041C150.834 37.2721 151.274 37.1281 151.673 36.8721C151.769 36.8081 151.817 36.7441 151.817 36.6241C151.809 36.2881 151.817 35.9441 151.817 35.6081C151.817 35.5681 151.817 35.5201 151.809 35.4561H150.027V34.3841C150.083 34.3841 150.139 34.3681 150.195 34.3681C151.082 34.3681 151.961 34.3681 152.848 34.3681C152.904 34.3681 152.96 34.3841 153.016 34.4001V37.3681L153 37.3521Z" fill="url(#paint1_linear_163_12)"/>
        <path d="M69.4794 20.8001V26.7121H66.5305C66.4905 26.5601 66.4745 9.9921 66.5305 9.7201C66.5864 9.7201 66.6503 9.7041 66.7143 9.7041C69.1997 9.7041 71.6851 9.7041 74.1625 9.7041C75.2494 9.7041 76.3202 9.8721 77.3272 10.3041C78.8616 10.9681 79.8685 12.0881 80.2521 13.7281C80.5079 14.8401 80.4839 15.9601 80.0923 17.0401C79.5808 18.4641 78.5659 19.4161 77.1913 19.9921C76.9276 20.1041 76.6559 20.1921 76.3682 20.2961C77.8866 22.4321 79.405 24.5601 80.9394 26.7121C80.8355 26.7121 80.7716 26.7201 80.7076 26.7201C79.6767 26.7201 78.6458 26.7201 77.6149 26.7201C77.463 26.7201 77.3751 26.6721 77.2952 26.5521C75.9926 24.6961 74.674 22.8481 73.3713 20.9841C73.2674 20.8321 73.1555 20.7841 72.9717 20.7841C71.8929 20.7921 70.822 20.7841 69.7431 20.7841C69.6632 20.7841 69.5833 20.7841 69.4874 20.7841L69.4794 20.8001ZM69.4874 18.1361C69.5353 18.1361 69.5513 18.1521 69.5753 18.1521C71.0857 18.1521 72.5961 18.1601 74.1066 18.1521C74.658 18.1521 75.2014 18.0401 75.7129 17.8081C76.4641 17.4641 77.0155 16.9281 77.2473 16.1121C77.3432 15.7681 77.3751 15.4161 77.3512 15.0641C77.2952 14.0161 76.8157 13.2481 75.8487 12.8081C75.3612 12.5841 74.8418 12.4641 74.3063 12.4561C72.748 12.4401 71.1816 12.4401 69.6232 12.4401C69.5833 12.4401 69.5353 12.4401 69.4874 12.4481V18.1441V18.1361Z" fill="url(#paint2_linear_163_12)"/>
        <path d="M113.585 9.60004H116.358C118.844 15.296 121.337 20.992 123.831 26.712H120.666C120.098 25.352 119.515 23.984 118.948 22.624H110.916C110.333 23.984 109.757 25.344 109.174 26.712H106.145C106.169 26.544 113.329 10.088 113.601 9.59204L113.585 9.60004ZM117.845 19.96C116.87 17.704 115.903 15.472 114.936 13.224C114.776 13.456 112.075 19.8 112.059 19.96H117.845Z" fill="url(#paint3_linear_163_12)"/>
        <path d="M50.2995 9.70405C50.3874 9.70405 50.4593 9.70405 50.5312 9.70405C52.673 9.70405 54.8067 9.70405 56.9485 9.70405C57.9874 9.70405 59.0024 9.83204 59.9773 10.224C61.7595 10.928 62.9023 12.192 63.3099 14.08C63.5576 15.24 63.5176 16.4 63.0941 17.52C62.5666 18.928 61.5757 19.896 60.2251 20.528C59.4339 20.896 58.5948 21.12 57.7237 21.2C57.2522 21.24 56.7807 21.264 56.3092 21.264C55.3901 21.272 54.4631 21.264 53.5441 21.264C53.4562 21.264 53.3682 21.264 53.2484 21.264C53.2484 21.576 53.2484 21.872 53.2484 22.176C53.2484 22.48 53.2484 22.784 53.2484 23.08V23.984C53.2484 24.288 53.2484 24.592 53.2484 24.888C53.2484 25.192 53.2484 25.496 53.2484 25.792C53.2484 26.088 53.2484 26.392 53.2484 26.704C52.2574 26.704 51.2824 26.704 50.3154 26.704C50.2675 26.552 50.2515 10.048 50.2995 9.69604V9.70405ZM53.2564 12.432V18.536C53.3123 18.536 53.3523 18.544 53.4002 18.544C54.6229 18.544 55.8457 18.544 57.0684 18.544C57.5479 18.544 58.0194 18.448 58.4669 18.272C59.33 17.928 59.9693 17.352 60.257 16.448C60.4089 15.96 60.4249 15.464 60.3609 14.96C60.257 14.176 59.9134 13.536 59.2501 13.08C58.6188 12.656 57.9155 12.456 57.1723 12.44C55.9096 12.416 54.6549 12.424 53.3922 12.424C53.3523 12.424 53.3043 12.424 53.2564 12.432Z" fill="url(#paint4_linear_163_12)"/>
        <path d="M103.836 9.71204H107.016C107.016 9.71204 107.032 9.72804 107.032 9.73604L107.04 9.75204C107.032 9.79204 107.016 9.84004 107 9.88004C104.667 15.528 102.341 21.184 100.008 26.84H97.3703C95.0207 21.144 92.6712 15.448 90.3057 9.72004C90.3936 9.72004 90.4575 9.70404 90.5214 9.70404C91.4804 9.70404 92.4394 9.70404 93.3984 9.70404C93.5982 9.70404 93.5982 9.66404 93.6941 9.91204C95.3404 14.112 96.9867 18.304 98.633 22.504C98.6649 22.576 98.6969 22.648 98.7448 22.768C100.455 18.392 102.141 14.064 103.836 9.71204Z" fill="url(#paint5_linear_163_12)"/>
        <path d="M137.145 9.73604V12.48H131.766V26.712H128.729V12.488H123.351V9.75204C123.351 9.75204 123.367 9.73604 123.367 9.72804C123.367 9.72804 123.375 9.72004 123.383 9.72004C123.415 9.72004 123.439 9.71204 123.471 9.71204C127.994 9.71204 132.525 9.71204 137.049 9.71204C137.073 9.71204 137.089 9.72004 137.137 9.73604H137.145Z" fill="url(#paint6_linear_163_12)"/>
        <path d="M87.1889 26.7201H84.2639C84.216 26.5601 84.2 10.0801 84.2479 9.74408C84.3998 9.69608 86.8692 9.68008 87.1729 9.72808C87.2208 9.88008 87.2368 26.3361 87.1889 26.7201Z" fill="url(#paint7_linear_163_12)"/>
        <path d="M136.018 33.376V38.296H134.795V31.264C134.843 31.264 134.899 31.248 134.955 31.248C135.203 31.248 135.458 31.256 135.706 31.248C135.874 31.24 135.97 31.288 136.074 31.424C136.841 32.432 137.624 33.432 138.399 34.432C138.815 34.968 139.23 35.504 139.662 36.072C139.71 35.848 139.686 35.656 139.686 35.464C139.686 35.264 139.686 35.064 139.686 34.864V32.472C139.686 32.272 139.686 32.072 139.686 31.872C139.686 31.672 139.686 31.472 139.686 31.28C139.854 31.232 140.653 31.224 140.909 31.264V38.304C140.581 38.304 140.261 38.304 139.95 38.304C139.886 38.304 139.822 38.216 139.774 38.16C139.31 37.56 138.847 36.96 138.383 36.36C137.656 35.424 136.929 34.48 136.21 33.544C136.162 33.48 136.114 33.424 136.058 33.368C136.042 33.368 136.026 33.376 136.018 33.384V33.376Z" fill="url(#paint8_linear_163_12)"/>
        <path d="M66.9141 38.312C66.7542 38.312 66.5944 38.312 66.4346 38.312C66.1868 38.312 65.9311 38.312 65.6833 38.312C65.5475 38.312 65.4676 38.272 65.3956 38.16C64.9002 37.456 64.4047 36.752 63.9092 36.048C63.8612 35.984 63.8133 35.92 63.7653 35.856H62.223V38.264C62.0551 38.32 61.3758 38.336 61.0242 38.296C61.0242 38.296 61.0082 38.296 61.0082 38.28L61.0002 38.264C61.0002 36.008 60.9922 33.752 60.9843 31.496C60.9843 31.424 60.9843 31.352 60.9843 31.264C61.0562 31.264 61.1121 31.248 61.1681 31.248C62.191 31.248 63.2139 31.248 64.2448 31.248C64.7084 31.248 65.1559 31.336 65.5715 31.536C66.2987 31.888 66.6823 32.48 66.7462 33.28C66.7782 33.608 66.7462 33.928 66.6423 34.24C66.4266 34.864 65.995 35.28 65.3877 35.528C65.2917 35.568 65.1959 35.6 65.084 35.64C65.7073 36.52 66.3307 37.384 66.946 38.256L66.922 38.304L66.9141 38.312ZM62.223 34.744C62.2949 34.744 62.3508 34.744 62.3988 34.744C62.9342 34.744 63.4776 34.744 64.0131 34.744C64.1569 34.744 64.3088 34.728 64.4526 34.704C65.1319 34.584 65.4995 34.112 65.4596 33.424C65.4356 33.032 65.2518 32.736 64.9002 32.56C64.7004 32.456 64.4846 32.4 64.2608 32.392C63.6215 32.392 62.9822 32.392 62.3348 32.384C62.3029 32.384 62.2629 32.384 62.223 32.4V34.752V34.744Z" fill="url(#paint9_linear_163_12)"/>
        <path d="M75.633 38.4241C73.8988 38.4481 72.4523 37.3761 72.0368 35.7361C71.5253 33.7201 72.6761 31.7121 74.7219 31.2321C76.2643 30.8721 77.8627 31.4321 78.7098 32.7441C79.9884 34.7281 79.1573 37.5841 76.616 38.2961C76.2803 38.3921 75.9367 38.4241 75.633 38.4161V38.4241ZM73.2275 34.3841C73.2035 36.1601 74.2824 37.4161 75.8727 37.2641C76.4641 37.2081 76.9676 36.9601 77.3512 36.5121C77.9666 35.7921 78.1344 34.9521 77.8786 34.0481C77.3832 32.2641 75.4092 31.8001 74.1785 32.7361C73.5152 33.2401 73.2355 33.9441 73.2275 34.3841Z" fill="url(#paint10_linear_163_12)"/>
        <path d="M100.919 34.176V35.304C100.631 35.304 100.335 35.304 100.047 35.304C99.7518 35.304 99.4561 35.304 99.1604 35.304H98.2973C98.0016 35.304 97.7139 35.304 97.4102 35.304V37.168C97.626 37.184 97.8418 37.168 98.0575 37.168C98.2813 37.168 98.4971 37.168 98.7208 37.168H99.4081C99.6319 37.168 99.8477 37.168 100.071 37.168H101.39C101.446 37.336 101.454 38.024 101.406 38.288H96.1715V31.272C96.3233 31.224 100.951 31.208 101.366 31.256V32.368H97.4102V34.144C97.594 34.192 97.7938 34.16 97.9856 34.168C98.1774 34.168 98.3692 34.168 98.561 34.168H100.911L100.919 34.176Z" fill="url(#paint11_linear_163_12)"/>
        <path d="M51.5062 36.04V38.296H50.3074C50.2675 38.136 50.2515 31.576 50.2915 31.264C50.3474 31.264 50.4033 31.248 50.4593 31.248C51.3543 31.248 52.2574 31.248 53.1525 31.248C53.624 31.248 54.0795 31.336 54.4951 31.552C55.2543 31.936 55.6618 32.568 55.7178 33.416C55.7577 33.968 55.6618 34.488 55.3422 34.952C54.9746 35.48 54.4471 35.768 53.8397 35.928C53.5201 36.016 53.1844 36.04 52.8568 36.04C52.4892 36.04 52.1215 36.04 51.7539 36.04C51.682 36.04 51.6101 36.04 51.5062 36.04ZM51.5222 34.92C51.6101 34.92 51.682 34.92 51.7539 34.92C52.1215 34.92 52.4892 34.92 52.8568 34.92C53.0326 34.92 53.2084 34.904 53.3842 34.88C54.0076 34.784 54.4311 34.344 54.4631 33.728C54.4951 33.128 54.2633 32.712 53.6719 32.496C53.5201 32.44 53.3602 32.408 53.2004 32.4C52.673 32.384 52.1375 32.392 51.6101 32.392C51.5861 32.392 51.5541 32.408 51.5222 32.416V34.928V34.92Z" fill="url(#paint12_linear_163_12)"/>
        <path d="M116.75 37.264C116.998 36.976 117.237 36.688 117.485 36.392C117.589 36.472 117.685 36.544 117.773 36.616C118.172 36.912 118.596 37.16 119.1 37.248C119.499 37.32 119.907 37.352 120.298 37.224C120.642 37.112 120.898 36.912 120.946 36.52C120.986 36.2 120.89 35.936 120.602 35.768C120.306 35.592 119.987 35.496 119.659 35.408C119.243 35.288 118.82 35.176 118.404 35.056C118.252 35.008 118.101 34.936 117.957 34.864C117.237 34.472 116.966 33.896 117.006 33.064C117.046 32.28 117.581 31.44 118.748 31.224C119.899 31.016 120.954 31.272 121.889 31.992C121.905 32.008 121.921 32.024 121.953 32.056C121.737 32.36 121.521 32.664 121.297 32.984C121.225 32.936 121.153 32.896 121.089 32.856C120.674 32.584 120.234 32.368 119.731 32.296C119.459 32.256 119.187 32.256 118.916 32.32C118.54 32.416 118.276 32.688 118.236 33.016C118.196 33.32 118.284 33.576 118.556 33.744C118.732 33.848 118.924 33.936 119.116 34C119.531 34.128 119.955 34.224 120.362 34.36C120.658 34.456 120.962 34.568 121.241 34.712C121.905 35.064 122.256 35.672 122.16 36.52C122.056 37.472 121.465 38.136 120.49 38.328C119.092 38.608 117.853 38.264 116.766 37.336C116.758 37.328 116.75 37.312 116.718 37.272L116.75 37.264Z" fill="url(#paint13_linear_163_12)"/>
        <path d="M111.643 32.0561C111.427 32.3601 111.212 32.6641 110.988 32.9761C110.908 32.9201 110.836 32.8721 110.764 32.8241C110.357 32.5601 109.917 32.3441 109.43 32.2801C109.158 32.2401 108.886 32.2401 108.614 32.3121C108.103 32.4481 107.839 32.8721 107.959 33.3441C107.999 33.5121 108.095 33.6481 108.239 33.7281C108.423 33.8321 108.614 33.9281 108.814 33.9921C109.23 34.1201 109.653 34.2161 110.061 34.3521C110.357 34.4481 110.66 34.5601 110.94 34.7041C111.428 34.9601 111.763 35.3601 111.835 35.9201C112.011 37.1441 111.38 37.9921 110.349 38.2721C109.166 38.5921 108.047 38.3761 107.008 37.7361C106.8 37.6081 106.617 37.4481 106.401 37.2881C106.656 36.9841 106.904 36.6881 107.152 36.3921C107.28 36.4881 107.392 36.5761 107.504 36.6561C107.879 36.9281 108.287 37.1521 108.75 37.2401C109.15 37.3201 109.557 37.3521 109.949 37.2161C110.109 37.1601 110.253 37.0721 110.389 36.9681C110.7 36.7281 110.748 36.0401 110.285 35.7601C109.989 35.5841 109.669 35.4881 109.342 35.4001C108.926 35.2801 108.503 35.1761 108.095 35.0401C107.863 34.9681 107.647 34.8561 107.44 34.7201C106.8 34.3041 106.609 33.6721 106.696 32.9441C106.816 32.0241 107.376 31.4641 108.247 31.2481C109.47 30.9441 110.596 31.2161 111.595 31.9841C111.603 31.9921 111.611 32.0081 111.627 32.0401L111.643 32.0561Z" fill="url(#paint14_linear_163_12)"/>
        <path d="M90.857 32.2161C90.5773 32.5361 90.3216 32.8401 90.0499 33.1441C89.922 33.0401 89.8101 32.9441 89.6902 32.8561C89.2907 32.5601 88.8591 32.3361 88.3477 32.2881C87.3966 32.1921 86.5176 32.6401 86.062 33.4721C85.5426 34.4321 85.6625 35.6961 86.3657 36.4961C86.7813 36.9761 87.3087 37.2321 87.9481 37.2721C88.6274 37.3121 89.2028 37.0961 89.7222 36.6721C89.8421 36.5761 89.962 36.4801 90.0579 36.3921C90.3216 36.6561 90.5853 36.9041 90.865 37.1761C90.849 37.2001 90.8171 37.2481 90.7771 37.2881C90.1857 37.8881 89.4825 38.2881 88.6354 38.3841C87.1969 38.5521 85.9741 38.1441 85.103 36.9361C83.8404 35.1681 84.3598 32.4161 86.5335 31.4401C87.1649 31.1521 87.8282 31.0801 88.5155 31.1441C89.3386 31.2161 90.0499 31.5281 90.6652 32.0721C90.7212 32.1201 90.7771 32.1681 90.841 32.2161H90.857Z" fill="url(#paint15_linear_163_12)"/>
        <path d="M127.707 31.256H128.889C128.937 31.408 128.945 38.04 128.897 38.304H127.707V31.256Z" fill="url(#paint16_linear_163_12)"/>
        <path d="M21.7053 0C21.7053 0 21.7692 0.032 21.8012 0.04C22.3846 0.152 22.8002 0.648 22.8002 1.24C22.8002 1.832 22.3846 2.328 21.8012 2.44C21.1379 2.568 20.4906 2.128 20.3707 1.472C20.2268 0.72 20.7863 0.112 21.3537 0.04C21.3936 0.04 21.4336 0.016 21.4815 0C21.5535 0 21.6254 0 21.7053 0ZM22.8081 46.976C22.8081 33.416 22.8081 19.864 22.8081 6.304C22.8081 6.232 22.8081 6.16 22.8081 6.08C22.7842 5.44 22.2807 4.928 21.6574 4.896C21.002 4.864 20.4586 5.304 20.3707 5.952C20.3547 6.08 20.3547 6.216 20.3547 6.352C20.3547 19.88 20.3547 33.408 20.3547 46.928C20.3547 46.976 20.3547 47.032 20.3547 47.08C20.3387 47.192 20.3947 47.256 20.4826 47.312C20.8022 47.504 21.1219 47.712 21.4416 47.904C21.4895 47.936 21.5455 47.96 21.6014 47.984C22.009 47.728 22.4086 47.48 22.8161 47.224V46.96L22.8081 46.976ZM15.4239 40.256C14.2251 39.04 13.1303 37.728 12.1153 36.352C11.3162 36.544 10.541 36.76 9.7498 37.016C10.8846 38.648 12.1233 40.16 13.4819 41.584C14.8405 43.008 16.303 44.312 17.9173 45.536C17.9173 45.392 17.9173 45.304 17.9173 45.224C17.9173 37.256 17.9173 29.28 17.9173 21.312C17.9173 21.216 17.9173 21.12 17.9173 21.024C17.8693 20.408 17.3898 19.936 16.7585 19.904C16.1032 19.872 15.6317 20.32 15.5198 20.824C15.4878 20.976 15.4798 21.128 15.4798 21.28C15.4798 27.512 15.4798 33.744 15.4798 39.976C15.4798 40.064 15.4798 40.152 15.4798 40.24C15.4638 40.24 15.4478 40.256 15.4319 40.264L15.4239 40.256ZM13.0344 34.672C13.0344 29.016 13.0344 23.36 13.0344 17.704C13.0344 17.624 13.0344 17.544 13.0344 17.464C13.0104 16.816 12.4909 16.304 11.8356 16.28C11.1643 16.256 10.6049 16.808 10.5889 17.424C10.5889 17.536 10.5889 17.648 10.5889 17.752C10.5889 22.856 10.5889 27.96 10.5889 33.056C10.5889 33.152 10.5889 33.248 10.5889 33.344C8.59102 34.12 6.70499 35.072 4.91486 36.224C3.2526 37.296 0.223766 39.752 0 40.24C4.05176 37.72 8.38323 35.96 13.0344 34.952V34.656V34.672ZM32.5819 33.36C32.5819 33.248 32.5819 33.152 32.5819 33.056C32.5819 28.08 32.5819 23.096 32.5819 18.12C32.5819 18.032 32.5819 17.944 32.5819 17.856C32.542 17.024 31.7987 16.472 31.0156 16.696C30.4721 16.848 30.1285 17.336 30.1285 17.952C30.1285 23.56 30.1285 29.16 30.1285 34.768C30.1285 34.832 30.1285 34.896 30.1365 34.976C34.8036 35.984 39.159 37.752 43.2108 40.264C40.158 37.216 36.6097 34.928 32.5819 33.368V33.36ZM27.691 40.24V39.984C27.691 36.4 27.691 32.816 27.691 29.232C27.691 29.128 27.691 29.024 27.691 28.92C27.6751 28.328 27.2195 27.816 26.6521 27.752C26.0208 27.68 25.4534 28.04 25.3015 28.632C25.2616 28.792 25.2536 28.968 25.2536 29.136C25.2536 34.496 25.2536 39.856 25.2536 45.224C25.2536 45.272 25.2536 45.312 25.2536 45.36C25.2536 45.408 25.2696 45.448 25.2856 45.52C28.4423 43.104 31.1434 40.28 33.429 37.016C32.6299 36.768 31.8467 36.536 31.0875 36.36C30.5361 37.048 30.0166 37.712 29.4732 38.368C28.9297 39.024 28.3543 39.656 27.755 40.256C27.739 40.256 27.723 40.248 27.707 40.24H27.691ZM40.206 13.936C40.142 13.912 40.1021 13.888 40.0621 13.88C39.159 13.576 38.256 13.264 37.3449 12.968C36.7616 12.784 36.1782 12.608 35.5868 12.472C34.8835 12.312 34.1882 12.968 34.2602 13.688C34.3161 14.216 34.6358 14.584 35.1632 14.736C36.0024 14.984 36.8415 15.24 37.6726 15.488C37.7525 15.512 37.8324 15.544 37.9283 15.584C37.8564 21.584 36.386 27.2 33.5249 32.48C34.2282 32.792 34.9155 33.104 35.6427 33.432C38.9113 27.328 40.4297 20.84 40.2219 13.936H40.206ZM4.69109 26.712C5.42633 29.04 6.36934 31.28 7.53612 33.424C8.25537 33.104 8.94265 32.792 9.64591 32.48C8.2234 29.88 7.13654 27.152 6.39331 24.296C5.65009 21.44 5.26649 18.536 5.24252 15.584C5.30645 15.56 5.34641 15.544 5.38637 15.528C5.80193 15.392 6.20951 15.256 6.62507 15.136C7.09658 14.992 7.57608 14.864 8.04758 14.728C8.81478 14.504 9.15043 13.664 8.74286 13C8.51909 12.64 7.99963 12.336 7.39227 12.512C6.24147 12.84 5.09068 13.184 3.96386 13.584C3.62821 13.704 3.30055 13.816 2.9649 13.936C2.81306 18.312 3.38846 22.568 4.69109 26.72V26.712ZM27.6831 10.552C27.6831 10.464 27.6831 10.376 27.6831 10.288C27.6591 9.696 27.1956 9.192 26.6042 9.128C26.0208 9.056 25.4534 9.424 25.2936 9.984C25.2536 10.12 25.2376 10.272 25.2376 10.416C25.2376 14.712 25.2376 19.016 25.2376 23.312C25.2376 23.344 25.2376 23.368 25.2376 23.4C25.2536 24.016 25.7171 24.528 26.3245 24.6C26.9238 24.664 27.4833 24.28 27.6351 23.688C27.6671 23.544 27.6751 23.4 27.6751 23.248C27.6751 21.128 27.6751 19 27.6751 16.88C27.6751 14.768 27.6751 12.664 27.6751 10.552H27.6831ZM17.9173 10.496C17.9173 10.384 17.9173 10.272 17.9013 10.168C17.8214 9.496 17.1261 9 16.4708 9.144C15.8634 9.272 15.4718 9.752 15.4718 10.376C15.4718 11.616 15.4718 12.856 15.4718 14.096C15.4718 14.704 15.4718 15.304 15.4718 15.912C15.4718 16.416 15.7995 16.856 16.263 17.032C16.7265 17.208 17.2619 17.08 17.5976 16.712C17.8294 16.456 17.9173 16.16 17.9173 15.816C17.9173 14.92 17.9173 14.016 17.9173 13.12C17.9173 12.248 17.9173 11.376 17.9173 10.512V10.496ZM32.5819 12.624C32.5819 11.952 32.0145 11.376 31.3432 11.384C30.6719 11.384 30.1205 11.952 30.1205 12.616C30.1205 13.28 30.6799 13.84 31.3432 13.84C32.0065 13.84 32.5659 13.288 32.5739 12.624H32.5819ZM11.8116 13.848C12.4909 13.848 13.0344 13.288 13.0344 12.6C13.0344 12.048 12.6028 11.4 11.7957 11.392C11.1244 11.392 10.5809 11.952 10.5889 12.624C10.5889 13.296 11.1404 13.848 11.8116 13.848ZM26.4763 4.24C25.797 4.24 25.2456 4.768 25.2376 5.44C25.2376 6.128 25.7731 6.68 26.4603 6.68C27.1396 6.68 27.6831 6.144 27.6831 5.464C27.6831 4.784 27.1556 4.24 26.4763 4.232V4.24ZM15.4718 5.448C15.4718 6.128 16.0073 6.68 16.6786 6.68C17.3738 6.68 17.9173 6.144 17.9173 5.456C17.9173 4.776 17.3818 4.232 16.7025 4.232C16.0232 4.232 15.4718 4.768 15.4718 5.44V5.448Z" fill="url(#paint17_linear_163_12)"/>
    </g>
    <path d="M159.449 8.38111V4.57397H159.951L161.383 7.02577L162.814 4.57397H163.317L163.327 8.38111H162.748V5.75165L161.581 7.78212H161.185L160.023 5.75165V8.38111H159.449ZM156.794 8.38111V5.14251H155.464V4.57397H158.718V5.14251H157.398V8.38111H156.794Z" fill="url(#paint18_linear_163_12)"/>
    <defs>
        <linearGradient id="paint0_linear_163_12" x1="146.644" y1="6.00803" x2="146.644" y2="26.7281" gradientUnits="userSpaceOnUse">
            <stop stop-color="white"/>
            <stop offset="1" stop-color="white" stop-opacity="0.7"/>
        </linearGradient>
        <linearGradient id="paint1_linear_163_12" x1="149.709" y1="29.541" x2="149.709" y2="38.428" gradientUnits="userSpaceOnUse">
            <stop stop-color="white"/>
            <stop offset="1" stop-color="white" stop-opacity="0.7"/>
        </linearGradient>
        <linearGradient id="paint2_linear_163_12" x1="73.7168" y1="5.99029" x2="73.7168" y2="26.7201" gradientUnits="userSpaceOnUse">
            <stop stop-color="white"/>
            <stop offset="1" stop-color="white" stop-opacity="0.7"/>
        </linearGradient>
        <linearGradient id="paint3_linear_163_12" x1="114.988" y1="5.85553" x2="114.988" y2="26.712" gradientUnits="userSpaceOnUse">
            <stop stop-color="white"/>
            <stop offset="1" stop-color="white" stop-opacity="0.7"/>
        </linearGradient>
        <linearGradient id="paint4_linear_163_12" x1="56.8667" y1="5.98398" x2="56.8667" y2="26.704" gradientUnits="userSpaceOnUse">
            <stop stop-color="white"/>
            <stop offset="1" stop-color="white" stop-opacity="0.7"/>
        </linearGradient>
        <linearGradient id="paint5_linear_163_12" x1="98.6729" y1="5.96114" x2="98.6729" y2="26.84" gradientUnits="userSpaceOnUse">
            <stop stop-color="white"/>
            <stop offset="1" stop-color="white" stop-opacity="0.7"/>
        </linearGradient>
        <linearGradient id="paint6_linear_163_12" x1="130.248" y1="6.00172" x2="130.248" y2="26.712" gradientUnits="userSpaceOnUse">
            <stop stop-color="white"/>
            <stop offset="1" stop-color="white" stop-opacity="0.7"/>
        </linearGradient>
        <linearGradient id="paint7_linear_163_12" x1="85.7184" y1="5.9842" x2="85.7184" y2="26.7201" gradientUnits="userSpaceOnUse">
            <stop stop-color="white"/>
            <stop offset="1" stop-color="white" stop-opacity="0.7"/>
        </linearGradient>
        <linearGradient id="paint8_linear_163_12" x1="137.852" y1="29.6963" x2="137.852" y2="38.304" gradientUnits="userSpaceOnUse">
            <stop stop-color="white"/>
            <stop offset="1" stop-color="white" stop-opacity="0.7"/>
        </linearGradient>
        <linearGradient id="paint9_linear_163_12" x1="63.9651" y1="29.7049" x2="63.9651" y2="38.3183" gradientUnits="userSpaceOnUse">
            <stop stop-color="white"/>
            <stop offset="1" stop-color="white" stop-opacity="0.7"/>
        </linearGradient>
        <linearGradient id="paint10_linear_163_12" x1="75.6092" y1="29.532" x2="75.6092" y2="38.4245" gradientUnits="userSpaceOnUse">
            <stop stop-color="white"/>
            <stop offset="1" stop-color="white" stop-opacity="0.7"/>
        </linearGradient>
        <linearGradient id="paint11_linear_163_12" x1="98.8045" y1="29.686" x2="98.8045" y2="38.288" gradientUnits="userSpaceOnUse">
            <stop stop-color="white"/>
            <stop offset="1" stop-color="white" stop-opacity="0.7"/>
        </linearGradient>
        <linearGradient id="paint12_linear_163_12" x1="52.9973" y1="29.7098" x2="52.9973" y2="38.296" gradientUnits="userSpaceOnUse">
            <stop stop-color="white"/>
            <stop offset="1" stop-color="white" stop-opacity="0.7"/>
        </linearGradient>
        <linearGradient id="paint13_linear_163_12" x1="119.447" y1="29.5676" x2="119.447" y2="38.4227" gradientUnits="userSpaceOnUse">
            <stop stop-color="white"/>
            <stop offset="1" stop-color="white" stop-opacity="0.7"/>
        </linearGradient>
        <linearGradient id="paint14_linear_163_12" x1="109.133" y1="29.5347" x2="109.133" y2="38.4185" gradientUnits="userSpaceOnUse">
            <stop stop-color="white"/>
            <stop offset="1" stop-color="white" stop-opacity="0.7"/>
        </linearGradient>
        <linearGradient id="paint15_linear_163_12" x1="87.6456" y1="29.5297" x2="87.6456" y2="38.4202" gradientUnits="userSpaceOnUse">
            <stop stop-color="white"/>
            <stop offset="1" stop-color="white" stop-opacity="0.7"/>
        </linearGradient>
        <linearGradient id="paint16_linear_163_12" x1="128.318" y1="29.7177" x2="128.318" y2="38.304" gradientUnits="userSpaceOnUse">
            <stop stop-color="white"/>
            <stop offset="1" stop-color="white" stop-opacity="0.7"/>
        </linearGradient>
        <linearGradient id="paint17_linear_163_12" x1="36.6122" y1="51.4069" x2="0.0810045" y2="23.8634" gradientUnits="userSpaceOnUse">
            <stop stop-color="#AD8D55"/>
            <stop offset="0.360577" stop-color="#9A753D"/>
            <stop offset="0.543269" stop-color="#E8CDA0"/>
            <stop offset="0.850962" stop-color="#BA9050"/>
            <stop offset="1" stop-color="#AD8D55"/>
        </linearGradient>
        <linearGradient id="paint18_linear_163_12" x1="159.396" y1="3.74305" x2="159.396" y2="8.38111" gradientUnits="userSpaceOnUse">
            <stop stop-color="white"/>
            <stop offset="1" stop-color="white" stop-opacity="0.7"/>
        </linearGradient>
        <clipPath id="clip0_163_12">
            <rect width="153" height="48" fill="white"/>
        </clipPath>
    </defs>
</svg>
