<svg width="49" height="48" viewBox="0 0 49 48" fill="none" xmlns="http://www.w3.org/2000/svg">
    <path d="M21.7053 0C21.7053 0 21.7692 0.032 21.8012 0.04C22.3846 0.152 22.8002 0.648 22.8002 1.24C22.8002 1.832 22.3846 2.328 21.8012 2.44C21.1379 2.568 20.4906 2.128 20.3707 1.472C20.2268 0.72 20.7863 0.112 21.3537 0.04C21.3936 0.04 21.4336 0.016 21.4815 0C21.5535 0 21.6254 0 21.7053 0ZM22.8081 46.976C22.8081 33.416 22.8081 19.864 22.8081 6.304C22.8081 6.232 22.8081 6.16 22.8081 6.08C22.7842 5.44 22.2807 4.928 21.6574 4.896C21.002 4.864 20.4586 5.304 20.3707 5.952C20.3547 6.08 20.3547 6.216 20.3547 6.352C20.3547 19.88 20.3547 33.408 20.3547 46.928C20.3547 46.976 20.3547 47.032 20.3547 47.08C20.3387 47.192 20.3947 47.256 20.4826 47.312C20.8022 47.504 21.1219 47.712 21.4416 47.904C21.4895 47.936 21.5455 47.96 21.6014 47.984C22.009 47.728 22.4086 47.48 22.8161 47.224V46.96L22.8081 46.976ZM15.4239 40.256C14.2251 39.04 13.1303 37.728 12.1153 36.352C11.3162 36.544 10.541 36.76 9.7498 37.016C10.8846 38.648 12.1233 40.16 13.4819 41.584C14.8405 43.008 16.303 44.312 17.9173 45.536C17.9173 45.392 17.9173 45.304 17.9173 45.224C17.9173 37.256 17.9173 29.28 17.9173 21.312C17.9173 21.216 17.9173 21.12 17.9173 21.024C17.8693 20.408 17.3898 19.936 16.7585 19.904C16.1032 19.872 15.6317 20.32 15.5198 20.824C15.4878 20.976 15.4798 21.128 15.4798 21.28C15.4798 27.512 15.4798 33.744 15.4798 39.976C15.4798 40.064 15.4798 40.152 15.4798 40.24C15.4638 40.24 15.4478 40.256 15.4319 40.264L15.4239 40.256ZM13.0344 34.672C13.0344 29.016 13.0344 23.36 13.0344 17.704C13.0344 17.624 13.0344 17.544 13.0344 17.464C13.0104 16.816 12.4909 16.304 11.8356 16.28C11.1643 16.256 10.6049 16.808 10.5889 17.424C10.5889 17.536 10.5889 17.648 10.5889 17.752C10.5889 22.856 10.5889 27.96 10.5889 33.056C10.5889 33.152 10.5889 33.248 10.5889 33.344C8.59102 34.12 6.70499 35.072 4.91486 36.224C3.2526 37.296 0.223766 39.752 0 40.24C4.05176 37.72 8.38323 35.96 13.0344 34.952V34.656V34.672ZM32.5819 33.36C32.5819 33.248 32.5819 33.152 32.5819 33.056C32.5819 28.08 32.5819 23.096 32.5819 18.12C32.5819 18.032 32.5819 17.944 32.5819 17.856C32.542 17.024 31.7987 16.472 31.0156 16.696C30.4721 16.848 30.1285 17.336 30.1285 17.952C30.1285 23.56 30.1285 29.16 30.1285 34.768C30.1285 34.832 30.1285 34.896 30.1365 34.976C34.8036 35.984 39.159 37.752 43.2108 40.264C40.158 37.216 36.6097 34.928 32.5819 33.368V33.36ZM27.691 40.24V39.984C27.691 36.4 27.691 32.816 27.691 29.232C27.691 29.128 27.691 29.024 27.691 28.92C27.6751 28.328 27.2195 27.816 26.6521 27.752C26.0208 27.68 25.4534 28.04 25.3015 28.632C25.2616 28.792 25.2536 28.968 25.2536 29.136C25.2536 34.496 25.2536 39.856 25.2536 45.224C25.2536 45.272 25.2536 45.312 25.2536 45.36C25.2536 45.408 25.2696 45.448 25.2856 45.52C28.4423 43.104 31.1434 40.28 33.429 37.016C32.6299 36.768 31.8467 36.536 31.0875 36.36C30.5361 37.048 30.0166 37.712 29.4732 38.368C28.9297 39.024 28.3543 39.656 27.755 40.256C27.739 40.256 27.723 40.248 27.707 40.24H27.691ZM40.206 13.936C40.142 13.912 40.1021 13.888 40.0621 13.88C39.159 13.576 38.256 13.264 37.3449 12.968C36.7616 12.784 36.1782 12.608 35.5868 12.472C34.8835 12.312 34.1882 12.968 34.2602 13.688C34.3161 14.216 34.6358 14.584 35.1632 14.736C36.0024 14.984 36.8415 15.24 37.6726 15.488C37.7525 15.512 37.8324 15.544 37.9283 15.584C37.8564 21.584 36.386 27.2 33.5249 32.48C34.2282 32.792 34.9155 33.104 35.6427 33.432C38.9113 27.328 40.4297 20.84 40.2219 13.936H40.206ZM4.69109 26.712C5.42633 29.04 6.36934 31.28 7.53612 33.424C8.25537 33.104 8.94265 32.792 9.64591 32.48C8.2234 29.88 7.13654 27.152 6.39331 24.296C5.65009 21.44 5.26649 18.536 5.24252 15.584C5.30645 15.56 5.34641 15.544 5.38637 15.528C5.80193 15.392 6.20951 15.256 6.62507 15.136C7.09658 14.992 7.57608 14.864 8.04758 14.728C8.81478 14.504 9.15043 13.664 8.74286 13C8.51909 12.64 7.99963 12.336 7.39227 12.512C6.24147 12.84 5.09068 13.184 3.96386 13.584C3.62821 13.704 3.30055 13.816 2.9649 13.936C2.81306 18.312 3.38846 22.568 4.69109 26.72V26.712ZM27.6831 10.552C27.6831 10.464 27.6831 10.376 27.6831 10.288C27.6591 9.696 27.1956 9.192 26.6042 9.128C26.0208 9.056 25.4534 9.424 25.2936 9.984C25.2536 10.12 25.2376 10.272 25.2376 10.416C25.2376 14.712 25.2376 19.016 25.2376 23.312C25.2376 23.344 25.2376 23.368 25.2376 23.4C25.2536 24.016 25.7171 24.528 26.3245 24.6C26.9238 24.664 27.4833 24.28 27.6351 23.688C27.6671 23.544 27.6751 23.4 27.6751 23.248C27.6751 21.128 27.6751 19 27.6751 16.88C27.6751 14.768 27.6751 12.664 27.6751 10.552H27.6831ZM17.9173 10.496C17.9173 10.384 17.9173 10.272 17.9013 10.168C17.8214 9.496 17.1261 9 16.4708 9.144C15.8634 9.272 15.4718 9.752 15.4718 10.376C15.4718 11.616 15.4718 12.856 15.4718 14.096C15.4718 14.704 15.4718 15.304 15.4718 15.912C15.4718 16.416 15.7995 16.856 16.263 17.032C16.7265 17.208 17.2619 17.08 17.5976 16.712C17.8294 16.456 17.9173 16.16 17.9173 15.816C17.9173 14.92 17.9173 14.016 17.9173 13.12C17.9173 12.248 17.9173 11.376 17.9173 10.512V10.496ZM32.5819 12.624C32.5819 11.952 32.0145 11.376 31.3432 11.384C30.6719 11.384 30.1205 11.952 30.1205 12.616C30.1205 13.28 30.6799 13.84 31.3432 13.84C32.0065 13.84 32.5659 13.288 32.5739 12.624H32.5819ZM11.8116 13.848C12.4909 13.848 13.0344 13.288 13.0344 12.6C13.0344 12.048 12.6028 11.4 11.7957 11.392C11.1244 11.392 10.5809 11.952 10.5889 12.624C10.5889 13.296 11.1404 13.848 11.8116 13.848ZM26.4763 4.24C25.797 4.24 25.2456 4.768 25.2376 5.44C25.2376 6.128 25.7731 6.68 26.4603 6.68C27.1396 6.68 27.6831 6.144 27.6831 5.464C27.6831 4.784 27.1556 4.24 26.4763 4.232V4.24ZM15.4718 5.448C15.4718 6.128 16.0073 6.68 16.6786 6.68C17.3738 6.68 17.9173 6.144 17.9173 5.456C17.9173 4.776 17.3818 4.232 16.7025 4.232C16.0232 4.232 15.4718 4.768 15.4718 5.44V5.448Z" fill="url(#paint0_linear_0_1)"/>
    <path d="M44.8808 11.0602V7.69653H45.3248L46.5895 9.86274L47.8543 7.69653H48.2983L48.3072 11.0602H47.7959V8.73703L46.7644 10.531H46.4146L45.3876 8.73703V11.0602H44.8808ZM42.5352 11.0602V8.19884H41.3601V7.69653H44.2349V8.19884H43.0689V11.0602H42.5352Z" fill="url(#paint1_linear_0_1)"/>
    <defs>
        <linearGradient id="paint0_linear_0_1" x1="36.6122" y1="51.4069" x2="0.0810045" y2="23.8634" gradientUnits="userSpaceOnUse">
            <stop stop-color="#AD8D55"/>
            <stop offset="0.360577" stop-color="#9A753D"/>
            <stop offset="0.543269" stop-color="#E8CDA0"/>
            <stop offset="0.850962" stop-color="#BA9050"/>
            <stop offset="1" stop-color="#AD8D55"/>
        </linearGradient>
        <linearGradient id="paint1_linear_0_1" x1="44.8337" y1="6.9624" x2="44.8337" y2="11.0602" gradientUnits="userSpaceOnUse">
            <stop stop-color="white"/>
            <stop offset="1" stop-color="white" stop-opacity="0.7"/>
        </linearGradient>
    </defs>
</svg>
