<svg width="50" height="50" viewBox="0 0 50 50" fill="none" xmlns="http://www.w3.org/2000/svg">
    <g clip-path="url(#clip0_190_5774)">
        <path d="M23.0002 49.9995C22.8384 49.9995 22.6764 49.9745 22.5203 49.9245C17.2751 48.2443 12.8096 45.0216 9.24743 40.3461C6.44301 36.665 4.19749 32.0835 2.57363 26.7289C-0.165667 17.6972 -0.197128 9.65144 -0.197128 9.31339C-0.197128 8.50327 0.418247 7.82545 1.22475 7.74758C1.34619 7.73578 13.5634 6.48159 22.0759 0.299688C22.6271 -0.100809 23.3735 -0.100337 23.9247 0.299845C32.4349 6.48159 44.6537 7.73578 44.7761 7.74774C45.5819 7.82639 46.1971 8.5039 46.1971 9.31339C46.1971 9.65144 46.1657 17.6972 43.4265 26.729C41.8025 32.0837 39.5572 36.6652 36.7527 40.3462C33.1907 45.0218 28.7252 48.2445 23.48 49.9247C23.324 49.9745 23.1621 49.9995 23.0002 49.9995ZM2.99411 10.6934C3.12483 13.3336 3.63308 19.4141 5.60599 25.8876C8.97309 36.9346 14.8242 43.9572 23.0001 46.7691C31.195 43.9509 37.0529 36.9044 40.4157 25.8159C42.3753 19.3548 42.878 13.3206 43.0069 10.6936C39.4826 10.1793 30.3536 8.43909 22.9999 3.49139C15.6456 8.43862 6.51851 10.1792 2.99411 10.6934Z" fill="url(#paint0_linear_190_5774)"/>
        <path d="M22.1591 32.6603C21.786 32.6603 21.4229 32.5276 21.1368 32.2828L15.4482 27.418C14.788 26.8534 14.7105 25.8605 15.275 25.2002C15.8394 24.5398 16.8325 24.4621 17.4929 25.027L21.9169 28.8103L30.6855 17.3085C31.2122 16.6176 32.1991 16.4842 32.8901 17.0112C33.5812 17.5379 33.7141 18.525 33.1874 19.2158L23.4102 32.0409C23.148 32.3849 22.7558 32.6057 22.3256 32.6515C22.27 32.6573 22.2145 32.6603 22.1591 32.6603Z" fill="url(#paint1_linear_190_5774)"/>
    </g>
    <defs>
        <linearGradient id="paint0_linear_190_5774" x1="39.1124" y1="53.5663" x2="0.74758" y2="23.7615" gradientUnits="userSpaceOnUse">
            <stop stop-color="#AD8D55" stop-opacity="0.9"/>
            <stop offset="0.259615" stop-color="#D2AD75"/>
            <stop offset="0.466346" stop-color="#E8CDA0"/>
            <stop offset="0.8125" stop-color="#D2AD75"/>
            <stop offset="1" stop-color="#AD8D55" stop-opacity="0.9"/>
        </linearGradient>
        <linearGradient id="paint1_linear_190_5774" x1="30.6674" y1="33.7996" x2="18.0238" y2="21.4634" gradientUnits="userSpaceOnUse">
            <stop stop-color="#AD8D55" stop-opacity="0.9"/>
            <stop offset="0.259615" stop-color="#D2AD75"/>
            <stop offset="0.466346" stop-color="#E8CDA0"/>
            <stop offset="0.8125" stop-color="#D2AD75"/>
            <stop offset="1" stop-color="#AD8D55" stop-opacity="0.9"/>
        </linearGradient>
        <clipPath id="clip0_190_5774">
            <rect width="50" height="50" fill="white"/>
        </clipPath>
    </defs>
</svg>
