<svg width="44" height="44" viewBox="0 0 44 44" fill="none" xmlns="http://www.w3.org/2000/svg">
    <g clip-path="url(#clip0_31_94)">
        <path d="M22.0002 43.9995C21.8578 43.9995 21.7152 43.9775 21.5779 43.9335C16.9621 42.455 13.0324 39.619 9.89774 35.5045C7.42984 32.2652 5.45379 28.2334 4.02479 23.5214C1.61421 15.5735 1.58652 8.49321 1.58652 8.19572C1.58652 7.48282 2.12805 6.88633 2.83777 6.81781C2.94464 6.80743 13.6958 5.70374 21.1868 0.263667C21.6719 -0.0887706 22.3287 -0.0883553 22.8138 0.263805C30.3027 5.70374 41.0552 6.80743 41.1629 6.81795C41.8721 6.88717 42.4135 7.48337 42.4135 8.19572C42.4135 8.49321 42.3858 15.5735 39.9753 23.5215C38.5462 28.2336 36.5703 32.2653 34.1024 35.5046C30.9678 39.6191 27.0382 42.4551 22.4224 43.9337C22.2851 43.9775 22.1427 43.9995 22.0002 43.9995ZM4.39481 9.41015C4.50985 11.7335 4.95711 17.0843 6.69327 22.781C9.65632 32.5024 14.8053 38.6823 22.0001 41.1568C29.2116 38.6767 34.3665 32.4758 37.3258 22.7179C39.0502 17.0321 39.4927 11.722 39.606 9.41029C36.5047 8.95777 28.4712 7.42634 21.9999 3.07237C15.5282 7.42593 7.49629 8.95763 4.39481 9.41015Z" fill="url(#paint0_linear_31_94)"/>
        <path d="M21.26 28.7408C20.9317 28.7408 20.6122 28.624 20.3604 28.4086L15.3544 24.1276C14.7734 23.6308 14.7052 22.757 15.202 22.1759C15.6987 21.5948 16.5726 21.5264 17.1537 22.0235L21.0469 25.3528L28.7632 15.2312C29.2267 14.6233 30.0952 14.5059 30.7033 14.9696C31.3114 15.4331 31.4284 16.3017 30.9649 16.9097L22.3609 28.1957C22.1302 28.4984 21.7851 28.6928 21.4065 28.7331C21.3576 28.7382 21.3088 28.7408 21.26 28.7408Z" fill="url(#paint1_linear_31_94)"/>
    </g>
    <defs>
        <linearGradient id="paint0_linear_31_94" x1="36.1789" y1="47.1383" x2="2.41787" y2="20.91" gradientUnits="userSpaceOnUse">
            <stop stop-color="#AD8D55" stop-opacity="0.9"/>
            <stop offset="0.259615" stop-color="#D2AD75"/>
            <stop offset="0.466346" stop-color="#E8CDA0"/>
            <stop offset="0.8125" stop-color="#D2AD75"/>
            <stop offset="1" stop-color="#AD8D55" stop-opacity="0.9"/>
        </linearGradient>
        <linearGradient id="paint1_linear_31_94" x1="28.7473" y1="29.7434" x2="17.621" y2="18.8876" gradientUnits="userSpaceOnUse">
            <stop stop-color="#AD8D55" stop-opacity="0.9"/>
            <stop offset="0.259615" stop-color="#D2AD75"/>
            <stop offset="0.466346" stop-color="#E8CDA0"/>
            <stop offset="0.8125" stop-color="#D2AD75"/>
            <stop offset="1" stop-color="#AD8D55" stop-opacity="0.9"/>
        </linearGradient>
        <clipPath id="clip0_31_94">
            <rect width="44" height="44" fill="white"/>
        </clipPath>
    </defs>
</svg>
