<svg width="44" height="44" viewBox="0 0 44 44" fill="none" xmlns="http://www.w3.org/2000/svg">
    <path d="M22.5671 1.375C11.9452 1.375 3.34287 9.97734 3.34287 20.5992C3.34287 24.8789 4.74365 28.832 7.10693 32.0289L2.2085 42.625L3.48896 42.032L13.3546 37.4773C16.0874 38.9727 19.2241 39.8234 22.5585 39.8234C33.1718 39.8234 41.7827 31.2211 41.7827 20.5992C41.7913 9.97734 33.1804 1.375 22.5671 1.375ZM32.8194 28.8063C32.7077 29.3391 32.4757 29.8461 32.1405 30.293C31.728 30.843 31.1952 31.2555 30.5851 31.5133C29.9749 31.7711 29.3046 31.8742 28.6343 31.7883C26.8382 31.5734 25.1022 30.9977 23.5468 30.0695C21.7507 29.0039 19.3358 27.3453 17.514 24.9734C15.5718 22.6961 14.5147 20.032 13.8444 18.0469C13.2687 16.3367 13.0624 14.5148 13.2257 12.7187C13.2858 12.0398 13.5265 11.4039 13.9046 10.8625C14.2827 10.3211 14.8069 9.88281 15.4257 9.59922C15.9327 9.35859 16.4827 9.24687 17.0241 9.24687C17.7976 9.24687 18.7429 9.23828 19.396 9.70234C20.4101 10.4156 20.8397 11.825 20.8397 13.0625C20.8397 13.1742 20.8312 13.2945 20.8226 13.4062C20.7624 14.0852 20.7022 14.6781 20.3155 15.2195C19.9374 15.7609 19.2413 16.2336 18.6226 16.5258C19.0952 19.0695 19.9116 20.9602 21.0374 22.1805C21.5187 22.8508 22.1718 23.4867 23.0054 24.0797C23.839 24.6727 24.8444 25.2141 26.039 25.7125C26.4515 25.1711 27.0616 24.5867 27.6718 24.3289C28.2733 24.0711 28.8749 24.1312 29.5452 24.2172C29.6569 24.2344 29.7772 24.2516 29.889 24.2773C31.0921 24.5352 32.3812 25.2484 32.871 26.3914C33.1804 27.1305 32.9827 28.05 32.8194 28.8063Z" fill="url(#paint0_linear_1751_2416)"/>
    <defs>
        <linearGradient id="paint0_linear_1751_2416" x1="21.9956" y1="1.375" x2="21.9956" y2="42.625" gradientUnits="userSpaceOnUse">
            <stop/>
            <stop offset="1" stop-color="#666666"/>
        </linearGradient>
    </defs>
</svg>
