<svg width="16" height="12" viewBox="0 0 16 12" fill="none" xmlns="http://www.w3.org/2000/svg">
    <path d="M1 4.79148H0L0 6.79148H1L1 5.79148L1 4.79148ZM13.3824 6.79148H14.3824V4.79148H13.3824V5.79148V6.79148ZM14.1937 5.79148L14.8833 6.51567L15.6438 5.79158L14.8834 5.06738L14.1937 5.79148ZM1 5.79148L1 6.79148L13.3824 6.79148V5.79148V4.79148L1 4.79148L1 5.79148ZM8.87369 10.8574L9.56328 11.5816L14.8833 6.51567L14.1937 5.79148L13.5041 5.06729L8.18409 10.1332L8.87369 10.8574ZM14.1937 5.79148L14.8834 5.06738L9.56339 2.63453e-05L8.87369 0.724121L8.18399 1.44822L13.504 6.51557L14.1937 5.79148Z" fill="black"/>
</svg>
