<svg width="20" height="20" viewBox="0 0 20 20" fill="none" xmlns="http://www.w3.org/2000/svg">
    <mask id="mask0_209_249" style="mask-type:luminance" maskUnits="userSpaceOnUse" x="0" y="0" width="20" height="20">
        <path d="M0 0H20V20H0V0Z" fill="white"/>
    </mask>
    <g mask="url(#mask0_209_249)">
        <path d="M5.85804 0.0700333C4.79404 0.120033 4.06804 0.290033 3.43304 0.540033C2.77504 0.796033 2.21804 1.14003 1.66304 1.69603C1.15543 2.19606 0.762978 2.80078 0.513041 3.46803C0.267041 4.10503 0.100041 4.83203 0.0530412 5.89703C0.00604118 6.96203 -0.00395882 7.30403 0.00104118 10.019C0.00604118 12.735 0.0180412 13.075 0.0700412 14.142C0.120041 15.206 0.290041 15.932 0.540041 16.568C0.796041 17.225 1.14004 17.782 1.69604 18.337C2.19665 18.8449 2.80207 19.2374 3.47004 19.487C4.10604 19.732 4.83304 19.9 5.89804 19.947C6.96204 19.993 7.30504 20.004 10.02 19.999C12.735 19.994 13.076 19.982 14.143 19.931C15.209 19.881 15.932 19.71 16.568 19.461C17.2348 19.209 17.8385 18.8144 18.337 18.305C18.8449 17.8044 19.2374 17.199 19.487 16.531C19.733 15.895 19.9 15.168 19.947 14.104C19.993 13.037 20.004 12.696 19.999 9.98103C19.994 7.26603 19.981 6.92503 19.931 5.85903C19.88 4.79203 19.711 4.06903 19.461 3.43203C19.209 2.76531 18.8145 2.1616 18.305 1.66303C17.8041 1.15506 17.1984 0.762584 16.53 0.513033C15.895 0.269033 15.168 0.100033 14.104 0.0540333C13.039 0.00903327 12.697 -0.00296673 9.98004 0.00203327C7.26304 0.00703327 6.92504 0.0180333 5.85804 0.0700333ZM5.97504 18.148C5.00004 18.105 4.47104 17.943 4.11804 17.808C3.65104 17.628 3.31804 17.41 2.96604 17.062C2.63335 16.7399 2.37708 16.3472 2.21604 15.913C2.07904 15.561 1.91404 15.032 1.86904 14.057C1.81904 13.003 1.80904 12.687 1.80304 10.017C1.79704 7.34703 1.80704 7.03103 1.85304 5.97703C1.89504 5.00303 2.05804 4.47303 2.19304 4.12003C2.37304 3.65203 2.59004 3.32003 2.93904 2.96903C3.26121 2.63635 3.65383 2.38007 4.08804 2.21903C4.44004 2.08103 4.96904 1.91703 5.94404 1.87103C6.99804 1.82103 7.31404 1.81103 9.98404 1.80503C12.654 1.79903 12.97 1.80903 14.025 1.85503C14.999 1.89803 15.529 2.05903 15.882 2.19503C16.349 2.37503 16.682 2.59203 17.033 2.94103C17.384 3.29103 17.601 3.62303 17.783 4.09103C17.921 4.44103 18.085 4.97103 18.131 5.94603C18.181 7.00003 18.192 7.31603 18.197 9.98603C18.202 12.656 18.193 12.972 18.147 14.026C18.104 15.001 17.942 15.53 17.807 15.883C17.6473 16.318 17.392 16.7117 17.06 17.035C16.711 17.385 16.378 17.602 15.912 17.785C15.56 17.922 15.03 18.086 14.056 18.132C13.002 18.182 12.686 18.192 10.016 18.198C7.34604 18.204 7.02904 18.193 5.97504 18.148ZM14.127 4.65503C14.1273 4.81262 14.1586 4.96861 14.2192 5.1141C14.2797 5.25959 14.3683 5.39173 14.4799 5.50298C14.5915 5.61422 14.724 5.70239 14.8697 5.76245C15.0154 5.82252 15.1715 5.8533 15.329 5.85303C15.4866 5.85277 15.6426 5.82147 15.7881 5.76092C15.9336 5.70038 16.0657 5.61176 16.177 5.50015C16.2882 5.38853 16.3764 5.2561 16.4365 5.11041C16.4965 4.96471 16.5273 4.80862 16.527 4.65103C16.5265 4.33277 16.3996 4.02776 16.1742 3.80309C15.9487 3.57842 15.6433 3.4525 15.325 3.45303C15.0068 3.45356 14.7018 3.5805 14.4771 3.80592C14.2524 4.03134 14.1265 4.33677 14.127 4.65503ZM4.86504 10.01C4.86635 10.6843 5.00046 11.3517 5.25971 11.9742C5.51895 12.5966 5.89826 13.1619 6.37597 13.6377C6.85368 14.1136 7.42044 14.4907 8.04389 14.7475C8.66734 15.0043 9.33527 15.1358 10.0095 15.1345C10.6838 15.1332 11.3512 14.9991 11.9737 14.7399C12.5961 14.4806 13.1614 14.1013 13.6373 13.6236C14.1131 13.1459 14.4902 12.5791 14.747 11.9557C15.0038 11.3322 15.1354 10.6643 15.134 9.99003C15.1314 8.62828 14.5879 7.32335 13.6231 6.36232C12.6583 5.40129 11.3513 4.86288 9.98954 4.86553C8.62779 4.86819 7.32286 5.41168 6.36183 6.37646C5.4008 7.34125 4.86239 8.64828 4.86504 10.01ZM6.66704 10.006C6.66532 9.12207 7.01482 8.27362 7.63866 7.64734C8.2625 7.02106 9.10957 6.66826 9.99354 6.66653C10.8775 6.66481 11.726 7.01431 12.3522 7.63815C12.9785 8.26199 13.3313 9.10907 13.333 9.99303C13.3339 10.4307 13.2485 10.8643 13.0818 11.269C12.9151 11.6737 12.6703 12.0416 12.3614 12.3517C11.7376 12.978 10.8905 13.3308 10.0065 13.3325C9.12257 13.3343 8.27413 12.9848 7.64785 12.3609C7.02157 11.7371 6.66876 10.89 6.66704 10.006Z" fill="white"/>
    </g>
</svg>
