<svg width="20" height="20" viewBox="0 0 20 20" fill="none" xmlns="http://www.w3.org/2000/svg">
    <g clip-path="url(#clip0_211_346)">
        <path d="M17.0282 2.90436C15.1494 1.03256 12.65 0.00106812 9.98993 0C7.33582 0 4.83246 1.03058 2.94128 2.90192C1.04675 4.77646 0.00244141 7.26761 0 9.90738V9.91043V9.91226C0.000305176 11.51 0.420074 13.1218 1.21689 14.593L0.0273132 20L5.49652 18.756C6.88171 19.454 8.42728 19.8221 9.98611 19.8227H9.99008C12.6437 19.8227 15.1471 18.792 17.0386 16.9205C18.9348 15.0444 19.9796 12.5565 19.9808 9.91501C19.9815 7.29218 18.9331 4.8024 17.0282 2.90436ZM9.98993 18.2617H9.98642C8.58673 18.2611 7.19986 17.9097 5.97595 17.2452L5.71732 17.1048L2.08054 17.932L2.87048 14.3419L2.7182 14.0793C1.96106 12.7736 1.56097 11.3322 1.56097 9.91058C1.56387 5.30899 5.3447 1.56097 9.98962 1.56097C12.2336 1.56189 14.342 2.43179 15.9265 4.01016C17.5349 5.61295 18.4204 7.70981 18.4196 9.91455C18.4178 14.5172 14.6362 18.2617 9.98993 18.2617Z" fill="white"/>
        <path d="M7.27164 5.54199H6.83371C6.68127 5.54199 6.43378 5.59906 6.22443 5.82687C6.01492 6.05484 5.42456 6.60584 5.42456 7.72644C5.42456 8.84705 6.2435 9.92981 6.35764 10.0819C6.47192 10.2339 7.93845 12.607 10.2611 13.5199C12.1915 14.2786 12.5844 14.1277 13.0033 14.0897C13.4223 14.0518 14.3554 13.5388 14.5458 13.0071C14.7362 12.4753 14.7362 12.0193 14.6792 11.9241C14.6219 11.8292 14.4695 11.7723 14.2411 11.6585C14.0125 11.5445 12.8925 10.9842 12.683 10.9081C12.4735 10.8322 12.3212 10.7942 12.1688 11.0223C12.0164 11.25 11.5676 11.7767 11.4342 11.9287C11.301 12.0808 11.1677 12.0999 10.9391 11.9859C10.7105 11.8716 9.98206 11.6269 9.1091 10.8511C8.42963 10.2473 7.95813 9.47739 7.82477 9.24942C7.69156 9.02161 7.81058 8.89832 7.92517 8.78464C8.02786 8.68271 8.16656 8.54324 8.28085 8.41034C8.39499 8.27728 8.42749 8.18237 8.50378 8.0304C8.57993 7.87842 8.54178 7.74536 8.48471 7.63153C8.42749 7.51755 7.98895 6.3913 7.78571 5.94086H7.78586C7.61465 5.56152 7.43445 5.54871 7.27164 5.54199Z" fill="white"/>
    </g>
    <defs>
        <clipPath id="clip0_211_346">
            <rect width="20" height="20" fill="white"/>
        </clipPath>
    </defs>
</svg>
