<svg width="26" height="20" viewBox="0 0 26 20" fill="none" xmlns="http://www.w3.org/2000/svg">
    <mask id="mask0_209_255" style="mask-type:luminance" maskUnits="userSpaceOnUse" x="0" y="1" width="26" height="18">
        <path d="M0 1.03418H26V18.9652H0V1.03418Z" fill="white"/>
    </mask>
    <g mask="url(#mask0_209_255)">
        <path d="M21.452 1.18642C18.5892 1.08139 15.7247 1.03105 12.86 1.03542C9.99599 1.03542 7.21299 1.09042 4.51599 1.18642C3.3997 1.22808 2.34302 1.70082 1.568 2.5053C0.792989 3.30978 0.359985 4.38335 0.359985 5.50042V14.5004C0.360041 15.6185 0.793874 16.6929 1.57016 17.4976C2.34645 18.3022 3.40464 18.7743 4.52199 18.8144C10.1652 19.0159 15.8138 19.0159 21.457 18.8144C22.5738 18.774 23.6313 18.3017 24.4067 17.497C25.1822 16.6922 25.615 15.6179 25.614 14.5004V5.50042C25.6139 4.38252 25.1802 3.30823 24.4042 2.50362C23.6281 1.699 22.5692 1.22681 21.452 1.18642Z" fill="white"/>
        <path d="M10.4449 6.21289V13.8499L17.0159 10.0309L10.4449 6.21289Z" fill="#08080A"/>
    </g>
</svg>
