<svg width="115" height="41" viewBox="0 0 115 41" fill="none" xmlns="http://www.w3.org/2000/svg">
    <g filter="url(#filter0_d_34_31)">
        <path d="M52.3297 5.26788C52.3297 5.09849 52.3242 4.95232 52.3311 4.8067C52.3411 4.59586 52.3665 4.5569 52.584 4.51076C52.9617 4.43035 53.3425 4.36403 53.7224 4.29385C55.3593 3.991 56.9962 3.68843 58.6337 3.38724C58.9866 3.3223 59.3403 3.26317 59.6942 3.20431C59.7462 3.19575 59.8009 3.20321 59.8951 3.20321C59.8951 3.35491 59.8957 3.49887 59.8951 3.64311C59.8863 5.57708 59.8758 7.51078 59.8689 9.44475C59.8669 9.99711 59.8727 10.5498 59.881 11.1021C59.8832 11.2444 59.9081 11.3867 59.926 11.5633C60.0487 11.5058 60.1305 11.4688 60.2115 11.4293C60.9175 11.0842 61.65 10.8007 62.427 10.6854C63.5248 10.5224 64.6282 10.4912 65.7119 10.8029C66.8487 11.13 67.7932 11.7705 68.5837 12.6363C69.8014 13.9701 70.5091 15.5584 70.7144 17.3373C70.9363 19.2602 70.8852 21.1796 70.2507 23.0422C69.6636 24.7665 68.7078 26.2332 67.243 27.3412C66.1673 28.155 64.9504 28.669 63.637 28.9362C63.0452 29.0566 62.4342 29.1119 61.8296 29.1324C61.0026 29.1605 60.1703 29.1719 59.3466 29.1086C58.4494 29.0395 57.558 28.8864 56.6669 28.7505C56.149 28.6714 55.637 28.5548 55.1228 28.4543C55.0689 28.4438 55.0153 28.4297 54.9625 28.4136C54.7511 28.349 54.7459 28.3484 54.7467 28.1288C54.7498 27.4567 54.7556 26.7845 54.7636 26.1124C54.7777 24.9248 54.8047 23.7372 54.807 22.5496C54.8122 19.704 54.8103 16.8584 54.8025 14.0132C54.7984 12.4663 54.7832 10.9192 54.7603 9.37235C54.7511 8.76555 54.7224 8.1582 54.6721 7.55361C54.6489 7.27259 54.5674 6.9935 54.4872 6.72077C54.2518 5.92027 53.692 5.48866 52.8854 5.35243C52.7136 5.32342 52.5409 5.30021 52.3297 5.26788ZM59.8752 12.7957C59.8752 12.9529 59.8752 13.0897 59.8752 13.2268C59.8727 16.0521 59.8647 18.8775 59.87 21.7026C59.873 23.3407 59.8951 24.9784 59.9147 26.6164C59.9194 27.0008 59.949 27.3849 59.9681 27.7842C60.0982 27.8093 60.204 27.8455 60.3104 27.8477C60.7144 27.856 61.1186 27.8541 61.5229 27.8549C62.0043 27.8557 62.4171 27.6654 62.7954 27.3882C63.3715 26.9663 63.7862 26.4078 64.1228 25.7869C64.7031 24.7156 65.0305 23.5606 65.2333 22.3669C65.4281 21.2205 65.4911 20.0654 65.4566 18.9029C65.424 17.8035 65.2858 16.7222 64.9551 15.6703C64.7213 14.927 64.3933 14.2317 63.8899 13.6291C63.3707 13.0076 62.742 12.5688 61.9144 12.4835C61.2225 12.4119 60.5635 12.571 59.8752 12.7957Z" fill="url(#paint0_linear_34_31)" shape-rendering="crispEdges"/>
        <path d="M18.9037 20.4725C18.6249 20.4725 18.3602 20.4767 18.0957 20.4709C17.9526 20.4676 17.902 20.3681 17.8658 20.2393C17.7442 19.8061 17.6298 19.3689 17.4768 18.9464C17.3007 18.4606 17.0651 18.0042 16.6893 17.6306C16.4256 17.3684 16.1181 17.1912 15.7583 17.1241C15.3883 17.055 15.0139 16.9953 14.6387 16.971C13.8672 16.9213 13.0941 16.8975 12.3215 16.8641C12.3041 16.8632 12.2864 16.8726 12.2295 16.8873C12.2295 16.9743 12.227 17.0719 12.2297 17.1691C12.2687 18.5493 12.2922 19.9304 12.353 21.3098C12.4002 22.3847 12.4809 23.459 12.5729 24.5311C12.6193 25.0711 12.7205 25.6074 12.9366 26.112C13.0051 26.272 13.0869 26.427 13.1723 26.5792C13.4044 26.9932 13.7503 27.2742 14.2104 27.3869C14.7191 27.5118 15.2344 27.6102 15.7473 27.7185C15.8733 27.745 16.0004 27.766 16.1499 27.7937C16.1673 28.0741 16.1847 28.3552 16.2021 28.6326C15.9899 28.6906 3.66519 28.7105 3.2275 28.6555C3.17998 28.4065 3.20098 28.1526 3.22778 27.8992C3.24187 27.7649 3.36566 27.7619 3.45851 27.7412C3.81745 27.661 4.17583 27.5726 4.53919 27.5187C5.41844 27.3883 5.94981 26.8627 6.24354 26.0589C6.47233 25.4331 6.59612 24.7845 6.65138 24.1208C6.80889 22.2288 6.83348 20.3322 6.83652 18.4358C6.84039 16.0329 6.8321 13.6297 6.79977 11.2268C6.7854 10.1602 6.72599 9.09198 6.6337 8.02925C6.58728 7.49346 6.45437 6.95823 6.30294 6.43957C6.01751 5.46084 5.31952 4.94108 4.3267 4.79629C3.97329 4.7449 3.6185 4.70345 3.24795 4.65564V3.66448H23.3502C23.4334 5.96734 23.445 8.2912 23.4856 10.6308C23.1358 10.7643 22.7954 10.8903 22.408 10.9464C22.3394 10.7949 22.2737 10.6554 22.2126 10.5137C21.9286 9.85546 21.6663 9.18676 21.3568 8.54044C20.9871 7.76868 20.4638 7.10247 19.8136 6.54375C18.9974 5.84217 18.0504 5.43874 16.9708 5.41857C15.5348 5.39176 14.0979 5.40088 12.6613 5.39563C12.6169 5.39563 12.5721 5.4042 12.5317 5.40834C12.4149 5.88914 12.1921 15.1437 12.2894 15.5468C12.6321 15.5468 12.9797 15.5626 13.3253 15.5435C13.9686 15.5079 14.6099 15.4352 15.2532 15.4092C15.983 15.3799 16.5284 15.0403 16.9612 14.4805C17.4229 13.8834 17.658 13.1907 17.8095 12.4631C17.8374 12.3288 17.8647 12.1942 17.899 12.0271C18.2264 12.0088 18.5528 11.9906 18.8744 11.9726C18.9371 12.1887 18.9623 19.8826 18.9037 20.4725Z" fill="url(#paint1_linear_34_31)" shape-rendering="crispEdges"/>
        <path d="M38.4871 19.6383C38.5108 20.9652 38.3553 22.2639 37.8819 23.5134C36.7499 26.5007 34.6595 28.3883 31.5001 29.0001C29.8612 29.3175 28.2185 29.2719 26.6145 28.7574C24.1734 27.9749 22.5647 26.328 21.6957 23.9401C21.0911 22.2788 20.9303 20.5618 21.0585 18.8035C21.143 17.6438 21.3895 16.5302 21.8479 15.4647C23.0063 12.772 25.0472 11.1445 27.8894 10.5062C28.2812 10.418 28.6921 10.386 29.095 10.3804C29.8397 10.3699 30.5863 10.3735 31.3296 10.4164C32.3567 10.4758 33.3075 10.8256 34.2105 11.2989C35.7974 12.1306 36.9129 13.4009 37.6203 15.037C38.19 16.3545 38.4716 17.7342 38.4868 19.1685C38.4885 19.3249 38.4871 19.4816 38.4871 19.6383ZM26.3801 19.4319C26.3931 19.4324 26.4061 19.4333 26.4191 19.4338C26.4191 19.48 26.4183 19.5258 26.4191 19.572C26.4418 20.8406 26.413 22.1116 26.6573 23.3672C26.835 24.2808 27.0444 25.1841 27.4354 26.0337C27.6835 26.5726 27.9969 27.0694 28.4517 27.4623C29.3011 28.1957 30.5086 28.1885 31.3528 27.4485C31.7927 27.063 32.0765 26.5728 32.2959 26.0407C32.7178 25.0183 32.8908 23.939 33.0107 22.8489C33.1375 21.6944 33.1558 20.5352 33.1403 19.3758C33.121 17.9187 32.9886 16.4736 32.6244 15.058C32.4058 14.2078 32.1011 13.3921 31.5984 12.662C31.3492 12.3 31.0419 12.0033 30.6559 11.7891C29.7709 11.2975 28.7664 11.4282 28.0372 12.1329C27.7628 12.3981 27.5556 12.7123 27.3873 13.0525C26.8996 14.0395 26.6631 15.1008 26.5578 16.1823C26.4525 17.2611 26.436 18.3484 26.3801 19.4319Z" fill="url(#paint2_linear_34_31)" shape-rendering="crispEdges"/>
        <path d="M87.5912 25.285C87.6973 25.4099 87.7902 25.5116 87.8745 25.6196C88.0461 25.8393 88.0463 25.8677 87.8684 26.0963C87.1897 26.9689 86.3356 27.6318 85.3702 28.1532C83.9593 28.915 82.4401 29.2079 80.8457 29.1717C79.3138 29.1369 77.8839 28.7553 76.5675 27.9634C75.3757 27.2466 74.4282 26.2878 73.7178 25.0935C73.0643 23.9951 72.6592 22.8058 72.4862 21.545C72.3508 20.5571 72.3663 19.5599 72.4533 18.5671C72.578 17.1451 72.9883 15.8041 73.6921 14.564C74.9231 12.3946 76.7537 10.9978 79.208 10.517C80.5293 10.2581 81.8761 10.2048 83.206 10.5662C85.192 11.1058 86.539 12.375 87.3826 14.2153C87.82 15.1694 88.0389 16.1857 88.1652 17.2219C88.2306 17.7599 88.2685 18.3015 88.3224 18.881C87.9018 18.8962 87.5097 18.887 87.1185 18.8884C86.7225 18.8901 86.3262 18.8887 85.9303 18.8887H78.8015C78.408 18.8887 78.0143 18.8887 77.6128 18.8887C77.6128 19.1297 77.6053 19.3388 77.6142 19.5475C77.6617 20.6748 77.8192 21.7829 78.2298 22.8426C78.6586 23.9492 79.3033 24.897 80.2953 25.5754C81.0916 26.12 81.9626 26.4605 82.9383 26.5199C83.6023 26.5602 84.2616 26.5514 84.9223 26.4734C85.7098 26.3806 86.4053 26.0606 87.0613 25.6362C87.2309 25.5265 87.3978 25.4135 87.5912 25.285ZM83.0944 17.5629C83.0944 17.4333 83.1035 17.3236 83.093 17.2161C83.0112 16.3921 82.9419 15.5662 82.8358 14.7453C82.7446 14.0412 82.5785 13.3521 82.2685 12.7057C82.124 12.4043 81.9535 12.1197 81.702 11.8967C81.2251 11.4736 80.6896 11.3584 80.0925 11.6226C79.7487 11.7748 79.468 12.0086 79.229 12.2951C78.8352 12.7674 78.5614 13.3073 78.3414 13.8771C77.8966 15.0304 77.7368 16.2435 77.5951 17.4601C77.5921 17.485 77.6037 17.5118 77.6103 17.5477C79.1569 17.5682 80.7006 17.5914 82.2442 17.6066C82.5177 17.6093 82.7918 17.5795 83.0944 17.5629Z" fill="url(#paint3_linear_34_31)" shape-rendering="crispEdges"/>
        <path d="M102.001 15.9166C101.796 15.9818 101.571 16.0537 101.308 16.1377C101.232 15.9768 101.149 15.8271 101.089 15.6685C100.825 14.9796 100.519 14.3117 100.149 13.6732C99.8078 13.0832 99.3762 12.5753 98.8003 12.2006C98.0681 11.724 97.2609 11.5424 96.4018 11.6613C95.6226 11.7687 95.0296 12.1772 94.6881 12.9011C94.3551 13.6068 94.2258 14.336 94.519 15.0912C94.6754 15.4941 94.9404 15.8215 95.2615 16.1067C95.7061 16.5013 96.2095 16.808 96.7431 17.0592C97.5582 17.443 98.3875 17.797 99.2046 18.1766C99.6212 18.3703 100.032 18.5798 100.433 18.8042C101.016 19.1308 101.513 19.566 101.956 20.0664C102.426 20.5972 102.723 21.2065 102.833 21.9081C102.938 22.5757 102.951 23.248 102.898 23.918C102.823 24.8879 102.439 25.7467 101.88 26.5342C101.09 27.6464 100.002 28.3265 98.7193 28.7277C97.5831 29.0833 96.4159 29.2007 95.2314 29.1781C93.5093 29.1449 91.8216 28.8835 90.1849 28.3488C89.4228 28.0999 89.5969 28.2748 89.5552 27.5036C89.5079 26.631 89.5096 25.7556 89.4894 24.8816C89.4759 24.2927 89.4615 23.7039 89.4483 23.1148C89.4466 23.0418 89.4483 22.9689 89.4483 22.8777C89.6851 22.7984 89.918 22.7205 90.1808 22.6326C90.2515 22.7788 90.3258 22.9131 90.383 23.054C90.6533 23.7194 90.942 24.3753 91.314 24.9915C91.5908 25.45 91.9045 25.8807 92.28 26.2643C93.1164 27.1178 94.1222 27.5591 95.3267 27.5005C95.6196 27.4864 95.9202 27.4771 96.201 27.403C96.9467 27.2065 97.4585 26.7042 97.8351 26.0512C98.0324 25.7091 98.1415 25.3436 98.1131 24.9432C98.1059 24.8423 98.1056 24.7401 98.1131 24.6395C98.1631 23.9689 97.868 23.4486 97.4038 23.0015C97.0622 22.6727 96.6627 22.4278 96.2468 22.2076C95.4969 21.8105 94.7041 21.5143 93.9152 21.2076C93.1324 20.9034 92.3833 20.5364 91.7008 20.039C90.5212 19.1797 89.9139 18.0142 89.8323 16.5682C89.8028 16.044 89.8033 15.5176 89.9042 14.9992C90.1675 13.6439 90.8953 12.5784 91.9791 11.748C92.9199 11.0271 93.9984 10.6234 95.1592 10.43C95.889 10.3084 96.6259 10.302 97.3618 10.3554C98.031 10.404 98.7033 10.4449 99.3662 10.5435C100.158 10.6613 100.924 10.9008 101.685 11.1517C101.865 11.2114 101.917 11.3247 101.921 11.5029C101.943 12.5245 101.977 13.5455 101.999 14.5671C102.008 15.0072 102.001 15.4474 102.001 15.9166Z" fill="url(#paint4_linear_34_31)" shape-rendering="crispEdges"/>
        <path d="M49.2957 27.7851V28.6602H38.7013V27.7837C38.793 27.7652 38.8884 27.7437 38.9845 27.7271C39.1837 27.6931 39.3852 27.6694 39.583 27.6285C40.2528 27.4892 40.6587 27.0614 40.8629 26.4273C41.0169 25.9498 41.055 25.4516 41.0749 24.9559C41.1945 21.9923 41.1525 19.0271 41.1246 16.0628C41.1183 15.3833 41.0768 14.7033 40.916 14.0351C40.7281 13.2548 40.2407 12.8168 39.4595 12.6867C39.2691 12.6549 39.0785 12.6245 38.8878 12.5938C38.759 12.5731 38.6936 12.4963 38.6916 12.3678C38.6894 12.2039 38.6911 12.0398 38.6911 11.8527C41.2211 11.3424 43.7245 10.8373 46.2658 10.3244C46.3145 11.6496 46.2238 12.9492 46.2633 14.2711C46.3026 14.2092 46.346 14.1492 46.3805 14.0849C46.7856 13.3283 47.2288 12.5963 47.8221 11.9693C48.593 11.1545 49.5051 10.5756 50.6173 10.3462C51.4233 10.1802 52.2106 10.2432 52.9732 10.5576C53.1155 10.6165 53.2493 10.6966 53.4208 10.7842C52.8187 12.4023 52.2241 14 51.6184 15.6278C51.4874 15.5687 51.3857 15.5325 51.2935 15.4794C50.3385 14.9304 49.3103 14.7091 48.2158 14.7997C47.6488 14.8467 47.1177 15.0196 46.6228 15.302C46.367 15.4479 46.1992 15.643 46.1976 15.9589C46.1954 16.3728 46.1674 16.7867 46.1672 17.2009C46.1658 18.9415 46.1628 20.682 46.1755 22.4223C46.1838 23.5729 46.2255 24.7232 46.3907 25.8641C46.4288 26.1264 46.4866 26.3914 46.5781 26.6395C46.7773 27.1808 47.1641 27.5268 47.7452 27.613C48.136 27.671 48.5314 27.6995 48.9246 27.742C49.0428 27.7547 49.1605 27.7691 49.2957 27.7851Z" fill="url(#paint5_linear_34_31)" shape-rendering="crispEdges"/>
    </g>
    <defs>
        <filter id="filter0_d_34_31" x="-0.000781059" y="0.000195503" width="114.129" height="40.4" filterUnits="userSpaceOnUse" color-interpolation-filters="sRGB">
            <feFlood flood-opacity="0" result="BackgroundImageFix"/>
            <feColorMatrix in="SourceAlpha" type="matrix" values="0 0 0 0 0 0 0 0 0 0 0 0 0 0 0 0 0 0 127 0" result="hardAlpha"/>
            <feOffset dx="4" dy="4"/>
            <feGaussianBlur stdDeviation="3.6"/>
            <feComposite in2="hardAlpha" operator="out"/>
            <feColorMatrix type="matrix" values="0 0 0 0 0.823529 0 0 0 0 0.678431 0 0 0 0 0.458824 0 0 0 0.12 0"/>
            <feBlend mode="normal" in2="BackgroundImageFix" result="effect1_dropShadow_34_31"/>
            <feBlend mode="normal" in="SourceGraphic" in2="effect1_dropShadow_34_31" result="shape"/>
        </filter>
        <linearGradient id="paint0_linear_34_31" x1="87.6989" y1="31.0549" x2="59.2549" y2="-29.0649" gradientUnits="userSpaceOnUse">
            <stop stop-color="#AD8D55" stop-opacity="0.9"/>
            <stop offset="0.259615" stop-color="#D2AD75"/>
            <stop offset="0.466346" stop-color="#E8CDA0"/>
            <stop offset="0.8125" stop-color="#D2AD75"/>
            <stop offset="1" stop-color="#AD8D55" stop-opacity="0.9"/>
        </linearGradient>
        <linearGradient id="paint1_linear_34_31" x1="87.6989" y1="31.0549" x2="59.2549" y2="-29.0649" gradientUnits="userSpaceOnUse">
            <stop stop-color="#AD8D55" stop-opacity="0.9"/>
            <stop offset="0.259615" stop-color="#D2AD75"/>
            <stop offset="0.466346" stop-color="#E8CDA0"/>
            <stop offset="0.8125" stop-color="#D2AD75"/>
            <stop offset="1" stop-color="#AD8D55" stop-opacity="0.9"/>
        </linearGradient>
        <linearGradient id="paint2_linear_34_31" x1="87.6989" y1="31.0549" x2="59.2549" y2="-29.0649" gradientUnits="userSpaceOnUse">
            <stop stop-color="#AD8D55" stop-opacity="0.9"/>
            <stop offset="0.259615" stop-color="#D2AD75"/>
            <stop offset="0.466346" stop-color="#E8CDA0"/>
            <stop offset="0.8125" stop-color="#D2AD75"/>
            <stop offset="1" stop-color="#AD8D55" stop-opacity="0.9"/>
        </linearGradient>
        <linearGradient id="paint3_linear_34_31" x1="87.6989" y1="31.0549" x2="59.2549" y2="-29.0649" gradientUnits="userSpaceOnUse">
            <stop stop-color="#AD8D55" stop-opacity="0.9"/>
            <stop offset="0.259615" stop-color="#D2AD75"/>
            <stop offset="0.466346" stop-color="#E8CDA0"/>
            <stop offset="0.8125" stop-color="#D2AD75"/>
            <stop offset="1" stop-color="#AD8D55" stop-opacity="0.9"/>
        </linearGradient>
        <linearGradient id="paint4_linear_34_31" x1="87.6989" y1="31.0549" x2="59.2549" y2="-29.0649" gradientUnits="userSpaceOnUse">
            <stop stop-color="#AD8D55" stop-opacity="0.9"/>
            <stop offset="0.259615" stop-color="#D2AD75"/>
            <stop offset="0.466346" stop-color="#E8CDA0"/>
            <stop offset="0.8125" stop-color="#D2AD75"/>
            <stop offset="1" stop-color="#AD8D55" stop-opacity="0.9"/>
        </linearGradient>
        <linearGradient id="paint5_linear_34_31" x1="87.6989" y1="31.0549" x2="59.2549" y2="-29.0649" gradientUnits="userSpaceOnUse">
            <stop stop-color="#AD8D55" stop-opacity="0.9"/>
            <stop offset="0.259615" stop-color="#D2AD75"/>
            <stop offset="0.466346" stop-color="#E8CDA0"/>
            <stop offset="0.8125" stop-color="#D2AD75"/>
            <stop offset="1" stop-color="#AD8D55" stop-opacity="0.9"/>
        </linearGradient>
    </defs>
</svg>
