<svg width="204" height="42" viewBox="0 0 204 42" fill="none" xmlns="http://www.w3.org/2000/svg">
    <path d="M174.491 19.5547C174.523 19.5547 174.586 19.5859 174.68 19.5859C174.775 19.5859 174.775 19.6482 174.775 19.6482L174.806 19.7729C174.806 19.7729 174.932 19.804 174.964 19.8663C175.027 19.9287 174.932 19.9287 174.901 19.9287C174.869 19.9598 174.775 19.9287 174.775 19.9287L174.838 20.0533L174.712 20.1157L174.523 20.0533L174.586 20.1468L174.523 20.2092C174.523 20.2092 174.239 20.1157 174.239 20.0845C174.239 20.0533 174.176 20.0222 174.176 20.0222L173.956 20.0533L173.987 19.9598L174.208 19.8975C174.208 19.8975 174.365 19.8352 174.397 19.8352C174.428 19.8352 174.239 19.7729 174.239 19.7417C174.239 19.7105 174.176 19.6794 174.176 19.6794C174.176 19.6794 174.145 19.6794 174.113 19.6794C174.05 19.7105 173.987 19.7417 173.924 19.7729L173.987 19.804L173.861 19.9287C173.861 19.9287 173.83 19.9598 173.767 19.991C173.672 20.0222 173.609 19.991 173.546 20.0222C173.546 20.0222 173.546 20.0222 173.515 20.0222C173.483 20.0533 173.452 20.0533 173.389 20.0845L173.452 20.0533H173.546L173.609 20.1157L173.672 20.1468C173.672 20.1468 173.641 20.178 173.578 20.178C173.515 20.178 173.452 20.178 173.42 20.178L173.294 20.2092L173.326 20.1468C173.326 20.1468 173.294 20.1468 173.263 20.1468C173.011 20.3026 172.759 20.4896 172.506 20.6766C172.506 20.7078 172.506 20.739 172.506 20.739H172.632L172.822 20.8013L172.885 20.8324H173.042L173.011 20.8948L172.979 20.9883V21.0818L173.042 21.1129L173.168 21.0194V20.8948C173.168 20.8948 173.294 20.8636 173.357 20.8324C173.42 20.8013 173.515 20.7078 173.515 20.7078C173.515 20.6766 173.483 20.6143 173.483 20.6143C173.483 20.6143 173.578 20.552 173.609 20.5208C173.641 20.4896 173.641 20.3961 173.641 20.3961C173.641 20.3961 173.609 20.3338 173.704 20.3026C173.798 20.3026 173.893 20.3026 173.924 20.3026C173.956 20.3026 173.987 20.2715 174.05 20.3026C174.082 20.3026 174.113 20.3338 174.113 20.365H174.208L174.145 20.4585L174.05 20.5208L174.145 20.552L174.208 20.5831L174.365 20.4896L174.428 20.4273V20.4585C174.775 20.0845 175.153 19.7417 175.594 19.4612L175.499 19.3054H175.184C175.058 19.3366 174.775 19.43 174.491 19.5547ZM172.475 21.7674L172.538 21.7985L172.759 21.7674L172.948 21.705L173.011 21.6115L172.853 21.6427L172.79 21.705H172.759L172.538 21.7362L172.475 21.7674ZM172.538 21.2999L172.443 21.2687C172.443 21.2687 172.349 21.2687 172.349 21.2999C172.317 21.3311 172.286 21.3311 172.254 21.3622C172.223 21.3622 172.097 21.4246 172.097 21.4246L172.128 21.4557L172.254 21.4246L172.412 21.3934L172.475 21.4557L172.601 21.4246L172.696 21.3934L172.664 21.3311L172.538 21.2999ZM172.538 21.4869H172.443L172.286 21.5804L172.191 21.7674H172.286L172.349 21.6427L172.475 21.5181H172.569L172.443 21.6115H172.538L172.601 21.5804V21.6427L172.696 21.6115L172.759 21.4869L172.696 21.4557L172.538 21.4869ZM174.082 21.0818C174.019 21.0818 174.019 21.0818 173.987 21.1129C173.956 21.1441 173.924 21.1752 173.924 21.1752L173.83 21.2376H173.861L174.05 21.2064C174.05 21.1753 174.05 21.1129 174.082 21.0818ZM173.42 28.3119C173.42 28.2495 173.389 28.1561 173.357 28.1249C173.326 28.0937 173.326 28.0626 173.294 28.0314L173.263 27.9691C173.263 27.9691 173.263 28.0002 173.231 27.9691C173.2 27.9379 173.137 27.8756 173.137 27.8756V27.8132L173.105 27.6574V27.5951V27.3458L173.011 27.1588V27.0653V26.9718L173.074 26.8472L173.042 26.816V26.7848V26.7225C173.042 26.7225 173.042 26.6602 173.042 26.629C173.042 26.629 173.042 26.5978 173.042 26.5667C172.475 26.5043 171.908 26.442 171.309 26.3485C171.813 27.0653 172.506 27.7509 173.42 28.3119ZM170.742 24.1982C170.742 24.8838 170.931 25.5071 171.246 26.0992C171.813 26.1927 172.412 26.255 173.042 26.3485V26.2239C173.042 26.2239 173.011 26.1927 172.979 26.1615C172.948 26.1304 172.979 26.1615 172.948 26.1304C172.916 26.0992 172.79 26.0369 172.79 26.0369C172.79 26.0369 172.664 25.9746 172.632 25.9434C172.601 25.9122 172.538 25.9122 172.506 25.8811C172.475 25.8499 172.475 25.8187 172.475 25.8187C172.475 25.8187 172.317 25.5694 172.286 25.5383C172.254 25.5071 172.223 25.4759 172.223 25.4448C172.223 25.4136 172.128 25.3513 172.128 25.3201L172.034 25.2578C172.034 25.2578 172.002 25.1954 172.002 25.1643C172.002 25.1331 172.034 25.102 172.065 25.0708C172.065 25.0396 172.065 25.0085 172.065 25.0085C172.065 24.9773 172.065 24.9773 172.065 24.9461C172.065 24.915 172.065 24.915 172.065 24.8838C172.065 24.8526 172.223 24.728 172.223 24.728C172.223 24.6968 172.286 24.6657 172.317 24.6345C172.349 24.6033 172.38 24.541 172.38 24.541C172.38 24.5098 172.412 24.4163 172.38 24.3852C172.349 24.354 172.286 24.2293 172.286 24.2293L172.223 24.167H172.16L172.128 24.1982V24.2293L172.097 24.2605H172.034L171.971 24.2293L171.908 24.1982L171.845 24.1359L171.687 24.1047L171.656 24.0112L171.561 23.9177L171.53 23.8865H171.467H171.404L171.309 23.8554H171.246L171.183 23.7931L171.057 23.6996H170.963C170.963 23.6996 170.9 23.7307 170.868 23.7307H170.805C170.742 23.8554 170.742 24.0112 170.742 24.1982ZM173.42 21.7674C173.515 21.7674 173.609 21.7674 173.735 21.7674C173.767 21.6739 173.83 21.5804 173.861 21.4869L173.546 21.6427C173.546 21.6115 173.42 21.7674 173.42 21.7674ZM179.563 20.0533C179.626 20.0533 179.626 20.0533 179.626 20.0533V19.991H179.721V19.9598L179.815 19.9287C179.784 19.8975 179.784 19.8663 179.752 19.8352L179.658 19.8975C179.658 19.8975 179.532 19.8663 179.5 19.8663L179.406 19.8975L179.437 19.9598C179.469 19.991 179.532 20.0533 179.563 20.0533ZM180.288 21.7674C180.193 21.7362 180.099 21.7362 180.004 21.7362L180.13 21.7674H180.288ZM179.563 21.7362C179.563 21.7362 179.595 21.7362 179.626 21.7362C179.563 21.7362 179.5 21.7362 179.437 21.7362V21.7674H179.563M180.036 22.7335C179.973 22.7023 179.973 22.7646 179.973 22.7646L180.13 23.0139L180.162 23.1074L180.256 23.2321C180.256 23.2321 180.288 23.2944 180.288 23.3256C180.288 23.3568 180.351 23.4502 180.351 23.4502C180.351 23.4502 180.351 23.5126 180.382 23.5437C180.414 23.5749 180.54 23.7619 180.571 23.7931C180.603 23.8242 180.634 23.8242 180.729 23.8554C180.823 23.9177 180.823 23.9489 180.823 23.9489V23.98L180.918 24.0424C180.918 23.98 180.918 23.9489 180.918 23.8865H180.886C180.823 23.8865 180.823 23.8554 180.823 23.8242C180.823 23.7931 180.76 23.7307 180.76 23.6684C180.76 23.6061 180.697 23.5126 180.697 23.5126C180.697 23.5126 180.634 23.4814 180.634 23.4191C180.634 23.3879 180.571 23.3568 180.54 23.3256C180.508 23.2944 180.477 23.2944 180.477 23.2321C180.477 23.1698 180.445 23.1386 180.414 23.0763C180.382 23.0139 180.319 23.0139 180.319 23.0139C180.319 23.0139 180.319 22.9828 180.288 22.9516C180.225 22.8581 180.193 22.7958 180.13 22.7023C180.067 22.7335 180.036 22.7335 180.036 22.7335ZM181.138 21.8609L181.17 21.8297L181.138 21.7985C181.012 21.7985 180.918 21.7985 180.792 21.7674L180.823 21.8297L180.886 21.8609L180.823 21.892V22.0167L180.855 22.1102C180.855 22.1102 180.886 22.1102 180.918 22.1102L180.949 22.1413C180.949 22.1413 181.012 22.1725 181.044 22.1725C181.075 22.1725 181.075 22.1725 181.075 22.1725C181.107 22.1725 181.201 22.1413 181.201 22.1413L181.17 22.079V22.0167V21.9855L181.138 21.9544V21.9232V21.892H181.107V21.8609V21.8297C181.044 21.8297 181.138 21.8609 181.138 21.8609ZM185.612 22.4218C185.643 22.4218 185.675 22.453 185.675 22.453C185.675 22.453 185.706 22.5153 185.738 22.5153C185.769 22.5153 185.801 22.5776 185.801 22.5776L185.832 22.6088H185.738H185.769L185.801 22.6711V22.7023H185.832C185.832 22.7023 185.832 22.7335 185.801 22.7958C185.769 22.8581 185.801 22.9516 185.738 23.0451C185.832 23.3879 185.895 23.7307 185.895 24.1047L185.927 24.0735V24.0424L185.958 24.0112V24.0735L185.927 24.1359L185.864 24.167V24.2293C185.864 24.2917 185.864 24.354 185.864 24.4163H185.895L185.958 24.4475H185.895V24.4787H185.864C185.864 24.5098 185.864 24.541 185.864 24.5722V24.6033L185.927 24.6345V24.6656H185.864L185.832 24.728V24.7903L185.801 24.8215C185.769 24.9773 185.738 25.1331 185.706 25.2578C185.738 25.2578 185.769 25.2578 185.801 25.2578C185.864 25.2578 185.895 25.2578 185.927 25.2578C185.958 25.2578 186.053 25.2578 186.084 25.2578C186.116 25.2578 186.116 25.2889 186.116 25.2889L185.99 25.3201L185.706 25.3513H185.675C185.612 25.6006 185.517 25.8187 185.391 26.068C185.643 26.0369 185.864 25.9746 186.084 25.9434L186.147 25.9122C186.147 25.9122 186.179 25.8499 186.242 25.8187C186.305 25.7876 186.336 25.7564 186.368 25.7252C186.399 25.6941 186.462 25.6941 186.494 25.6941C186.525 25.6941 186.525 25.7564 186.525 25.7564L186.62 25.7252C186.62 25.7252 186.588 25.7252 186.62 25.6941C186.651 25.6629 186.714 25.5694 186.714 25.5694H186.84V25.5071L187.124 25.5694L187.061 25.6629L186.998 25.7252L187.061 25.7876C187.187 25.7564 187.281 25.7252 187.407 25.6941V25.6006L187.502 25.4448L187.533 25.4759L187.596 25.6317C187.754 25.5694 187.911 25.5383 188.037 25.5071C188.226 25.102 188.321 24.6657 188.321 24.2605C188.321 23.7931 188.226 23.3256 188.006 22.9205C187.533 22.7646 187.061 22.64 186.588 22.5465V22.5776H186.557L186.525 22.5153C186.494 22.5153 186.494 22.5153 186.494 22.5153H186.399L186.336 22.5465L186.273 22.5153L186.305 22.4841C186.242 22.4841 186.179 22.453 186.084 22.453C186.084 22.453 186.084 22.4841 186.053 22.4841C186.053 22.5153 185.927 22.5153 185.927 22.5153L185.895 22.4841C185.895 22.4841 185.895 22.453 185.895 22.4218C185.769 22.3907 185.643 22.3907 185.549 22.3595L185.486 22.4218C185.549 22.3907 185.58 22.3907 185.612 22.4218ZM186.147 25.4759L186.084 25.4448L186.147 25.4136L186.21 25.4759H186.147ZM188.1 25.0708H188.226L188.352 25.0085L188.321 25.0708L188.258 25.102L188.1 25.0708ZM186.966 24.7591L187.124 24.8215V24.8526L187.187 24.915L187.218 24.9461L187.313 24.8838L187.407 24.8215L187.439 24.8526L187.628 24.8838L187.848 24.9773L187.943 25.0396V25.0708L188.1 25.102V25.1643L188.037 25.1954H188.069L188.132 25.2889L188.195 25.3201L188.226 25.3824L188.163 25.3513L188.037 25.3201L187.974 25.1954L187.88 25.1643L187.785 25.2266L187.817 25.2578L187.754 25.2889L187.628 25.2578H187.533L187.439 25.2266L187.533 25.1954L187.502 25.1331L187.439 25.0396L187.344 25.0085L187.187 24.9461L187.124 24.9773V24.915L187.187 24.8526H187.124L187.061 24.7903H186.998V24.728L186.966 24.7591ZM186.21 24.8526L186.273 24.7903H186.305L186.242 24.8838L186.273 24.9773L186.336 25.0085V25.0708L186.242 25.0085L186.21 24.915L186.147 24.9461V25.0396V25.1331H186.084V25.0396L186.021 24.9461L186.053 24.8215L186.116 24.6968L186.242 24.6656L186.336 24.6345H186.368L186.273 24.6968H186.147L186.116 24.7903L186.21 24.8526ZM186.084 23.8554H186.147V23.8865L186.116 23.9177L186.084 23.8865V23.8554ZM186.273 24.0424L186.21 24.0735V23.98V23.9489L186.305 23.98L186.273 24.0424ZM186.305 24.0424V24.1047V24.1359H186.273V24.0735L186.305 24.0424ZM186.399 25.4448L186.368 25.4136L186.525 25.3201L186.557 25.3513L186.399 25.4448ZM186.525 24.167L186.557 24.1982V24.2605L186.525 24.2917L186.494 24.2605L186.462 24.2917L186.494 24.3228L186.462 24.354H186.431L186.368 24.2917V24.2605V24.2293H186.336H186.273L186.242 24.2917H186.21L186.242 24.2293H186.273V24.1982H186.336V24.2293L186.399 24.1982V24.167L186.431 24.1359L186.399 24.1047L186.462 24.1359L186.525 24.167ZM186.431 24.0424L186.368 24.0112L186.399 23.98L186.368 23.9489L186.399 23.9177L186.431 23.9489V23.98L186.399 24.0112C186.431 24.0112 186.431 24.0424 186.431 24.0424ZM186.368 22.5153L186.431 22.5465L186.462 22.6088V22.7023H186.399V22.6088L186.336 22.5776L186.305 22.5465L186.368 22.5153ZM186.21 23.7931L186.273 23.8242L186.336 23.8865L186.305 23.9177H186.273L186.242 23.8554H186.179L186.21 23.7931ZM186.084 23.4814L186.147 23.5437L186.179 23.6061L186.147 23.6684L186.116 23.6996V23.7619L186.147 23.7931V23.8554L186.116 23.8865L186.084 23.8242H186.053H186.021L185.99 23.7307H186.021V23.6061V23.5749L186.084 23.4814ZM185.958 23.0763H186.021V23.1074L185.99 23.2321L185.958 23.2633L185.895 23.2009V23.1386L185.958 23.0763ZM180.067 21.5181L179.973 21.4557C179.973 21.4557 180.099 21.3311 180.067 21.3311C180.036 21.3311 179.784 21.3622 179.784 21.3622L179.815 21.4557L179.721 21.4869L179.689 21.4557V21.4246H179.532L179.5 21.4869L179.406 21.5804V21.6427C179.658 21.6427 179.941 21.6427 180.193 21.6739C180.162 21.5804 180.067 21.5181 180.067 21.5181ZM187.407 25.8499C187.407 25.8499 187.376 25.8499 187.344 25.8499C187.376 25.8811 187.407 25.8499 187.407 25.8499ZM173.956 19.3054C173.987 19.3054 174.019 19.3054 174.019 19.3054C174.019 19.3054 174.05 19.3054 174.05 19.2742C174.05 19.3054 173.987 19.3054 173.956 19.3054ZM174.239 19.3054L174.586 19.2742V19.3366C174.806 19.2431 175.027 19.1807 175.247 19.1184L175.436 19.0561C175.247 19.0872 175.058 19.1184 174.869 19.1496L174.712 19.2742L174.586 19.2119C174.523 19.2119 174.428 19.2431 174.365 19.2431L174.239 19.3054ZM169.766 21.0506C169.766 21.0194 169.734 20.8636 169.734 20.8636L169.64 20.8013L169.514 20.739C169.482 20.739 169.388 20.739 169.388 20.739H169.325C167.907 21.5181 166.931 22.5153 166.678 23.6061C166.994 23.2944 167.561 23.0139 168.317 22.7646C168.632 22.1102 169.136 21.5492 169.766 21.0506ZM168.285 25.6006C167.529 25.3513 166.994 25.0708 166.678 24.7591C167.151 26.9095 170.333 28.717 174.617 29.3715C171.498 28.7482 169.104 27.3146 168.285 25.6006ZM169.703 21.2999L169.766 21.3311C169.766 21.3311 169.829 21.3311 169.829 21.2999C169.797 21.2999 169.766 21.2687 169.766 21.2687L169.797 21.2376C169.766 21.2376 169.734 21.2687 169.703 21.2999ZM174.019 28.8417C174.019 28.8417 174.113 28.904 174.113 28.9352C174.113 28.9663 174.239 29.0287 174.239 29.0287C174.239 29.0287 174.113 29.0287 174.05 28.9975C173.987 28.9663 173.735 28.8105 173.704 28.8105C173.672 28.7793 173.515 28.6235 173.452 28.5612C173.42 28.53 173.42 28.53 173.42 28.4989C172.412 27.9067 171.624 27.1276 171.12 26.255C170.081 26.0992 169.167 25.8811 168.443 25.6629C169.419 27.5016 172.16 28.9352 175.657 29.4338C175.121 29.278 174.554 29.0598 174.019 28.8417ZM187.817 25.9122C187.817 25.9434 187.848 25.9746 187.88 25.9746C187.943 25.8811 188.006 25.7564 188.069 25.6317C187.974 25.6629 187.88 25.6941 187.785 25.7252V25.7564C187.817 25.8187 187.785 25.8499 187.817 25.9122ZM169.734 21.3934L169.671 21.3311C169.167 21.7362 168.789 22.1725 168.506 22.6711C168.789 22.5776 169.073 22.5153 169.388 22.4218C169.356 22.4218 169.356 22.3907 169.356 22.3907L169.325 22.2037V22.1102C169.325 22.1102 169.356 21.9232 169.451 21.8609C169.514 21.7985 169.671 21.6427 169.734 21.5804C169.797 21.5181 169.797 21.4557 169.797 21.4557H169.829L169.734 21.3934ZM169.797 22.64C169.766 22.6088 169.734 22.6088 169.734 22.6088L169.671 22.6711C169.671 22.7023 169.734 22.7958 169.734 22.7958V22.8581L169.797 22.9828V23.0763L169.829 23.1074C169.829 23.1386 169.86 23.1386 169.86 23.1698L169.892 23.2009H169.829L169.734 23.1074L169.703 23.0763L169.734 23.0139C169.734 23.0139 169.703 22.9828 169.703 22.9516C169.703 22.9516 169.671 22.9205 169.64 22.8893C169.608 22.8581 169.545 22.8581 169.545 22.8581L169.608 22.827V22.7958L169.577 22.7646V22.7023L169.514 22.5776V22.5465C169.104 22.64 168.726 22.7335 168.38 22.8581C168.159 23.2944 168.065 23.7307 168.065 24.1982C168.065 24.6345 168.159 25.0708 168.348 25.4759C169.073 25.7252 169.986 25.9122 171.026 26.0992C170.711 25.5071 170.585 24.8838 170.553 24.2293C170.553 24.0424 170.553 23.8554 170.585 23.6372C170.522 23.6061 170.522 23.6061 170.49 23.6061C170.459 23.6061 170.396 23.5749 170.396 23.5749L170.364 23.5437C170.333 23.5437 170.301 23.5437 170.27 23.5126L170.175 23.4814L170.112 23.4191V23.3879L170.175 23.3256L170.144 23.2321C170.144 23.2321 170.018 23.1386 170.018 23.1074C169.986 23.0763 169.986 23.0763 169.955 23.0451C169.955 23.0451 169.892 23.0139 169.892 22.9828C169.892 22.9516 169.892 22.9828 169.892 22.9516C169.892 22.9204 169.829 22.8581 169.829 22.8581C169.829 22.8581 169.766 22.7646 169.734 22.7335C169.797 22.7023 169.829 22.6711 169.797 22.64ZM170.805 20.0845L171.057 20.0222C171.057 20.0222 171.341 19.9598 171.372 19.9598L171.404 19.991L171.561 19.9598L171.624 19.9287H171.719C171.813 19.8663 171.939 19.8352 172.034 19.804C172.002 19.804 171.971 19.8352 171.908 19.8663C171.782 19.8975 171.939 19.804 171.782 19.804C171.75 19.804 171.845 19.7417 171.939 19.7105C172.034 19.6794 172.002 19.6794 172.191 19.6482C172.38 19.617 172.38 19.6794 172.38 19.6794H172.412C173.042 19.43 173.704 19.2431 174.397 19.0872H174.428C174.428 19.0872 174.46 19.0872 174.491 19.0561C173.105 19.2742 171.845 19.617 170.774 20.0533H170.805C170.742 20.0845 170.805 20.0845 170.805 20.0845ZM177.925 18.9314C177.925 18.9314 177.704 19.0872 177.673 19.0872C177.641 19.1184 177.61 19.2742 177.61 19.3054C177.61 19.3366 177.578 19.43 177.578 19.43C177.578 19.43 177.358 19.5235 177.263 19.5547C177.169 19.5859 177.074 19.6794 176.948 19.7417C176.917 19.7729 176.885 19.7729 176.822 19.7729C176.507 20.2403 176.224 20.8636 176.035 21.6115C176.381 21.6115 176.728 21.5804 177.043 21.5804L177.011 21.4869H177.074L177.106 21.4246H177.169H177.232H177.295H177.452C177.515 21.4246 177.515 21.3934 177.515 21.3934V21.2687L177.484 21.1752L177.421 21.1129L177.295 21.0506V21.0194H177.358L177.389 21.0506L177.484 21.0194L177.452 20.9571H177.547L177.61 20.9259L177.704 20.8636C177.704 20.8636 177.767 20.8324 177.799 20.7701C177.83 20.7078 177.956 20.7078 177.956 20.7078L178.051 20.6766L178.019 20.6143L177.988 20.552L177.956 20.5208L178.082 20.4585L178.114 20.552L178.082 20.6455H178.145V20.365V20.3338L178.019 20.365C178.019 20.365 177.925 20.365 177.893 20.365C177.862 20.365 177.83 20.3026 177.83 20.3026C177.83 20.3026 177.83 20.2092 177.83 20.178C177.799 20.1157 177.862 20.1157 177.893 20.0845C177.956 20.0533 177.956 20.0533 178.019 20.0222C178.082 19.991 178.145 19.9287 178.145 19.8975L178.177 19.8663V18.8068C178.114 18.8068 178.082 18.8068 178.019 18.8379L177.925 18.9314ZM177.232 20.6455L177.2 20.6766L177.232 20.7701V20.8013H177.169L177.106 20.8324H177.043L176.98 20.8013V20.7701L177.043 20.739V20.7078H177.011L177.043 20.6455H177.106V20.5831L177.169 20.552L177.232 20.5831H177.263V20.6143C177.232 20.5831 177.232 20.6143 177.232 20.6455ZM177.673 20.8324L177.61 20.8636L177.673 20.8948V20.9259L177.515 20.9571H177.421H177.358H177.263L177.295 20.9259L177.326 20.8948L177.358 20.8636H177.421L177.452 20.8324H177.389H177.326V20.8013L177.389 20.7701V20.739L177.358 20.7078L177.389 20.6766L177.452 20.7078L177.484 20.6455L177.452 20.6143V20.5831C177.452 20.5831 177.421 20.6143 177.389 20.5831C177.358 20.5831 177.358 20.552 177.358 20.552L177.389 20.5208C177.389 20.5208 177.389 20.4896 177.358 20.4896H177.295L177.326 20.4273L177.295 20.3961V20.3338L177.326 20.3026L177.358 20.3338L177.389 20.2715H177.421H177.484V20.3026L177.358 20.365H177.389H177.452L177.515 20.3961L177.484 20.4585L177.421 20.4896V20.5208H177.484C177.484 20.5208 177.515 20.5208 177.515 20.552C177.515 20.5831 177.515 20.5831 177.547 20.6143C177.578 20.6143 177.578 20.6455 177.578 20.6766L177.61 20.7078L177.641 20.739V20.7701V20.8013L177.673 20.8324L177.704 20.8013L177.736 20.8324H177.673ZM187.029 20.9571H187.092L187.155 20.9883L187.218 21.0194V21.0506V21.0818L187.281 21.1129V21.1441L187.25 21.1752L187.281 21.2064L187.25 21.2376L187.313 21.2999L187.281 21.3311C187.722 21.7362 188.1 22.1725 188.321 22.64C189.077 22.8893 189.644 23.1698 189.959 23.4814C189.707 22.4218 188.793 21.4869 187.439 20.7078C187.407 20.7389 187.376 20.7701 187.376 20.7701V20.8013L187.313 20.7701C187.281 20.7389 187.187 20.7701 187.187 20.7701V20.8013L187.124 20.7701L187.092 20.8013H187.029L187.061 20.8636C186.998 20.9259 187.029 20.9571 187.029 20.9571ZM178.051 21.5492L177.925 21.5181L177.799 21.5492V21.5804C177.925 21.5804 178.051 21.5804 178.208 21.5804V21.4869L178.145 21.4557L178.051 21.5492ZM175.153 26.6913C175.121 26.6913 175.058 26.7225 175.058 26.7225C175.027 26.7537 174.869 26.816 174.869 26.8472C174.838 26.8783 174.901 26.9718 174.869 27.003C174.869 27.0341 174.838 27.0653 174.806 27.0965L174.743 27.1276C174.743 27.1276 174.775 27.1276 174.712 27.1588C174.68 27.19 174.649 27.19 174.649 27.2211C174.649 27.2523 174.586 27.3458 174.586 27.3458C174.586 27.3458 174.586 27.377 174.554 27.4081C174.523 27.4393 174.523 27.4704 174.491 27.5016C174.46 27.5016 174.428 27.5328 174.397 27.5016H174.365C174.901 28.2495 175.594 28.8417 176.413 29.2156C176.539 29.1533 176.665 29.1533 176.791 29.1533C176.854 29.1533 176.917 29.1222 176.98 29.1222C176.476 28.5924 176.066 27.7509 175.814 26.7225C175.625 26.6913 175.373 26.6913 175.153 26.6913ZM177.61 21.7674L177.641 21.8609L177.61 21.892L177.547 21.9544L177.484 22.0167H177.358L177.295 22.079L177.232 22.0167L177.169 21.9544H177.106L177.043 21.9232V21.8609L177.011 21.7985L177.043 21.6739C176.696 21.6739 176.35 21.705 176.003 21.705C175.814 22.5153 175.72 23.3256 175.72 24.1359C175.72 24.541 175.751 24.915 175.783 25.2889C175.814 25.3201 175.846 25.3824 175.846 25.4136C175.846 25.4448 175.846 25.5071 175.814 25.5383C175.846 25.8811 175.909 26.1927 176.003 26.5044C176.728 26.5355 177.484 26.5667 178.24 26.5667V24.541C178.208 24.541 178.177 24.4163 178.114 24.3852C178.051 24.354 177.862 24.4787 177.862 24.4787C177.862 24.4787 177.767 24.541 177.673 24.541C177.61 24.541 177.578 24.541 177.578 24.541H177.421C177.421 24.541 177.326 24.6033 177.295 24.6033C177.263 24.6033 177.2 24.5722 177.169 24.5098C177.169 24.4787 176.98 24.354 176.98 24.354C176.98 24.354 176.885 24.2605 176.885 24.2293C176.885 24.1982 176.791 24.1047 176.759 24.0735C176.759 24.0424 176.665 24.0112 176.633 23.98C176.602 23.9177 176.602 23.9177 176.602 23.8554C176.602 23.7931 176.539 23.7307 176.539 23.7307L176.602 23.6372C176.602 23.6372 176.633 23.4814 176.602 23.4191C176.602 23.3567 176.57 23.3568 176.57 23.3256C176.57 23.2944 176.507 23.2633 176.507 23.1386C176.507 23.0451 176.57 22.9828 176.57 22.9828C176.57 22.9828 176.633 22.8581 176.665 22.827C176.696 22.7958 176.759 22.64 176.791 22.64C176.822 22.64 176.948 22.6088 176.98 22.4841C176.98 22.453 176.98 22.4218 177.011 22.4218V22.3595V22.2972C177.043 22.266 177.011 22.266 177.043 22.2348C177.074 22.2037 177.106 22.1725 177.137 22.1725C177.169 22.1725 177.232 22.079 177.232 22.079V22.0167H177.295L177.358 22.0478H177.484L177.578 22.0167L177.641 21.9855C177.641 21.9855 177.704 21.9544 177.736 21.9232C177.767 21.9232 177.862 21.9855 177.988 21.9232C178.114 21.892 178.082 21.9232 178.082 21.9232L178.177 21.9544V21.6427C177.988 21.6427 177.799 21.6427 177.641 21.6427L177.61 21.7674ZM174.334 27.7198C174.334 27.7509 174.302 27.7821 174.271 27.8132C174.208 27.8132 174.145 27.8444 174.113 27.8444C174.082 27.8444 174.019 27.8444 174.019 27.8444C174.019 27.8444 174.019 27.9067 174.019 27.9379C174.019 27.9691 174.05 27.9691 174.05 28.0002C174.019 28.0314 173.987 28.0314 173.987 28.0314L173.893 28.0002C173.893 28.0002 173.861 28.0002 173.861 28.0314C173.861 28.0626 173.893 28.0937 173.893 28.0937L173.956 28.1249L173.924 28.1561L173.893 28.1872L173.924 28.2495V28.3119L173.861 28.343C173.861 28.3742 173.861 28.4365 173.893 28.4365C173.924 28.4365 173.987 28.4677 173.987 28.4677L174.019 28.53V28.5924C174.019 28.5924 173.987 28.6235 173.987 28.6547C173.987 28.6547 173.987 28.6858 173.987 28.717C174.68 29.0598 175.436 29.3091 176.192 29.465C176.224 29.4338 176.287 29.4338 176.318 29.4026C175.531 28.9352 174.869 28.4054 174.334 27.7198ZM177.2 29.091H177.61L177.925 29.2468L178.208 29.278V26.7537C177.452 26.7537 176.728 26.7225 176.003 26.6913C176.255 27.7509 176.696 28.5924 177.2 29.091ZM168.191 25.3824C168.033 25.0085 167.939 24.6033 167.939 24.1982C167.939 23.7619 168.033 23.3256 168.222 22.9205C167.403 23.2009 166.836 23.5126 166.615 23.8554C166.615 23.98 166.584 24.0735 166.584 24.1982C166.584 24.2917 166.584 24.3852 166.584 24.4475C166.836 24.7903 167.372 25.102 168.191 25.3824ZM178.776 26.442C178.744 26.4109 178.776 26.3485 178.776 26.3174C178.776 26.2862 178.776 26.1304 178.776 26.0992C178.776 26.0369 178.839 25.9746 178.839 25.9122C178.839 25.8499 178.839 25.8187 178.807 25.7564C178.776 25.6941 178.807 25.6941 178.776 25.6006C178.744 25.5382 178.46 25.102 178.46 25.102L178.397 25.0396C178.397 25.0396 178.46 24.9773 178.46 24.9461C178.492 24.915 178.429 24.8838 178.429 24.8526C178.429 24.8215 178.46 24.7903 178.46 24.7591C178.492 24.6968 178.429 24.6657 178.366 24.6345C178.334 24.6345 178.334 24.6345 178.303 24.6345V26.6602C178.492 26.6602 178.649 26.6602 178.839 26.6602C178.87 26.5355 178.807 26.442 178.776 26.442ZM178.555 22.3595L178.649 22.3907L178.681 22.4841L178.776 22.5153L178.902 22.5776L178.965 22.5153V22.453L178.996 22.4218L179.122 22.3907L179.248 22.453L179.343 22.4841C179.343 22.4841 179.406 22.4841 179.437 22.4841C179.469 22.4841 179.563 22.5153 179.563 22.5153C179.595 22.5153 179.626 22.5153 179.626 22.5153L179.689 22.4841L179.784 22.5153H179.878L179.941 22.4841L179.973 22.4218L180.004 22.3283L180.036 22.266V22.2037L180.004 22.1725V22.1413V22.079L179.973 22.1102L179.91 22.079L179.847 22.1413C179.847 22.1413 179.784 22.1413 179.752 22.1413C179.721 22.1413 179.721 22.1102 179.721 22.079C179.721 22.0478 179.626 22.0478 179.626 22.0478L179.595 22.079H179.532L179.5 22.0478H179.406L179.28 21.9544V21.8609C179.28 21.8609 179.248 21.8297 179.248 21.7985C179.248 21.7674 179.217 21.7362 179.217 21.7362H179.154L179.122 21.7674H179.059H178.996V21.8297L179.091 21.9232L179.059 21.9855V22.079H179.028L178.965 22.0478L178.902 21.9855V21.9544L178.839 21.892L178.776 21.7674V21.7362H178.618C178.649 21.7362 178.712 21.7985 178.712 21.7985V21.8297L178.681 21.7985L178.649 21.7674C178.618 21.7674 178.618 21.7985 178.618 21.7985V21.8297C178.618 21.8297 178.649 21.8297 178.649 21.8609V21.892H178.618V21.9232L178.586 21.9544H178.555V21.9232L178.586 21.892L178.555 21.7985L178.429 21.705H178.271V22.1413V22.1725V22.266C178.303 22.2972 178.366 22.3595 178.397 22.3595C178.492 22.3595 178.555 22.3595 178.555 22.3595ZM179.878 22.1725V22.2037L179.847 22.2348H179.815L179.784 22.2037L179.878 22.1725ZM179.185 22.1413L179.311 22.1725L179.343 22.2037H179.374V22.2348H179.28L179.185 22.1413ZM178.649 29.278C178.744 29.2156 179.185 29.0598 179.185 29.0598C179.185 29.0598 179.248 29.0598 179.343 29.091C179.847 28.5924 180.288 27.7509 180.54 26.6913C180.477 26.6913 180.414 26.6913 180.351 26.6913C180.351 26.7225 180.351 26.7225 180.351 26.7537C180.319 26.7848 180.288 26.7848 180.256 26.7848C180.225 26.7848 180.193 26.8783 180.193 26.8783C180.193 26.8783 180.225 26.9718 180.193 27.003C180.193 27.0341 180.162 27.0653 180.13 27.1276C180.067 27.1588 179.941 27.3146 179.878 27.4081C179.815 27.4704 179.721 27.5328 179.595 27.5328C179.469 27.5328 179.343 27.6263 179.343 27.6263L179.248 27.4704C179.248 27.4704 179.248 27.3769 179.248 27.3458C179.248 27.3146 179.154 27.19 179.122 27.1276C179.091 27.0653 178.996 26.9406 178.996 26.9095C178.965 26.8472 178.965 26.7848 178.965 26.7225C178.965 26.7225 178.965 26.6913 178.933 26.6602C178.744 26.6602 178.555 26.6602 178.334 26.6602V29.2156C178.429 29.3403 178.586 29.3403 178.649 29.278ZM178.902 28.8728L178.965 28.9663L178.744 29.0598L178.681 28.904C178.681 28.9352 178.902 28.8728 178.902 28.8728ZM178.555 21.4557C178.555 21.4557 178.46 21.3622 178.46 21.3311C178.46 21.2999 178.397 21.3311 178.397 21.3622V21.4246C178.397 21.4557 178.46 21.4869 178.492 21.4869C178.523 21.5181 178.523 21.5181 178.523 21.5181L178.555 21.5492H178.744L178.555 21.4557ZM175.531 25.9122L175.499 25.9746C175.499 25.9746 175.499 26.1304 175.499 26.1615C175.499 26.1927 175.436 26.4732 175.405 26.5355C175.531 26.5355 175.688 26.5355 175.814 26.5667C175.751 26.3174 175.688 26.0369 175.657 25.7876C175.625 25.8187 175.594 25.8499 175.594 25.8499C175.594 25.8499 175.562 25.9122 175.531 25.9122ZM180.76 19.3366L180.823 19.3677H180.792C181.012 19.5235 181.233 19.6794 181.453 19.8663V19.8352C181.453 19.8352 181.485 19.6482 181.453 19.5859C181.453 19.5235 181.548 19.5547 181.642 19.5235C181.705 19.5235 181.831 19.4612 181.957 19.4612C181.264 19.1807 180.508 18.9937 179.784 18.8691C180.099 18.9937 180.414 19.1184 180.729 19.3054L180.76 19.3366ZM178.776 19.5859H179.185C179.185 19.5859 179.217 19.6482 179.248 19.6482C179.311 19.6482 179.721 19.804 179.721 19.804L179.784 19.8352C179.374 19.2119 178.902 18.8379 178.366 18.8068V19.6794C178.397 19.6482 178.397 19.6482 178.46 19.6482C178.555 19.6482 178.776 19.5859 178.776 19.5859ZM178.555 20.6766H178.681L178.776 20.6455V20.5831V20.5208L178.839 20.4585H178.87V20.365H179.154C179.185 20.365 179.311 20.3026 179.343 20.2715C179.406 20.2715 179.311 20.178 179.311 20.178L179.154 20.2403L178.87 20.3026L178.744 20.2403V20.178C178.744 20.178 178.681 20.0845 178.744 20.0845C178.807 20.0533 178.87 19.9598 178.87 19.9598L178.744 19.8975L178.649 19.9287L178.681 19.991L178.618 20.0533L178.492 20.1468V20.2715L178.618 20.365L178.523 20.4896L178.397 20.6143H178.303V20.739L178.366 20.7701L178.555 20.6766ZM179.973 19.8975L180.13 19.8663C180.13 19.8663 180.414 19.8663 180.571 19.8352C180.729 19.804 180.666 19.7417 180.666 19.7417L180.981 19.7729V19.7105C180.855 19.617 180.729 19.5235 180.603 19.4612L180.445 19.617L180.508 19.7105L180.414 19.7417L180.225 19.5859L180.414 19.3989H180.477C180.036 19.1496 179.532 18.9937 179.028 18.9002C179.374 19.0872 179.689 19.43 179.973 19.8975ZM175.625 20.0533V19.8663C175.625 19.8352 175.688 19.7417 175.688 19.7417C175.688 19.7417 175.72 19.6482 175.751 19.6482C175.783 19.6482 175.751 19.617 175.72 19.5859C175.342 19.8352 174.995 20.178 174.68 20.5208C174.68 20.552 174.68 20.5831 174.649 20.6143C174.617 20.6454 174.743 20.6766 174.743 20.6766C174.775 20.6766 174.775 20.7078 174.806 20.739L174.68 20.7701H174.712H174.806L174.869 20.8013L174.901 20.8324L174.869 20.8948L174.838 20.9259L174.68 20.9883C174.68 20.9883 174.554 21.0506 174.523 21.0506C174.491 21.0506 174.46 21.0818 174.428 21.0818H174.208C174.145 21.1752 174.082 21.2999 174.019 21.3934H174.176L174.302 21.3311L174.334 21.3622L174.208 21.4557L174.05 21.4869L173.956 21.5492C173.924 21.6115 173.893 21.705 173.83 21.7674C174.491 21.705 175.153 21.6739 175.814 21.6427C176.003 20.9259 176.255 20.3026 176.57 19.8352C176.507 19.8352 176.444 19.8352 176.444 19.8352L176.098 20.0222L175.909 20.2403L175.814 20.2092L175.657 20.178L175.625 20.0533ZM174.901 21.2064C174.901 21.2064 174.901 21.2687 174.869 21.2687C174.838 21.2687 174.712 21.2687 174.712 21.2687L174.68 21.2376H174.523V21.1752L174.649 21.0818L174.743 20.9571L174.838 20.8948L174.869 20.9883L174.806 21.0194H174.901C174.901 21.0194 174.964 21.0194 174.964 21.0506C174.901 21.1129 174.901 21.2064 174.901 21.2064ZM188.006 26.0992C188.037 26.1615 188.1 26.255 188.132 26.3174C188.163 26.3485 188.195 26.3174 188.163 26.4109C188.132 26.5043 188.163 26.5355 188.069 26.5978C187.974 26.6913 187.754 26.9406 187.691 27.0341C187.628 27.1276 187.596 27.1588 187.565 27.1588C187.502 27.1588 187.407 27.19 187.344 27.2211C187.281 27.2211 187.25 27.2211 187.187 27.2523C187.155 27.2523 187.124 27.2835 187.061 27.2523C186.998 27.2523 186.998 27.2211 186.966 27.2211C185.801 28.1872 184.036 28.9663 181.989 29.4026C183.69 29.1222 185.265 28.6859 186.588 28.0626C188.478 27.1588 189.644 26.0057 189.896 24.7903C189.581 25.102 189.045 25.3824 188.289 25.6317C188.226 25.7564 188.1 25.9434 188.006 26.0992ZM187.344 27.4704C187.281 27.5016 187.218 27.5639 187.187 27.5951L187.124 27.6263L187.187 27.4081H187.25L187.376 27.3769C187.344 27.4081 187.344 27.4393 187.344 27.4704ZM188.352 22.9205C188.541 23.3256 188.636 23.7619 188.636 24.1982C188.636 24.6033 188.541 25.0085 188.384 25.3824C189.203 25.102 189.738 24.7903 189.959 24.4475C189.959 24.354 189.99 24.2605 189.99 24.1982C189.99 24.0735 189.99 23.9489 189.959 23.8554C189.738 23.5126 189.171 23.2009 188.352 22.9205ZM182.682 26.5978C182.052 26.6602 181.39 26.6913 180.729 26.7225C180.477 27.7509 180.036 28.6235 179.532 29.1533C179.721 29.1845 179.941 29.2156 180.036 29.2468C181.17 28.7482 182.115 27.7821 182.682 26.5978ZM173.83 21.892C173.515 22.5776 173.357 23.3568 173.357 24.1047H173.389C173.42 24.1047 173.515 24.0735 173.515 24.0735C173.515 24.0735 173.546 24.1047 173.609 24.1047C173.641 24.1047 173.672 24.1359 173.704 24.1359V24.167H173.767C173.767 24.167 173.767 24.1982 173.83 24.2293C173.861 24.2293 173.924 24.2917 173.924 24.2917V24.3228C173.924 24.3228 173.924 24.2917 173.987 24.354C174.019 24.3852 174.019 24.4163 174.082 24.4163C174.113 24.4163 174.176 24.3852 174.239 24.4163C174.302 24.4475 174.428 24.4787 174.428 24.5098C174.46 24.541 174.491 24.5722 174.491 24.6033C174.491 24.6345 174.523 24.6656 174.523 24.6656L174.586 24.7591C174.586 24.7591 174.586 24.7903 174.586 24.8215C174.586 24.8526 174.617 24.8838 174.617 24.8838C174.649 24.8838 174.712 24.915 174.712 24.915L174.743 24.9773C174.743 24.9773 174.869 24.9773 174.901 24.9773C174.932 25.0085 175.058 25.0396 175.058 25.0708C175.058 25.0708 175.09 25.102 175.121 25.102C175.153 25.102 175.247 25.1643 175.279 25.1643C175.31 25.1643 175.342 25.1331 175.373 25.1643C175.405 25.1954 175.436 25.1954 175.468 25.2266C175.499 25.2578 175.531 25.2889 175.594 25.3201C175.562 24.9773 175.531 24.6033 175.531 24.2605C175.531 23.3879 175.625 22.5465 175.814 21.8297C175.121 21.7985 174.46 21.8297 173.83 21.892ZM185.234 26.2862C184.446 26.4109 183.627 26.5043 182.839 26.5667C182.304 27.7821 181.39 28.7482 180.288 29.278C180.382 29.278 180.477 29.3091 180.571 29.3403C182.682 28.8417 184.383 27.7198 185.234 26.2862ZM186.966 26.9718C186.966 26.9718 186.903 27.003 186.872 27.003C186.84 27.003 186.777 27.0341 186.777 27.003C186.777 27.003 186.777 26.9095 186.714 26.8783C186.651 26.8472 186.494 26.8472 186.494 26.8472C186.462 26.8472 186.368 26.8783 186.273 26.8783C186.21 26.8783 186.21 26.8783 186.116 26.9406C186.021 27.003 186.053 27.003 185.99 27.0341C185.927 27.0341 185.895 27.003 185.832 27.0341C185.769 27.0653 185.738 27.0653 185.675 27.0965C185.612 27.1276 185.517 27.1588 185.486 27.1276C185.454 27.0965 185.423 27.0653 185.423 27.0653C185.423 27.0653 185.58 26.9718 185.549 26.9095C185.549 26.8472 185.549 26.629 185.549 26.5978C185.549 26.5355 185.517 26.5667 185.549 26.5044C185.549 26.442 185.612 26.2862 185.643 26.255C185.675 26.2239 185.706 26.2239 185.738 26.1927C185.643 26.2239 185.549 26.2239 185.423 26.255C184.603 27.7198 182.965 28.8728 180.918 29.4026C183.469 29.0287 185.612 28.1872 186.966 27.0341V26.9718ZM183.375 24.4163L183.343 24.354C183.312 25.0708 183.186 25.7564 182.934 26.4109C183.753 26.3485 184.54 26.2239 185.36 26.0992C185.486 25.8499 185.58 25.6006 185.675 25.3513L185.549 25.3201H185.36L185.234 25.2889V25.2578L185.171 25.2266V25.1954H185.265C185.297 25.1954 185.328 25.2266 185.328 25.2266C185.328 25.2266 185.391 25.2578 185.423 25.2578C185.454 25.2578 185.454 25.2578 185.486 25.2578L185.517 25.2266L185.643 25.2578L185.706 25.2889C185.738 25.1954 185.769 25.102 185.769 25.0085H185.675L185.612 25.0396L185.58 25.0085H185.486L185.454 24.8838L185.391 24.8215V24.728L185.423 24.6656L185.517 24.6968L185.58 24.6033L185.675 24.5722L185.738 24.4787L185.801 24.4475V24.4163C185.801 24.354 185.801 24.2917 185.801 24.1982C185.801 23.8554 185.738 23.5126 185.675 23.1698C185.643 23.2009 185.58 23.2321 185.549 23.2321C185.486 23.2321 185.328 23.2944 185.328 23.2944L185.265 23.3256V23.3879H185.234L185.202 23.2944C185.202 23.2944 185.139 23.2633 185.045 23.3256C184.982 23.3568 184.95 23.4814 184.95 23.4814L185.013 23.5437C185.013 23.5437 185.045 23.5749 185.076 23.6061C185.108 23.6372 185.202 23.6996 185.202 23.6996C185.202 23.6996 185.265 23.7931 185.265 23.8242C185.265 23.8554 185.265 23.98 185.265 23.98L185.171 24.0424L185.045 24.167H185.013V24.1047L185.045 24.0735H184.95C184.95 24.0735 184.887 24.0424 184.887 24.0112C184.887 23.98 184.793 23.9177 184.793 23.9177H184.761H184.729V23.8554H184.666V23.9489L184.635 24.0735V24.1359H184.666L184.698 24.167L184.761 24.2605L184.793 24.2917C184.793 24.2917 184.824 24.2917 184.856 24.3228C184.887 24.354 184.919 24.4163 184.95 24.4163C184.982 24.4163 184.982 24.5722 184.982 24.5722C184.982 24.6033 185.045 24.6345 185.045 24.6345H185.013L184.824 24.541C184.824 24.541 184.729 24.3852 184.729 24.3228C184.729 24.2917 184.603 24.167 184.572 24.1359C184.54 24.1359 184.572 23.98 184.572 23.9177C184.572 23.8554 184.477 23.7307 184.477 23.6996C184.477 23.6684 184.383 23.5437 184.383 23.5437C184.383 23.5437 184.383 23.5749 184.383 23.6061C184.383 23.6372 184.32 23.6684 184.32 23.6684L184.257 23.6372C184.257 23.6372 184.257 23.5126 184.257 23.4814C184.225 23.4814 184.194 23.3568 184.131 23.3568C184.068 23.3256 184.036 23.2321 184.036 23.2321C184.036 23.2009 183.942 23.1698 183.942 23.1698L183.91 23.2009L183.816 23.2321H183.753L183.658 23.2633V23.3256C183.658 23.3256 183.658 23.3568 183.627 23.3568C183.595 23.3879 183.501 23.4814 183.501 23.4814C183.469 23.5126 183.406 23.5437 183.406 23.6061C183.406 23.6372 183.312 23.6684 183.312 23.6684C183.312 23.7931 183.343 23.9489 183.343 24.1047C183.343 24.1047 183.438 24.2293 183.469 24.2293C183.469 24.2605 183.469 24.2605 183.469 24.2917V24.3228L183.375 24.4163ZM185.297 23.5437L185.234 23.5126C185.202 23.5126 185.234 23.4502 185.234 23.4502L185.265 23.3879H185.328H185.36L185.328 23.4814L185.297 23.5437ZM184.414 24.4163L184.477 24.4475H184.572L184.603 24.5098L184.729 24.5722L184.824 24.6345L184.919 24.6968L184.982 24.728L185.045 24.7591L185.013 24.8215H185.045L185.108 24.8838L185.202 24.915V25.1331H185.139C185.139 25.1331 185.013 25.0085 184.982 25.0085C184.95 24.9773 184.919 24.9461 184.887 24.915C184.887 24.8838 184.824 24.8526 184.824 24.8526L184.761 24.7903L184.729 24.6656C184.698 24.6345 184.698 24.6345 184.666 24.6033L184.603 24.541C184.603 24.541 184.477 24.4163 184.477 24.3852C184.383 24.4163 184.414 24.4163 184.414 24.4163ZM186.935 22.266L186.966 22.3595C187.376 22.453 187.722 22.5465 188.037 22.64C187.659 21.9544 187.029 21.3311 186.179 20.8013H186.147H186.084C186.084 20.8013 186.053 20.8013 186.021 20.8013C185.958 20.8013 185.895 20.7701 185.801 20.7701C185.738 20.7701 185.738 20.7701 185.738 20.7701L185.675 20.9571L185.612 21.0506H185.643L185.738 21.0818L185.769 21.1441H185.832V21.1129C185.832 21.1129 185.958 21.1752 185.99 21.1752C186.021 21.1752 186.084 21.2064 186.084 21.2064C186.084 21.2064 186.116 21.2376 186.116 21.2687L186.179 21.3622C186.21 21.3934 186.273 21.5181 186.273 21.5181V21.5492C186.273 21.5492 186.273 21.6115 186.305 21.6115C186.305 21.6115 186.273 21.6739 186.273 21.705C186.273 21.7362 186.242 21.7985 186.242 21.7985L186.179 21.8609H186.116L186.084 21.8297L186.053 21.8609C186.053 21.892 185.99 21.9232 185.99 21.9232L186.053 21.9855L185.99 22.0478H185.958L185.99 22.1102C185.99 22.1102 186.084 22.1413 186.116 22.1725C186.336 22.2037 186.525 22.2348 186.714 22.2972L186.777 22.266L186.809 22.1413L186.746 22.079V22.0167H186.809L186.84 22.0478L186.935 22.1102L186.903 22.2037L186.935 22.266ZM186.557 21.6115L186.494 21.5181L186.431 21.4557L186.336 21.3622L186.21 21.2376L186.179 21.1752L186.368 21.2999L186.525 21.4246V21.5181L186.62 21.6427L186.588 21.6739L186.557 21.6115ZM186.903 21.892L186.872 21.9855L186.777 21.9544H186.746V21.9855H186.714L186.62 21.9232C186.62 21.9232 186.62 21.8609 186.651 21.8609C186.683 21.8609 186.651 21.8297 186.651 21.8297L186.588 21.7362V21.705L186.746 21.7985L186.903 21.8297L186.935 21.892H186.903ZM180.949 21.3622L180.918 21.3311H180.886H180.823H180.76L180.697 21.3622L180.634 21.4246C180.634 21.4869 180.666 21.5181 180.666 21.5804C180.729 21.5804 180.792 21.5804 180.855 21.5804L180.792 21.5181V21.4869L180.823 21.5181L180.855 21.4869L180.823 21.4557L180.855 21.4246H180.981V21.3934L180.918 21.3622C180.949 21.4557 180.949 21.3622 180.949 21.3622ZM185.832 22.1413C185.832 22.1102 185.801 22.079 185.801 22.079C185.801 22.079 185.706 22.079 185.675 22.079C185.643 22.079 185.612 22.1102 185.612 22.1102C185.706 22.1102 185.769 22.1102 185.832 22.1413ZM171.876 20.0533H172.065L172.191 20.0222H172.254L172.223 20.0533C172.223 20.0533 172.223 20.0845 172.254 20.0845C172.286 20.0845 172.317 20.0222 172.317 20.0222V19.991L172.506 19.9598H172.664H172.696V19.9287C172.696 19.8975 172.569 19.9287 172.569 19.9287C172.569 19.9287 172.223 19.991 172.191 19.9598C172.16 19.9598 172.128 19.9287 172.128 19.8975C172.16 19.8663 172.254 19.8663 172.254 19.8352C172.254 19.8352 172.254 19.8352 172.223 19.8352C172.128 19.8663 172.034 19.8975 171.939 19.9598H172.002V19.991L171.876 20.0533ZM182.713 19.5235C182.839 19.5547 182.997 19.5859 182.871 19.617C182.776 19.6482 182.997 19.7105 182.997 19.7105L183.343 19.7729C183.343 19.7729 183.627 19.7417 183.721 19.7417C183.816 19.7417 184.036 19.8663 184.036 19.8663L184.383 19.9287H184.572V19.8975C183.501 19.43 182.241 19.1184 180.855 18.9002C181.39 19.0561 181.894 19.2119 182.367 19.43C182.493 19.5235 182.619 19.5235 182.713 19.5235ZM171.467 22.7023C171.435 22.7023 171.341 22.7023 171.341 22.7023C171.341 22.7023 171.215 22.7335 171.152 22.7335C171.089 22.7335 171.057 22.7646 170.994 22.827C170.931 22.9828 170.9 23.1386 170.837 23.3256C170.868 23.4502 170.994 23.5126 171.089 23.5126C171.246 23.4814 171.341 23.4502 171.341 23.4191C171.341 23.3879 171.435 23.3256 171.435 23.3256L171.593 23.2944H171.656C171.656 23.2944 171.687 23.3256 171.656 23.3568C171.624 23.4191 171.53 23.4814 171.53 23.4814C171.53 23.4814 171.467 23.5437 171.467 23.5749C171.467 23.6061 171.404 23.6372 171.372 23.6684C171.341 23.6996 171.498 23.6996 171.498 23.6996L171.719 23.6684L171.845 23.6996C171.845 23.7307 171.782 23.9177 171.782 23.98C171.782 24.0424 171.876 24.1047 171.939 24.1359C171.939 24.1359 171.971 24.167 172.034 24.1359C172.097 24.1047 172.191 24.1047 172.191 24.1047L172.286 24.1359L172.349 24.2293L172.38 24.167L172.443 24.1359L172.475 24.1047C172.475 24.1047 172.443 24.0735 172.506 24.0424C172.569 24.0112 172.506 24.0112 172.569 24.0112C172.632 24.0112 172.632 24.0112 172.696 23.98C172.759 23.9489 172.79 23.9489 172.79 23.9489L172.822 23.98L172.79 24.0424V24.0735C172.79 24.1047 172.759 24.1359 172.79 24.1359H172.853L172.822 24.0735V24.0424L172.979 23.98L173.074 24.0112V24.0424C173.074 24.0424 173.074 24.0424 173.168 24.0424C173.168 23.8554 173.168 23.6684 173.2 23.4814V23.4502C173.263 22.8893 173.389 22.3595 173.609 21.892C173.389 21.9232 173.168 21.9232 172.979 21.9544C172.979 21.9544 172.979 21.9855 172.948 21.9855C172.916 22.0167 172.885 22.0478 172.822 22.079V22.1413L172.601 22.2972C172.538 22.3283 172.475 22.3283 172.443 22.3595C172.412 22.3595 172.317 22.453 172.317 22.4841C172.286 22.5153 172.286 22.6711 172.286 22.6711C172.286 22.7023 172.317 22.7646 172.317 22.7958C172.317 22.827 172.349 22.827 172.317 22.8581C172.286 22.8893 172.254 22.9205 172.223 22.9205H172.191C172.191 22.9205 172.16 22.827 172.16 22.7958C172.16 22.7646 172.128 22.7335 172.128 22.7335V22.6711L172.097 22.64C172.097 22.64 172.034 22.6088 172.002 22.6088C171.971 22.64 171.939 22.64 171.939 22.64C171.939 22.64 171.876 22.5776 171.813 22.5776C171.75 22.5776 171.593 22.5153 171.593 22.5776C171.593 22.64 171.687 22.64 171.593 22.64C171.498 22.7023 171.498 22.7023 171.467 22.7023ZM172.506 23.5437H172.412L172.38 23.5126V23.4814L172.506 23.5437ZM172.79 23.4191V23.3879L172.885 23.4191L172.979 23.3879C172.979 23.3879 173.042 23.4191 173.042 23.4502L173.137 23.4814V23.5126H173.042L172.979 23.5437H172.948L172.885 23.6061L172.853 23.5749H172.664V23.4814H172.759L172.79 23.4191ZM172.065 23.1386H172.191H172.254L172.317 23.1698L172.412 23.2009L172.506 23.2321L172.569 23.2633L172.664 23.2944V23.3256L172.632 23.3568H172.538H172.412H172.38L172.443 23.3256H172.412L172.349 23.2944L172.317 23.2321H172.254L172.16 23.2009L172.097 23.1698L172.065 23.1386L172.002 23.1698L171.908 23.2009H171.876L172.065 23.1386ZM186.431 20.7701C186.557 20.8636 186.683 20.9259 186.777 21.0194L186.746 20.9883V20.9259C186.746 20.9259 186.809 20.9259 186.809 20.8948C186.809 20.8636 186.809 20.8324 186.809 20.8013C186.809 20.7701 186.809 20.739 186.809 20.739L186.84 20.7078V20.6766L186.777 20.6455V20.6143H186.714L186.746 20.6455H186.714L186.683 20.7078L186.62 20.6766C186.62 20.6455 186.588 20.6455 186.494 20.6455C186.368 20.6766 186.431 20.7701 186.431 20.7701ZM182.493 23.1698C182.493 23.1698 182.43 23.2009 182.43 23.1698C182.43 23.1386 182.335 23.1074 182.335 23.1074L182.241 22.9828H182.178L181.957 23.0139C181.863 22.9828 181.8 22.9828 181.705 22.9516C181.611 22.9516 181.642 22.9205 181.611 22.8893C181.611 22.8581 181.579 22.827 181.548 22.827C181.485 22.827 181.453 22.8581 181.453 22.8581C181.422 22.8581 181.327 22.7958 181.296 22.7958C181.264 22.7958 181.201 22.7646 181.17 22.7335C181.138 22.7023 181.075 22.5776 181.044 22.5776C181.012 22.5776 180.949 22.5776 180.918 22.5776C180.886 22.6088 180.918 22.64 180.949 22.6711C180.981 22.7023 181.012 22.7646 181.044 22.7958C181.075 22.827 181.075 22.8581 181.075 22.8893C181.075 22.9205 181.107 22.9516 181.107 22.9516H181.138V22.8893L181.17 22.8581L181.201 22.8893L181.233 22.9828L181.264 23.0139C181.296 23.0139 181.296 23.0139 181.327 23.0139C181.359 23.0139 181.39 23.0139 181.39 22.9828C181.422 22.9516 181.516 22.8581 181.516 22.8581C181.516 22.8581 181.516 22.8893 181.516 22.9516C181.516 23.0139 181.611 23.0451 181.642 23.0451C181.674 23.0451 181.674 23.0451 181.705 23.0763C181.737 23.0763 181.737 23.1074 181.768 23.1386C181.768 23.1698 181.8 23.1698 181.8 23.1698C181.8 23.1698 181.8 23.2321 181.737 23.2944C181.674 23.3567 181.705 23.4191 181.705 23.4191C181.705 23.4191 181.674 23.4191 181.642 23.4502C181.642 23.4814 181.642 23.4814 181.611 23.4814C181.579 23.4814 181.548 23.5126 181.516 23.5437C181.485 23.5749 181.453 23.5749 181.39 23.5749C181.327 23.6061 181.359 23.6684 181.359 23.6684C181.264 23.6996 181.138 23.7619 181.012 23.7931C181.012 23.8554 181.012 23.9177 181.012 23.98C181.044 23.98 181.044 23.98 181.075 23.98C181.107 23.98 181.107 23.98 181.138 23.98C181.17 23.98 181.17 23.98 181.201 23.98L181.296 23.9177H181.327C181.327 23.9177 181.359 24.0424 181.296 24.1047C181.264 24.167 181.264 24.3228 181.201 24.4163C181.138 24.4787 181.075 24.5722 181.044 24.6345L181.012 24.6656C180.981 25.2889 180.918 25.9122 180.76 26.5044C181.422 26.4732 182.083 26.442 182.745 26.3797C183.028 25.6941 183.186 24.9773 183.186 24.1982H183.154C183.154 24.1982 183.091 24.1359 183.06 24.0735C183.028 24.0112 182.997 23.98 182.934 23.8554C182.871 23.7307 182.808 23.6684 182.808 23.6061L182.713 23.3568C182.713 23.3568 182.713 23.3256 182.713 23.2944C182.713 23.2633 182.713 23.2633 182.713 23.2633L182.682 23.2321L182.65 23.2944C182.65 23.2944 182.587 23.3256 182.556 23.3256C182.524 23.3256 182.43 23.2009 182.43 23.2009C182.43 23.2009 182.461 23.2009 182.493 23.1698ZM185.486 21.9855L185.454 22.079C185.486 22.079 185.517 22.079 185.549 22.1102V22.079V22.0167L185.486 21.9855ZM185.36 20.0222C185.58 20.0533 185.486 20.0222 185.738 20.1157C185.832 20.1468 186.053 20.178 186.273 20.2092C185.045 19.6794 183.595 19.2742 181.989 19.0249C183.091 19.2431 184.099 19.5859 184.982 19.991C185.076 19.991 185.234 20.0222 185.36 20.0222ZM180.603 26.5667C180.729 26.0369 180.823 25.4759 180.855 24.8526C180.823 24.8838 180.792 24.915 180.76 24.9461C180.666 25.0708 180.571 25.3513 180.571 25.3513L180.634 25.4136C180.634 25.4136 180.666 25.4759 180.666 25.5071C180.666 25.5383 180.666 25.6317 180.666 25.6317C180.666 25.6317 180.729 25.6629 180.729 25.7252C180.729 25.7564 180.729 25.7564 180.729 25.8499C180.729 25.9434 180.729 25.9434 180.729 26.0369C180.729 26.1304 180.571 26.2239 180.508 26.255C180.445 26.2862 180.445 26.3174 180.414 26.3485C180.382 26.3797 180.351 26.442 180.351 26.442C180.351 26.442 180.382 26.4732 180.382 26.5667C180.445 26.5667 180.508 26.5667 180.603 26.5667ZM173.861 19.3989C173.924 19.3677 173.798 19.3677 173.798 19.3677L173.609 19.43H173.578C173.231 19.5235 172.916 19.617 172.601 19.7417C172.632 19.7417 172.632 19.7417 172.632 19.7417C172.632 19.7417 172.695 19.7105 172.759 19.6794C172.79 19.6794 172.885 19.6794 172.885 19.6794L172.79 19.7729L172.853 19.804L172.79 19.991H172.853C172.853 19.991 172.979 19.9598 172.979 19.991C172.979 20.0222 172.979 19.9287 172.979 19.9287L173.137 19.8975H173.2L173.294 19.8352L173.263 19.804L173.2 19.7729L173.326 19.7105L173.42 19.617L173.515 19.5235L173.641 19.4924V19.5235L173.483 19.617L173.42 19.6794L173.389 19.7105L173.452 19.7729C173.452 19.7729 173.483 19.7417 173.515 19.7417H173.546C173.609 19.7105 173.672 19.6794 173.735 19.6482C173.546 19.6482 173.704 19.5859 173.704 19.5859L173.83 19.4924L173.987 19.3989L174.239 19.3677L174.365 19.3054L173.924 19.3366C173.956 19.4612 173.83 19.43 173.861 19.3989ZM173.168 19.7105L173.074 19.617L173.263 19.5547L173.326 19.5859L173.168 19.7105ZM172.475 14.9735C172.443 14.9735 172.443 15.0047 172.443 15.0359C172.443 15.067 172.506 15.067 172.538 15.067C172.569 15.0359 172.632 14.9735 172.664 14.9424C172.632 14.9424 172.506 14.9735 172.475 14.9735Z" fill="url(#paint0_linear_92_42)"/>
    <g filter="url(#filter0_d_92_42)">
        <path d="M192.353 4.50283C192.322 4.50283 192.29 4.47167 192.227 4.50283C192.101 4.56516 191.66 4.90796 191.503 5.00146C191.503 4.97029 191.503 4.97029 191.534 4.93913L191.566 4.8768C191.66 4.65865 191.975 4.06653 191.975 3.69255C191.975 3.59906 191.975 3.53673 191.944 3.47441C191.944 3.47441 191.944 3.41208 191.881 3.41208C191.818 3.38091 191.755 3.41207 191.66 3.50557C191.503 3.66139 190.494 4.59632 190.463 4.59632L190.431 4.62748C190.431 4.62748 190.431 4.59632 190.431 4.56516L190.494 4.34701C190.526 4.19119 190.589 4.0042 190.589 3.87954C190.589 3.81721 190.589 3.75489 190.557 3.72372C190.557 3.69256 190.526 3.66139 190.494 3.66139C190.431 3.66139 190.368 3.69255 190.337 3.75488C190.242 3.9107 188.919 5.28193 188.667 5.46892C188.636 5.50009 188.636 5.50009 188.636 5.50009C188.636 5.43776 188.699 5.34427 188.762 5.18844C188.793 5.09495 189.077 4.47167 189.077 4.19119C189.077 4.16002 189.077 4.12886 189.045 4.09769C189.045 4.06653 188.982 4.03536 188.951 4.03536C188.762 4.03536 188.384 4.4405 187.47 5.46892C187.47 5.46892 186.746 6.27919 186.714 6.31036C186.714 6.27919 186.714 6.24803 186.714 6.21687C186.714 6.06105 186.683 5.7494 186.588 5.59358C186.525 5.53125 186.494 5.50009 186.431 5.50009C186.336 5.50009 186.273 5.59358 186.147 5.84289C186.021 6.12337 185.013 7.15179 183.879 8.0244L183.847 8.05556C182.808 8.86583 182.115 9.39563 181.327 10.5799C180.697 11.4836 179.626 11.9511 178.839 12.3251C178.618 12.4186 178.397 12.5121 178.208 12.6056C178.145 12.6056 177.389 12.5121 176.539 12.5432C176.476 12.2004 176.255 11.2343 175.121 10.5487C173.987 9.83193 172.317 8.77234 171.152 7.77508C170.427 7.1518 169.955 6.55967 169.671 6.1857C169.482 5.96755 169.419 5.87406 169.388 5.87406C169.325 5.84289 169.262 5.87406 169.23 5.90522C169.199 5.93639 169.199 5.96755 169.199 6.06105C169.199 6.15454 169.23 6.31036 169.325 6.55967L169.262 6.52851C169.104 6.43502 168.695 6.24803 168.222 5.59358C167.75 4.93913 167.403 4.0042 167.403 4.0042C167.403 3.97303 167.372 3.94187 167.34 3.94187C167.277 3.94187 167.246 4.0042 167.246 4.06653C167.214 4.19118 167.183 4.347 167.183 4.59632C167.183 4.81447 167.214 5.12611 167.309 5.53125C167.246 5.50008 166.615 4.90797 165.985 3.87954C165.954 3.84838 165.891 3.75488 165.796 3.78605C165.765 3.78605 165.733 3.81721 165.733 3.84838C165.733 3.87954 165.702 3.9107 165.702 3.97303C165.702 4.22235 165.891 4.72098 166.206 5.37543C165.796 5.00145 165.45 4.59632 165.103 4.16002C165.072 4.12886 164.977 3.97303 164.883 3.97303C164.851 3.97303 164.82 3.97303 164.788 4.0042C164.757 4.03536 164.757 4.06652 164.757 4.12885C164.757 4.347 164.883 4.7833 165.166 5.37543C164.946 5.21961 164.757 5.06378 164.536 4.90796C164.536 4.90796 164.442 4.84564 164.379 4.8768C164.347 4.90796 164.316 4.97029 164.316 5.06378C164.316 5.25077 164.473 5.59358 164.536 5.71824C164.505 5.71824 164.473 5.68707 164.473 5.68707C164.41 5.65591 164.284 5.59358 164.221 5.59358C164.19 5.59358 164.158 5.59358 164.127 5.62474C164.127 5.65591 164.127 5.65591 164.127 5.68707C164.127 5.81173 164.221 5.99872 164.284 6.12337C164.379 6.2792 164.82 6.68433 164.977 6.84015C164.82 6.77783 164.505 6.7155 164.473 6.68433C164.473 6.68433 164.347 6.65317 164.284 6.71549C164.253 6.74666 164.253 6.74666 164.253 6.77782C164.253 6.77782 164.253 6.80899 164.253 6.84015C164.316 6.99598 164.851 7.40111 165.859 7.96207C165.67 7.9309 165.576 7.96207 165.544 7.99323L165.513 8.0244C165.513 8.05556 165.513 8.05556 165.513 8.05556C165.576 8.21138 166.174 8.52303 166.678 8.67885C166.678 8.67885 166.647 8.67885 166.615 8.67885C166.489 8.67885 166.426 8.67885 166.395 8.71001V8.74118V8.77234C166.426 8.86584 166.458 8.99049 167.592 9.42679C167.435 9.42679 167.34 9.42679 167.309 9.48912V9.52028V9.55145C167.372 9.67611 167.907 10.0189 168.947 10.3306C168.852 10.3617 168.789 10.3617 168.758 10.3929V10.4241C168.821 10.6422 169.86 11.0162 170.805 11.2967C170.711 11.2967 170.648 11.3278 170.616 11.359C170.585 11.359 170.585 11.3901 170.585 11.4213C170.585 11.5148 170.868 11.8264 173.042 12.3874C173.074 12.3874 173.074 12.3874 173.105 12.3874H173.074C173.042 12.4186 172.979 12.4186 172.979 12.4809C172.979 12.5432 173.042 12.6056 173.2 12.699C173.515 12.886 174.05 13.073 174.208 13.1353C173.546 13.4782 172.885 13.8521 172.254 14.2573L172.223 14.2884V14.3196C172.223 14.3819 172.191 14.6312 171.939 14.7559C171.782 14.8494 171.561 15.0052 171.498 15.3168C171.498 15.348 171.498 15.3792 171.498 15.4103C171.498 15.6597 171.656 15.9713 171.971 16.2829C172.034 16.3453 172.097 16.3453 172.097 16.3141C172.128 16.2829 172.128 16.2206 172.128 16.1895C172.128 16.1895 172.065 16.0336 172.128 15.9401C172.16 15.8778 172.191 15.8466 172.254 15.8466C172.443 15.7843 172.632 15.8466 172.727 15.8778L172.822 15.909C172.948 15.9401 173.2 15.9401 173.389 15.8155C173.546 15.722 174.05 15.7531 174.334 15.7843H174.428H174.523C174.46 15.8778 174.365 15.9713 174.302 16.0336L174.145 16.1583C173.987 16.2829 173.893 16.3453 173.767 16.5011C173.735 16.5011 172.885 16.6569 172.885 16.6569C172.885 16.6569 172.853 16.6569 172.853 16.6881C172.853 16.6881 172.632 17.0932 172.317 17.3737C172.002 17.6542 171.656 17.7788 171.656 17.7788C171.656 17.7788 171.53 17.9658 171.498 18.371C171.498 18.4021 171.498 18.4333 171.498 18.4956C171.498 18.5268 171.498 18.5268 171.498 18.5579V18.5891C171.498 18.5891 171.561 18.6826 171.624 18.7138C171.656 18.7138 171.75 18.8073 171.876 18.8696C171.876 18.8696 171.971 18.9007 172.065 18.9319H172.097C171.183 19.1812 170.333 19.4929 169.545 19.8668C167.12 21.0199 165.765 22.5781 165.765 24.2922C165.765 26.0062 167.088 27.5644 169.545 28.7175C171.845 29.8083 174.901 30.4004 178.145 30.4004C181.39 30.4004 184.446 29.8083 186.746 28.7175C189.171 27.5644 190.526 26.0062 190.526 24.2922C190.526 22.5781 189.203 21.0199 186.746 19.8668C185.297 19.1812 183.564 18.6826 181.674 18.4333C181.674 18.4333 181.674 18.4333 181.705 18.4333C181.8 18.4021 181.831 18.3398 181.863 18.2463C181.989 18.3086 182.304 18.4645 182.556 18.4021C182.902 18.3086 182.997 18.0281 182.997 17.9658C182.997 17.9347 183.028 17.9347 183.06 17.9347L183.123 17.9658C183.217 17.997 183.406 18.0593 183.595 17.997C183.721 17.9347 183.816 17.81 183.847 17.7477C183.879 17.6853 183.91 17.6542 183.942 17.6542C183.973 17.623 184.005 17.623 184.068 17.623C184.162 17.5919 184.32 17.5918 184.383 17.4984C184.383 17.4984 184.446 17.3737 184.446 17.2802C184.446 17.249 184.446 17.1555 184.509 17.1244C184.509 17.1244 185.013 16.9374 185.108 16.5946C185.108 16.5946 185.139 16.5011 185.108 16.4076C185.076 16.3141 184.982 16.2829 184.856 16.2518L180.918 15.2234C180.918 15.2234 180.792 15.161 180.666 15.0052C181.012 15.0052 182.304 15.0052 183.123 14.7559C183.154 14.7559 183.217 14.6936 183.217 14.6624C183.217 14.6312 183.186 14.6001 183.154 14.5689C183.091 14.5377 183.06 14.5066 183.028 14.5066H183.06C183.217 14.4754 184.32 14.2261 184.572 14.1014C184.698 14.0391 184.729 13.9768 184.729 13.9456C184.729 13.8833 184.635 13.8521 184.572 13.8521C184.54 13.8521 184.446 13.8521 184.383 13.821C184.414 13.821 184.477 13.7898 184.477 13.7898C184.793 13.7275 185.643 13.5405 186.147 13.3223C186.179 13.2912 186.273 13.26 186.273 13.1977C186.273 13.1665 186.273 13.1354 186.21 13.1042C186.116 13.0419 185.675 13.0419 185.612 13.0419C185.612 13.0419 185.643 13.0419 185.643 13.0107C185.675 13.0107 185.801 12.9484 185.927 12.9172C186.494 12.7302 187.533 12.3874 187.817 12.0134C187.848 11.9823 187.848 11.9511 187.848 11.9199C187.848 11.8888 187.817 11.8576 187.754 11.8264C187.628 11.8264 187.502 11.8264 187.376 11.8264L187.407 11.7953L187.502 11.7641C187.848 11.6083 188.888 11.0785 189.423 10.611C189.455 10.5799 189.518 10.4864 189.518 10.4241L189.486 10.3617C189.486 10.3617 189.423 10.2994 189.266 10.2994H189.234C189.234 10.2994 189.266 10.2682 189.297 10.2682L189.36 10.2371C190.053 9.89426 190.526 9.55145 190.778 9.27097C190.778 9.27097 190.81 9.20864 190.81 9.17748C190.81 9.14632 190.81 9.14631 190.81 9.14631C190.81 9.11515 190.778 9.08399 190.715 9.08399C190.589 9.08399 190.274 9.11515 190.211 9.14631C190.211 9.14631 190.211 9.11515 190.274 9.08399L190.368 9.02166C190.62 8.86584 191.156 8.49186 191.44 8.0244C191.44 7.99323 191.44 7.89974 191.377 7.86857C191.345 7.86857 191.314 7.83741 191.282 7.86857L190.999 7.93091C190.999 7.93091 190.999 7.9309 191.03 7.89974C191.03 7.89974 191.944 6.96481 192.133 6.43502C192.196 6.2792 192.227 6.1857 192.227 6.12337C192.227 6.09221 192.227 6.06105 192.196 6.06105C192.164 6.02988 192.07 6.06105 192.007 6.12337L191.975 6.15454L191.345 6.52851C191.345 6.52851 191.377 6.49734 191.408 6.46618L191.534 6.31036C191.786 5.99871 192.29 5.43776 192.353 4.97029V4.93913C192.416 4.59632 192.416 4.53399 192.353 4.50283ZM187.439 6.68433C188.195 6.15454 189.14 5.43776 189.959 4.59632C189.959 4.62748 189.959 4.65865 189.896 4.72098C189.738 4.97029 188.762 5.90522 187.376 6.84015C187.439 6.80899 187.439 6.74666 187.439 6.68433ZM191.03 4.53399H191.062L191.093 4.56516C191.093 4.59632 191.062 4.72098 190.904 4.90796C190.715 5.12611 188.982 6.74666 186.935 7.86857C187.029 7.74392 187.092 7.61926 187.155 7.4946C188.195 6.87132 189.518 5.93639 191.03 4.53399ZM187.155 6.90248C187.155 6.93365 187.092 7.02714 186.84 7.24529C186.557 7.43227 186.273 7.5881 185.958 7.74392C185.99 7.68159 186.021 7.65043 186.053 7.5881C186.084 7.55693 186.525 7.30762 187.155 6.90248ZM185.423 10.8604C184.856 11.0473 184.288 11.2343 183.721 11.359H183.69V11.3278L183.942 10.9227C183.942 10.9227 183.942 10.8915 183.973 10.8915C184.604 10.7357 185.202 10.5799 185.801 10.3617C185.801 10.3617 185.801 10.3617 185.801 10.3929V10.4241C185.801 10.4552 185.801 10.4552 185.801 10.4864C185.706 10.6422 185.58 10.7669 185.423 10.8604ZM185.423 11.2967C185.423 11.3278 185.391 11.3278 185.391 11.359C185.328 11.4525 185.171 11.5771 184.856 11.7018C184.288 11.8888 183.69 12.0758 183.091 12.2004C183.06 12.2004 183.06 12.2004 183.06 12.1693V12.1381L183.312 11.8264C183.312 11.8264 183.312 11.8264 183.343 11.8264C183.595 11.7641 184.351 11.6083 185.391 11.2655C185.423 11.2343 185.423 11.2655 185.423 11.2967ZM185.706 9.95659C185.234 10.1436 184.73 10.2682 184.288 10.3929C184.257 10.3929 184.257 10.3929 184.257 10.3929V10.3617L184.446 9.95659L184.477 9.92542C184.761 9.86309 185.297 9.70727 186.021 9.45796C186.053 9.45796 186.053 9.48912 186.053 9.48912C186.053 9.52029 186.053 9.55145 186.053 9.58261C185.99 9.67611 185.895 9.83193 185.706 9.95659ZM185.958 9.02166C185.549 9.17748 185.139 9.30213 184.729 9.42679H184.698V9.39563L184.824 9.11515C184.824 9.11515 184.824 9.08399 184.856 9.08399C185.265 8.99049 185.675 8.83467 186.084 8.67885C186.084 8.67885 186.116 8.67885 186.116 8.71001V8.77234C186.084 8.83467 186.053 8.95933 185.958 9.02166ZM185.328 8.61652C185.297 8.61652 185.297 8.61652 185.265 8.61652C185.265 8.61652 185.265 8.58536 185.265 8.55419L185.423 8.36721C185.864 8.18022 186.305 7.99323 186.714 7.74392C186.588 7.9309 186.399 8.11789 186.21 8.24255C185.927 8.36721 185.643 8.49186 185.328 8.61652ZM169.703 6.65317C169.734 6.68433 169.829 6.84015 169.829 6.84015C170.144 7.33878 170.9 8.27371 172.128 9.05282C173.357 9.83193 173.578 9.86309 174.806 10.798C176.035 11.733 175.94 12.3251 175.94 12.4186C175.94 12.5121 175.846 12.5121 175.846 12.5121C175.594 12.5744 175.027 12.7614 174.932 12.8237C174.838 12.886 174.869 12.7614 174.869 12.7614C175.027 12.5432 175.058 12.2627 175.058 12.2627C175.09 11.1097 173.168 10.4864 171.498 9.11515C169.797 7.74392 169.734 7.12063 169.671 6.90248C169.608 6.65317 169.671 6.622 169.703 6.65317ZM169.923 9.08399C170.333 9.14631 170.711 9.20864 171.12 9.27097H171.152L171.498 9.48912V9.52028C171.498 9.52028 171.498 9.55145 171.467 9.52028L171.278 9.48912C171.057 9.45796 170.837 9.42679 170.585 9.39563C170.207 9.30214 169.923 9.17748 169.892 9.11515C169.923 9.11515 169.923 9.11515 169.923 9.08399ZM169.419 8.61652C169.388 8.58536 169.388 8.55419 169.388 8.55419L169.766 8.64768L170.459 8.77234L170.805 8.99049C170.805 8.99049 170.837 9.02166 170.805 9.02166L170.774 9.05282C170.585 9.02166 170.364 8.99049 170.175 8.92816C169.766 8.77234 169.451 8.67885 169.419 8.61652ZM170.711 9.80077C170.994 9.86309 171.278 9.89426 171.593 9.92542L172.16 9.98775L172.506 10.1747C172.506 10.1747 172.538 10.2059 172.506 10.2059L172.475 10.2371L171.75 10.1436C171.624 10.1436 171.498 10.1124 171.372 10.0812C170.868 9.98775 170.711 9.83193 170.711 9.80077ZM171.624 10.4552C171.75 10.4864 171.845 10.4864 171.939 10.4864C172.254 10.5175 172.569 10.5487 172.885 10.5799L173.011 10.6734C173.011 10.6734 173.042 10.7045 173.011 10.7045L172.979 10.7357H172.948C172.822 10.7045 172.632 10.7045 172.443 10.7045C172.002 10.6734 171.624 10.5487 171.593 10.5175C171.593 10.4864 171.624 10.4552 171.624 10.4552ZM169.545 8.08673H169.577L169.64 8.11789L169.986 8.36721C169.986 8.36721 170.018 8.39837 169.986 8.39837L169.955 8.42953L169.64 8.33604C169.577 8.33604 169.514 8.30488 169.451 8.27371C169.073 8.14905 169.01 8.05556 168.978 7.99323C168.978 7.99323 168.978 7.96207 168.947 7.96207C168.947 7.96207 168.947 7.96207 168.947 7.93091C169.167 7.99324 169.356 8.05556 169.545 8.08673ZM169.262 7.68159C169.262 7.68159 169.23 7.71276 169.23 7.68159C169.01 7.61926 168.789 7.55693 168.569 7.4946C168.38 7.40111 168.191 7.27646 168.033 7.1518C168.002 7.12063 168.002 7.12063 168.002 7.12063C168.285 7.21412 168.632 7.33878 168.978 7.43227L169.262 7.61926C169.262 7.65043 169.262 7.68159 169.262 7.68159ZM167.529 5.03262C168.159 6.1857 168.852 6.55967 168.915 6.59084C169.073 6.68433 169.167 6.96481 169.23 7.08947V7.12063C169.167 7.08947 168.128 6.46618 167.844 5.87406C167.592 5.43776 167.529 5.15728 167.529 5.03262ZM167.403 6.34152C167.687 6.49734 167.97 6.65316 168.285 6.77782L168.537 6.99598V7.02714C168.537 7.02714 168.506 7.0583 168.506 7.02714L168.254 6.93364C168.254 6.93364 168.222 6.90248 168.096 6.87132C167.97 6.80899 167.876 6.74666 167.75 6.71549C167.561 6.59084 167.466 6.52851 167.435 6.46618C167.435 6.43501 167.403 6.43502 167.403 6.40385C167.403 6.37269 167.403 6.37269 167.403 6.34152ZM165.324 4.72098H165.355C165.418 4.81447 165.607 5.06379 166.017 5.43776L166.048 5.46892C166.174 5.59358 166.332 5.68707 166.489 5.81173C166.678 5.93639 166.836 6.06104 167.025 6.15454C167.057 6.21686 167.057 6.27919 167.088 6.34152C166.836 6.1857 166.584 6.02988 166.363 5.84289C166.111 5.65591 165.891 5.43776 165.67 5.21961L165.45 5.00146L165.387 4.90796C165.355 4.8768 165.292 4.81447 165.292 4.75214L165.324 4.72098ZM165.135 5.65591C165.135 5.62474 165.135 5.62474 165.135 5.62474H165.166C165.198 5.65591 165.324 5.7494 165.481 5.90522C165.796 6.12337 166.395 6.49734 167.403 6.93364C167.466 7.02714 167.529 7.08947 167.624 7.18296C166.899 6.87132 166.048 6.46618 165.387 5.93639L165.229 5.81173C165.198 5.7494 165.166 5.68707 165.135 5.65591ZM165.387 6.52851L165.292 6.46618V6.43502V6.40385C165.292 6.40385 165.324 6.37269 165.324 6.40385C165.481 6.52851 166.048 6.90248 167.12 7.30762C167.372 7.40111 167.655 7.52577 167.907 7.61926C168.096 7.68159 168.317 7.74392 168.506 7.83741C168.569 7.86858 168.632 7.89974 168.663 7.96207V7.99323V8.0244C168.663 8.05556 168.663 8.08673 168.663 8.08673C168.348 7.99324 168.033 7.89974 167.75 7.77508C166.805 7.43228 166.08 7.0583 165.513 6.65317C165.544 6.622 165.387 6.52851 165.387 6.52851ZM165.828 7.36995C165.828 7.36995 165.733 7.30762 165.702 7.30762C165.702 7.30762 165.702 7.30762 165.702 7.27645V7.24529C165.702 7.24529 165.733 7.21412 165.733 7.24529L165.922 7.33878C166.237 7.4946 166.584 7.65043 166.931 7.77508C167.498 7.99324 168.159 8.21139 168.821 8.39837L168.947 8.42953C168.978 8.4607 169.073 8.52303 169.073 8.58535C169.073 8.61652 169.073 8.61652 169.073 8.61652C169.041 8.61652 169.01 8.61652 168.884 8.58535L168.537 8.49186L167.939 8.30488H167.907L167.687 8.24255L167.372 8.14906C166.805 7.89974 166.237 7.65043 165.828 7.36995ZM167.057 8.4607C167.057 8.4607 166.994 8.42953 166.742 8.30488L166.647 8.27371V8.24255C166.647 8.21139 166.678 8.21138 166.678 8.21138C167.025 8.33604 167.403 8.4607 167.781 8.58535C168.317 8.74118 168.852 8.86583 169.419 8.99049C169.482 9.02166 169.608 9.14632 169.64 9.17748C169.671 9.20864 169.64 9.20864 169.64 9.23981C169.325 9.17748 168.978 9.08398 168.663 8.99049C168.348 8.897 168.033 8.80351 167.718 8.67885C167.466 8.64768 167.277 8.55419 167.057 8.4607ZM168.002 9.17748C167.97 9.14632 167.97 9.17748 168.002 9.17748L167.97 9.14631C167.97 9.11515 168.002 9.11515 168.002 9.11515C168.285 9.20864 169.073 9.48912 170.238 9.70727C170.301 9.73844 170.49 9.89426 170.522 9.92542C170.522 9.92542 170.553 9.95659 170.522 9.95659C170.49 9.95659 170.49 9.95659 170.459 9.92542C169.514 9.73844 168.695 9.48912 168.002 9.17748ZM169.356 10.0501C169.356 10.0189 169.356 10.0189 169.356 10.0501L169.325 10.0189L169.356 9.98775C169.923 10.1436 170.49 10.2682 171.057 10.3929C171.12 10.4241 171.215 10.4864 171.246 10.5175C171.278 10.5175 171.278 10.5487 171.278 10.5799C171.215 10.5799 171.183 10.5487 171.152 10.5487C170.553 10.3929 169.955 10.2371 169.356 10.0501ZM170.585 10.798C170.553 10.798 170.553 10.7669 170.553 10.7669L170.585 10.7357C170.931 10.8292 171.435 10.9227 172.034 11.0162C172.065 11.0162 172.097 11.0473 172.128 11.0473C172.191 11.0785 172.349 11.172 172.349 11.2032C171.782 11.1097 171.183 10.985 170.585 10.798ZM173.105 11.7953C172.916 11.7641 172.695 11.733 172.412 11.7018C172.38 11.7018 172.38 11.6706 172.38 11.6706C172.38 11.6395 172.38 11.6395 172.412 11.6395C172.632 11.6706 172.853 11.6706 173.074 11.7018C173.074 11.7018 173.137 11.7018 173.2 11.7329C173.263 11.7641 173.389 11.8264 173.389 11.8576C173.294 11.8264 173.2 11.8264 173.105 11.7953ZM173.42 11.3278C173.011 11.2967 172.664 11.172 172.632 11.1408C172.601 11.1097 172.601 11.1097 172.601 11.1097C172.916 11.1408 173.2 11.172 173.515 11.172C173.515 11.172 173.546 11.2032 173.578 11.2032C173.672 11.2343 173.767 11.3278 173.42 11.3278ZM174.145 11.8576C174.082 11.8576 173.924 11.8264 173.861 11.7953L173.83 11.7641C173.767 11.733 173.798 11.7018 173.798 11.7018H173.861H174.113H174.145C174.145 11.7018 174.208 11.7641 174.208 11.7953C174.176 11.8264 174.176 11.8264 174.145 11.8576ZM174.239 12.2316C174.176 12.2004 174.208 12.2004 174.208 12.2004H174.239H174.365C174.365 12.2004 174.397 12.2316 174.397 12.2627C174.397 12.2627 174.397 12.2627 174.365 12.2939C174.397 12.2627 174.302 12.2627 174.239 12.2316ZM174.397 16.3764L175.153 15.8155C175.216 15.7531 175.247 15.7532 175.247 15.7532H175.72C175.72 15.7532 175.027 16.1583 174.806 16.2518C174.617 16.3453 174.428 16.4076 174.397 16.3764ZM178.114 15.4415C178.114 15.3792 177.988 15.161 177.515 15.0675C177.515 15.0675 177.484 15.0364 177.547 15.0364C177.61 15.0052 177.956 14.9429 178.46 15.0987H178.492C178.492 15.0675 178.397 14.8806 178.177 14.8182C178.177 14.8182 178.145 14.7871 178.177 14.7871C178.208 14.7871 179.059 14.6624 179.059 15.8778C179.059 15.8778 179.028 15.909 178.996 15.8778C178.965 15.8466 178.776 15.5973 178.681 15.4727C178.555 15.348 178.555 15.4727 178.555 15.6597C178.555 15.8466 178.46 16.5011 178.397 16.4076C178.334 16.2829 178.271 16.0336 178.177 16.1583C178.082 16.2829 177.988 16.5634 177.547 16.8127C177.547 16.8127 177.515 16.8439 177.515 16.7816C177.515 16.7192 177.578 16.3764 177.578 16.3764V16.3141C177.578 16.3141 177.137 16.6881 176.633 16.9062C176.633 16.9062 176.57 16.9374 176.57 16.8751C176.602 16.8127 176.759 16.4076 176.759 16.4076C176.759 16.4076 176.35 16.6569 175.594 16.6881C175.594 16.6881 175.562 16.6881 175.562 16.6569C175.562 16.6258 175.531 16.3764 175.405 16.2829C175.405 16.2829 175.814 16.1271 176.192 15.8778C176.381 15.7532 176.57 15.6285 176.696 15.5038C177.011 15.4103 177.452 15.348 178.082 15.4103C178.082 15.4727 178.145 15.5038 178.114 15.4415ZM180.477 17.7788L180.445 17.8412C180.414 17.8412 180.382 17.8412 180.288 17.81L179.563 16.7504V16.7192C179.595 16.7192 179.595 16.7192 179.595 16.7192L180.477 17.7788ZM179.878 16.3453C179.91 16.3453 179.91 16.3453 179.878 16.3453L181.548 17.81V17.8412C181.548 17.8723 181.516 17.9035 181.485 17.9035C181.453 17.9347 181.39 17.9347 181.327 17.9035L181.264 17.8723L180.54 17.0932L180.036 16.5323L179.878 16.3453C179.878 16.3764 179.878 16.3764 179.878 16.3453ZM179.626 17.4049C179.595 17.4049 179.595 17.4049 179.595 17.4049L179.311 16.8439V16.8127H179.343L179.626 17.3737C179.658 17.3737 179.658 17.4049 179.626 17.4049ZM179.721 15.0052H179.689C179.532 14.8494 179.374 14.6936 179.185 14.6001L179.154 14.5689C179.154 14.5689 179.185 14.5377 179.185 14.5689C179.185 14.5689 179.469 14.7247 179.721 15.0052C179.721 14.974 179.721 14.974 179.721 15.0052ZM179.437 15.2857C179.437 15.3169 179.437 15.348 179.406 15.3792C179.374 15.3792 179.343 15.3792 179.343 15.348C179.154 14.8805 178.87 14.6936 178.87 14.6936C178.839 14.6624 178.839 14.6312 178.839 14.6001C178.87 14.5689 178.902 14.5689 178.933 14.5689C178.902 14.6001 179.217 14.7871 179.437 15.2857ZM172.664 17.4984C172.79 17.3114 173.2 16.8751 173.2 16.8751C173.2 16.8751 173.767 16.8127 174.082 16.7504C174.397 16.6881 175.027 16.5946 175.027 16.5946V16.6569C175.027 16.7192 174.901 16.7192 174.901 16.7192C174.586 16.7504 174.491 16.9062 174.46 17.0621C174.46 17.2179 174.365 17.4049 174.365 17.4049C174.365 17.3425 174.302 17.1244 174.145 17.0621C173.956 16.9997 173.578 17.1244 173.389 17.3425C173.231 17.5918 173.389 17.9347 173.389 17.9347C173.074 17.81 173.042 17.5918 173.074 17.5295C173.074 17.436 173.168 17.2802 173.168 17.249C173.168 17.2179 173.137 17.2179 173.137 17.2179C173.137 17.2179 172.885 17.436 172.853 17.5295C172.853 17.623 172.948 17.9035 172.948 17.9035C172.948 17.9035 172.695 17.7165 172.601 17.623C172.569 17.5607 172.664 17.4984 172.664 17.4984ZM172.853 18.6826C172.822 18.6514 172.822 18.6203 172.79 18.6203L172.632 18.4333C172.632 18.4333 172.632 18.4333 172.601 18.4021V18.371V18.3398C172.632 18.2775 172.664 18.2463 172.696 18.2151C172.759 18.2775 173.011 18.4333 173.389 18.4956H173.42V18.4644C173.42 18.4644 173.42 18.371 173.42 18.3398C173.483 18.3398 173.641 18.371 173.83 18.371C173.83 18.371 173.861 18.371 173.893 18.3398C173.893 18.3398 173.893 18.3086 173.893 18.2775V18.184C173.83 18.1216 173.672 17.9347 173.672 17.7788C173.672 17.6853 173.767 17.5918 173.924 17.5295C174.05 17.4984 174.176 17.5607 174.239 17.6542C174.428 17.9658 174.302 18.0905 174.302 18.0905C174.302 18.0905 174.302 18.1216 174.302 18.1528L174.334 18.184C174.334 18.184 174.649 18.0905 174.649 17.7788V17.5918C174.649 17.436 174.649 17.3737 174.743 17.249C174.743 17.249 174.838 17.1867 174.901 17.2802C174.932 17.3114 175.058 17.4984 175.688 17.4049C175.657 17.4672 175.594 17.5607 175.562 17.5918C175.562 17.5918 175.531 17.623 175.531 17.6542C175.531 17.6853 175.562 17.6853 175.594 17.7165C175.688 17.7165 176.381 17.7477 176.98 17.4672C176.98 17.4984 176.948 17.5918 176.917 17.6542C176.885 17.6853 176.885 17.6853 176.917 17.7165C176.917 17.7477 176.948 17.7477 176.98 17.7477C177.043 17.7477 177.641 17.5918 178.24 16.8751C178.24 16.9062 178.303 16.9997 178.366 17.0932C178.397 17.1244 178.429 17.1555 178.46 17.1244C178.46 17.1244 178.492 17.1244 178.776 16.7504C178.776 16.7504 178.775 16.7504 178.807 16.7816C178.839 16.8127 179.122 17.3737 179.28 17.7165C179.28 17.7165 179.437 17.9658 179.626 17.9658H179.752C179.847 17.9658 179.878 17.9658 179.941 17.997L180.036 18.0593C180.099 18.0905 180.162 18.1528 180.256 18.184C179.595 18.1216 178.933 18.0905 178.24 18.0905C176.381 18.0905 174.523 18.2775 172.853 18.6826ZM187.344 20.4278C187.47 20.4901 187.565 20.5525 187.691 20.6148C189.392 21.6432 190.305 22.8898 190.305 24.1987C190.305 25.7569 189.045 27.1905 186.746 28.2812C184.477 29.3408 181.485 29.9329 178.303 29.9329C175.121 29.9329 172.128 29.3408 169.86 28.2812C167.561 27.1905 166.3 25.7569 166.3 24.1987C166.3 23.0144 167.025 21.8614 168.411 20.9264C168.821 20.6459 169.325 20.3655 169.86 20.1162C169.923 20.085 169.986 20.0538 170.018 20.0538C172.254 19.0254 175.184 18.4644 178.271 18.4644C181.453 18.4644 184.446 19.0566 186.714 20.1162C186.935 20.2097 187.124 20.3031 187.344 20.4278ZM180.666 18.184C180.792 18.1528 180.886 18.0593 180.886 18.0593C180.886 18.0593 180.886 18.0593 180.918 18.0593L181.012 18.1216L181.17 18.2151C180.981 18.2151 180.823 18.2151 180.666 18.184ZM182.713 17.8412C182.682 17.8723 182.619 17.9347 182.43 17.81L180.099 16.096L180.036 16.0336C180.036 16.0336 180.036 16.0336 180.036 16.0025H180.067L180.193 16.0648L182.587 17.5607C182.587 17.5607 182.713 17.6542 182.745 17.7165V17.7477C182.745 17.81 182.745 17.81 182.713 17.8412ZM183.564 17.3737V17.4049C183.532 17.4672 183.438 17.4984 183.375 17.4984H183.343L183.28 17.4672L183.217 17.436L181.39 16.4076L180.319 15.7843L180.288 15.7532C180.288 15.7532 180.288 15.7532 180.288 15.722C180.288 15.722 180.288 15.722 180.319 15.722L180.382 15.7532L183.532 17.2802V17.3114L183.564 17.3737ZM184.162 17.0309C184.131 17.0932 184.036 17.1555 183.973 17.1244H183.942L180.414 15.5038V15.4727L180.445 15.4415L183.469 16.5946L184.225 16.8751C184.194 16.9374 184.162 16.9686 184.162 17.0309ZM184.414 16.4388C184.446 16.4388 184.477 16.4699 184.509 16.5323C184.509 16.5634 184.509 16.5946 184.509 16.6258C184.446 16.6881 184.351 16.6569 184.351 16.6569L180.729 15.3168L180.666 15.2857C180.666 15.2857 180.666 15.2545 180.697 15.2545H180.76L184.414 16.4388ZM181.044 13.1977C180.067 13.8833 178.114 14.1326 177.704 14.1326C177.295 14.1326 176.98 14.6312 176.381 15.0364C175.783 15.4727 175.153 15.348 175.153 15.348C175.31 15.1299 175.279 14.8182 175.279 14.8182C175.121 15.0987 174.838 15.3169 174.523 15.4103C174.271 15.4727 174.176 15.4727 173.83 15.4727C173.515 15.4727 173.263 15.5973 173.105 15.6285C172.948 15.6597 172.696 15.5973 172.696 15.5973C172.79 15.535 172.979 15.4727 173.074 15.4727C173.168 15.4727 173.483 15.3792 173.483 15.3792C173.137 15.2857 172.664 15.4727 172.664 15.4727C172.412 15.5662 172.286 15.4727 172.286 15.4727C171.939 15.5662 171.971 15.8466 171.971 15.8466C171.971 15.8466 171.845 15.6597 171.845 15.348C171.845 15.0364 172.569 14.6936 172.569 14.6936C172.948 14.6312 173.137 14.8182 173.137 14.8182C173.231 15.0052 173.389 15.0987 173.515 14.974C173.641 14.8806 173.672 14.7247 173.767 14.7247C173.861 14.7247 173.956 14.7247 173.956 14.7247L174.082 14.6312C174.082 14.6001 174.05 14.6001 174.05 14.6001C174.05 14.6001 173.861 14.6624 173.326 14.6624C172.79 14.6936 172.601 14.3508 172.601 14.3508C173.578 14.0391 174.554 13.1354 175.594 12.9172C176.633 12.699 177.736 12.886 177.736 12.886C177.452 13.2288 177.358 13.4782 177.358 13.4782C179.752 11.9199 181.233 11.4525 181.233 11.4525C182.241 9.64494 183.343 8.83467 184.225 8.27371C185.076 7.71275 186.147 6.40385 186.21 6.24803C186.305 6.06104 186.368 6.06105 186.368 6.06105C186.336 6.7155 185.706 7.40111 185.171 7.93091C184.635 8.42954 183.847 8.99049 183.847 8.99049C183.784 9.05282 183.847 9.08399 183.847 9.08399C183.847 9.08399 184.005 9.11515 184.036 9.11515C184.068 9.11515 184.068 9.17748 184.068 9.17748C183.91 9.42679 183.595 9.64494 183.564 9.67611C183.532 9.73843 183.564 9.73843 183.564 9.73843C183.564 9.73843 183.627 9.73844 183.69 9.7696C183.753 9.80076 183.69 9.86309 183.69 9.86309L183.186 10.3306C183.154 10.3617 183.154 10.3929 183.154 10.3929C183.154 10.3929 183.375 10.3617 183.406 10.3617C183.438 10.3617 183.438 10.4241 183.438 10.4241C183.343 10.6734 183.028 10.9538 182.997 10.985C182.965 11.0473 182.965 11.0473 182.965 11.0473C182.965 11.0473 183.186 11.0473 183.217 11.0473C183.249 11.0473 183.217 11.0785 183.217 11.0785C182.808 11.6706 181.989 12.1381 181.989 12.1381C181.989 12.1381 182.241 12.2316 182.241 12.2627C182.272 12.2939 182.241 12.2939 182.241 12.2939C181.705 12.6679 180.855 12.9484 180.855 12.9484C180.855 12.9484 181.044 13.0419 181.044 13.073C181.075 13.1354 181.044 13.1977 181.044 13.1977ZM182.02 13.821C181.705 13.8521 181.201 13.821 181.201 13.821C181.17 13.821 181.138 13.7898 181.138 13.7586C181.138 13.7275 181.17 13.6963 181.201 13.6963C181.201 13.6963 181.705 13.6963 182.02 13.6963C182.052 13.6963 182.083 13.7275 182.083 13.7586C182.083 13.7898 182.052 13.821 182.02 13.821ZM183.753 12.9172L183.69 12.9484C183.501 13.0107 183.343 13.073 183.154 13.1353C182.997 13.1665 182.839 13.1977 182.713 13.2288C182.65 13.2288 182.587 13.26 182.556 13.26C182.304 13.2912 182.083 13.3223 181.863 13.3535C181.642 13.3847 181.831 13.26 181.863 13.2288H181.894C182.115 13.1977 182.776 13.1354 183.784 12.9172C183.753 12.8549 183.784 12.886 183.753 12.9172ZM182.398 12.8237C182.367 12.7925 182.367 12.8237 182.398 12.8237L182.556 12.6679C182.619 12.6056 182.682 12.6056 182.682 12.6056C182.934 12.5744 183.721 12.4186 184.824 12.0758C184.824 12.0758 184.856 12.0758 184.824 12.1069L184.793 12.1381C184.729 12.2004 184.477 12.2939 184.099 12.4186C183.564 12.5744 182.997 12.699 182.398 12.8237ZM186.62 12.0446C186.62 12.0446 186.588 12.0446 186.588 12.0758C186.494 12.1069 185.675 12.5121 184.288 12.886C184.383 12.8237 184.477 12.7614 184.572 12.6679C185.139 12.5121 185.801 12.2939 186.557 12.0446C186.588 12.0446 186.62 12.0446 186.62 12.0134C186.651 11.9823 186.651 12.0134 186.62 12.0446ZM188.384 10.7357C188.352 10.7669 188.226 10.8292 187.974 10.9538C187.848 11.0162 187.691 11.0785 187.533 11.172C187.47 11.2032 187.407 11.2343 187.313 11.2655C186.872 11.4525 186.336 11.6706 185.738 11.8888C185.549 11.9511 185.36 12.0134 185.171 12.1069C185.202 12.0446 185.265 11.9823 185.297 11.9511C185.486 11.8888 185.643 11.8264 185.832 11.7641C186.494 11.546 187.187 11.2967 187.943 10.9538C188.1 10.8292 188.258 10.7669 188.384 10.7357C188.447 10.6422 188.384 10.7045 188.384 10.7357ZM189.266 9.67611C189.266 9.70727 189.266 9.70727 189.266 9.73843C189.234 9.7696 189.108 9.83193 188.888 9.95659L188.258 10.2994L188.006 10.4241C187.596 10.6422 187.155 10.8292 186.714 11.0162C186.399 11.1408 186.053 11.2966 185.675 11.4213C185.738 11.3278 185.769 11.2343 185.832 11.1408C186.084 11.0473 186.305 10.985 186.557 10.8915C187.218 10.6422 187.911 10.2994 188.793 9.86309C188.888 9.80077 189.203 9.67611 189.266 9.64494C189.234 9.61378 189.234 9.64494 189.266 9.67611ZM190.652 8.21138C190.652 8.33604 189.297 9.11515 188.1 9.70727L187.25 10.1124C186.809 10.2994 186.399 10.4864 185.99 10.6422C186.053 10.5175 186.084 10.3617 186.116 10.2371C187.659 9.70727 189.14 8.99049 190.557 8.14906C190.557 8.14906 190.62 8.11789 190.652 8.11789C190.652 8.14905 190.652 8.14905 190.652 8.21138ZM191.251 6.84015C191.219 6.96481 188.762 8.71001 186.242 9.7696C186.273 9.61378 186.273 9.48912 186.305 9.36446C188.006 8.74118 189.612 7.86858 191.062 6.80899C191.156 6.74666 191.188 6.7155 191.251 6.74666C191.282 6.74666 191.251 6.80899 191.251 6.84015ZM191.786 5.25077C191.692 5.37543 189.077 7.68159 186.305 8.86584C186.305 8.80351 186.305 8.77234 186.305 8.71001C186.305 8.64769 186.305 8.58536 186.305 8.55419C189.203 7.36995 191.692 5.15728 191.692 5.12612C191.755 5.09495 191.786 5.06379 191.818 5.09495C191.881 5.15728 191.849 5.18844 191.786 5.25077ZM16.348 23.2638C16.348 21.612 15.3714 21.5809 14.6468 21.5809H13.7963V20.5213C15.1509 20.5836 16.5685 20.6771 18.2066 20.6771C19.8448 20.6771 21.2939 20.6148 22.7115 20.5213V21.5809H22.2705C21.5774 21.5809 20.5693 21.6432 20.5693 23.2638V28.1254C19.1832 28.5305 15.8754 29.2473 13.2922 29.2473C7.62174 29.2473 3.40039 25.9127 3.40039 19.8357C3.40039 15.1299 6.33013 10.4241 13.4182 10.4241C15.8754 10.4241 18.4901 11.0162 20.6008 11.7018L20.4433 16.8127H18.7422C18.7107 13.8521 16.663 12.0758 13.8593 12.0758C9.25988 12.0758 7.93677 15.5038 7.93677 19.8357C7.93677 24.0117 10.142 27.7203 14.2058 27.7203C14.9934 27.7203 15.7809 27.5644 16.348 27.4398V23.2638ZM24.7277 13.3847C24.7277 12.3251 24.5702 11.8264 22.7745 11.7953V10.7357C24.0346 10.798 25.4522 10.8915 26.8698 10.8915C28.256 10.8915 29.7051 10.8292 31.1227 10.7357V11.7953C29.1695 11.8264 29.012 12.3251 29.012 13.3847V23.0456C29.012 25.9127 30.7762 26.9723 33.3279 26.9723C36.7617 26.9723 37.8958 25.1959 37.8958 21.612V13.3847C37.8958 12.3251 37.7383 11.8264 35.7536 11.7953V10.7357C36.6357 10.798 37.6122 10.8915 38.6203 10.8915C39.4394 10.8915 40.3215 10.8292 41.109 10.7357V11.7953C39.6599 11.8264 39.5024 12.3251 39.5024 13.3847V21.799C39.5024 27.7203 35.9426 29.2473 32.3198 29.2473C27.8149 29.2473 24.7277 28.0007 24.7277 22.7028V13.3847ZM42.2746 27.8449C44.3853 27.8137 44.5428 27.3151 44.5428 26.2555V13.3847C44.5428 12.3251 44.3853 11.8264 42.4006 11.7953V10.7357C43.8183 10.798 45.2674 10.8915 46.6535 10.8915C48.0396 10.8915 49.4887 10.8292 51.3474 10.7357V11.7953C48.9532 11.8264 48.7642 12.3251 48.7642 13.3847V26.5049C48.7642 27.2528 48.7957 27.5333 50.2133 27.5333C53.1745 27.5333 55.7578 26.9723 56.4193 23.5754H57.6164C57.2069 25.3206 56.8288 27.097 56.5768 28.8733C54.5291 28.811 52.2295 28.7175 49.6462 28.7175C46.9055 28.7175 44.4168 28.7798 42.2431 28.8733V27.8449H42.2746ZM58.1204 27.8449C60.2311 27.8137 60.3886 27.3151 60.3886 26.2555V13.3847C60.3886 12.3251 60.2311 11.8264 58.278 11.7953V10.7357C60.5146 10.798 62.7828 10.8915 65.051 10.8915C67.3507 10.8915 69.6189 10.8292 71.9186 10.7357C71.9186 12.2316 72.0131 14.1638 72.1076 15.3168H70.879C70.7215 12.2004 69.0204 12.1069 66.4686 12.1069C65.3661 12.1069 64.6415 12.1069 64.6415 12.886V19.2436H66.7522C68.7053 19.2436 69.3984 18.9942 69.3984 16.9062H70.438C70.3435 17.9658 70.2805 19.0254 70.2805 20.085C70.2805 21.3004 70.3435 22.4846 70.438 23.2949H69.3984V22.547C69.3669 20.7706 68.5793 20.459 66.9412 20.459H64.6415V26.2555C64.6415 27.3151 64.799 27.8137 67.3192 27.8449V28.9045C65.7126 28.8422 63.9799 28.7487 62.5938 28.7487C61.2392 28.7487 59.6641 28.811 58.1204 28.9045V27.8449ZM83.7006 12.5744C83.228 11.9511 82.4405 11.7953 81.9049 11.7953H81.6214V10.7357C82.661 10.798 83.7321 10.8915 84.7402 10.8915C85.7798 10.8915 86.8508 10.8292 87.9219 10.7357L96.9632 22.2665H97.0262V13.3535C97.0262 12.2939 96.8687 11.7953 94.695 11.7641V10.7045C95.8291 10.7669 96.9632 10.8604 97.8453 10.8604C98.7273 10.8604 99.8614 10.798 100.491 10.7045V11.7641C98.8218 11.7953 98.6643 12.2939 98.6643 13.3535V28.8733H96.6482L85.3702 14.3508H85.3072V26.2555C85.3072 27.3151 85.4647 27.8137 87.6699 27.8449V28.9045C86.5358 28.8422 85.4017 28.7487 84.5197 28.7487C83.6376 28.7487 82.5035 28.811 81.3694 28.9045V27.8449C83.5431 27.8137 83.7321 27.3151 83.7321 26.2555L83.7006 12.5744ZM101.531 27.8449C103.705 27.8137 103.894 27.3151 103.894 26.2555V13.3847C103.894 12.3251 103.736 11.8264 101.752 11.7953V10.7357C103.988 10.798 106.256 10.8915 108.525 10.8915C110.824 10.8915 113.093 10.8292 115.392 10.7357C115.392 12.2316 115.487 14.1638 115.581 15.3792H114.353C114.195 12.2004 112.494 12.1069 109.942 12.1069H108.934C108.304 12.1069 108.115 12.3251 108.115 12.8549V18.9319H110.068C112.021 18.9319 112.715 18.4333 112.715 16.5011H113.754C113.66 17.4984 113.597 18.5268 113.597 19.524C113.597 20.7394 113.66 21.9237 113.754 22.7028H112.715C112.715 20.6148 112.021 20.1162 110.068 20.1162H108.115V26.3802C108.115 27.097 108.462 27.3463 109.155 27.3463H110.226C113.061 27.3463 115.14 26.9411 115.739 23.887H116.904C116.463 25.5387 116.211 27.1905 115.959 28.8422C113.597 28.7798 111.234 28.6864 108.871 28.6864C106.414 28.6864 103.957 28.7487 101.5 28.8422L101.531 27.8449ZM116.463 10.7357C117.723 10.798 118.952 10.8915 120.212 10.8915C121.409 10.8915 122.575 10.8292 123.772 10.7357V11.7953H123.268C122.606 11.8888 122.575 12.2004 122.575 12.5121C122.575 12.7925 122.701 13.3535 122.858 13.9456L125.82 24.261H125.883L128.56 15.6908L127.93 13.1977C127.615 11.9511 127.426 11.7953 126.355 11.7953H125.788V10.7357C127.048 10.798 128.371 10.8915 129.631 10.8915C131.018 10.8915 132.435 10.8292 133.853 10.7357V11.7953H133.412C132.561 11.7953 132.089 12.0134 132.089 12.4809C132.089 12.886 132.215 13.3535 132.404 14.2884L134.703 24.6661H134.766L138.2 14.0391C138.389 13.4158 138.547 12.9484 138.547 12.4497C138.547 11.8888 138.011 11.7641 137.192 11.7641H136.593V10.7045C137.57 10.7669 138.736 10.8604 139.492 10.8604C140.311 10.8604 141.13 10.798 141.949 10.7045V11.7641C140.815 11.7641 140.279 12.6056 139.87 13.8521L134.829 29.0292H132.089L129.316 18.5891H129.253L125.82 29.0292H123.079L118.416 13.7586C117.881 12.0446 117.755 11.8264 116.4 11.8264L116.463 10.7357ZM153.447 16.096H151.967C151.904 13.5405 151.148 11.9199 148.218 11.9199C146.8 11.9199 145.414 12.5121 145.414 14.3196C145.414 17.9658 154.644 16.6258 154.644 23.2326C154.644 27.4709 151.431 29.2161 147.682 29.2161C145.761 29.2161 143.335 28.624 141.665 27.6268C141.76 26.162 141.791 24.0429 141.791 22.5781H143.556C143.556 25.3206 144.658 27.5644 147.525 27.5644C149.321 27.5644 150.959 26.8477 150.959 25.1648C150.959 20.8953 141.886 22.2353 141.886 15.7843C141.886 12.3562 144.438 10.3929 148.281 10.3929C150.077 10.3929 151.904 10.7669 153.668 11.1097L153.447 16.096Z" fill="url(#paint1_linear_92_42)" shape-rendering="crispEdges"/>
    </g>
    <defs>
        <filter id="filter0_d_92_42" x="0.00039053" y="0.00039053" width="203.8" height="41.8" filterUnits="userSpaceOnUse" color-interpolation-filters="sRGB">
            <feFlood flood-opacity="0" result="BackgroundImageFix"/>
            <feColorMatrix in="SourceAlpha" type="matrix" values="0 0 0 0 0 0 0 0 0 0 0 0 0 0 0 0 0 0 127 0" result="hardAlpha"/>
            <feOffset dx="4" dy="4"/>
            <feGaussianBlur stdDeviation="3.7"/>
            <feComposite in2="hardAlpha" operator="out"/>
            <feColorMatrix type="matrix" values="0 0 0 0 0.821594 0 0 0 0 0.677592 0 0 0 0 0.459642 0 0 0 0.12 0"/>
            <feBlend mode="normal" in2="BackgroundImageFix" result="effect1_dropShadow_92_42"/>
            <feBlend mode="normal" in="SourceGraphic" in2="effect1_dropShadow_92_42" result="shape"/>
        </filter>
        <linearGradient id="paint0_linear_92_42" x1="186.416" y1="30.5009" x2="166.011" y2="12.379" gradientUnits="userSpaceOnUse">
            <stop stop-color="#AD8D55" stop-opacity="0.9"/>
            <stop offset="0.259615" stop-color="#D2AD75"/>
            <stop offset="0.466346" stop-color="#E8CDA0"/>
            <stop offset="0.8125" stop-color="#D2AD75"/>
            <stop offset="1" stop-color="#AD8D55" stop-opacity="0.9"/>
        </linearGradient>
        <linearGradient id="paint1_linear_92_42" x1="163.539" y1="32.3264" x2="144.977" y2="-39.2687" gradientUnits="userSpaceOnUse">
            <stop stop-color="#AD8D55" stop-opacity="0.9"/>
            <stop offset="0.259615" stop-color="#D2AD75"/>
            <stop offset="0.466346" stop-color="#E8CDA0"/>
            <stop offset="0.8125" stop-color="#D2AD75"/>
            <stop offset="1" stop-color="#AD8D55" stop-opacity="0.9"/>
        </linearGradient>
    </defs>
</svg>
